<?xml version="1.0" standalone="no"?>
<!DOCTYPE svg PUBLIC "-//W3C//DTD SVG 1.1//EN" "http://www.w3.org/Graphics/SVG/1.1/DTD/svg11.dtd" >
<svg>
<metadata>
Created by FontForge 20090622 at Sat Mar 23 11:59:03 2019
 By deploy user
Copyright (c) 2014 by Fontfabric LLC. All rights reserved.
</metadata>
<defs>
<font id="Panton-Bold" horiz-adv-x="553" >
  <font-face 
    font-family="Panton"
    font-weight="700"
    font-stretch="normal"
    units-per-em="1000"
    panose-1="0 0 8 0 0 0 0 0 0 0"
    ascent="759"
    descent="-241"
    x-height="518"
    cap-height="710"
    bbox="-203.897 -258 1159 970.758"
    underline-thickness="50"
    underline-position="-50"
    unicode-range="U+0020-U+FB02"
  />
<missing-glyph horiz-adv-x="686" 
d="M616 676v-642q0 -19 -7.5 -26.5t-26.5 -7.5h-473q-19 0 -26.5 7.5t-7.5 26.5v642q0 19 7.5 26.5t26.5 7.5h473q19 0 26.5 -7.5t7.5 -26.5zM491 593h-291v-476h291v476z" />
    <glyph glyph-name="fi" unicode="fi" horiz-adv-x="594" 
d="M331 740h174q17 0 24 -7t7 -25v-44q0 -18 -7 -25t-24 -7h-174q-60 0 -86.5 -24.5t-26.5 -78.5v-11h287q17 0 24 -6.5t7 -23.5v-457q0 -17 -7 -24t-24 -7h-54q-17 0 -24 7t-7 24v380h-202v-380q0 -17 -6.5 -24t-24.5 -7h-53q-18 0 -25 7t-7 24v380h-60q-17 0 -23.5 7
t-6.5 24v46q0 17 6.5 23.5t23.5 6.5h60v11q0 211 229 211z" />
    <glyph glyph-name="fl" unicode="fl" horiz-adv-x="571" 
d="M331 740h148q17 0 24 -7t7 -24v-678q0 -17 -7 -24t-24 -7h-54q-18 0 -24.5 7t-6.5 24v601h-63q-59 0 -86 -24t-27 -79v-11h78q18 0 24.5 -6.5t6.5 -23.5v-46q0 -17 -6.5 -24t-24.5 -7h-78v-380q0 -17 -6.5 -24t-24.5 -7h-53q-18 0 -25 7t-7 24v380h-60q-17 0 -23.5 7
t-6.5 24v46q0 17 6.5 23.5t23.5 6.5h60v12q0 210 229 210z" />
    <glyph glyph-name=".notdef" horiz-adv-x="686" 
d="M616 676v-642q0 -19 -7.5 -26.5t-26.5 -7.5h-473q-19 0 -26.5 7.5t-7.5 26.5v642q0 19 7.5 26.5t26.5 7.5h473q19 0 26.5 -7.5t7.5 -26.5zM491 593h-291v-476h291v476z" />
    <glyph glyph-name=".null" horiz-adv-x="0" 
 />
    <glyph glyph-name="nonmarkingreturn" horiz-adv-x="333" 
 />
    <glyph glyph-name="space" unicode=" " horiz-adv-x="219" 
 />
    <glyph glyph-name="exclam" unicode="!" horiz-adv-x="241" 
d="M92 740h58q17 0 24.5 -7t6.5 -24l-14 -475q-1 -17 -7.5 -23.5t-23.5 -6.5h-31q-17 0 -23.5 6.5t-7.5 23.5l-13 475q-1 17 6.5 24t24.5 7zM116 130h8q36 0 50 -14t14 -50v-9q0 -37 -14 -50.5t-50 -13.5h-8q-36 0 -50 13.5t-14 50.5v9q0 36 14 50t50 14z" />
    <glyph glyph-name="quotedbl" unicode="&#x22;" horiz-adv-x="348" 
d="M160 683l-13 -203q-1 -17 -6.5 -21.5t-23.5 -4.5h-32q-18 0 -23 4.5t-5 21.5v203q0 17 5.5 22t22.5 5h47q18 0 23.5 -5t4.5 -22zM299 683l-13 -203q-1 -17 -6.5 -21.5t-23.5 -4.5h-32q-18 0 -23.5 4.5t-5.5 21.5v203q0 17 5.5 22t23.5 5h46q18 0 24 -5t5 -22z" />
    <glyph glyph-name="numbersign" unicode="#" horiz-adv-x="711" 
d="M581 502h81q18 0 23 -6.5t0 -23.5l-14 -48q-9 -28 -41 -28h-80l-36 -121h81q33 0 23 -30l-14 -48q-9 -28 -41 -28h-81l-41 -138q-9 -31 -40 -31h-49q-33 0 -23 31l42 138h-121l-42 -138q-7 -31 -39 -31h-50q-32 0 -22 31l41 138h-79q-18 0 -23 6.5t0 23.5l14 48
q9 28 41 28h79l36 121h-80q-33 0 -23 30l14 48q7 28 41 28h79l41 135q8 30 39 30h50q17 0 22 -6.5t0 -23.5l-41 -135h121l41 135q5 17 13.5 23.5t25.5 6.5h50q17 0 22 -6.5t0 -23.5zM439 396h-121l-37 -121h121z" />
    <glyph glyph-name="dollar" unicode="$" horiz-adv-x="592" 
d="M281 774h55q17 0 23.5 -7t6.5 -24v-49q67 -9 110.5 -43t73.5 -96q9 -18 4.5 -29t-24.5 -20l-49 -22q-17 -8 -27 -4t-20 22q-21 41 -50 59t-78 18q-64 0 -94 -19.5t-30 -62.5q0 -26 20 -43.5t49 -23.5q29 -7 72 -11q78 -7 133 -26q38 -14 59 -32q53 -49 53 -140
q0 -82 -52.5 -135t-149.5 -67v-52q0 -17 -6.5 -24t-23.5 -7h-55q-17 0 -24 7t-7 24v51q-151 20 -200 154q-12 32 23 46l49 18q19 7 29 2t18 -24q33 -84 135 -84q138 0 138 88q0 44 -43 62q-35 13 -99 19q-75 7 -134 29q-35 13 -58 33q-54 49 -54 136q0 82 50.5 133t145.5 64
v49q0 17 7 24t24 7z" />
    <glyph glyph-name="percent" unicode="%" horiz-adv-x="820" 
d="M32 506v71q0 70 43 109.5t123 39.5t123 -39.5t43 -109.5v-71q0 -70 -43 -108.5t-123 -38.5t-123 38.5t-43 108.5zM650 710h44q17 0 21 -10t-5 -23l-476 -647q-15 -20 -25.5 -25t-41.5 -5h-39q-18 0 -22.5 10t5.5 24l476 648q13 18 24 23t39 5zM267 512v60q0 61 -69 61
t-69 -61v-60q0 -61 69 -61t69 61zM455 131v71q0 70 43 109.5t123 39.5t123 -39.5t43 -109.5v-71q0 -70 -43 -108.5t-123 -38.5t-123 38.5t-43 108.5zM690 138v59q0 61 -69 61t-69 -61v-59q0 -62 69 -62t69 62z" />
    <glyph glyph-name="ampersand" unicode="&#x26;" horiz-adv-x="677" 
d="M104 542q0 77 52 130q51 53 142 53q77 0 132 -50q54 -51 54 -124q0 -62 -32 -106t-101 -77l-10 -5l123 -126l62 60q20 21 41 0l40 -40q16 -18 -3 -37l-65 -63l121 -127q27 -30 -15 -30h-71q-28 0 -46 18l-64 65q-63 -59 -107 -77q-47 -21 -104 -21q-95 0 -155 60
q-60 59 -60 153q0 126 132 196q-66 70 -66 148zM375 550q0 30 -22 52t-55 22q-39 0 -62 -23.5t-23 -59.5q0 -26 11.5 -47t42.5 -52l36 19q39 18 55.5 38t16.5 51zM389 165l-145 149q-88 -42 -88 -118q0 -44 29.5 -72.5t73.5 -28.5q34 0 61 15.5t69 54.5z" />
    <glyph glyph-name="quotesingle" unicode="'" horiz-adv-x="210" 
d="M160 683l-13 -203q-1 -17 -6.5 -21.5t-23.5 -4.5h-32q-18 0 -23 4.5t-5 21.5v203q0 17 5.5 22t22.5 5h47q18 0 23.5 -5t4.5 -22z" />
    <glyph glyph-name="parenleft" unicode="(" horiz-adv-x="287" 
d="M54 100v510q0 94 35 152.5t107 92.5q18 6 25.5 2.5t16.5 -21.5l22 -43q6 -17 2.5 -25t-19.5 -17q-39 -19 -57 -49.5t-18 -82.5v-528q0 -52 18 -82.5t57 -49.5q17 -10 20.5 -18t-3.5 -24l-22 -43q-9 -18 -16.5 -21.5t-25.5 2.5q-72 34 -107 92.5t-35 152.5z" />
    <glyph glyph-name="parenright" unicode=")" horiz-adv-x="287" 
d="M30 793l21 43q17 32 42 19q72 -34 107 -92.5t35 -152.5v-510q0 -94 -35 -152.5t-107 -92.5q-25 -13 -42 19l-21 43q-6 17 -2.5 25t19.5 17q39 19 57 49.5t18 82.5v528q0 52 -18 82.5t-57 49.5q-16 9 -19.5 17t2.5 25z" />
    <glyph glyph-name="asterisk" unicode="*" horiz-adv-x="363" 
d="M171 673h34q22 0 16 -19l-11 -87l79 38q18 9 25 -10l10 -32q6 -20 -14 -22l-86 -16l60 -63q15 -15 -2 -26l-27 -20q-18 -12 -26 6l-41 75l-41 -75q-7 -18 -26 -7l-27 21q-19 12 -2 26l61 63l-86 16q-20 3 -14 22l10 32q8 20 25 10l78 -38l-11 87q-4 19 16 19z" />
    <glyph glyph-name="plus" unicode="+" horiz-adv-x="543" 
d="M326 382h148q19 0 26.5 -7.5t7.5 -26.5v-41q0 -19 -7.5 -26.5t-26.5 -7.5h-148v-148q0 -19 -8 -26.5t-27 -7.5h-40q-19 0 -26.5 7.5t-7.5 26.5v148h-147q-19 0 -26.5 7.5t-7.5 26.5v41q0 19 7.5 26.5t26.5 7.5h147v147q0 19 7.5 26.5t26.5 7.5h40q19 0 27 -7.5t8 -26.5
v-147z" />
    <glyph glyph-name="comma" unicode="," horiz-adv-x="220" 
d="M173 87l-61 -178q-6 -18 -14 -24.5t-24 -6.5h-22q-15 0 -19 4.5t-2 18.5l25 186q3 21 12 28.5t29 7.5h45q44 0 31 -36z" />
    <glyph glyph-name="hyphen" unicode="-" horiz-adv-x="412" 
d="M91 321h230q19 0 26.5 -7.5t7.5 -26.5v-44q0 -19 -7.5 -26.5t-26.5 -7.5h-230q-19 0 -26.5 7.5t-7.5 26.5v44q0 19 7.5 26.5t26.5 7.5z" />
    <glyph glyph-name="period" unicode="." horiz-adv-x="227" 
d="M110 130h7q37 0 50.5 -14t13.5 -50v-9q0 -37 -13.5 -50.5t-50.5 -13.5h-7q-37 0 -50.5 13.5t-13.5 50.5v9q0 36 13.5 50t50.5 14z" />
    <glyph glyph-name="slash" unicode="/" horiz-adv-x="440" 
d="M417 683l-266 -715q-7 -16 -15.5 -22t-25.5 -6h-56q-33 0 -21 28l266 715q7 16 15.5 22t25.5 6h57q32 0 20 -28z" />
    <glyph glyph-name="zero" unicode="0" horiz-adv-x="634" 
d="M52 227v257q0 112 70.5 176.5t194.5 64.5t194 -64.5t70 -176.5v-257q0 -112 -70 -177t-194 -65q-125 0 -195 65t-70 177zM456 227v257q0 59 -36.5 91.5t-102.5 32.5t-102.5 -32.5t-36.5 -91.5v-257q0 -59 36.5 -92t102.5 -33t102.5 33t36.5 92z" />
    <glyph glyph-name="one" unicode="1" horiz-adv-x="440" 
d="M284 710h48q19 0 26.5 -7.5t7.5 -26.5v-642q0 -19 -7.5 -26.5t-26.5 -7.5h-57q-19 0 -26.5 7.5t-7.5 26.5v524l-140 -78q-20 -11 -31 -8t-20 21l-25 45q-8 17 -4.5 26.5t20.5 19.5l195 112q23 14 48 14z" />
    <glyph glyph-name="two" unicode="2" horiz-adv-x="598" 
d="M57 560q67 165 263 165q109 0 177 -65q66 -66 66 -158q0 -108 -60 -166q-59 -58 -219 -121q-24 -8 -30 -11l-14 -6q-7 -3 -28 -16q-29 -16 -29 -47v-18h334q19 0 26.5 -7.5t7.5 -26.5v-49q0 -19 -7.5 -26.5t-26.5 -7.5h-431q-19 0 -26.5 7.5t-7.5 26.5v75q0 98 63 148
q51 40 134 73q96 37 129 62q53 41 53 104q0 48 -32.5 80t-83.5 32q-99 0 -138 -89q-8 -19 -17 -23.5t-27 1.5l-54 20q-34 13 -22 43z" />
    <glyph glyph-name="three" unicode="3" horiz-adv-x="613" 
d="M558 522q0 -106 -78 -151q101 -47 101 -169q0 -102 -66 -159.5t-191 -57.5q-212 0 -271 168q-11 32 22 44l54 19q18 6 27 1.5t17 -22.5q19 -50 51.5 -71.5t99.5 -21.5q126 0 126 102q0 100 -104 100h-104q-19 0 -26.5 7t-7.5 27v45q0 19 7.5 26.5t26.5 7.5h86
q48 0 76.5 25.5t28.5 68.5q0 97 -112 97q-64 0 -94 -20t-48 -72q-7 -18 -16 -22.5t-28 1.5l-54 19q-33 12 -22 44q30 85 93.5 126t170.5 41q111 0 173 -53.5t62 -149.5z" />
    <glyph glyph-name="four" unicode="4" horiz-adv-x="631" 
d="M503 276h69q19 0 26.5 -7.5t7.5 -26.5v-43q0 -19 -7 -26.5t-27 -7.5h-69v-131q0 -19 -7.5 -26.5t-26.5 -7.5h-49q-19 0 -26.5 7.5t-7.5 26.5v131h-330q-19 0 -26.5 7.5t-7.5 26.5v36q0 25 12 41l332 412q20 24 48 24h55q19 0 26.5 -7t7.5 -27v-402zM386 276v268
l-217 -268h217z" />
    <glyph glyph-name="five" unicode="5" horiz-adv-x="596" 
d="M159 710h349q19 0 26.5 -7.5t7.5 -26.5v-49q0 -19 -7.5 -26.5t-26.5 -7.5h-286l-15 -147h121q118 0 181 -63q62 -65 62 -162q0 -101 -67 -168q-68 -68 -184 -68q-213 0 -271 163q-12 32 21 44l55 19q18 7 27 2.5t16 -23.5q33 -88 151 -88q55 0 87.5 31.5t32.5 87.5
q0 50 -32 79.5t-86 29.5h-211q-22 0 -30 9.5t-6 30.5l30 291q3 28 15 38.5t40 10.5z" />
    <glyph glyph-name="six" unicode="6" horiz-adv-x="634" 
d="M177 465v-42q69 19 154 19q259 0 259 -228q0 -106 -71.5 -167.5t-197.5 -61.5q-130 0 -200 68.5t-70 192.5v218q0 125 70 193t200 68q199 0 258 -158q7 -18 2.5 -27t-23.5 -17l-53 -19q-18 -6 -26.5 -2t-16.5 23q-35 83 -141 83q-144 0 -144 -143zM177 302v-57
q0 -143 144 -143q70 0 107 28.5t37 83.5q0 57 -34 84t-109 27q-97 0 -145 -23z" />
    <glyph glyph-name="seven" unicode="7" horiz-adv-x="539" 
d="M57 710h432q19 0 26.5 -7.5t7.5 -26.5v-35q0 -24 -10 -48l-253 -563q-8 -19 -19.5 -24.5t-43.5 -5.5h-55q-33 0 -17 34l254 559h-322q-19 0 -26.5 7.5t-7.5 26.5v49q0 19 7.5 26.5t26.5 7.5z" />
    <glyph glyph-name="eight" unicode="8" horiz-adv-x="627" 
d="M65 525q0 95 65.5 147.5t182.5 52.5q122 0 186 -49t64 -141q0 -105 -102 -163q124 -56 124 -178q0 -100 -67.5 -154.5t-204.5 -54.5q-271 0 -271 193q0 114 122 176q-99 57 -99 171zM441 523q0 45 -33 69t-94 24q-123 0 -123 -93q0 -43 27.5 -65t92.5 -39l40 -10
q90 37 90 114zM454 192q0 31 -25 64q-8 9 -41 24q-7 3 -29.5 9.5t-25.5 7.5q-6 1 -31.5 6.5t-31.5 7.5q-101 -35 -101 -120q0 -97 145 -97q74 0 107 24.5t33 73.5z" />
    <glyph glyph-name="nine" unicode="9" horiz-adv-x="634" 
d="M457 245v42q-69 -19 -154 -19q-259 0 -259 228q0 106 71.5 167.5t197.5 61.5q129 0 199 -68.5t70 -192.5v-218q0 -124 -70 -192.5t-199 -68.5q-197 0 -259 158q-6 18 -1.5 27t23.5 17l53 19q18 6 26.5 2t16.5 -23q35 -83 141 -83q144 0 144 143zM457 408v57
q0 70 -37 106.5t-107 36.5t-107 -28.5t-37 -83.5q0 -57 34 -84t109 -27q97 0 145 23z" />
    <glyph glyph-name="colon" unicode=":" horiz-adv-x="249" 
d="M121 496h7q37 0 50.5 -13.5t13.5 -50.5v-9q0 -36 -13.5 -50t-50.5 -14h-7q-36 0 -50 13.5t-14 50.5v9q0 37 14 50.5t50 13.5zM121 130h7q37 0 50.5 -14t13.5 -50v-9q0 -37 -13.5 -50.5t-50.5 -13.5h-7q-36 0 -50 13.5t-14 50.5v9q0 36 14 50t50 14z" />
    <glyph glyph-name="semicolon" unicode=";" horiz-adv-x="261" 
d="M137 496h7q37 0 50.5 -13.5t13.5 -50.5v-9q0 -36 -13.5 -50t-50.5 -14h-7q-36 0 -50 13.5t-14 50.5v9q0 37 14 50.5t50 13.5zM190 87l-61 -178q-6 -18 -14 -24.5t-25 -6.5h-21q-15 0 -19.5 4.5t-2.5 18.5l26 186q2 21 11 28.5t29 7.5h45q44 0 32 -36z" />
    <glyph glyph-name="less" unicode="&#x3c;" horiz-adv-x="483" 
d="M56 385l337 183q36 20 36 -26v-43q0 -26 -6 -36t-25 -20l-224 -113v-5l223 -111q21 -10 26.5 -19.5t5.5 -36.5v-48q0 -46 -36 -26l-337 184q-16 9 -21.5 17t-5.5 25v32q0 17 6 26t21 17z" />
    <glyph glyph-name="equal" unicode="=" horiz-adv-x="588" 
d="M92 482h404q19 0 26.5 -8t7.5 -27v-44q0 -19 -7.5 -26.5t-26.5 -7.5h-404q-20 0 -27 7.5t-7 26.5v44q0 20 7.5 27.5t26.5 7.5zM92 284h404q19 0 26.5 -7.5t7.5 -26.5v-44q0 -19 -7.5 -26.5t-26.5 -7.5h-404q-20 0 -27 7t-7 27v44q0 20 7 27t27 7z" />
    <glyph glyph-name="greater" unicode="&#x3e;" horiz-adv-x="483" 
d="M54 495v48q0 23 8 29t28 -4l336 -183q17 -9 22.5 -17t5.5 -25v-32q0 -17 -6 -25.5t-22 -17.5l-336 -183q-20 -9 -28 -3.5t-8 29.5v43q0 25 6 35t25 20l224 113v6l-223 111q-21 10 -26.5 19.5t-5.5 36.5z" />
    <glyph glyph-name="question" unicode="?" horiz-adv-x="569" 
d="M44 574q64 165 261 165q112 0 180 -59q66 -59 66 -148q0 -66 -22 -104q-1 -2 -5.5 -9.5t-5.5 -9.5t-5 -8t-5.5 -8.5t-5.5 -7.5t-7 -7.5t-7 -6.5t-9 -8q-34 -26 -63 -42q-6 -4 -13 -7.5t-10.5 -6t-5.5 -3.5q-63 -38 -63 -87q0 -19 -7 -25.5t-25 -6.5h-40q-18 0 -25 6.5
t-7 25.5q0 60 23 97t73 70l10 6q9 7 19.5 13t11.5 7q32 24 35 28q1 1 7.5 9t11.5 15.5t7 13.5q9 27 9 51q0 47 -33 74.5t-92 27.5q-56 0 -90 -22.5t-56 -71.5q-8 -19 -16.5 -23t-26.5 2l-48 17q-35 11 -21 43zM269 130h8q36 0 50 -14t14 -50v-9q0 -37 -14 -50.5t-50 -13.5
h-8q-36 0 -50 13.5t-14 50.5v9q0 36 14 50t50 14z" />
    <glyph glyph-name="at" unicode="@" horiz-adv-x="902" 
d="M44 255v75q0 182 105 289q105 106 300 106t301 -106q105 -106 105 -289v-75q0 -98 -47.5 -156t-123.5 -58q-38 3 -51.5 9.5t-34.5 28.5q-81 -27 -177 -27q-176 0 -176 168v144q0 168 176 168q111 0 185 -30q19 -7 26 -17t7 -30v-289q0 -40 47 -40q35 0 56.5 31.5
t21.5 95.5v79q0 148 -81.5 230t-233.5 82q-151 0 -233 -82t-82 -230v-79q0 -147 81 -225.5t234 -78.5q91 0 217 25q17 3 17 -11v-44q0 -20 -18 -26q-110 -25 -216 -25q-195 0 -300 101.5t-105 285.5zM533 432q-44 11 -98 11q-48 0 -70.5 -20t-22.5 -62v-139q0 -42 22 -61.5
t71 -19.5q57 0 107 15v263q0 9 -9 13z" />
    <glyph glyph-name="A" unicode="A" horiz-adv-x="658" 
d="M409 684l250 -651q12 -33 -23 -33h-52q-31 0 -43.5 6t-18.5 24l-46 129h-276l-47 -129q-6 -18 -18.5 -24t-43.5 -6h-46q-35 0 -23 33l250 650q7 17 15.5 22.5t26.5 5.5h53q32 0 42 -27zM441 262l-76 211q-15 46 -23 105l-1 17h-7q0 -58 -22 -121l-77 -212h206z" />
    <glyph glyph-name="B" unicode="B" horiz-adv-x="650" 
d="M104 710h277q97 0 151 -48.5t54 -138.5q0 -106 -76 -151v-4q102 -36 102 -173q0 -91 -61 -143t-164 -52h-283q-19 0 -27 7.5t-8 26.5v642q0 19 8 26.5t27 7.5zM195 417h171q92 0 92 88t-92 88h-171v-176zM479 209q0 94 -95 94h-189v-186h189q95 0 95 92z" />
    <glyph glyph-name="C" unicode="C" horiz-adv-x="640" 
d="M49 246v219q0 122 75 191t211 69q213 0 272 -167q12 -32 -21 -44l-55 -19q-18 -6 -27 -1.5t-16 22.5q-33 92 -153 92q-77 0 -118.5 -36.5t-41.5 -105.5v-221q0 -69 41.5 -106t118.5 -37q119 0 153 93q8 19 17 23.5t27 -2.5l54 -19q33 -12 22 -44q-58 -168 -273 -168
q-136 0 -211 69t-75 192z" />
    <glyph glyph-name="D" unicode="D" horiz-adv-x="666" 
d="M104 710h224q137 0 213.5 -70t76.5 -194v-182q0 -124 -76.5 -194t-213.5 -70h-224q-19 0 -27 7.5t-8 26.5v642q0 19 8 26.5t27 7.5zM493 263v184q0 71 -42.5 108.5t-121.5 37.5h-134v-476h134q79 0 121.5 37.5t42.5 108.5z" />
    <glyph glyph-name="E" unicode="E" horiz-adv-x="579" 
d="M104 710h397q19 0 27 -7.5t8 -26.5v-49q0 -19 -8 -26.5t-27 -7.5h-306v-175h259q19 0 26.5 -7.5t7.5 -26.5v-49q0 -19 -7.5 -26.5t-26.5 -7.5h-259v-184h317q19 0 26.5 -7.5t7.5 -26.5v-49q0 -19 -7.5 -26.5t-26.5 -7.5h-408q-19 0 -27 7.5t-8 26.5v642q0 19 8 26.5
t27 7.5z" />
    <glyph glyph-name="F" unicode="F" horiz-adv-x="564" 
d="M104 710h397q19 0 27 -7.5t8 -26.5v-49q0 -19 -8 -26.5t-27 -7.5h-306v-184h257q19 0 27 -7.5t8 -26.5v-49q0 -19 -7.5 -26.5t-27.5 -7.5h-257v-258q0 -19 -7.5 -26.5t-26.5 -7.5h-57q-19 0 -27 7.5t-8 26.5v642q0 19 8 26.5t27 7.5z" />
    <glyph glyph-name="G" unicode="G" horiz-adv-x="662" 
d="M346 389h240q20 0 27 -7.5t7 -26.5v-134q0 -105 -75 -170q-77 -66 -210 -66q-136 0 -211 69t-75 192v219q0 122 75 191t211 69q213 0 272 -167q12 -32 -21 -44l-55 -19q-18 -7 -27 -2.5t-16 23.5q-33 92 -153 92q-78 0 -119 -36.5t-41 -105.5v-221q0 -70 41.5 -106.5
t118.5 -36.5q74 0 118 33t44 85v52h-151q-19 0 -26.5 8t-7.5 27v48q0 19 7.5 26.5t26.5 7.5z" />
    <glyph glyph-name="H" unicode="H" horiz-adv-x="686" 
d="M525 710h57q19 0 27 -7.5t8 -26.5v-642q0 -19 -8 -26.5t-27 -7.5h-57q-19 0 -26.5 7.5t-7.5 26.5v267h-296v-267q0 -19 -7.5 -26.5t-26.5 -7.5h-57q-19 0 -27 7.5t-8 26.5v642q0 19 8 26.5t27 7.5h57q19 0 26.5 -7.5t7.5 -26.5v-258h296v258q0 19 7.5 26.5t26.5 7.5z" />
    <glyph glyph-name="I" unicode="I" horiz-adv-x="264" 
d="M69 34v642q0 19 8 26.5t27 7.5h57q19 0 26.5 -7.5t7.5 -26.5v-642q0 -19 -7.5 -26.5t-26.5 -7.5h-57q-19 0 -27 7.5t-8 26.5z" />
    <glyph glyph-name="J" unicode="J" horiz-adv-x="577" 
d="M433 710h59q18 0 25.5 -7.5t7.5 -25.5v-443q0 -118 -66 -183.5t-189 -65.5q-188 0 -242 167q-12 32 21 44l55 19q17 7 26 2.5t17 -23.5q16 -48 44.5 -70t78.5 -22q129 0 129 131v444q0 18 7.5 25.5t26.5 7.5z" />
    <glyph glyph-name="K" unicode="K" horiz-adv-x="627" 
d="M482 278l127 -244q18 -34 -17 -34h-58q-33 0 -46 5.5t-22 24.5l-101 203q-21 41 -44 56q-25 14 -75 14h-51v-269q0 -19 -7.5 -26.5t-26.5 -7.5h-57q-19 0 -27 7.5t-8 26.5v642q0 19 8 26.5t27 7.5h57q19 0 26.5 -7.5t7.5 -26.5v-259h40h13l201 265q13 18 25.5 23t42.5 5
h64q17 0 21.5 -10t-5.5 -23l-223 -285q64 -28 108 -114z" />
    <glyph glyph-name="L" unicode="L" horiz-adv-x="528" 
d="M104 710h57q19 0 26.5 -7.5t7.5 -26.5v-559h287q19 0 26.5 -7.5t7.5 -26.5v-49q0 -19 -7.5 -26.5t-26.5 -7.5h-378q-19 0 -27 7.5t-8 26.5v642q0 19 8 26.5t27 7.5z" />
    <glyph glyph-name="M" unicode="M" horiz-adv-x="811" 
d="M658 710h49q19 0 26.5 -7.5t7.5 -26.5v-642q0 -19 -7.5 -26.5t-26.5 -7.5h-51q-19 0 -26.5 7.5t-7.5 26.5v305q0 89 24 199h-7q-27 -82 -82 -183l-98 -173q-15 -24 -39 -24h-32q-16 0 -23.5 4.5t-15.5 19.5l-100 174q-44 74 -77 182h-7q21 -102 21 -200v-304
q0 -19 -7.5 -26.5t-26.5 -7.5h-48q-19 0 -27 7.5t-8 26.5v642q0 19 8 26.5t27 7.5h44q21 0 30.5 -5t17.5 -21l208 -372l208 371q9 17 17.5 22t28.5 5z" />
    <glyph glyph-name="N" unicode="N" horiz-adv-x="696" 
d="M539 710h53q19 0 26.5 -7.5t7.5 -26.5v-642q0 -19 -7.5 -26.5t-26.5 -7.5h-57q-22 0 -33 17l-245 362q-12 17 -25 41t-23 45.5t-18 40.5l-12.5 30.5t-3.5 10.5h-6q0 1 2.5 -11.5t5.5 -33.5t6 -46.5t5.5 -54.5t2.5 -53v-314q0 -19 -7.5 -26.5t-26.5 -7.5h-53
q-19 0 -27 7.5t-8 26.5v642q0 19 8 26.5t27 7.5h57q23 0 33 -16l243 -360q20 -30 41 -72.5t32.5 -70.5t10.5 -27h6l-1 6l-3 17.5l-4.5 27t-5 34t-4.5 37.5t-3 40.5t-1 39.5v310q0 19 7.5 26.5t26.5 7.5z" />
    <glyph glyph-name="O" unicode="O" horiz-adv-x="669" 
d="M49 246v218q0 123 75 192t211 69q135 0 210 -69t75 -192v-218q0 -123 -75 -192t-210 -69q-136 0 -211 69t-75 192zM495 245v220q0 69 -41.5 106t-118.5 37t-118.5 -36.5t-41.5 -106.5v-220q0 -70 41.5 -106.5t118.5 -36.5t118.5 37t41.5 106z" />
    <glyph glyph-name="P" unicode="P" horiz-adv-x="632" 
d="M104 710h265q109 0 172.5 -62t63.5 -170t-63.5 -169.5t-172.5 -61.5h-174v-213q0 -19 -7.5 -26.5t-26.5 -7.5h-57q-19 0 -27 7.5t-8 26.5v642q0 19 8 26.5t27 7.5zM195 364h162q55 0 85.5 30t30.5 84t-30.5 84.5t-85.5 30.5h-162v-229z" />
    <glyph glyph-name="Q" unicode="Q" horiz-adv-x="683" 
d="M570 81l60 -70q12 -15 11 -25.5t-15 -23.5l-38 -31q-25 -22 -48 4l-65 77q-57 -27 -140 -27q-136 0 -211 69t-75 192v218q0 123 75 192t211 69q135 0 210 -69t75 -192v-218q0 -100 -50 -165zM175 465v-220q0 -70 41.5 -106.5t118.5 -36.5t118.5 37t41.5 106v220
q0 69 -41.5 106t-118.5 37t-118.5 -36.5t-41.5 -106.5z" />
    <glyph glyph-name="R" unicode="R" horiz-adv-x="651" 
d="M104 710h276q105 0 165 -58.5t60 -161.5q0 -77 -34.5 -129t-97.5 -73q19 -16 32 -43l110 -211q18 -34 -17 -34h-58q-33 0 -46 5.5t-22 24.5l-84 170q-20 42 -44 56t-75 14h-74v-236q0 -19 -7.5 -26.5t-26.5 -7.5h-57q-19 0 -27 7.5t-8 26.5v642q0 19 8 26.5t27 7.5z
M446 414q27 26 27 76t-27 77q-28 26 -78 26h-173v-206h173q50 0 78 27z" />
    <glyph glyph-name="S" unicode="S" horiz-adv-x="633" 
d="M48 506q0 100 72.5 159.5t201.5 59.5q103 0 164.5 -36t98.5 -115q15 -31 -19 -46l-55 -24q-17 -7 -25.5 -3.5t-17.5 20.5q-22 43 -56 63.5t-90 20.5q-145 0 -145 -92q-4 -36 27.5 -57t78.5 -28q15 -3 68 -10t72 -11q82 -16 126 -56q55 -50 55 -142q0 -103 -75.5 -163.5
t-209.5 -60.5q-111 0 -176.5 41t-98.5 126q-7 19 -2 28.5t23 15.5l55 20q17 6 26 1.5t17 -22.5q39 -93 156 -93q159 0 159 104q0 31 -22.5 52t-55.5 29q-30 7 -80 12q-65 7 -107 16q-49 10 -96 41q-65 42 -69 150z" />
    <glyph glyph-name="T" unicode="T" horiz-adv-x="566" 
d="M48 710h470q19 0 26.5 -7.5t7.5 -26.5v-49q0 -19 -7.5 -26.5t-26.5 -7.5h-172v-559q0 -19 -7.5 -26.5t-26.5 -7.5h-58q-19 0 -26.5 7.5t-7.5 26.5v559h-172q-19 0 -26.5 7.5t-7.5 26.5v49q0 19 7.5 26.5t26.5 7.5z" />
    <glyph glyph-name="U" unicode="U" horiz-adv-x="688" 
d="M190 676v-433q0 -69 39.5 -105t114.5 -36t114.5 36t39.5 105v433q0 19 7.5 26.5t26.5 7.5h57q19 0 26.5 -7.5t7.5 -26.5v-432q0 -121 -72.5 -190t-206.5 -69t-207 69t-73 190v432q0 19 7.5 26.5t26.5 7.5h58q19 0 26.5 -7.5t7.5 -26.5z" />
    <glyph glyph-name="V" unicode="V" horiz-adv-x="640" 
d="M570 710h48q36 0 22 -33l-239 -649q-7 -17 -15.5 -22.5t-26.5 -5.5h-53q-33 0 -42 27l-240 650q-12 33 22 33h51q31 0 43.5 -6t18.5 -24l146 -426q7 -21 13.5 -47t9.5 -41.5t3 -17.5h6q11 62 26 105l145 427q6 18 18.5 24t43.5 6z" />
    <glyph glyph-name="W" unicode="W" horiz-adv-x="901" 
d="M801 710h61q32 0 22 -33l-165 -649q-4 -17 -13 -22.5t-29 -5.5h-55q-36 0 -42 27l-105 397q-14 56 -16 113h-7q-2 -58 -17 -112l-106 -397q-4 -17 -13 -22.5t-29 -5.5h-54q-37 0 -43 27l-164 650q-6 17 -1 25t23 8h70q22 0 31.5 -6t13.5 -24l82 -373q2 -10 16 -134h6
q3 67 20 134l101 370q5 18 14.5 24t30.5 6h54q22 0 31.5 -6t13.5 -24l99 -370q18 -69 21 -134h6q5 66 18 133l80 374q4 18 13.5 24t31.5 6z" />
    <glyph glyph-name="X" unicode="X" horiz-adv-x="638" 
d="M401 363l223 -328q11 -13 6.5 -24t-22.5 -11h-70q-32 0 -43.5 5t-23.5 25l-153 235l-147 -235q-14 -20 -25 -25t-41 -5h-65q-18 0 -22.5 10.5t5.5 24.5l220 327l-212 316q-10 12 -5.5 22t22.5 10h67q29 0 40 -5t26 -23l143 -221l143 221q14 18 25 23t38 5h69
q17 0 21.5 -10t-5.5 -22z" />
    <glyph glyph-name="Y" unicode="Y" horiz-adv-x="643" 
d="M550 710h65q18 0 22 -10t-5 -24l-244 -396v-246q0 -19 -7.5 -26.5t-26.5 -7.5h-57q-19 0 -26.5 7.5t-7.5 26.5v248l-245 394q-9 14 -4.5 24t22.5 10h70q33 0 44 -4.5t22 -25.5l155 -270l156 270q11 20 22.5 25t44.5 5z" />
    <glyph glyph-name="Z" unicode="Z" horiz-adv-x="588" 
d="M73 710h441q19 0 26.5 -7.5t7.5 -26.5v-48q0 -22 -11 -36l-346 -475h329q20 0 27 -7.5t7 -26.5v-49q0 -19 -7.5 -26.5t-26.5 -7.5h-452q-19 0 -26.5 7.5t-7.5 26.5v49q0 19 12 35l345 475h-318q-19 0 -26.5 7.5t-7.5 26.5v49q0 19 7.5 26.5t26.5 7.5z" />
    <glyph glyph-name="bracketleft" unicode="[" horiz-adv-x="303" 
d="M93 856h158q19 0 24.5 -5t5.5 -25v-44q0 -19 -5.5 -24t-24.5 -5h-79v-795h79q19 0 24.5 -5t5.5 -25v-44q0 -20 -5.5 -25t-24.5 -5h-158q-19 0 -25 6t-6 25v940q0 19 6 25t25 6z" />
    <glyph glyph-name="backslash" unicode="\" horiz-adv-x="440" 
d="M298 -32l-266 714q-12 28 20 28h57q17 0 25.5 -6t15.5 -22l266 -714q12 -28 -20 -28h-57q-17 0 -26 6t-15 22z" />
    <glyph glyph-name="bracketright" unicode="]" horiz-adv-x="303" 
d="M52 856h158q19 0 24.5 -6t5.5 -25v-940q0 -19 -5.5 -25t-24.5 -6h-158q-20 0 -25 5t-5 25v44q0 20 5 25t25 5h78v795h-78q-19 0 -24.5 5t-5.5 24v44q0 20 5 25t25 5z" />
    <glyph glyph-name="asciicircum" unicode="^" horiz-adv-x="588" 
d="M307 810h33q9 0 15 -2t8.5 -4.5t8.5 -9.5t10 -11l187 -227q29 -36 -18 -36h-50q-27 0 -36.5 4.5t-24.5 22.5l-116 147h-5l-115 -147q-15 -18 -25 -22.5t-37 -4.5h-46q-47 0 -17 36l185 227q22 27 43 27z" />
    <glyph glyph-name="underscore" unicode="_" horiz-adv-x="496" 
d="M56 0h384q19 0 26.5 -7.5t7.5 -26.5v-44q0 -19 -7.5 -26.5t-26.5 -7.5h-384q-19 0 -26.5 7.5t-7.5 26.5v44q0 19 7.5 26.5t26.5 7.5z" />
    <glyph glyph-name="grave" unicode="`" horiz-adv-x="257" 
d="M22 697l26 31q18 23 56 2l147 -88q12 -7 12 -13.5t-10 -19.5l-14 -18q-10 -13 -39 -2l-174 73q-26 10 -4 35z" />
    <glyph glyph-name="a" unicode="a" horiz-adv-x="519" 
d="M49 429q54 104 207 104q214 0 214 -206v-259q0 -26 -7.5 -37t-28.5 -20q-61 -26 -180 -26q-128 0 -175 40q-48 39 -48 122q0 89 52 125t175 36q1 0 96 -5v28q0 50 -23.5 74.5t-76.5 24.5q-74 0 -105 -48q-11 -16 -18.5 -18.5t-24.5 3.5l-40 17q-33 15 -17 45zM354 103
v105q-30 1 -57.5 2.5t-39 2t-12.5 0.5q-53 0 -74.5 -15.5t-21.5 -49.5q0 -35 20.5 -51t73.5 -16q62 0 100 8q11 5 11 14z" />
    <glyph glyph-name="b" unicode="b" horiz-adv-x="542" 
d="M87 740h55q17 0 23.5 -7t6.5 -24v-193q76 17 120 17q208 0 208 -201v-135q0 -212 -226 -212q-105 0 -181 32q-24 11 -30.5 21t-6.5 34v637q0 17 7 24t24 7zM384 200v129q0 47 -28 72.5t-81 25.5q-49 0 -103 -18v-295q0 -8 8 -11q35 -12 86 -12q118 0 118 109z" />
    <glyph glyph-name="c" unicode="c" horiz-adv-x="517" 
d="M41 190v138q0 99 58 152t172 53q83 0 138 -35t76 -96q11 -33 -22 -45l-44 -14q-32 -12 -44 21q-25 67 -109 67q-109 0 -109 -98v-148q0 -47 28 -72.5t81 -25.5q84 0 109 69q7 18 16.5 22t27.5 -2l45 -13q34 -13 21 -45q-52 -133 -223 -133q-110 0 -165.5 53t-55.5 152z
" />
    <glyph glyph-name="d" unicode="d" horiz-adv-x="542" 
d="M42 187v137q0 103 52.5 156t156.5 53q48 0 119 -13v189q0 17 6.5 24t23.5 7h55q17 0 24 -7t7 -24v-637q0 -24 -8 -34.5t-32 -20.5q-87 -32 -187 -32q-217 0 -217 202zM370 113v301q-58 13 -97 13q-115 0 -115 -106v-130q0 -100 112 -100q51 0 92 11q8 3 8 11z" />
    <glyph glyph-name="e" unicode="e" horiz-adv-x="537" 
d="M40 199v118q0 105 59.5 160.5t172.5 55.5q111 0 171 -56.5t60 -150.5v-61q0 -43 -45 -43h-302v-37q0 -49 29.5 -74.5t84.5 -25.5q83 0 118 53q12 17 22.5 19.5t28.5 -7.5l35 -19q34 -16 12 -50q-58 -96 -216 -96q-114 0 -172 56.5t-58 157.5zM387 311v22q0 49 -29 75.5
t-86 26.5q-56 0 -86 -26.5t-30 -75.5v-22h231z" />
    <glyph glyph-name="f" unicode="f" horiz-adv-x="370" 
d="M322 740h9q18 0 25 -7t7 -25v-44q0 -18 -7 -25t-25 -7q-63 0 -88 -23.5t-25 -80.5v-10h115q17 0 23.5 -6.5t6.5 -23.5v-46q0 -17 -6.5 -24t-23.5 -7h-115v-380q0 -17 -6.5 -24t-24.5 -7h-53q-18 0 -25 7t-7 24v380h-60q-17 0 -23.5 7t-6.5 24v46q0 17 6.5 23.5t23.5 6.5
h60v10q0 208 220 212z" />
    <glyph glyph-name="g" unicode="g" horiz-adv-x="541" 
d="M46 210v113q0 210 226 210q115 0 181 -31q24 -11 30.5 -21t6.5 -34v-464q0 -105 -54.5 -161.5t-165.5 -56.5q-150 0 -207 96q-23 32 12 50l38 21q18 9 28.5 6.5t22.5 -18.5q32 -51 104 -51q106 0 106 108v50q-68 -18 -120 -18q-104 0 -156 51.5t-52 149.5zM365 416
q-42 11 -85 11q-118 0 -118 -108v-106q0 -47 28 -72.5t81 -25.5q42 0 103 14v275q0 8 -9 12z" />
    <glyph glyph-name="h" unicode="h" horiz-adv-x="555" 
d="M89 740h55q17 0 23.5 -7t6.5 -24v-190q10 4 46.5 9t73.5 5q208 0 208 -201v-301q0 -17 -7 -24t-24 -7h-54q-17 0 -24 7t-7 24v298q0 98 -109 98q-73 0 -103 -15v-381q0 -17 -6.5 -24t-23.5 -7h-55q-17 0 -24 7t-7 24v678q0 17 7 24t24 7z" />
    <glyph glyph-name="i" unicode="i" horiz-adv-x="231" 
d="M112 712h7q35 0 48 -13t13 -47v-9q0 -35 -13 -48t-48 -13h-7q-34 0 -47.5 13t-13.5 48v9q0 34 13 47t48 13zM88 518h55q17 0 24 -6.5t7 -23.5v-457q0 -17 -7 -24t-24 -7h-55q-17 0 -23.5 7t-6.5 24v457q0 17 6.5 23.5t23.5 6.5z" />
    <glyph glyph-name="j" unicode="j" horiz-adv-x="233" 
d="M113 712h7q35 0 48 -13t13 -47v-9q0 -35 -13.5 -48t-47.5 -13h-7q-35 0 -48 13t-13 48v9q0 34 13 47t48 13zM90 518h53q18 0 24.5 -6.5t6.5 -23.5v-495q0 -223 -228 -223q-18 0 -25 7t-7 25v44q0 18 7 25t25 7q59 0 85.5 29.5t26.5 88.5v492q0 17 7 23.5t25 6.5z" />
    <glyph glyph-name="k" unicode="k" horiz-adv-x="523" 
d="M412 212l87 -175q11 -20 7 -28.5t-26 -8.5h-51q-26 0 -35.5 5t-17.5 23l-62 133q-22 49 -80 49h-60v-178q0 -18 -6.5 -25t-25.5 -7h-51q-19 0 -26 7t-7 25v676q0 18 7 25t26 7h51q19 0 25.5 -7t6.5 -25v-390h45h7l136 177q11 15 21.5 19t38.5 4h49q49 0 20 -36l-151 -187
q42 -21 72 -83z" />
    <glyph glyph-name="l" unicode="l" horiz-adv-x="238" 
d="M177 709v-678q0 -17 -7 -24t-24 -7h-54q-18 0 -24.5 7t-6.5 24v678q0 17 6.5 24t24.5 7h54q17 0 24 -7t7 -24z" />
    <glyph glyph-name="m" unicode="m" horiz-adv-x="827" 
d="M401 500q83 33 176 33q196 0 196 -199v-303q0 -17 -6.5 -24t-23.5 -7h-55q-17 0 -24 7t-7 24v299q0 97 -97 97q-44 0 -97 -18q11 -30 11 -75v-303q0 -17 -7 -24t-24 -7h-54q-17 0 -24 7t-7 24v299q0 97 -98 97q-42 0 -80 -12q-8 -3 -8 -12v-372q0 -17 -6.5 -24t-23.5 -7
h-55q-17 0 -24 7t-7 24v411q0 24 8 35.5t31 21.5q81 34 182 34q79 0 124 -33z" />
    <glyph glyph-name="n" unicode="n" 
d="M95 499q84 34 197 34q104 0 156 -51.5t52 -149.5v-301q0 -17 -7 -24t-24 -7h-55q-17 0 -23.5 7t-6.5 24v298q0 98 -109 98q-50 0 -96 -13q-7 -3 -7 -10v-373q0 -17 -6.5 -24t-23.5 -7h-55q-17 0 -24 7t-7 24v411q0 24 7.5 35.5t31.5 21.5z" />
    <glyph glyph-name="o" unicode="o" horiz-adv-x="543" 
d="M41 185v148q0 94 60 147t170 53t170.5 -53t60.5 -147v-148q0 -94 -60.5 -147t-170.5 -53t-170 53t-60 147zM386 185v148q0 46 -30 70.5t-85 24.5t-84.5 -24.5t-29.5 -70.5v-148q0 -45 29.5 -70t84.5 -25t85 25t30 70z" />
    <glyph glyph-name="p" unicode="p" horiz-adv-x="542" 
d="M95 504q81 29 194 29q211 0 211 -202v-137q0 -209 -223 -209q-36 0 -105 18v-192q0 -17 -6.5 -24t-23.5 -7h-55q-17 0 -24 7t-7 24v636q0 24 7.5 35.5t31.5 21.5zM384 198v130q0 99 -112 99q-49 0 -90 -11q-10 -4 -10 -13v-297q59 -15 97 -15q115 0 115 107z" />
    <glyph glyph-name="q" unicode="q" horiz-adv-x="542" 
d="M268 533q115 0 181 -31q24 -11 30.5 -21t6.5 -34v-636q0 -17 -7 -24t-24 -7h-55q-17 0 -23.5 7t-6.5 24v193q-69 -19 -120 -19q-104 0 -156 51.5t-52 149.5v137q0 210 226 210zM158 319v-130q0 -47 28 -72.5t81 -25.5q41 0 103 15v297q0 8 -11 13q-39 11 -83 11
q-118 0 -118 -108z" />
    <glyph glyph-name="r" unicode="r" horiz-adv-x="352" 
d="M281 533h32q17 0 24 -6.5t7 -24.5v-44q0 -17 -7 -24t-24 -7h-36q-56 0 -95 -12q-10 -1 -10 -12v-372q0 -17 -6.5 -24t-23.5 -7h-55q-17 0 -24 7t-7 24v415q0 24 7.5 35.5t31.5 21.5q73 27 186 30z" />
    <glyph glyph-name="s" unicode="s" horiz-adv-x="504" 
d="M50 372q0 75 53 118t153 43q161 0 214 -107q16 -30 -16 -45l-45 -18q-17 -7 -24.5 -4.5t-17.5 18.5q-28 52 -108 52q-94 0 -94 -54q0 -32 24.5 -44t92.5 -18q107 -10 155.5 -45t48.5 -116q0 -77 -56.5 -122t-159.5 -45q-177 0 -223 121q-12 31 20 42l45 14q29 12 41 -19
q22 -55 113 -55q106 0 106 59q0 32 -25 44.5t-95 19.5t-113 24q-29 11 -47 27q-42 37 -42 110z" />
    <glyph glyph-name="t" unicode="t" horiz-adv-x="389" 
d="M139 638h54q17 0 24 -6.5t7 -23.5v-90h114q17 0 24 -6.5t7 -23.5v-46q0 -17 -7 -24t-24 -7h-114v-201q0 -70 24 -93q22 -22 89 -22q18 0 25 -6.5t7 -24.5v-46q0 -18 -7 -24.5t-25 -7.5q-125 -4 -177 44t-52 176v205h-69q-17 0 -23.5 7t-6.5 24v46q0 17 6.5 23.5t23.5 6.5
h69v90q0 17 7 23.5t24 6.5z" />
    <glyph glyph-name="u" unicode="u" 
d="M412 518h54q17 0 24 -6.5t7 -23.5v-412q0 -24 -7.5 -35t-31.5 -21q-90 -35 -196 -35q-104 0 -156.5 51.5t-52.5 149.5v302q0 17 7 23.5t24 6.5h55q17 0 23.5 -6.5t6.5 -23.5v-298q0 -99 109 -99q52 0 92 12q11 5 11 17v368q0 17 7 23.5t24 6.5z" />
    <glyph glyph-name="v" unicode="v" horiz-adv-x="515" 
d="M440 518h40q23 0 28.5 -7t-2.5 -28l-185 -456q-10 -28 -42 -28h-33q-32 0 -42 28l-184 455q-8 22 -3 29t28 7h39q28 0 38.5 -6t16.5 -25l93 -240q6 -16 11.5 -36t10 -39t5.5 -24l1 -8h5q13 63 27 106l92 241q8 19 18.5 25t37.5 6z" />
    <glyph glyph-name="w" unicode="w" horiz-adv-x="735" 
d="M659 518h33q22 0 27 -7t-1 -29l-134 -455q-7 -28 -42 -28h-34q-34 0 -43 28l-73 256q-9 30 -16 87l-2 16h-5l-2 -16q-7 -51 -17 -87l-73 -256q-7 -28 -42 -28h-33q-35 0 -42 28l-133 455q-7 22 -2 29t27 7h39q29 0 40 -6t15 -25l57 -224l17 -122h5q0 4 2.5 23.5t8 49
t10.5 50.5l66 219q6 21 15 26.5t36 5.5h23q27 0 36 -5.5t15 -25.5l67 -220q21 -77 21 -123h6l2 19q2 50 15 104l55 223q4 19 15.5 25t40.5 6z" />
    <glyph glyph-name="x" unicode="x" horiz-adv-x="508" 
d="M416 518h49q45 0 21 -36l-150 -215l160 -231q26 -36 -22 -36h-48q-25 0 -35 4.5t-21 21.5l-108 157l-103 -157q-11 -17 -21 -21.5t-35 -4.5h-47q-52 0 -23 36l160 230l-153 216q-26 36 24 36h45q26 0 36.5 -5t20.5 -21l99 -141l97 141q11 17 20 21.5t34 4.5z" />
    <glyph glyph-name="y" unicode="y" horiz-adv-x="555" 
d="M417 518h54q17 0 24 -6.5t7 -23.5v-505q0 -105 -54.5 -161.5t-165.5 -56.5q-150 0 -208 96q-21 34 13 50l38 21q18 9 28.5 6.5t21.5 -18.5q31 -51 105 -51q106 0 106 108v47q-64 -14 -119 -14q-104 0 -156.5 51.5t-52.5 149.5v277q0 17 7 23.5t24 6.5h55q17 0 23.5 -6.5
t6.5 -23.5v-273q0 -99 109 -99q47 0 103 14v358q0 17 7 23.5t24 6.5z" />
    <glyph glyph-name="z" unicode="z" horiz-adv-x="471" 
d="M178 105h233q17 0 23.5 -7t6.5 -24v-43q0 -17 -6.5 -24t-23.5 -7h-350q-17 0 -24 7t-7 24v43q0 18 11 31l245 308h-220q-17 0 -24 7t-7 24v44q0 17 7 23.5t24 6.5h340q17 0 23.5 -6.5t6.5 -23.5v-44q0 -19 -11 -33z" />
    <glyph glyph-name="braceleft" unicode="{" horiz-adv-x="348" 
d="M247 856h51q17 0 24 -7t7 -24v-43q0 -17 -7 -24t-24 -7h-47q-33 0 -33 -35v-237q0 -85 -71 -127q71 -29 71 -126v-233q0 -35 33 -35h47q17 0 24 -7t7 -24v-43q0 -17 -7 -24t-24 -7h-50q-77 0 -108.5 30.5t-31.5 102.5v223q0 84 -66 84h-7q-14 0 -19.5 7t-5.5 24v57
q0 30 24 30h8q66 0 66 84v227q0 71 32 102.5t107 31.5z" />
    <glyph glyph-name="bar" unicode="|" horiz-adv-x="235" 
d="M93 856h49q17 0 24 -7t7 -24v-941q0 -17 -7 -24t-24 -7h-49q-17 0 -24 7t-7 24v941q0 17 7 24t24 7z" />
    <glyph glyph-name="braceright" unicode="}" horiz-adv-x="348" 
d="M50 856h52q74 0 106 -31.5t32 -102.5v-227q0 -84 66 -84h8q25 0 25 -30v-57q0 -31 -26 -31h-7q-66 0 -66 -84v-223q0 -72 -31.5 -102.5t-108.5 -30.5h-50q-17 0 -23.5 7t-6.5 24v43q0 17 6.5 24t23.5 7h47q34 0 34 35v233q0 99 70 126q-70 40 -70 127v237q0 35 -34 35
h-47q-17 0 -23.5 7t-6.5 24v43q0 17 6.5 24t23.5 7z" />
    <glyph glyph-name="asciitilde" unicode="~" horiz-adv-x="556" 
d="M94 347q52 48 123 48q41 0 90 -17t72 -17q32 0 61 23q15 12 23.5 11.5t21.5 -13.5l31 -29q26 -25 0 -48q-53 -49 -123 -49q-42 0 -90 18q-49 17 -72 17q-32 0 -61 -23q-15 -13 -23 -12.5t-21 13.5l-32 30q-27 25 0 48z" />
    <glyph glyph-name="exclamdown" unicode="&#xa1;" horiz-adv-x="232" 
d="M119 388h-7q-36 0 -50 14t-14 50v9q0 37 14 50.5t50 13.5h7q37 0 50.5 -13.5t13.5 -50.5v-9q0 -36 -13.5 -50t-50.5 -14zM146 -222h-59q-17 0 -24 6.5t-6 23.5l13 475q0 17 6.5 24t23.5 7h32q17 0 23.5 -7t7.5 -24l13 -475q1 -17 -6 -23.5t-24 -6.5z" />
    <glyph glyph-name="cent" unicode="&#xa2;" horiz-adv-x="536" 
d="M427 176l44 -13q35 -14 22 -45q-42 -105 -160 -127v-44q0 -17 -6.5 -24t-23.5 -7h-55q-17 0 -24 7t-7 24v42q-169 24 -169 201v138q0 84 43 135.5t126 64.5v51q0 17 7 24t24 7h55q17 0 23.5 -7t6.5 -24v-51q125 -20 159 -126q6 -19 1 -28.5t-22 -16.5l-45 -14
q-32 -12 -44 21q-25 67 -108 67q-110 0 -110 -98v-148q0 -47 28 -72.5t82 -25.5q82 0 108 69q7 18 16.5 22t28.5 -2z" />
    <glyph glyph-name="sterling" unicode="&#xa3;" horiz-adv-x="646" 
d="M123 392v123q0 87 62 149q61 61 170 61q187 0 247 -152q12 -32 -21 -44l-55 -19q-18 -6 -26 -2t-17 23q-20 41 -48.5 59t-74.5 18q-48 0 -77 -27.5t-29 -70.5v-118h219q19 0 26.5 -7.5t7.5 -26.5v-40q0 -19 -7.5 -27t-26.5 -8h-219v-69q0 -71 -50 -104v-6q72 13 155 13
h204q19 0 26.5 -7.5t7.5 -26.5v-49q0 -19 -7.5 -26.5t-26.5 -7.5h-489q-19 0 -26 7.5t-7 26.5v50q0 28 19 28h7q56 17 56 101v70h-45q-19 0 -26.5 8t-7.5 27v40q0 19 7.5 26.5t26.5 7.5h45z" />
    <glyph glyph-name="currency" unicode="&#xa4;" horiz-adv-x="613" 
d="M513 223l48 -48q22 -22 0 -44l-39 -38q-12 -12 -21.5 -12t-21.5 12l-49 49q-50 -32 -113 -32q-62 0 -114 31l-49 -49q-22 -22 -43 0l-39 39q-22 21 0 43l50 50q-32 53 -32 113t32 112l-50 50q-12 12 -12 21.5t12 22.5l38 38q13 12 22.5 12t21.5 -12l49 -49q55 32 114 32
q62 0 112 -32l49 49q13 12 22.5 12t21.5 -12l38 -38q23 -21 0 -44l-48 -48q32 -50 32 -114t-31 -114zM317 459q-51 0 -86.5 -35t-36.5 -87q2 -52 37 -87q34 -36 86 -36t88 36q35 37 35 87q0 52 -35.5 87t-87.5 35z" />
    <glyph glyph-name="yen" unicode="&#xa5;" horiz-adv-x="656" 
d="M555 710h57q17 0 21.5 -10t-4.5 -24l-190 -305h78q17 0 23.5 -6.5t6.5 -23.5v-30q0 -17 -6.5 -23.5t-23.5 -6.5h-123v-58h123q17 0 23.5 -6.5t6.5 -23.5v-30q0 -17 -6.5 -23.5t-23.5 -6.5h-122v-99q0 -19 -8 -26.5t-27 -7.5h-57q-19 0 -26.5 7.5t-7.5 26.5v99h-123
q-17 0 -23.5 6.5t-6.5 23.5v30q0 17 7 23.5t23 6.5h123v58h-123q-16 0 -23 6.5t-7 23.5v30q0 17 7 23.5t23 6.5h79l-190 305q-9 14 -4.5 24t21.5 10h62q33 0 44 -4.5t22 -25.5l155 -267l154 267q11 21 22 25.5t44 4.5z" />
    <glyph glyph-name="brokenbar" unicode="&#xa6;" horiz-adv-x="243" 
d="M97 856h49q17 0 24 -7t7 -24v-363q0 -17 -7 -24t-24 -7h-49q-17 0 -24 7t-7 24v363q0 17 7 24t24 7zM97 279h49q17 0 24 -7t7 -24v-363q0 -17 -7 -24t-24 -7h-49q-17 0 -24 7t-7 24v363q0 17 7 24t24 7z" />
    <glyph glyph-name="section" unicode="&#xa7;" horiz-adv-x="607" 
d="M69 524q0 93 64.5 147.5t183.5 54.5q176 0 240 -145q9 -18 4.5 -29t-24.5 -20l-49 -22q-17 -8 -27 -4t-20 22q-34 79 -124 79q-120 0 -120 -83q0 -25 18.5 -42t44.5 -23q21 -6 67 -12q108 -17 148 -36q90 -43 90 -150q0 -79 -66 -131q72 -44 72 -148q0 -92 -68 -146.5
t-190 -54.5q-96 0 -162 40t-93 115q-11 36 23 46l50 18q19 7 29 2t18 -24q29 -80 135 -80q133 0 133 83q0 25 -18.5 41.5t-44.5 22.5q-32 6 -67 10q-113 12 -158 29q-100 40 -100 153q0 88 83 141q-72 45 -72 146zM300 329q-55 8 -56 9q-58 -30 -58 -84q0 -49 45 -64
q37 -14 101 -19q1 0 4 -0.5t9 -1t12 -0.5l32 -4q51 31 51 84q0 42 -43 59q-30 11 -97 21z" />
    <glyph glyph-name="dieresis" unicode="&#xa8;" horiz-adv-x="439" 
d="M113 709h7q30 0 41.5 -11.5t11.5 -40.5v-9q0 -29 -11.5 -40.5t-41.5 -11.5h-7q-30 0 -41 11.5t-11 40.5v9q0 29 11 40.5t41 11.5zM314 709h6q30 0 41.5 -11.5t11.5 -40.5v-9q0 -29 -11.5 -40.5t-41.5 -11.5h-6q-30 0 -41.5 11.5t-11.5 40.5v9q0 29 11.5 40.5t41.5 11.5z
" />
    <glyph glyph-name="copyright" unicode="&#xa9;" horiz-adv-x="799" 
d="M41 351q0 151 105 255q104 104 255 104q150 0 254 -104q103 -103 103 -255t-103 -255q-104 -104 -254 -104q-151 0 -255 105q-105 103 -105 254zM598 152q80 82 80 199t-80 199q-80 80 -197 80q-119 0 -199 -80q-81 -80 -81 -199q0 -118 81 -199q80 -81 199 -81
q117 0 197 81zM248 296v106q0 66 39.5 102.5t111.5 36.5q113 0 144 -90q5 -14 2 -20.5t-17 -11.5l-27 -10q-24 -10 -31 16q-8 23 -24 32t-47 9q-73 0 -73 -63v-107q0 -65 73 -65q56 0 71 43q10 25 32 16l26 -10q25 -10 16 -32q-34 -91 -145 -91q-72 0 -111.5 36.5
t-39.5 102.5z" />
    <glyph glyph-name="ordfeminine" unicode="&#xaa;" horiz-adv-x="360" 
d="M58 616q39 54 122 54q128 0 128 -124v-128q0 -21 -6.5 -30.5t-24.5 -17.5q-34 -15 -100 -15q-70 0 -100 23t-30 70q0 48 30.5 71t101.5 23q16 0 40 -2v14q0 22 -9 32t-32 10q-25 0 -51 -25q-13 -10 -30 -5l-24 13q-17 8 -20.5 16t5.5 21zM219 436v41q-32 2 -45 2
q-41 0 -41 -28q0 -16 9 -22t31 -6q31 0 40 3q6 4 6 10z" />
    <glyph glyph-name="guillemotleft" unicode="&#xab;" horiz-adv-x="590" 
d="M166 265l132 -132q20 -19 0 -39l-36 -37q-20 -18 -39 0l-186 186q-11 11 -11 19.5t11 19.5l190 191q21 19 39 0l34 -35q11 -11 11 -19t-11 -19zM402 265l133 -132q19 -19 0 -39l-37 -37q-21 -18 -38 0l-186 186q-20 19 0 39l190 191q20 19 39 0l34 -35q10 -11 10 -19
t-10 -19z" />
    <glyph glyph-name="logicalnot" unicode="&#xac;" horiz-adv-x="588" 
d="M83 411h413q18 0 24.5 -7t6.5 -24v-210q0 -17 -6.5 -24t-24.5 -7h-53q-17 0 -24 7t-7 24v132h-329q-18 0 -24.5 7t-6.5 24v47q0 17 6.5 24t24.5 7z" />
    <glyph glyph-name="registered" unicode="&#xae;" horiz-adv-x="468" 
d="M98 379q-58 57 -58 137t58 137q57 57 137 57q79 0 136 -57t57 -137q0 -79 -56 -137q-57 -57 -137 -57t-137 57zM133 618q-42 -42 -42 -102t42 -102q42 -43 103 -43q59 0 101 43q42 42 42 102t-42 102t-101 42q-61 0 -103 -42zM172 613h82q31 0 50 -18t19 -48
q0 -46 -40 -59l32 -52q12 -17 -9 -17h-22q-14 0 -20 10l-31 54h-29v-53q0 -11 -12 -11h-21q-12 0 -12 11v171q0 8 2.5 10t10.5 2zM204 570v-46h47q24 0 24 23t-24 23h-47z" />
    <glyph glyph-name="overscore" unicode="&#xaf;" horiz-adv-x="352" 
d="M61 697h232q17 0 23 -6t6 -23v-26q0 -17 -6 -23t-23 -6h-232q-17 0 -23 6t-6 23v26q0 17 6.5 23t22.5 6z" />
    <glyph glyph-name="degree" unicode="&#xb0;" horiz-adv-x="397" 
d="M362 555q0 -65 -48 -115q-49 -49 -115 -49q-68 0 -116 48t-48 116q0 69 48 116q47 47 116 47q67 0 116 -47q47 -47 47 -116zM127 554q0 -29 21 -50t51 -21q29 0 50.5 21t21.5 50q0 30 -21 51.5t-51 21.5t-51 -21.5t-21 -51.5z" />
    <glyph glyph-name="plusminus" unicode="&#xb1;" horiz-adv-x="595" 
d="M350 445h150q19 0 26.5 -7.5t7.5 -26.5v-31q0 -19 -7.5 -26.5t-26.5 -7.5h-150v-78q0 -19 -7.5 -26.5t-26.5 -7.5h-37q-19 0 -26.5 7.5t-7.5 26.5v78h-149q-20 0 -27 7t-7 27v31q0 19 7.5 26.5t26.5 7.5h149v82q0 19 7.5 26.5t26.5 7.5h37q19 0 26.5 -7.5t7.5 -26.5v-82z
M96 201h404q19 0 26.5 -7.5t7.5 -26.5v-31q0 -19 -7.5 -26.5t-26.5 -7.5h-404q-20 0 -27 7t-7 27v31q0 19 7.5 26.5t26.5 7.5z" />
    <glyph glyph-name="twosuperior" unicode="&#xb2;" horiz-adv-x="364" 
d="M47 721q39 98 149 98q66 0 104 -36t38 -93q0 -54 -24.5 -84t-85.5 -50l-54 -16q-36 -10 -36 -27v-8h165q29 0 29 -30v-30q0 -16 -6.5 -22.5t-22.5 -6.5h-228q-17 0 -24 6.5t-7 22.5v31q0 55 18.5 84t65.5 48l55 21q33 13 42 21.5t13 35.5q0 18 -11.5 29t-32.5 11
q-35 0 -54 -37q-9 -20 -16 -23.5t-28 1.5l-27 11q-34 12 -22 43z" />
    <glyph glyph-name="threesuperior" unicode="&#xb3;" horiz-adv-x="368" 
d="M45 720q35 99 154 99q65 0 101 -30t36 -84q0 -31 -9.5 -49.5t-33.5 -32.5q55 -28 55 -102q0 -55 -37.5 -84t-111.5 -29q-121 0 -155 96q-12 33 16 43l28 9q17 6 26.5 2t17.5 -23q13 -40 67 -40q53 0 53 38t-40 38h-38q-19 0 -24.5 5.5t-5.5 24.5v25q0 22 5.5 27.5
t27.5 5.5h29q39 0 39 35q0 38 -44 38q-51 0 -66 -40q-8 -22 -18 -26.5t-33 3.5l-18 7q-32 12 -21 44z" />
    <glyph glyph-name="acute" unicode="&#xb4;" horiz-adv-x="257" 
d="M22 642l147 88q37 21 57 -2l25 -31q22 -25 -4 -35l-174 -73q-29 -11 -39 2l-14 18q-10 13 -10 19.5t12 13.5z" />
    <glyph glyph-name="mu" unicode="&#xb5;" horiz-adv-x="559" 
d="M417 518h55q17 0 23.5 -6.5t6.5 -23.5v-412q0 -24 -7.5 -35t-30.5 -21q-87 -35 -170 -35q-80 0 -119 36v-210q0 -17 -7 -24t-24 -7h-55q-17 0 -23.5 7t-6.5 24v677q0 17 6.5 23.5t24.5 6.5h54q17 0 24 -6.5t7 -23.5v-299q0 -98 109 -98q52 0 92 13q10 1 10 15v369
q0 17 7 23.5t24 6.5z" />
    <glyph glyph-name="paragraph" unicode="&#xb6;" horiz-adv-x="573" 
d="M240 710h235q17 0 24 -7t7 -24v-737q0 -17 -7 -24t-24 -7h-46q-17 0 -24 7t-7 24v652h-57v-652q0 -17 -7 -24t-24 -7h-46q-17 0 -24 7t-7 24v352q-89 1 -145 59t-56 148q0 94 58 152q57 57 150 57z" />
    <glyph glyph-name="middot" unicode="&#xb7;" horiz-adv-x="252" 
d="M122 353h7q37 0 51 -14t14 -50v-9q0 -37 -14 -50.5t-51 -13.5h-7q-36 0 -50 13.5t-14 50.5v9q0 36 14 50t50 14z" />
    <glyph glyph-name="cedilla" unicode="&#xb8;" horiz-adv-x="251" 
d="M167 0l-22 -58q3 1 13 1q40 0 64 -26t20 -64q-9 -98 -134 -98q-48 0 -73 13q-17 8 -17 28l-1 30q0 19 16 12q29 -16 60 -16q49 0 49 36q0 28 -43 29q-19 0 -24 -1q-13 -1 -16 5t2 19l38 90h68z" />
    <glyph glyph-name="onesuperior" unicode="&#xb9;" horiz-adv-x="285" 
d="M185 811h18q19 0 27 -7.5t8 -26.5v-327q0 -19 -7.5 -26.5t-27.5 -7.5h-29q-19 0 -26.5 7t-7.5 27v238l-56 -31q-31 -16 -49 12l-13 23q-9 19 -6 28t21 19l108 62q16 10 40 10z" />
    <glyph glyph-name="ordmasculine" unicode="&#xba;" horiz-adv-x="364" 
d="M46 477v71q0 58 35.5 90t100.5 32t100.5 -32t35.5 -90v-71q0 -57 -35 -89t-101 -32t-101 32t-35 89zM226 474v78q0 37 -44 37t-44 -37v-78q0 -37 44 -37t44 37z" />
    <glyph glyph-name="guillemotright" unicode="&#xbb;" horiz-adv-x="590" 
d="M429 265l-133 135q-11 11 -11 19t11 19l34 35q19 22 38 0l191 -191q17 -20 0 -39l-186 -186q-19 -18 -39 0l-37 37q-19 20 0 39zM193 265l-134 135q-11 11 -11 19t11 19l34 35q19 19 39 0l190 -191q17 -20 0 -39l-186 -186q-20 -19 -39 0l-36 37q-19 20 0 39z" />
    <glyph glyph-name="onequarter" unicode="&#xbc;" horiz-adv-x="803" 
d="M660 710h44q17 0 21.5 -10t-5.5 -23l-475 -647q-15 -20 -26 -25t-41 -5h-40q-18 0 -22.5 10t5.5 24l477 648q14 18 24.5 23t37.5 5zM212 709h19q19 0 26.5 -7.5t7.5 -26.5v-327q0 -20 -7.5 -27t-26.5 -7h-29q-20 0 -27.5 7.5t-7.5 26.5v239l-56 -32q-30 -17 -48 12
l-14 24q-17 29 15 46l108 62q16 10 40 10zM667 395h42q19 0 24 -5t5 -25v-201h19q18 0 23.5 -5t5.5 -21v-28q0 -17 -5 -22t-24 -5h-19v-55q0 -17 -5.5 -22.5t-21.5 -5.5h-38q-16 0 -21.5 5.5t-5.5 22.5v55h-169q-17 0 -23 6t-6 24v24q0 21 9 31l170 210q9 11 16.5 14t23.5 3
zM646 274l-89 -110h89v110z" />
    <glyph glyph-name="onehalf" unicode="&#xbd;" horiz-adv-x="836" 
d="M212 716h19q19 0 26.5 -7.5t7.5 -26.5v-328q0 -19 -7.5 -26.5t-26.5 -7.5h-30q-19 0 -26.5 7.5t-7.5 26.5v239l-56 -31q-30 -16 -48 12l-14 23q-16 28 15 47l108 62q16 10 40 10zM651 710h44q17 0 21.5 -10t-4.5 -23l-476 -647q-15 -20 -26 -25t-41 -5h-39
q-18 0 -22.5 10t5.5 24l476 648q14 18 24.5 23t37.5 5zM522 306q39 97 149 97q66 0 104 -36t38 -93q0 -55 -24.5 -84.5t-84.5 -48.5l-55 -16q-36 -11 -36 -27v-9h165q29 0 29 -30v-30q0 -29 -29 -29h-228q-17 0 -24 6.5t-7 23.5v30q0 55 18.5 84t65.5 48l55 22
q33 12 44 22.5t11 33.5q0 18 -11.5 29.5t-32.5 11.5q-36 0 -54 -38q-9 -19 -16.5 -23t-26.5 2l-28 10q-34 12 -22 44z" />
    <glyph glyph-name="threequarters" unicode="&#xbe;" horiz-adv-x="834" 
d="M46 625q34 99 154 99q65 0 101 -30.5t36 -82.5q0 -31 -9.5 -50t-33.5 -33q54 -27 54 -101q0 -55 -37.5 -84.5t-110.5 -29.5q-120 0 -155 96q-6 20 -2.5 29t18.5 14l28 10q17 6 26.5 1.5t16.5 -22.5q9 -22 23.5 -31t44.5 -9q52 0 52 37q0 39 -39 39h-38q-19 0 -24.5 5.5
t-5.5 24.5v25q0 22 5 27t27 5h30q39 0 39 36q0 38 -44 38q-51 0 -66 -40q-8 -22 -18 -26.5t-33 3.5l-19 7q-32 12 -20 43zM686 710h44q17 0 21 -10t-5 -23l-476 -647q-14 -20 -25.5 -25t-41.5 -5h-39q-18 0 -22.5 10t5.5 24l476 648q14 18 25 23t38 5zM693 395h42
q19 0 24 -5.5t5 -24.5v-201h19q18 0 23.5 -5t5.5 -21v-28q0 -17 -5 -22t-24 -5h-19v-55q0 -17 -5.5 -22.5t-21.5 -5.5h-38q-16 0 -21.5 5.5t-5.5 22.5v55h-169q-17 0 -23 6t-6 24v24q0 21 9 31l170 210q9 11 16.5 14t23.5 3zM583 164h89v110z" />
    <glyph glyph-name="questiondown" unicode="&#xbf;" horiz-adv-x="564" 
d="M310 387h-7q-36 0 -50 14t-14 50v9q0 37 14 50.5t50 13.5h7q37 0 50.5 -13.5t13.5 -50.5v-9q0 -36 -13.5 -50t-50.5 -14zM536 -57q-66 -165 -261 -165q-112 0 -179 59q-67 58 -67 148q0 51 16 94q11 31 41 61q19 20 54 42q4 2 16.5 9.5l22.5 13.5t14 8q33 22 47.5 41
t14.5 46q0 18 7.5 25t25.5 7h39q18 0 25.5 -7t7.5 -25q0 -61 -23 -97.5t-74 -69.5q-3 -2 -36 -22q-1 -1 -3.5 -2.5t-5.5 -4t-7 -4.5q-11 -8 -29 -28q-29 -29 -29 -82q0 -47 33 -74.5t92 -27.5q56 0 90 23t55 71q8 19 17 23.5t27 -2.5l48 -17q18 -6 23 -15.5t-2 -27.5z" />
    <glyph glyph-name="Agrave" unicode="&#xc0;" horiz-adv-x="658" 
d="M228 869l26 31q19 24 56 2l148 -87q12 -7 12 -13.5t-10 -19.5l-14 -18q-10 -13 -39 -2l-174 72q-25 10 -5 35zM409 684l250 -651q12 -33 -23 -33h-52q-31 0 -43.5 6t-18.5 24l-46 129h-276l-47 -129q-6 -18 -18.5 -24t-43.5 -6h-46q-35 0 -23 33l250 650q7 17 15.5 22.5
t26.5 5.5h53q32 0 42 -27zM441 262l-76 211q-15 46 -23 105l-1 17h-7q0 -58 -22 -121l-77 -212h206z" />
    <glyph glyph-name="Aacute" unicode="&#xc1;" horiz-adv-x="658" 
d="M227 815l147 89q37 21 57 -2l26 -32q21 -24 -5 -34l-174 -73q-29 -11 -38 1l-15 19q-17 22 2 32zM409 684l250 -651q12 -33 -23 -33h-52q-31 0 -43.5 6t-18.5 24l-46 129h-276l-47 -129q-6 -18 -18.5 -24t-43.5 -6h-46q-35 0 -23 33l250 650q7 17 15.5 22.5t26.5 5.5h53
q32 0 42 -27zM441 262l-76 211q-15 46 -23 105l-1 17h-7q0 -58 -22 -121l-77 -212h206z" />
    <glyph glyph-name="Acircumflex" unicode="&#xc2;" horiz-adv-x="658" 
d="M338 909h12q19 0 28.5 -4.5t26.5 -22.5l102 -98q10 -10 6 -17.5t-21 -7.5h-45q-33 0 -49 18l-57 57l-61 -57q-11 -12 -19 -15t-28 -3h-42q-17 0 -20.5 7.5t6.5 17.5l101 98q18 18 28 22.5t32 4.5zM409 684l250 -651q12 -33 -23 -33h-52q-31 0 -43.5 6t-18.5 24l-46 129
h-276l-47 -129q-6 -18 -18.5 -24t-43.5 -6h-46q-35 0 -23 33l250 650q7 17 15.5 22.5t26.5 5.5h53q32 0 42 -27zM441 262l-76 211q-15 46 -23 105l-1 17h-7q0 -58 -22 -121l-77 -212h206z" />
    <glyph glyph-name="Atilde" unicode="&#xc3;" horiz-adv-x="658" 
d="M439 895h31q20 0 20 -19q0 -59 -20 -85t-65 -26q-34 0 -72 29q-37 28 -57 28q-24 0 -24 -38q0 -19 -18 -19h-33q-19 0 -19 19q0 59 20 85t63 26q39 0 76 -28q38 -29 56 -29q23 0 23 38q0 19 19 19zM409 684l250 -651q12 -33 -23 -33h-52q-31 0 -43.5 6t-18.5 24l-46 129
h-276l-47 -129q-6 -18 -18.5 -24t-43.5 -6h-46q-35 0 -23 33l250 650q7 17 15.5 22.5t26.5 5.5h53q32 0 42 -27zM441 262l-76 211q-15 46 -23 105l-1 17h-7q0 -58 -22 -121l-77 -212h206z" />
    <glyph glyph-name="Adieresis" unicode="&#xc4;" horiz-adv-x="658" 
d="M237 888h7q30 0 41.5 -11.5t11.5 -40.5v-10q0 -29 -11.5 -40.5t-41.5 -11.5h-7q-30 0 -41 11.5t-11 40.5v10q0 29 11 40.5t41 11.5zM437 888h7q30 0 41 -11.5t11 -40.5v-10q0 -29 -11 -40.5t-41 -11.5h-7q-30 0 -41.5 11.5t-11.5 40.5v10q0 29 11.5 40.5t41.5 11.5z
M409 684l250 -651q12 -33 -23 -33h-52q-31 0 -43.5 6t-18.5 24l-46 129h-276l-47 -129q-6 -18 -18.5 -24t-43.5 -6h-46q-35 0 -23 33l250 650q7 17 15.5 22.5t26.5 5.5h53q32 0 42 -27zM441 262l-76 211q-15 46 -23 105l-1 17h-7q0 -58 -22 -121l-77 -212h206z" />
    <glyph glyph-name="Aring" unicode="&#xc5;" horiz-adv-x="658" 
d="M218 765q0 54 35 88t90 34q53 0 87 -34t34 -88q0 -66 -49 -96l244 -636q12 -33 -23 -33h-52q-31 0 -43.5 6t-18.5 24l-46 129h-276l-47 -129q-6 -18 -18.5 -24t-43.5 -6h-46q-35 0 -23 33l245 638q-49 31 -49 94zM395 765q0 24 -14.5 38.5t-37.5 14.5q-25 0 -40.5 -14.5
t-15.5 -38.5q0 -23 15.5 -37.5t40.5 -14.5q23 0 37.5 14.5t14.5 37.5zM441 262l-76 211q-15 46 -23 105l-1 17h-7q0 -58 -22 -121l-77 -212h206z" />
    <glyph glyph-name="AE" unicode="&#xc6;" horiz-adv-x="858" 
d="M553 117h251q19 0 26.5 -7.5t7.5 -26.5v-49q0 -19 -7.5 -26.5t-26.5 -7.5h-338q-19 0 -26.5 7.5t-7.5 26.5v115h-210l-72 -119q-10 -18 -22 -24t-41 -6h-53q-35 0 -23 33l408 649q12 18 19.5 23t22.5 5h332q19 0 26.5 -7.5t7.5 -26.5v-49q0 -19 -7.5 -26.5t-26.5 -7.5
h-240v-175h192q19 0 26.5 -7.5t7.5 -26.5v-49q0 -19 -7.5 -26.5t-26.5 -7.5h-192v-184zM432 252v247l-149 -247h149z" />
    <glyph glyph-name="Ccedilla" unicode="&#xc7;" horiz-adv-x="640" 
d="M532 216l54 -19q33 -12 22 -44q-56 -156 -244 -167l-17 -44q3 1 13 1q39 0 63.5 -26t20.5 -64q-11 -98 -134 -98q-48 0 -73 13q-17 8 -17 28l-1 30q0 19 16 12q29 -16 60 -16q49 0 49 36q0 28 -43 29q-20 0 -25 -1q-13 -1 -16 5t3 19l32 77q-118 10 -182 78t-64 181v219
q0 122 75 191t211 69q213 0 272 -167q12 -32 -21 -44l-55 -19q-18 -6 -27 -1.5t-16 22.5q-33 92 -153 92q-77 0 -118.5 -36.5t-41.5 -105.5v-221q0 -69 41.5 -106t118.5 -37q119 0 153 93q8 19 17 23.5t27 -2.5z" />
    <glyph glyph-name="Egrave" unicode="&#xc8;" horiz-adv-x="579" 
d="M191 869l25 31q20 23 57 2l148 -87q11 -7 11 -13.5t-10 -19.5l-14 -18q-9 -13 -38 -2l-175 72q-26 10 -4 35zM104 710h397q19 0 27 -7.5t8 -26.5v-49q0 -19 -8 -26.5t-27 -7.5h-306v-175h259q19 0 26.5 -7.5t7.5 -26.5v-49q0 -19 -7.5 -26.5t-26.5 -7.5h-259v-184h317
q19 0 26.5 -7.5t7.5 -26.5v-49q0 -19 -7.5 -26.5t-26.5 -7.5h-408q-19 0 -27 7.5t-8 26.5v642q0 19 8 26.5t27 7.5z" />
    <glyph glyph-name="Eacute" unicode="&#xc9;" horiz-adv-x="579" 
d="M190 815l147 89q38 20 57 -2l25 -32q21 -24 -4 -34l-174 -73q-29 -11 -39 1l-14 19q-17 22 2 32zM104 710h397q19 0 27 -7.5t8 -26.5v-49q0 -19 -8 -26.5t-27 -7.5h-306v-175h259q19 0 26.5 -7.5t7.5 -26.5v-49q0 -19 -7.5 -26.5t-26.5 -7.5h-259v-184h317
q19 0 26.5 -7.5t7.5 -26.5v-49q0 -19 -7.5 -26.5t-26.5 -7.5h-408q-19 0 -27 7.5t-8 26.5v642q0 19 8 26.5t27 7.5z" />
    <glyph glyph-name="Ecircumflex" unicode="&#xca;" horiz-adv-x="579" 
d="M300 909h12q19 0 28.5 -4.5t27.5 -22.5l101 -98q10 -10 6.5 -17.5t-20.5 -7.5h-45q-34 0 -49 18l-58 57l-60 -57q-12 -12 -20 -15t-28 -3h-41q-17 0 -21 7.5t6 17.5l102 98q18 18 27.5 22.5t31.5 4.5zM104 710h397q19 0 27 -7.5t8 -26.5v-49q0 -19 -8 -26.5t-27 -7.5
h-306v-175h259q19 0 26.5 -7.5t7.5 -26.5v-49q0 -19 -7.5 -26.5t-26.5 -7.5h-259v-184h317q19 0 26.5 -7.5t7.5 -26.5v-49q0 -19 -7.5 -26.5t-26.5 -7.5h-408q-19 0 -27 7.5t-8 26.5v642q0 19 8 26.5t27 7.5z" />
    <glyph glyph-name="Edieresis" unicode="&#xcb;" horiz-adv-x="579" 
d="M199 888h7q30 0 41.5 -11.5t11.5 -40.5v-10q0 -29 -11.5 -40.5t-41.5 -11.5h-7q-29 0 -40.5 11.5t-11.5 40.5v10q0 29 11.5 40.5t40.5 11.5zM400 888h7q29 0 40.5 -11.5t11.5 -40.5v-10q0 -29 -11.5 -40.5t-40.5 -11.5h-7q-30 0 -41.5 11.5t-11.5 40.5v10q0 29 11.5 40.5
t41.5 11.5zM104 710h397q19 0 27 -7.5t8 -26.5v-49q0 -19 -8 -26.5t-27 -7.5h-306v-175h259q19 0 26.5 -7.5t7.5 -26.5v-49q0 -19 -7.5 -26.5t-26.5 -7.5h-259v-184h317q19 0 26.5 -7.5t7.5 -26.5v-49q0 -19 -7.5 -26.5t-26.5 -7.5h-408q-19 0 -27 7.5t-8 26.5v642
q0 19 8 26.5t27 7.5z" />
    <glyph glyph-name="Igrave" unicode="&#xcc;" horiz-adv-x="264" 
d="M20 869l26 31q20 23 57 2l147 -87q12 -7 12 -13.5t-10 -19.5l-14 -18q-10 -13 -39 -2l-174 72q-27 11 -5 35zM70 34v642q0 19 7.5 26.5t26.5 7.5h57q19 0 26.5 -7.5t7.5 -26.5v-642q0 -19 -7.5 -26.5t-26.5 -7.5h-57q-19 0 -26.5 7.5t-7.5 26.5z" />
    <glyph glyph-name="Iacute" unicode="&#xcd;" horiz-adv-x="264" 
d="M37 815l147 89q37 21 57 -2l26 -32q21 -24 -5 -34l-174 -73q-29 -11 -39 1l-14 19q-17 22 2 32zM87 34v642q0 19 8 26.5t27 7.5h57q19 0 26.5 -7.5t7.5 -26.5v-642q0 -19 -7.5 -26.5t-26.5 -7.5h-57q-19 0 -27 7.5t-8 26.5z" />
    <glyph glyph-name="Icircumflex" unicode="&#xce;" horiz-adv-x="264" 
d="M133 909h12q19 0 28.5 -4.5t26.5 -22.5l102 -98q10 -10 6 -17.5t-21 -7.5h-45q-32 0 -49 18l-58 57l-60 -57q-11 -12 -19 -15t-28 -3h-42q-17 0 -20.5 7.5t6.5 17.5l101 98q18 18 28 22.5t32 4.5zM72 34v642q0 19 8 26.5t27 7.5h57q19 0 26.5 -7.5t7.5 -26.5v-642
q0 -19 -7.5 -26.5t-26.5 -7.5h-57q-19 0 -27 7.5t-8 26.5z" />
    <glyph glyph-name="Idieresis" unicode="&#xcf;" horiz-adv-x="264" 
d="M29 888h7q30 0 41 -11.5t11 -40.5v-10q0 -29 -11 -40.5t-41 -11.5h-7q-30 0 -41 11.5t-11 40.5v10q0 29 11 40.5t41 11.5zM229 888h7q30 0 41 -11.5t11 -40.5v-10q0 -29 -11 -40.5t-41 -11.5h-7q-30 0 -41.5 11.5t-11.5 40.5v10q0 29 11.5 40.5t41.5 11.5zM69 34v642
q0 19 8 26.5t27 7.5h57q19 0 26.5 -7.5t7.5 -26.5v-642q0 -19 -7.5 -26.5t-26.5 -7.5h-57q-19 0 -27 7.5t-8 26.5z" />
    <glyph glyph-name="Eth" unicode="&#xd0;" horiz-adv-x="682" 
d="M119 710h225q137 0 213.5 -70t76.5 -194v-182q0 -124 -76.5 -194t-213.5 -70h-225q-19 0 -26.5 7.5t-7.5 26.5v292h-59q-12 0 -16 4.5t-4 17.5v37q0 22 20 22h59v269q0 19 7.5 26.5t26.5 7.5zM508 263v184q0 71 -42 108.5t-122 37.5h-134v-186h133q12 0 16 -4.5t4 -17.5
v-37q0 -13 -4 -17.5t-16 -4.5h-133v-209h134q79 0 121.5 37.5t42.5 108.5z" />
    <glyph glyph-name="Ntilde" unicode="&#xd1;" horiz-adv-x="696" 
d="M447 895h32q19 0 19 -19q0 -60 -20 -85.5t-65 -25.5q-34 0 -72 29q-37 28 -57 28q-23 0 -23 -38q0 -19 -19 -19h-32q-19 0 -19 19q0 59 20 85t62 26q39 0 77 -28q38 -29 55 -29q24 0 24 38q0 19 18 19zM539 710h53q19 0 26.5 -7.5t7.5 -26.5v-642q0 -19 -7.5 -26.5
t-26.5 -7.5h-57q-22 0 -33 17l-245 362q-12 17 -25 41t-23 45.5t-18 40.5l-12.5 30.5t-3.5 10.5h-6q0 1 2.5 -11.5t5.5 -33.5t6 -46.5t5.5 -54.5t2.5 -53v-314q0 -19 -7.5 -26.5t-26.5 -7.5h-53q-19 0 -27 7.5t-8 26.5v642q0 19 8 26.5t27 7.5h57q23 0 33 -16l243 -360
q20 -30 41 -72.5t32.5 -70.5t10.5 -27h6l-1 6l-3 17.5l-4.5 27t-5 34t-4.5 37.5t-3 40.5t-1 39.5v310q0 19 7.5 26.5t26.5 7.5z" />
    <glyph glyph-name="Ograve" unicode="&#xd2;" horiz-adv-x="669" 
d="M222 879l26 31q20 23 57 2l147 -87q12 -7 12 -13.5t-10 -19.5l-14 -18q-9 -12 -39 -2l-174 72q-27 11 -5 35zM49 246v218q0 123 75 192t211 69q135 0 210 -69t75 -192v-218q0 -123 -75 -192t-210 -69q-136 0 -211 69t-75 192zM495 245v220q0 69 -41.5 106t-118.5 37
t-118.5 -36.5t-41.5 -106.5v-220q0 -70 41.5 -106.5t118.5 -36.5t118.5 37t41.5 106z" />
    <glyph glyph-name="Oacute" unicode="&#xd3;" horiz-adv-x="669" 
d="M222 825l147 89q37 19 56 -2l26 -32q21 -24 -4 -34l-174 -73q-29 -11 -39 1l-14 19q-17 22 2 32zM49 246v218q0 123 75 192t211 69q135 0 210 -69t75 -192v-218q0 -123 -75 -192t-210 -69q-136 0 -211 69t-75 192zM495 245v220q0 69 -41.5 106t-118.5 37t-118.5 -36.5
t-41.5 -106.5v-220q0 -70 41.5 -106.5t118.5 -36.5t118.5 37t41.5 106z" />
    <glyph glyph-name="Ocircumflex" unicode="&#xd4;" horiz-adv-x="669" 
d="M332 919h12q19 0 28.5 -4.5t27.5 -22.5l101 -98q10 -10 6 -17.5t-21 -7.5h-44q-21 0 -31 3t-19 15l-57 57l-60 -57q-12 -12 -20 -15t-28 -3h-41q-17 0 -21 7.5t6 17.5l102 98q18 18 27.5 22.5t31.5 4.5zM49 246v218q0 123 75 192t211 69q135 0 210 -69t75 -192v-218
q0 -123 -75 -192t-210 -69q-136 0 -211 69t-75 192zM495 245v220q0 69 -41.5 106t-118.5 37t-118.5 -36.5t-41.5 -106.5v-220q0 -70 41.5 -106.5t118.5 -36.5t118.5 37t41.5 106z" />
    <glyph glyph-name="Otilde" unicode="&#xd5;" horiz-adv-x="669" 
d="M433 905h32q19 0 19 -19q0 -60 -20 -85.5t-65 -25.5q-34 0 -72 29q-37 28 -57 28q-23 0 -23 -38q0 -19 -19 -19h-32q-19 0 -19 19q0 59 20 85t62 26q39 0 77 -28q38 -29 55 -29q24 0 24 38q0 19 18 19zM49 246v218q0 123 75 192t211 69q135 0 210 -69t75 -192v-218
q0 -123 -75 -192t-210 -69q-136 0 -211 69t-75 192zM495 245v220q0 69 -41.5 106t-118.5 37t-118.5 -36.5t-41.5 -106.5v-220q0 -70 41.5 -106.5t118.5 -36.5t118.5 37t41.5 106z" />
    <glyph glyph-name="Odieresis" unicode="&#xd6;" horiz-adv-x="669" 
d="M231 898h7q30 0 41.5 -11.5t11.5 -40.5v-10q0 -29 -11.5 -40.5t-41.5 -11.5h-7q-30 0 -41 11.5t-11 40.5v10q0 29 11 40.5t41 11.5zM432 898h6q30 0 41.5 -11.5t11.5 -40.5v-10q0 -29 -11.5 -40.5t-41.5 -11.5h-6q-30 0 -41.5 11.5t-11.5 40.5v10q0 29 11.5 40.5
t41.5 11.5zM49 246v218q0 123 75 192t211 69q135 0 210 -69t75 -192v-218q0 -123 -75 -192t-210 -69q-136 0 -211 69t-75 192zM495 245v220q0 69 -41.5 106t-118.5 37t-118.5 -36.5t-41.5 -106.5v-220q0 -70 41.5 -106.5t118.5 -36.5t118.5 37t41.5 106z" />
    <glyph glyph-name="multiply" unicode="&#xd7;" horiz-adv-x="513" 
d="M352 325l121 -121q26 -23 0 -46l-27 -28q-23 -23 -46 0l-121 121l-120 -120q-23 -23 -46 0l-28 28q-22 22 0 46l120 120l-120 120q-22 24 0 46l28 28q23 23 46 0l120 -121l121 121q23 23 46 0l27 -27q26 -23 0 -46z" />
    <glyph glyph-name="Oslash" unicode="&#xd8;" horiz-adv-x="669" 
d="M566 753h67q11 0 6 -11l-68 -105q56 -68 56 -173v-218q0 -121 -74 -190t-211 -71q-96 -1 -164 35l-31 -49q-7 -10 -23 -10h-65q-14 0 -6 11l62 97q-59 68 -59 177v218q0 123 75 192t211 69q98 0 167 -39l36 57q7 10 21 10zM194 192l249 391q-40 25 -101 25
q-77 0 -118.5 -36.5t-41.5 -106.5v-220q0 -31 12 -53zM492 512l-248 -388q37 -22 98 -22q77 0 118.5 37t41.5 106v220q0 26 -10 47z" />
    <glyph glyph-name="Ugrave" unicode="&#xd9;" horiz-adv-x="688" 
d="M231 869l26 31q20 23 57 2l147 -87q12 -7 12 -13.5t-10 -19.5l-14 -18q-9 -12 -39 -2l-174 72q-27 11 -5 35zM190 676v-433q0 -69 39.5 -105t114.5 -36t114.5 36t39.5 105v433q0 19 7.5 26.5t26.5 7.5h57q19 0 26.5 -7.5t7.5 -26.5v-432q0 -121 -72.5 -190t-206.5 -69
t-207 69t-73 190v432q0 19 7.5 26.5t26.5 7.5h58q19 0 26.5 -7.5t7.5 -26.5z" />
    <glyph glyph-name="Uacute" unicode="&#xda;" horiz-adv-x="688" 
d="M231 815l147 89q37 19 56 -2l26 -32q21 -24 -4 -34l-174 -73q-29 -11 -39 1l-14 19q-17 22 2 32zM190 676v-433q0 -69 39.5 -105t114.5 -36t114.5 36t39.5 105v433q0 19 7.5 26.5t26.5 7.5h57q19 0 26.5 -7.5t7.5 -26.5v-432q0 -121 -72.5 -190t-206.5 -69t-207 69
t-73 190v432q0 19 7.5 26.5t26.5 7.5h58q19 0 26.5 -7.5t7.5 -26.5z" />
    <glyph glyph-name="Ucircumflex" unicode="&#xdb;" horiz-adv-x="688" 
d="M341 909h12q19 0 28.5 -4.5t27.5 -22.5l101 -98q10 -10 6 -17.5t-21 -7.5h-44q-22 0 -31.5 3t-18.5 15l-57 57l-60 -57q-12 -12 -20 -15t-28 -3h-41q-17 0 -21 7.5t6 17.5l102 98q18 18 27.5 22.5t31.5 4.5zM190 676v-433q0 -69 39.5 -105t114.5 -36t114.5 36t39.5 105
v433q0 19 7.5 26.5t26.5 7.5h57q19 0 26.5 -7.5t7.5 -26.5v-432q0 -121 -72.5 -190t-206.5 -69t-207 69t-73 190v432q0 19 7.5 26.5t26.5 7.5h58q19 0 26.5 -7.5t7.5 -26.5z" />
    <glyph glyph-name="Udieresis" unicode="&#xdc;" horiz-adv-x="688" 
d="M240 888h7q30 0 41.5 -11.5t11.5 -40.5v-10q0 -29 -11.5 -40.5t-41.5 -11.5h-7q-30 0 -41 11.5t-11 40.5v10q0 29 11 40.5t41 11.5zM441 888h6q30 0 41.5 -11.5t11.5 -40.5v-10q0 -29 -11.5 -40.5t-41.5 -11.5h-6q-30 0 -41.5 11.5t-11.5 40.5v10q0 29 11.5 40.5
t41.5 11.5zM190 676v-433q0 -69 39.5 -105t114.5 -36t114.5 36t39.5 105v433q0 19 7.5 26.5t26.5 7.5h57q19 0 26.5 -7.5t7.5 -26.5v-432q0 -121 -72.5 -190t-206.5 -69t-207 69t-73 190v432q0 19 7.5 26.5t26.5 7.5h58q19 0 26.5 -7.5t7.5 -26.5z" />
    <glyph glyph-name="Yacute" unicode="&#xdd;" horiz-adv-x="643" 
d="M215 815l147 89q38 20 57 -2l25 -32q21 -24 -4 -34l-174 -73q-29 -11 -39 1l-14 19q-17 22 2 32zM550 710h65q18 0 22 -10t-5 -24l-244 -396v-246q0 -19 -7.5 -26.5t-26.5 -7.5h-57q-19 0 -26.5 7.5t-7.5 26.5v248l-245 394q-9 14 -4.5 24t22.5 10h70q33 0 44 -4.5
t22 -25.5l155 -270l156 270q11 20 22.5 25t44.5 5z" />
    <glyph glyph-name="Thorn" unicode="&#xde;" horiz-adv-x="630" 
d="M195 601h164q111 0 179 -65q67 -64 67 -177q0 -112 -67 -176q-68 -65 -179 -65h-164v-84q0 -19 -7.5 -26.5t-26.5 -7.5h-57q-19 0 -27 7.5t-8 26.5v642q0 19 8 26.5t27 7.5h57q19 0 26.5 -7.5t7.5 -26.5v-75zM195 235h152q57 0 91.5 34.5t34.5 89.5q0 57 -34.5 91
t-91.5 34h-152v-249z" />
    <glyph glyph-name="germandbls" unicode="&#xdf;" 
d="M58 34v494q0 100 57 161t157 61q106 0 162.5 -54t56.5 -151q0 -108 -74 -153v-3q101 -41 101 -183q0 -99 -56.5 -152.5t-158.5 -53.5h-52q-19 0 -26.5 7.5t-7.5 26.5v49q0 19 7.5 26.5t26.5 7.5h40q99 0 99 104q0 48 -25.5 75.5t-71.5 27.5h-41q-19 0 -26.5 7.5
t-7.5 26.5v45q0 19 7.5 26.5t26.5 7.5h30q41 0 64 26.5t23 69.5q0 49 -25.5 74.5t-72.5 25.5q-45 0 -71 -28t-26 -76v-495q0 -19 -7.5 -26.5t-26.5 -7.5h-47q-19 0 -27 7.5t-8 26.5z" />
    <glyph glyph-name="agrave" unicode="&#xe0;" horiz-adv-x="519" 
d="M144 695l25 32q20 23 57 1l147 -88q19 -10 2 -32l-14 -19q-10 -13 -39 -1l-174 73q-27 8 -4 34zM49 429q54 104 207 104q214 0 214 -206v-259q0 -26 -7.5 -37t-28.5 -20q-61 -26 -180 -26q-128 0 -175 40q-48 39 -48 122q0 89 52 125t175 36q1 0 96 -5v28
q0 50 -23.5 74.5t-76.5 24.5q-74 0 -105 -48q-11 -16 -18.5 -18.5t-24.5 3.5l-40 17q-33 15 -17 45zM354 103v105q-30 1 -57.5 2.5t-39 2t-12.5 0.5q-53 0 -74.5 -15.5t-21.5 -49.5q0 -35 20.5 -51t73.5 -16q62 0 100 8q11 5 11 14z" />
    <glyph glyph-name="aacute" unicode="&#xe1;" horiz-adv-x="519" 
d="M142 640l148 88q37 23 56 -1l26 -32q22 -25 -5 -34l-174 -73q-29 -12 -38 1l-14 19q-18 22 1 32zM49 429q54 104 207 104q214 0 214 -206v-259q0 -26 -7.5 -37t-28.5 -20q-61 -26 -180 -26q-128 0 -175 40q-48 39 -48 122q0 89 52 125t175 36q1 0 96 -5v28
q0 50 -23.5 74.5t-76.5 24.5q-74 0 -105 -48q-11 -16 -18.5 -18.5t-24.5 3.5l-40 17q-33 15 -17 45zM354 103v105q-30 1 -57.5 2.5t-39 2t-12.5 0.5q-53 0 -74.5 -15.5t-21.5 -49.5q0 -35 20.5 -51t73.5 -16q62 0 100 8q11 5 11 14z" />
    <glyph glyph-name="acircumflex" unicode="&#xe2;" horiz-adv-x="519" 
d="M253 732h12q19 0 28 -4t27 -22l102 -98q10 -10 6 -17.5t-21 -7.5h-45q-32 0 -49 17l-57 57l-61 -57q-11 -12 -18.5 -14.5t-28.5 -2.5h-41q-17 0 -21 7.5t6 17.5l102 98q17 18 26.5 22t32.5 4zM49 429q54 104 207 104q214 0 214 -206v-259q0 -26 -7.5 -37t-28.5 -20
q-61 -26 -180 -26q-128 0 -175 40q-48 39 -48 122q0 89 52 125t175 36q1 0 96 -5v28q0 50 -23.5 74.5t-76.5 24.5q-74 0 -105 -48q-11 -16 -18.5 -18.5t-24.5 3.5l-40 17q-33 15 -17 45zM354 103v105q-30 1 -57.5 2.5t-39 2t-12.5 0.5q-53 0 -74.5 -15.5t-21.5 -49.5
q0 -35 20.5 -51t73.5 -16q62 0 100 8q11 5 11 14z" />
    <glyph glyph-name="atilde" unicode="&#xe3;" horiz-adv-x="519" 
d="M354 724h32q19 0 19 -19q0 -60 -20 -86t-65 -26q-34 0 -72 29q-37 28 -57 28q-24 0 -24 -38q0 -19 -18 -19h-33q-19 0 -19 19q0 59 20.5 85.5t62.5 26.5q39 0 76 -28q38 -29 56 -29q23 0 23 38q0 19 19 19zM49 429q54 104 207 104q214 0 214 -206v-259q0 -26 -7.5 -37
t-28.5 -20q-61 -26 -180 -26q-128 0 -175 40q-48 39 -48 122q0 89 52 125t175 36q1 0 96 -5v28q0 50 -23.5 74.5t-76.5 24.5q-74 0 -105 -48q-11 -16 -18.5 -18.5t-24.5 3.5l-40 17q-33 15 -17 45zM354 103v105q-30 1 -57.5 2.5t-39 2t-12.5 0.5q-53 0 -74.5 -15.5
t-21.5 -49.5q0 -35 20.5 -51t73.5 -16q62 0 100 8q11 5 11 14z" />
    <glyph glyph-name="adieresis" unicode="&#xe4;" horiz-adv-x="519" 
d="M152 709h7q30 0 41.5 -11.5t11.5 -40.5v-9q0 -29 -11.5 -40.5t-41.5 -11.5h-7q-30 0 -41 11.5t-11 40.5v9q0 29 11 40.5t41 11.5zM353 709h6q30 0 41 -11.5t11 -40.5v-9q0 -29 -11 -40.5t-41 -11.5h-6q-31 0 -42 11t-11 41v9q0 29 11 40.5t42 11.5zM49 429
q54 104 207 104q214 0 214 -206v-259q0 -26 -7.5 -37t-28.5 -20q-61 -26 -180 -26q-128 0 -175 40q-48 39 -48 122q0 89 52 125t175 36q1 0 96 -5v28q0 50 -23.5 74.5t-76.5 24.5q-74 0 -105 -48q-11 -16 -18.5 -18.5t-24.5 3.5l-40 17q-33 15 -17 45zM354 103v105
q-30 1 -57.5 2.5t-39 2t-12.5 0.5q-53 0 -74.5 -15.5t-21.5 -49.5q0 -35 20.5 -51t73.5 -16q62 0 100 8q11 5 11 14z" />
    <glyph glyph-name="aring" unicode="&#xe5;" horiz-adv-x="519" 
d="M150 679q0 47 31 77t79 30q47 0 77 -30t30 -77q0 -46 -30 -75.5t-77 -29.5q-48 0 -79 29.5t-31 75.5zM309 679q0 22 -13.5 36t-35.5 14q-23 0 -37.5 -14t-14.5 -36q0 -21 14.5 -34.5t37.5 -13.5q22 0 35.5 13.5t13.5 34.5zM49 429q54 104 207 104q214 0 214 -206v-259
q0 -26 -7.5 -37t-28.5 -20q-61 -26 -180 -26q-128 0 -175 40q-48 39 -48 122q0 89 52 125t175 36q1 0 96 -5v28q0 50 -23.5 74.5t-76.5 24.5q-74 0 -105 -48q-11 -16 -18.5 -18.5t-24.5 3.5l-40 17q-33 15 -17 45zM354 103v105q-30 1 -57.5 2.5t-39 2t-12.5 0.5
q-53 0 -74.5 -15.5t-21.5 -49.5q0 -35 20.5 -51t73.5 -16q62 0 100 8q11 5 11 14z" />
    <glyph glyph-name="ae" unicode="&#xe6;" horiz-adv-x="799" 
d="M49 429q56 104 195 104q100 0 148 -55q52 55 155 55q107 0 162.5 -55.5t55.5 -150.5v-62q0 -43 -44 -43h-275v-37q0 -100 101 -100q68 0 103 53q12 16 22.5 18.5t28.5 -6.5l35 -19q33 -17 12 -50q-58 -96 -202 -96q-83 0 -136 38q-68 -38 -168 -38q-120 0 -165 39
t-45 122q0 90 48 126t166 36q14 0 47 -2.5t36 -2.5v41q0 43 -20.5 64.5t-67.5 21.5q-61 0 -92 -48q-11 -16 -18 -18.5t-24 4.5l-40 17q-34 13 -18 44zM649 311v22q0 102 -102 102q-101 0 -101 -102v-22h203zM329 152v56q-4 0 -43 2.5t-53 2.5q-47 0 -65.5 -15.5t-18.5 -50.5
t17.5 -50.5t64.5 -15.5q33 0 57.5 5t32.5 9.5t10 7.5q-2 22 -2 49z" />
    <glyph glyph-name="ccedilla" unicode="&#xe7;" horiz-adv-x="517" 
d="M419 176l45 -13q34 -13 21 -45q-44 -117 -180 -130l-17 -46q3 1 13 1q39 0 63.5 -26t20.5 -64q-11 -98 -134 -98q-48 0 -73 13q-17 8 -17 28l-1 30q0 19 16 12q29 -16 60 -16q49 0 49 36q0 28 -43 29q-20 0 -25 -1q-13 -1 -16 5t2 19l33 76q-97 7 -146 59t-49 145v138
q0 99 58 152t172 53q83 0 138 -35t76 -96q11 -33 -22 -45l-44 -14q-32 -12 -44 21q-25 67 -109 67q-109 0 -109 -98v-148q0 -47 28 -72.5t81 -25.5q84 0 109 69q7 18 16.5 22t27.5 -2z" />
    <glyph glyph-name="egrave" unicode="&#xe8;" horiz-adv-x="537" 
d="M160 695l25 32q19 22 57 2l147 -89q19 -10 2 -32l-14 -18q-10 -13 -39 -2l-174 73q-25 10 -4 34zM40 199v118q0 105 59.5 160.5t172.5 55.5q111 0 171 -56.5t60 -150.5v-61q0 -43 -45 -43h-302v-37q0 -49 29.5 -74.5t84.5 -25.5q83 0 118 53q12 17 22.5 19.5t28.5 -7.5
l35 -19q34 -16 12 -50q-58 -96 -216 -96q-114 0 -172 56.5t-58 157.5zM387 311v22q0 49 -29 75.5t-86 26.5q-56 0 -86 -26.5t-30 -75.5v-22h231z" />
    <glyph glyph-name="eacute" unicode="&#xe9;" horiz-adv-x="537" 
d="M158 640l148 89q37 20 56 -2l26 -32q21 -24 -5 -34l-174 -73q-29 -11 -38 2l-14 18q-18 22 1 32zM40 199v118q0 105 59.5 160.5t172.5 55.5q111 0 171 -56.5t60 -150.5v-61q0 -43 -45 -43h-302v-37q0 -49 29.5 -74.5t84.5 -25.5q83 0 118 53q12 17 22.5 19.5t28.5 -7.5
l35 -19q34 -16 12 -50q-58 -96 -216 -96q-114 0 -172 56.5t-58 157.5zM387 311v22q0 49 -29 75.5t-86 26.5q-56 0 -86 -26.5t-30 -75.5v-22h231z" />
    <glyph glyph-name="ecircumflex" unicode="&#xea;" horiz-adv-x="537" 
d="M269 728h12q18 0 27 -4t27 -22l99 -96q22 -24 -14 -24h-44q-22 0 -30.5 2.5t-17.5 13.5l-57 56l-58 -56q-12 -11 -20 -13.5t-27 -2.5h-40q-38 0 -15 24l100 96q17 18 26.5 22t31.5 4zM40 199v118q0 105 59.5 160.5t172.5 55.5q111 0 171 -56.5t60 -150.5v-61
q0 -43 -45 -43h-302v-37q0 -49 29.5 -74.5t84.5 -25.5q83 0 118 53q12 17 22.5 19.5t28.5 -7.5l35 -19q34 -16 12 -50q-58 -96 -216 -96q-114 0 -172 56.5t-58 157.5zM387 311v22q0 49 -29 75.5t-86 26.5q-56 0 -86 -26.5t-30 -75.5v-22h231z" />
    <glyph glyph-name="edieresis" unicode="&#xeb;" horiz-adv-x="537" 
d="M168 709h7q30 0 41.5 -11.5t11.5 -40.5v-9q0 -29 -11.5 -40.5t-41.5 -11.5h-7q-30 0 -41 11.5t-11 40.5v9q0 29 11 40.5t41 11.5zM369 709h6q30 0 41 -11.5t11 -40.5v-9q0 -29 -11 -40.5t-41 -11.5h-6q-31 0 -42 11t-11 41v9q0 29 11 40.5t42 11.5zM40 199v118
q0 105 59.5 160.5t172.5 55.5q111 0 171 -56.5t60 -150.5v-61q0 -43 -45 -43h-302v-37q0 -49 29.5 -74.5t84.5 -25.5q83 0 118 53q12 17 22.5 19.5t28.5 -7.5l35 -19q34 -16 12 -50q-58 -96 -216 -96q-114 0 -172 56.5t-58 157.5zM387 311v22q0 49 -29 75.5t-86 26.5
q-56 0 -86 -26.5t-30 -75.5v-22h231z" />
    <glyph glyph-name="igrave" unicode="&#xec;" horiz-adv-x="231" 
d="M18 694l25 32q23 24 57 2l124 -88q11 -7 11.5 -13.5t-9.5 -19.5l-14 -18q-10 -13 -39 -1l-151 72q-25 10 -4 34zM90 518h55q17 0 24 -6.5t7 -23.5v-457q0 -17 -7 -24t-24 -7h-55q-17 0 -23.5 7t-6.5 24v457q0 17 6.5 23.5t23.5 6.5z" />
    <glyph glyph-name="iacute" unicode="&#xed;" horiz-adv-x="231" 
d="M13 640l124 88q35 23 56 -2l26 -32q21 -24 -5 -34l-150 -72q-29 -12 -39 1l-14 18q-10 13 -9.5 19.5t11.5 13.5zM88 518h55q17 0 23.5 -6.5t6.5 -23.5v-457q0 -17 -6.5 -24t-23.5 -7h-55q-17 0 -24 7t-7 24v457q0 17 7 23.5t24 6.5z" />
    <glyph glyph-name="icircumflex" unicode="&#xee;" horiz-adv-x="231" 
d="M198 702l81 -94q21 -25 -15 -25h-40q-23 0 -32.5 3t-15.5 14l-40 55l-43 -55q-8 -12 -16 -14.5t-30 -2.5h-39q-35 0 -14 25l80 94q15 17 25 21.5t34 4.5h11q21 0 30 -4t24 -22zM109 518h55q17 0 23.5 -6.5t6.5 -23.5v-457q0 -17 -6.5 -24t-23.5 -7h-55q-17 0 -24 7t-7 24
v457q0 17 7 23.5t24 6.5z" />
    <glyph glyph-name="idieresis" unicode="&#xef;" horiz-adv-x="231" 
d="M26 712h7q30 0 41.5 -11.5t11.5 -40.5v-9q0 -29 -11.5 -40.5t-41.5 -11.5h-7q-30 0 -41 11.5t-11 40.5v9q0 29 11 40.5t41 11.5zM198 712h7q30 0 41 -11.5t11 -40.5v-9q0 -29 -11 -40.5t-41 -11.5h-7q-30 0 -41.5 11.5t-11.5 40.5v9q0 29 11.5 40.5t41.5 11.5zM88 518h55
q17 0 23.5 -6.5t6.5 -23.5v-457q0 -17 -6.5 -24t-23.5 -7h-55q-17 0 -24 7t-7 24v457q0 17 7 23.5t24 6.5z" />
    <glyph glyph-name="eth" unicode="&#xf0;" horiz-adv-x="554" 
d="M356 706l36 42q7 7 11 7t12 -6l32 -24q13 -10 1 -22l-32 -36q85 -81 85 -270v-209q0 -97 -59.5 -150t-170.5 -53t-171 53t-60 150v114q0 93 56 148t150 55q108 0 145 -55q-4 87 -50 131l-42 -46q-7 -7 -11 -7t-12 5l-29 21q-13 10 -1 23l35 39q-51 21 -131 21
q-19 0 -25.5 6.5t-7.5 23.5l-1 45q0 17 6.5 24t24.5 7q134 0 209 -37zM385 188v114q0 98 -114 98t-114 -98v-114q0 -98 114 -98t114 98z" />
    <glyph glyph-name="ntilde" unicode="&#xf1;" 
d="M376 724h32q19 0 19 -19q0 -60 -19.5 -86t-64.5 -26q-35 0 -73 29t-56 29q-24 0 -24 -38q0 -20 -18 -20h-33q-19 0 -19 20q0 59 20 85t63 26q39 0 76 -28q38 -29 55 -29q24 0 24 38q0 19 18 19zM95 499q84 34 197 34q104 0 156 -51.5t52 -149.5v-301q0 -17 -7 -24t-24 -7
h-55q-17 0 -23.5 7t-6.5 24v298q0 98 -109 98q-50 0 -96 -13q-7 -3 -7 -10v-373q0 -17 -6.5 -24t-23.5 -7h-55q-17 0 -24 7t-7 24v411q0 24 7.5 35.5t31.5 21.5z" />
    <glyph glyph-name="ograve" unicode="&#xf2;" horiz-adv-x="543" 
d="M159 695l26 32q20 23 56 1l147 -88q19 -10 2 -32l-14 -19q-9 -13 -39 -1l-174 73q-25 9 -4 34zM41 185v148q0 94 60 147t170 53t170.5 -53t60.5 -147v-148q0 -94 -60.5 -147t-170.5 -53t-170 53t-60 147zM386 185v148q0 46 -30 70.5t-85 24.5t-84.5 -24.5t-29.5 -70.5
v-148q0 -45 29.5 -70t84.5 -25t85 25t30 70z" />
    <glyph glyph-name="oacute" unicode="&#xf3;" horiz-adv-x="543" 
d="M158 640l147 88q37 22 57 -1l25 -32q23 -26 -4 -34l-174 -73q-29 -12 -39 1l-14 19q-17 22 2 32zM41 185v148q0 94 60 147t170 53t170.5 -53t60.5 -147v-148q0 -94 -60.5 -147t-170.5 -53t-170 53t-60 147zM386 185v148q0 46 -30 70.5t-85 24.5t-84.5 -24.5t-29.5 -70.5
v-148q0 -45 29.5 -70t84.5 -25t85 25t30 70z" />
    <glyph glyph-name="ocircumflex" unicode="&#xf4;" horiz-adv-x="543" 
d="M268 728h12q19 0 28 -4.5t26 -22.5l99 -95q10 -10 6.5 -17.5t-20.5 -7.5h-44q-31 0 -48 17l-56 56l-59 -56q-11 -11 -19 -14t-27 -3h-41q-17 0 -20.5 7.5t6.5 17.5l99 95q18 18 27.5 22.5t30.5 4.5zM41 185v148q0 94 60 147t170 53t170.5 -53t60.5 -147v-148
q0 -94 -60.5 -147t-170.5 -53t-170 53t-60 147zM386 185v148q0 46 -30 70.5t-85 24.5t-84.5 -24.5t-29.5 -70.5v-148q0 -45 29.5 -70t84.5 -25t85 25t30 70z" />
    <glyph glyph-name="otilde" unicode="&#xf5;" horiz-adv-x="543" 
d="M369 724h32q19 0 19 -19q0 -60 -19.5 -86t-64.5 -26q-35 0 -73 29q-37 28 -56 28q-24 0 -24 -38q0 -19 -18 -19h-33q-19 0 -19 19q0 59 20 85.5t63 26.5q39 0 76 -28q38 -29 55 -29q24 0 24 38q0 19 18 19zM41 185v148q0 94 60 147t170 53t170.5 -53t60.5 -147v-148
q0 -94 -60.5 -147t-170.5 -53t-170 53t-60 147zM386 185v148q0 46 -30 70.5t-85 24.5t-84.5 -24.5t-29.5 -70.5v-148q0 -45 29.5 -70t84.5 -25t85 25t30 70z" />
    <glyph glyph-name="odieresis" unicode="&#xf6;" horiz-adv-x="543" 
d="M167 709h7q30 0 41.5 -11.5t11.5 -40.5v-9q0 -29 -11.5 -40.5t-41.5 -11.5h-7q-29 0 -40 11.5t-11 40.5v9q0 29 11 40.5t40 11.5zM368 709h7q29 0 40.5 -11.5t11.5 -40.5v-9q0 -29 -11.5 -40.5t-40.5 -11.5h-7q-30 0 -41.5 11.5t-11.5 40.5v9q0 29 11.5 40.5t41.5 11.5z
M41 185v148q0 94 60 147t170 53t170.5 -53t60.5 -147v-148q0 -94 -60.5 -147t-170.5 -53t-170 53t-60 147zM386 185v148q0 46 -30 70.5t-85 24.5t-84.5 -24.5t-29.5 -70.5v-148q0 -45 29.5 -70t84.5 -25t85 25t30 70z" />
    <glyph glyph-name="divide" unicode="&#xf7;" horiz-adv-x="552" 
d="M273 579h7q36 0 50 -14t14 -50v-9q0 -37 -14 -50.5t-50 -13.5h-7q-37 0 -50.5 13.5t-13.5 50.5v9q0 36 13.5 50t50.5 14zM75 381h403q20 0 27 -7.5t7 -26.5v-44q0 -19 -7.5 -26.5t-26.5 -7.5h-403q-19 0 -27 7.5t-8 26.5v44q0 19 7.5 26.5t27.5 7.5zM273 209h7
q36 0 50 -13.5t14 -50.5v-9q0 -36 -14 -50t-50 -14h-7q-37 0 -50.5 14t-13.5 50v9q0 37 13.5 50.5t50.5 13.5z" />
    <glyph glyph-name="oslash" unicode="&#xf8;" horiz-adv-x="543" 
d="M435 552h46q11 0 5 -11l-40 -64q56 -51 56 -144v-148q0 -94 -60.5 -147t-170.5 -53q-71 0 -122 24l-21 -34q-7 -10 -22 -10h-45q-13 0 -5 11l42 66q-57 52 -57 143v148q0 94 60 147t170 53q71 0 123 -23l21 32q7 10 20 10zM168 152l167 264q-27 12 -64 12
q-55 0 -84.5 -24.5t-29.5 -70.5v-148q0 -19 11 -33zM376 367l-168 -264q27 -13 63 -13q55 0 85 25t30 70v148q0 20 -10 34z" />
    <glyph glyph-name="ugrave" unicode="&#xf9;" 
d="M163 695l26 32q20 23 56 1l147 -88q19 -10 2 -32l-14 -19q-9 -13 -39 -1l-174 73q-25 9 -4 34zM412 518h54q17 0 24 -6.5t7 -23.5v-412q0 -24 -7.5 -35t-31.5 -21q-90 -35 -196 -35q-104 0 -156.5 51.5t-52.5 149.5v302q0 17 7 23.5t24 6.5h55q17 0 23.5 -6.5t6.5 -23.5
v-298q0 -99 109 -99q52 0 92 12q11 5 11 17v368q0 17 7 23.5t24 6.5z" />
    <glyph glyph-name="uacute" unicode="&#xfa;" 
d="M162 640l147 88q37 22 57 -1l25 -32q23 -26 -4 -34l-174 -73q-29 -12 -39 1l-14 19q-17 22 2 32zM412 518h54q17 0 24 -6.5t7 -23.5v-412q0 -24 -7.5 -35t-31.5 -21q-90 -35 -196 -35q-104 0 -156.5 51.5t-52.5 149.5v302q0 17 7 23.5t24 6.5h55q17 0 23.5 -6.5
t6.5 -23.5v-298q0 -99 109 -99q52 0 92 12q11 5 11 17v368q0 17 7 23.5t24 6.5z" />
    <glyph glyph-name="ucircumflex" unicode="&#xfb;" 
d="M272 732h13q19 0 28 -4t27 -22l101 -98q10 -10 6.5 -17.5t-20.5 -7.5h-45q-32 0 -49 17l-58 57l-60 -57q-12 -12 -19 -14.5t-28 -2.5h-42q-17 0 -21 7.5t6 17.5l102 98q17 18 26.5 22t32.5 4zM412 518h54q17 0 24 -6.5t7 -23.5v-412q0 -24 -7.5 -35t-31.5 -21
q-90 -35 -196 -35q-104 0 -156.5 51.5t-52.5 149.5v302q0 17 7 23.5t24 6.5h55q17 0 23.5 -6.5t6.5 -23.5v-298q0 -99 109 -99q52 0 92 12q11 5 11 17v368q0 17 7 23.5t24 6.5z" />
    <glyph glyph-name="udieresis" unicode="&#xfc;" 
d="M171 709h7q30 0 41.5 -11.5t11.5 -40.5v-9q0 -29 -11.5 -40.5t-41.5 -11.5h-7q-29 0 -40 11.5t-11 40.5v9q0 29 11 40.5t40 11.5zM372 709h7q29 0 40.5 -11.5t11.5 -40.5v-9q0 -29 -11.5 -40.5t-40.5 -11.5h-7q-30 0 -41.5 11.5t-11.5 40.5v9q0 29 11.5 40.5t41.5 11.5z
M412 518h54q17 0 24 -6.5t7 -23.5v-412q0 -24 -7.5 -35t-31.5 -21q-90 -35 -196 -35q-104 0 -156.5 51.5t-52.5 149.5v302q0 17 7 23.5t24 6.5h55q17 0 23.5 -6.5t6.5 -23.5v-298q0 -99 109 -99q52 0 92 12q11 5 11 17v368q0 17 7 23.5t24 6.5z" />
    <glyph glyph-name="yacute" unicode="&#xfd;" horiz-adv-x="555" 
d="M167 640l147 88q37 22 57 -1l25 -32q23 -26 -4 -34l-174 -73q-29 -12 -39 1l-14 19q-17 22 2 32zM417 518h54q17 0 24 -6.5t7 -23.5v-505q0 -105 -54.5 -161.5t-165.5 -56.5q-150 0 -208 96q-21 34 13 50l38 21q18 9 28.5 6.5t21.5 -18.5q31 -51 105 -51q106 0 106 108
v47q-64 -14 -119 -14q-104 0 -156.5 51.5t-52.5 149.5v277q0 17 7 23.5t24 6.5h55q17 0 23.5 -6.5t6.5 -23.5v-273q0 -99 109 -99q47 0 103 14v358q0 17 7 23.5t24 6.5z" />
    <glyph glyph-name="thorn" unicode="&#xfe;" horiz-adv-x="544" 
d="M58 -189v897q0 17 7 24t24 7h55q17 0 23.5 -7t6.5 -24v-189q59 13 117 13q211 0 211 -202v-136q0 -209 -223 -209q-36 0 -105 18v-192q0 -17 -6.5 -24t-23.5 -7h-55q-17 0 -24 7t-7 24zM386 197v129q0 49 -28.5 74.5t-82.5 25.5q-39 0 -101 -15v-305q60 -15 97 -15
q115 0 115 106z" />
    <glyph glyph-name="ydieresis" unicode="&#xff;" horiz-adv-x="555" 
d="M176 709h7q30 0 41.5 -11.5t11.5 -40.5v-9q0 -29 -11.5 -40.5t-41.5 -11.5h-7q-29 0 -40 11.5t-11 40.5v9q0 29 11 40.5t40 11.5zM377 709h7q29 0 40.5 -11.5t11.5 -40.5v-9q0 -29 -11.5 -40.5t-40.5 -11.5h-7q-30 0 -41.5 11.5t-11.5 40.5v9q0 29 11.5 40.5t41.5 11.5z
M417 518h54q17 0 24 -6.5t7 -23.5v-505q0 -105 -54.5 -161.5t-165.5 -56.5q-150 0 -208 96q-21 34 13 50l38 21q18 9 28.5 6.5t21.5 -18.5q31 -51 105 -51q106 0 106 108v47q-64 -14 -119 -14q-104 0 -156.5 51.5t-52.5 149.5v277q0 17 7 23.5t24 6.5h55q17 0 23.5 -6.5
t6.5 -23.5v-273q0 -99 109 -99q47 0 103 14v358q0 17 7 23.5t24 6.5z" />
    <glyph glyph-name="Amacron" unicode="&#x100;" horiz-adv-x="658" 
d="M225 870h231q17 0 23 -6t6 -23v-25q0 -17 -6 -23t-23 -6h-231q-17 0 -23 6t-6 23v25q0 17 6.5 23t22.5 6zM409 684l250 -651q12 -33 -23 -33h-52q-31 0 -43.5 6t-18.5 24l-46 129h-276l-47 -129q-6 -18 -18.5 -24t-43.5 -6h-46q-35 0 -23 33l250 650q7 17 15.5 22.5
t26.5 5.5h53q32 0 42 -27zM441 262l-76 211q-15 46 -23 105l-1 17h-7q0 -58 -22 -121l-77 -212h206z" />
    <glyph glyph-name="amacron" unicode="&#x101;" horiz-adv-x="519" 
d="M140 695h232q17 0 23 -6t6 -23v-25q0 -17 -6 -23t-23 -6h-232q-17 0 -23 6t-6 23v25q0 17 6.5 23t22.5 6zM49 429q54 104 207 104q214 0 214 -206v-259q0 -26 -7.5 -37t-28.5 -20q-61 -26 -180 -26q-128 0 -175 40q-48 39 -48 122q0 89 52 125t175 36q1 0 96 -5v28
q0 50 -23.5 74.5t-76.5 24.5q-74 0 -105 -48q-11 -16 -18.5 -18.5t-24.5 3.5l-40 17q-33 15 -17 45zM354 103v105q-30 1 -57.5 2.5t-39 2t-12.5 0.5q-53 0 -74.5 -15.5t-21.5 -49.5q0 -35 20.5 -51t73.5 -16q62 0 100 8q11 5 11 14z" />
    <glyph glyph-name="Abreve" unicode="&#x102;" horiz-adv-x="658" 
d="M496 863q-17 -49 -57.5 -76t-97.5 -27t-97 27t-57 76q-8 20 13 28l40 15q24 8 31 -10q16 -52 70 -52t70 52q8 19 26 11l45 -16q12 -5 15 -11t-1 -17zM409 684l250 -651q12 -33 -23 -33h-52q-31 0 -43.5 6t-18.5 24l-46 129h-276l-47 -129q-6 -18 -18.5 -24t-43.5 -6h-46
q-35 0 -23 33l250 650q7 17 15.5 22.5t26.5 5.5h53q32 0 42 -27zM441 262l-76 211q-15 46 -23 105l-1 17h-7q0 -58 -22 -121l-77 -212h206z" />
    <glyph glyph-name="abreve" unicode="&#x103;" horiz-adv-x="519" 
d="M411 686q-16 -48 -57 -75t-98 -27t-97.5 26.5t-56.5 75.5q-8 21 14 29l39 15q23 8 31 -10q17 -53 70 -53t70 53q7 16 26 11l46 -16q11 -5 14 -11t-1 -18zM49 429q54 104 207 104q214 0 214 -206v-259q0 -26 -7.5 -37t-28.5 -20q-61 -26 -180 -26q-128 0 -175 40
q-48 39 -48 122q0 89 52 125t175 36q1 0 96 -5v28q0 50 -23.5 74.5t-76.5 24.5q-74 0 -105 -48q-11 -16 -18.5 -18.5t-24.5 3.5l-40 17q-33 15 -17 45zM354 103v105q-30 1 -57.5 2.5t-39 2t-12.5 0.5q-53 0 -74.5 -15.5t-21.5 -49.5q0 -35 20.5 -51t73.5 -16q62 0 100 8
q11 5 11 14z" />
    <glyph glyph-name="Aogonek" unicode="&#x104;" horiz-adv-x="658" 
d="M315 711h53q32 0 42 -27l250 -653q7 -19 -3 -29q-37 -37 -57.5 -79t-14.5 -62q6 -21 26 -21q17 0 27 10q13 7 19 -6l14 -33q6 -13 -2 -21q-38 -35 -95 -35q-77 0 -89 60q-8 40 14 89.5t70 96.5q-23 1 -31.5 7t-14.5 23l-47 130h-274l-48 -131q-7 -18 -19 -24t-43 -6h-46
q-35 0 -23 33l250 650q6 17 14.5 22.5t27.5 5.5zM441 263l-63 180q-10 28 -18.5 65.5t-13 61.5t-4.5 25h-7q0 -1 -4 -25t-12 -61t-18 -65l-64 -181h204z" />
    <glyph glyph-name="aogonek" unicode="&#x105;" horiz-adv-x="522" 
d="M49 429q54 104 207 104q214 0 214 -206v-259q0 -28 -11 -41q-43 -55 -61.5 -99.5t-12.5 -66.5q6 -21 26 -21q14 0 27 10q13 7 19 -6l13 -32q7 -13 -1 -21q-37 -36 -95 -36q-77 0 -89 60q-7 39 13 86t62 92q-50 -8 -106 -8q-128 0 -175 40q-48 39 -48 122q0 89 52 125
t175 36q1 0 96 -5v28q0 50 -23.5 74.5t-76.5 24.5q-74 0 -105 -48q-11 -16 -18.5 -18.5t-24.5 3.5l-40 17q-33 15 -17 45zM354 103v105q-30 1 -57.5 2.5t-39 2t-12.5 0.5q-53 0 -74.5 -15.5t-21.5 -49.5q0 -35 20.5 -51t73.5 -16q62 0 100 8q11 5 11 14z" />
    <glyph glyph-name="Cacute" unicode="&#x106;" horiz-adv-x="640" 
d="M226 815l148 89q37 20 56 -2l26 -32q21 -24 -5 -34l-174 -73q-29 -11 -38 1l-14 19q-18 22 1 32zM49 246v219q0 122 75 191t211 69q213 0 272 -167q12 -32 -21 -44l-55 -19q-18 -6 -27 -1.5t-16 22.5q-33 92 -153 92q-77 0 -118.5 -36.5t-41.5 -105.5v-221
q0 -69 41.5 -106t118.5 -37q119 0 153 93q8 19 17 23.5t27 -2.5l54 -19q33 -12 22 -44q-58 -168 -273 -168q-136 0 -211 69t-75 192z" />
    <glyph glyph-name="cacute" unicode="&#x107;" horiz-adv-x="517" 
d="M157 640l148 88q37 23 56 -1l26 -32q22 -25 -5 -34l-174 -73q-29 -12 -38 1l-14 19q-18 22 1 32zM41 190v138q0 99 58 152t172 53q83 0 138 -35t76 -96q11 -33 -22 -45l-44 -14q-32 -12 -44 21q-25 67 -109 67q-109 0 -109 -98v-148q0 -47 28 -72.5t81 -25.5q84 0 109 69
q7 18 16.5 22t27.5 -2l45 -13q34 -13 21 -45q-52 -133 -223 -133q-110 0 -165.5 53t-55.5 152z" />
    <glyph glyph-name="Ccircumflex" unicode="&#x108;" horiz-adv-x="640" 
d="M337 909h12q19 0 28.5 -4.5t26.5 -22.5l102 -98q10 -10 6 -17.5t-21 -7.5h-45q-32 0 -49 18l-57 57l-61 -57q-11 -12 -19 -15t-28 -3h-41q-17 0 -21 7.5t6 17.5l102 98q18 18 27.5 22.5t31.5 4.5zM49 246v219q0 122 75 191t211 69q213 0 272 -167q12 -32 -21 -44l-55 -19
q-18 -6 -27 -1.5t-16 22.5q-33 92 -153 92q-77 0 -118.5 -36.5t-41.5 -105.5v-221q0 -69 41.5 -106t118.5 -37q119 0 153 93q8 19 17 23.5t27 -2.5l54 -19q33 -12 22 -44q-58 -168 -273 -168q-136 0 -211 69t-75 192z" />
    <glyph glyph-name="ccircumflex" unicode="&#x109;" horiz-adv-x="517" 
d="M268 728h12q18 0 27 -4.5t27 -22.5l99 -95q10 -10 6.5 -17.5t-20.5 -7.5h-44q-33 0 -48 17l-57 56l-58 -56q-12 -12 -19 -14.5t-28 -2.5h-40q-17 0 -21 7.5t6 17.5l100 95q17 18 26.5 22.5t31.5 4.5zM41 190v138q0 99 58 152t172 53q83 0 138 -35t76 -96q11 -33 -22 -45
l-44 -14q-32 -12 -44 21q-25 67 -109 67q-109 0 -109 -98v-148q0 -47 28 -72.5t81 -25.5q84 0 109 69q7 18 16.5 22t27.5 -2l45 -13q34 -13 21 -45q-52 -133 -223 -133q-110 0 -165.5 53t-55.5 152z" />
    <glyph glyph-name="Cdotaccent" unicode="&#x10a;" horiz-adv-x="640" 
d="M337 888h6q31 0 42 -11.5t11 -42.5v-8q0 -31 -11 -42t-42 -11h-6q-31 0 -42.5 11t-11.5 42v8q0 31 11.5 42.5t42.5 11.5zM49 246v219q0 122 75 191t211 69q213 0 272 -167q12 -32 -21 -44l-55 -19q-18 -6 -27 -1.5t-16 22.5q-33 92 -153 92q-77 0 -118.5 -36.5
t-41.5 -105.5v-221q0 -69 41.5 -106t118.5 -37q119 0 153 93q8 19 17 23.5t27 -2.5l54 -19q33 -12 22 -44q-58 -168 -273 -168q-136 0 -211 69t-75 192z" />
    <glyph glyph-name="cdotaccent" unicode="&#x10b;" horiz-adv-x="517" 
d="M268 711h6q31 0 42 -11.5t11 -42.5v-7q0 -31 -11 -42.5t-42 -11.5h-6q-32 0 -43 11t-11 43v7q0 31 11 42.5t43 11.5zM41 190v138q0 99 58 152t172 53q83 0 138 -35t76 -96q11 -33 -22 -45l-44 -14q-32 -12 -44 21q-25 67 -109 67q-109 0 -109 -98v-148q0 -47 28 -72.5
t81 -25.5q84 0 109 69q7 18 16.5 22t27.5 -2l45 -13q34 -13 21 -45q-52 -133 -223 -133q-110 0 -165.5 53t-55.5 152z" />
    <glyph glyph-name="Ccaron" unicode="&#x10c;" horiz-adv-x="640" 
d="M443 907h45q17 0 20.5 -7.5t-6.5 -17.5l-101 -97q-17 -18 -26.5 -22.5t-28.5 -4.5h-12q-23 0 -32.5 4t-27.5 23l-101 97q-10 10 -6.5 17.5t20.5 7.5h42q21 0 28.5 -2.5t18.5 -14.5l60 -57l58 57q9 11 18.5 14t30.5 3zM49 246v219q0 122 75 191t211 69q213 0 272 -167
q12 -32 -21 -44l-55 -19q-18 -6 -27 -1.5t-16 22.5q-33 92 -153 92q-77 0 -118.5 -36.5t-41.5 -105.5v-221q0 -69 41.5 -106t118.5 -37q119 0 153 93q8 19 17 23.5t27 -2.5l54 -19q33 -12 22 -44q-58 -168 -273 -168q-136 0 -211 69t-75 192z" />
    <glyph glyph-name="ccaron" unicode="&#x10d;" horiz-adv-x="517" 
d="M365 715h41q17 0 20.5 -7t-6.5 -16l-93 -91q-17 -17 -25.5 -21t-25.5 -4h-11q-21 0 -30 4t-24 21l-93 91q-21 23 13 23h38q19 0 26 -2.5t18 -13.5l55 -53l52 53q15 16 45 16zM41 190v138q0 99 58 152t172 53q83 0 138 -35t76 -96q11 -33 -22 -45l-44 -14q-32 -12 -44 21
q-25 67 -109 67q-109 0 -109 -98v-148q0 -47 28 -72.5t81 -25.5q84 0 109 69q7 18 16.5 22t27.5 -2l45 -13q34 -13 21 -45q-52 -133 -223 -133q-110 0 -165.5 53t-55.5 152z" />
    <glyph glyph-name="Dcaron" unicode="&#x10e;" horiz-adv-x="666" 
d="M418 907h45q17 0 20.5 -7.5t-6.5 -17.5l-101 -97q-18 -18 -27.5 -22.5t-28.5 -4.5h-12q-23 0 -32.5 4t-26.5 23l-102 97q-10 10 -6 17.5t21 7.5h41q21 0 28.5 -2.5t19.5 -14.5l60 -57l58 57q9 11 18 14t31 3zM104 710h224q137 0 213.5 -70t76.5 -194v-182
q0 -124 -76.5 -194t-213.5 -70h-224q-19 0 -27 7.5t-8 26.5v642q0 19 8 26.5t27 7.5zM493 263v184q0 71 -42.5 108.5t-121.5 37.5h-134v-476h134q79 0 121.5 37.5t42.5 108.5z" />
    <glyph glyph-name="dcaron" unicode="&#x10f;" horiz-adv-x="606" 
d="M42 187v137q0 103 52.5 156t156.5 53q48 0 119 -13v189q0 17 6.5 24t23.5 7h55q17 0 24 -7t7 -24v-637q0 -24 -8 -34.5t-32 -20.5q-87 -32 -187 -32q-217 0 -217 202zM674 708l-51 -171q-6 -17 -11.5 -22.5t-19.5 -5.5h-31q-13 0 -17 4.5t-2 16.5l24 178q3 19 10 25.5
t26 6.5h45q38 0 27 -32zM370 113v301q-58 13 -97 13q-115 0 -115 -106v-130q0 -100 112 -100q51 0 92 11q8 3 8 11z" />
    <glyph glyph-name="Dcroat" unicode="&#x110;" horiz-adv-x="682" 
d="M119 710h225q137 0 213.5 -70t76.5 -194v-182q0 -124 -76.5 -194t-213.5 -70h-225q-19 0 -26.5 7.5t-7.5 26.5v292h-59q-12 0 -16 4.5t-4 17.5v37q0 22 20 22h59v269q0 19 7.5 26.5t26.5 7.5zM508 263v184q0 71 -42 108.5t-122 37.5h-134v-186h133q12 0 16 -4.5t4 -17.5
v-37q0 -13 -4 -17.5t-16 -4.5h-133v-209h134q79 0 121.5 37.5t42.5 108.5z" />
    <glyph glyph-name="dslash" unicode="&#x111;" horiz-adv-x="542" 
d="M486 667h53q12 0 16.5 -4.5t4.5 -16.5v-29q0 -13 -4.5 -17.5t-16.5 -4.5h-53v-523q0 -25 -7.5 -35t-31.5 -20q-87 -32 -188 -32q-217 0 -217 202v137q0 102 53 155.5t156 53.5q51 0 119 -13v75h-121q-12 0 -16 4.5t-4 17.5v29q0 21 20 21h121v42q0 17 7 24t24 7h54
q17 0 24 -7t7 -24v-42zM370 113v301q-58 13 -96 13q-116 0 -116 -106v-130q0 -49 29 -74.5t83 -25.5q51 0 92 11q8 3 8 11z" />
    <glyph glyph-name="Emacron" unicode="&#x112;" horiz-adv-x="579" 
d="M187 870h232q17 0 23 -6t6 -23v-25q0 -17 -6 -23t-23 -6h-232q-17 0 -23 6t-6 23v25q0 17 6.5 23t22.5 6zM104 710h397q19 0 27 -7.5t8 -26.5v-49q0 -19 -8 -26.5t-27 -7.5h-306v-175h259q19 0 26.5 -7.5t7.5 -26.5v-49q0 -19 -7.5 -26.5t-26.5 -7.5h-259v-184h317
q19 0 26.5 -7.5t7.5 -26.5v-49q0 -19 -7.5 -26.5t-26.5 -7.5h-408q-19 0 -27 7.5t-8 26.5v642q0 19 8 26.5t27 7.5z" />
    <glyph glyph-name="emacron" unicode="&#x113;" horiz-adv-x="537" 
d="M166 688h212q16 0 21.5 -6t5.5 -22v-24q0 -16 -5.5 -22t-21.5 -6h-212q-16 0 -21.5 5.5t-5.5 22.5v24q0 16 6 22t21 6zM40 199v118q0 105 59.5 160.5t172.5 55.5q111 0 171 -56.5t60 -150.5v-61q0 -43 -45 -43h-302v-37q0 -49 29.5 -74.5t84.5 -25.5q83 0 118 53
q12 17 22.5 19.5t28.5 -7.5l35 -19q34 -16 12 -50q-58 -96 -216 -96q-114 0 -172 56.5t-58 157.5zM387 311v22q0 49 -29 75.5t-86 26.5q-56 0 -86 -26.5t-30 -75.5v-22h231z" />
    <glyph glyph-name="Ebreve" unicode="&#x114;" horiz-adv-x="579" 
d="M459 863q-17 -49 -58 -76t-98 -27q-56 0 -97 27t-57 76q-8 20 14 28l39 15q24 8 31 -10q16 -52 70 -52t70 52q8 19 26 11l46 -16q20 -9 14 -28zM104 710h397q19 0 27 -7.5t8 -26.5v-49q0 -19 -8 -26.5t-27 -7.5h-306v-175h259q19 0 26.5 -7.5t7.5 -26.5v-49
q0 -19 -7.5 -26.5t-26.5 -7.5h-259v-184h317q19 0 26.5 -7.5t7.5 -26.5v-49q0 -19 -7.5 -26.5t-26.5 -7.5h-408q-19 0 -27 7.5t-8 26.5v642q0 19 8 26.5t27 7.5z" />
    <glyph glyph-name="ebreve" unicode="&#x115;" horiz-adv-x="537" 
d="M427 686q-17 -48 -57.5 -75t-97.5 -27t-97 27t-57 75q-8 21 14 29l39 15q23 7 31 -10q17 -53 70 -53t70 53q7 17 26 11l46 -16q11 -5 14 -11t-1 -18zM40 199v118q0 105 59.5 160.5t172.5 55.5q111 0 171 -56.5t60 -150.5v-61q0 -43 -45 -43h-302v-37q0 -49 29.5 -74.5
t84.5 -25.5q83 0 118 53q12 17 22.5 19.5t28.5 -7.5l35 -19q34 -16 12 -50q-58 -96 -216 -96q-114 0 -172 56.5t-58 157.5zM387 311v22q0 49 -29 75.5t-86 26.5q-56 0 -86 -26.5t-30 -75.5v-22h231z" />
    <glyph glyph-name="Edotaccent" unicode="&#x116;" horiz-adv-x="579" 
d="M300 888h6q31 0 42.5 -11.5t11.5 -42.5v-8q0 -31 -11.5 -42t-42.5 -11h-6q-31 0 -42.5 11t-11.5 42v8q0 31 11.5 42.5t42.5 11.5zM104 710h397q19 0 27 -7.5t8 -26.5v-49q0 -19 -8 -26.5t-27 -7.5h-306v-175h259q19 0 26.5 -7.5t7.5 -26.5v-49q0 -19 -7.5 -26.5
t-26.5 -7.5h-259v-184h317q19 0 26.5 -7.5t7.5 -26.5v-49q0 -19 -7.5 -26.5t-26.5 -7.5h-408q-19 0 -27 7.5t-8 26.5v642q0 19 8 26.5t27 7.5z" />
    <glyph glyph-name="edotaccent" unicode="&#x117;" horiz-adv-x="537" 
d="M269 711h6q31 0 42 -11.5t11 -42.5v-7q0 -31 -11 -42.5t-42 -11.5h-6q-31 0 -42.5 11t-11.5 43v7q0 31 11.5 42.5t42.5 11.5zM40 199v118q0 105 59.5 160.5t172.5 55.5q111 0 171 -56.5t60 -150.5v-61q0 -43 -45 -43h-302v-37q0 -49 29.5 -74.5t84.5 -25.5q83 0 118 53
q12 17 22.5 19.5t28.5 -7.5l35 -19q34 -16 12 -50q-58 -96 -216 -96q-114 0 -172 56.5t-58 157.5zM387 311v22q0 49 -29 75.5t-86 26.5q-56 0 -86 -26.5t-30 -75.5v-22h231z" />
    <glyph glyph-name="Eogonek" unicode="&#x118;" horiz-adv-x="579" 
d="M104 710h397q19 0 27 -7.5t8 -26.5v-49q0 -19 -8 -26.5t-27 -7.5h-306v-175h259q19 0 26.5 -7.5t7.5 -26.5v-49q0 -19 -7.5 -26.5t-26.5 -7.5h-259v-184h317q19 0 26.5 -7.5t7.5 -26.5v-49q0 -16 -11 -30q-74 -68 -76 -126q0 -33 22 -35h6q13 0 23 9q13 10 20 -5l13 -33
q7 -13 -1 -21q-37 -36 -94 -36q-35 0 -58.5 16.5t-29.5 43.5q-10 39 14.5 90t74.5 93h-345q-19 0 -27 7.5t-8 26.5v642q0 19 8 26.5t27 7.5z" />
    <glyph glyph-name="eogonek" unicode="&#x119;" horiz-adv-x="537" 
d="M40 199v118q0 105 59.5 160.5t172.5 55.5q111 0 171 -56.5t60 -150.5v-61q0 -43 -45 -43h-302v-37q0 -49 29.5 -74.5t84.5 -25.5q83 0 118 53q12 17 22.5 19.5t28.5 -7.5l35 -19q34 -16 12 -50q-9 -17 -26 -34q-46 -55 -69 -111q-23 -55 -17 -75q6 -21 26 -21q17 0 27 10
q14 10 19 -6l14 -32q6 -14 -1 -21q-37 -36 -95 -36q-78 0 -89 60q-17 79 77 179q-34 -9 -82 -9q-114 0 -172 56.5t-58 157.5zM387 311v22q0 49 -29 75.5t-86 26.5q-56 0 -86 -26.5t-30 -75.5v-22h231z" />
    <glyph glyph-name="Ecaron" unicode="&#x11a;" horiz-adv-x="579" 
d="M406 907h45q17 0 21 -7.5t-6 -17.5l-102 -97q-17 -18 -26.5 -22.5t-28.5 -4.5h-12q-23 0 -32.5 4t-27.5 23l-101 97q-10 10 -6 17.5t21 7.5h41q21 0 28.5 -2.5t18.5 -14.5l61 -57l57 57q9 11 18.5 14t30.5 3zM104 710h397q19 0 27 -7.5t8 -26.5v-49q0 -19 -8 -26.5
t-27 -7.5h-306v-175h259q19 0 26.5 -7.5t7.5 -26.5v-49q0 -19 -7.5 -26.5t-26.5 -7.5h-259v-184h317q19 0 26.5 -7.5t7.5 -26.5v-49q0 -19 -7.5 -26.5t-26.5 -7.5h-408q-19 0 -27 7.5t-8 26.5v642q0 19 8 26.5t27 7.5z" />
    <glyph glyph-name="ecaron" unicode="&#x11b;" horiz-adv-x="537" 
d="M366 715h41q17 0 20.5 -7t-6.5 -16l-93 -91q-15 -17 -23.5 -20.5t-27.5 -3.5h-11q-22 0 -30.5 3.5t-23.5 20.5l-93 91q-21 23 13 23h38q19 0 26 -2.5t18 -13.5l55 -53l52 53q15 16 45 16zM40 199v118q0 105 59.5 160.5t172.5 55.5q111 0 171 -56.5t60 -150.5v-61
q0 -43 -45 -43h-302v-37q0 -49 29.5 -74.5t84.5 -25.5q83 0 118 53q12 17 22.5 19.5t28.5 -7.5l35 -19q34 -16 12 -50q-58 -96 -216 -96q-114 0 -172 56.5t-58 157.5zM387 311v22q0 49 -29 75.5t-86 26.5q-56 0 -86 -26.5t-30 -75.5v-22h231z" />
    <glyph glyph-name="Gcircumflex" unicode="&#x11c;" horiz-adv-x="662" 
d="M332 919h12q19 0 28.5 -4.5t26.5 -22.5l102 -98q10 -10 6 -17.5t-21 -7.5h-45q-33 0 -49 18l-57 57l-61 -57q-11 -12 -19 -15t-28 -3h-41q-17 0 -21 7.5t6 17.5l102 98q18 18 27.5 22.5t31.5 4.5zM346 389h240q20 0 27 -7.5t7 -26.5v-134q0 -105 -75 -170
q-77 -66 -210 -66q-136 0 -211 69t-75 192v219q0 122 75 191t211 69q213 0 272 -167q12 -32 -21 -44l-55 -19q-18 -7 -27 -2.5t-16 23.5q-33 92 -153 92q-78 0 -119 -36.5t-41 -105.5v-221q0 -70 41.5 -106.5t118.5 -36.5q74 0 118 33t44 85v52h-151q-19 0 -26.5 8t-7.5 27
v48q0 19 7.5 26.5t26.5 7.5z" />
    <glyph glyph-name="gcircumflex" unicode="&#x11d;" horiz-adv-x="541" 
d="M279 728h12q18 0 27 -4.5t27 -22.5l99 -95q10 -10 6.5 -17.5t-20.5 -7.5h-44q-31 0 -48 17l-56 56l-59 -56q-11 -11 -19 -14t-27 -3h-41q-17 0 -20.5 7.5t6.5 17.5l99 95q18 18 27.5 22.5t30.5 4.5zM46 210v113q0 210 226 210q115 0 181 -31q24 -11 30.5 -21t6.5 -34
v-464q0 -105 -54.5 -161.5t-165.5 -56.5q-150 0 -207 96q-23 32 12 50l38 21q18 9 28.5 6.5t22.5 -18.5q32 -51 104 -51q106 0 106 108v50q-68 -18 -120 -18q-104 0 -156 51.5t-52 149.5zM365 416q-42 11 -85 11q-118 0 -118 -108v-106q0 -47 28 -72.5t81 -25.5q42 0 103 14
v275q0 8 -9 12z" />
    <glyph glyph-name="Gbreve" unicode="&#x11e;" horiz-adv-x="662" 
d="M490 873q-17 -49 -57.5 -76t-97.5 -27t-97 27t-57 76q-8 20 14 28l39 15q24 8 31 -10q16 -52 70 -52t70 52q8 19 26 11l46 -16q11 -5 14 -11t-1 -17zM346 389h240q20 0 27 -7.5t7 -26.5v-134q0 -105 -75 -170q-77 -66 -210 -66q-136 0 -211 69t-75 192v219q0 122 75 191
t211 69q213 0 272 -167q12 -32 -21 -44l-55 -19q-18 -7 -27 -2.5t-16 23.5q-33 92 -153 92q-78 0 -119 -36.5t-41 -105.5v-221q0 -70 41.5 -106.5t118.5 -36.5q74 0 118 33t44 85v52h-151q-19 0 -26.5 8t-7.5 27v48q0 19 7.5 26.5t26.5 7.5z" />
    <glyph glyph-name="gbreve" unicode="&#x11f;" horiz-adv-x="541" 
d="M438 686q-17 -49 -58 -75.5t-98 -26.5t-97.5 27t-56.5 75q-8 21 14 29l39 15q24 7 31 -10q17 -53 70 -53t70 53q7 16 26 11l46 -16q20 -9 14 -29zM46 210v113q0 210 226 210q115 0 181 -31q24 -11 30.5 -21t6.5 -34v-464q0 -105 -54.5 -161.5t-165.5 -56.5
q-150 0 -207 96q-23 32 12 50l38 21q18 9 28.5 6.5t22.5 -18.5q32 -51 104 -51q106 0 106 108v50q-68 -18 -120 -18q-104 0 -156 51.5t-52 149.5zM365 416q-42 11 -85 11q-118 0 -118 -108v-106q0 -47 28 -72.5t81 -25.5q42 0 103 14v275q0 8 -9 12z" />
    <glyph glyph-name="Gdotaccent" unicode="&#x120;" horiz-adv-x="662" 
d="M332 898h6q31 0 42 -11.5t11 -42.5v-8q0 -31 -11 -42t-42 -11h-6q-31 0 -42.5 11t-11.5 42v8q0 31 11.5 42.5t42.5 11.5zM346 389h240q20 0 27 -7.5t7 -26.5v-134q0 -105 -75 -170q-77 -66 -210 -66q-136 0 -211 69t-75 192v219q0 122 75 191t211 69q213 0 272 -167
q12 -32 -21 -44l-55 -19q-18 -7 -27 -2.5t-16 23.5q-33 92 -153 92q-78 0 -119 -36.5t-41 -105.5v-221q0 -70 41.5 -106.5t118.5 -36.5q74 0 118 33t44 85v52h-151q-19 0 -26.5 8t-7.5 27v48q0 19 7.5 26.5t26.5 7.5z" />
    <glyph glyph-name="gdotaccent" unicode="&#x121;" horiz-adv-x="541" 
d="M279 711h6q31 0 42.5 -11.5t11.5 -42.5v-7q0 -31 -11.5 -42.5t-42.5 -11.5h-6q-31 0 -42.5 11.5t-11.5 42.5v7q0 31 11.5 42.5t42.5 11.5zM46 210v113q0 210 226 210q115 0 181 -31q24 -11 30.5 -21t6.5 -34v-464q0 -105 -54.5 -161.5t-165.5 -56.5q-150 0 -207 96
q-23 32 12 50l38 21q18 9 28.5 6.5t22.5 -18.5q32 -51 104 -51q106 0 106 108v50q-68 -18 -120 -18q-104 0 -156 51.5t-52 149.5zM365 416q-42 11 -85 11q-118 0 -118 -108v-106q0 -47 28 -72.5t81 -25.5q42 0 103 14v275q0 8 -9 12z" />
    <glyph glyph-name="Gcommaaccent" unicode="&#x122;" horiz-adv-x="662" 
d="M346 389h240q20 0 27 -7.5t7 -26.5v-134q0 -105 -75 -170q-77 -66 -210 -66q-136 0 -211 69t-75 192v219q0 122 75 191t211 69q213 0 272 -167q12 -32 -21 -44l-55 -19q-18 -7 -27 -2.5t-16 23.5q-33 92 -153 92q-78 0 -119 -36.5t-41 -105.5v-221q0 -70 41.5 -106.5
t118.5 -36.5q74 0 118 33t44 85v52h-151q-19 0 -26.5 8t-7.5 27v48q0 19 7.5 26.5t26.5 7.5zM410 -93l-46 -135q-10 -29 -36 -29h-37q-13 0 -17.5 5t-2.5 17l20 142q2 19 10 25.5t27 6.5h53q41 0 29 -32z" />
    <glyph glyph-name="gcommaaccent" unicode="&#x123;" horiz-adv-x="542" 
d="M221 608l39 104q6 17 14 22.5t25 5.5h30q15 0 19 -4.5t2 -18.5l-19 -109q-3 -21 -11.5 -28.5t-28.5 -7.5h-44q-39 0 -26 36zM46 210v113q0 210 226 210q115 0 181 -31q24 -11 30.5 -21t6.5 -34v-464q0 -105 -54.5 -161.5t-165.5 -56.5q-150 0 -207 96q-23 32 12 50l38 21
q18 9 28.5 6.5t22.5 -18.5q32 -51 104 -51q106 0 106 108v50q-68 -18 -120 -18q-104 0 -156 51.5t-52 149.5zM365 416q-42 11 -85 11q-118 0 -118 -108v-106q0 -47 28 -72.5t81 -25.5q42 0 103 14v275q0 8 -9 12z" />
    <glyph glyph-name="Hcircumflex" unicode="&#x124;" horiz-adv-x="686" 
d="M340 909h12q19 0 28.5 -4.5t27.5 -22.5l101 -98q10 -10 6.5 -17.5t-20.5 -7.5h-45q-34 0 -49 18l-58 57l-60 -57q-12 -12 -20 -15t-28 -3h-41q-17 0 -21 7.5t6 17.5l102 98q18 18 27.5 22.5t31.5 4.5zM525 710h57q19 0 27 -7.5t8 -26.5v-642q0 -19 -8 -26.5t-27 -7.5h-57
q-19 0 -26.5 7.5t-7.5 26.5v267h-296v-267q0 -19 -7.5 -26.5t-26.5 -7.5h-57q-19 0 -27 7.5t-8 26.5v642q0 19 8 26.5t27 7.5h57q19 0 26.5 -7.5t7.5 -26.5v-258h296v258q0 19 7.5 26.5t26.5 7.5z" />
    <glyph glyph-name="hcircumflex" unicode="&#x125;" horiz-adv-x="555" 
d="M116 932h12q19 0 27.5 -4t25.5 -21l97 -95q10 -9 6.5 -16.5t-20.5 -7.5h-43q-32 0 -47 17l-55 55l-58 -55q-11 -11 -19 -14t-27 -3h-39q-17 0 -21 7.5t6 16.5l98 95q17 17 26 21t31 4zM91 740h55q17 0 24 -7t7 -24v-190q8 4 44.5 9t74.5 5q208 0 208 -201v-301
q0 -17 -7 -24t-24 -7h-54q-17 0 -24 7t-7 24v298q0 98 -109 98q-75 0 -102 -15v-381q0 -17 -7 -24t-24 -7h-55q-17 0 -23.5 7t-6.5 24v678q0 17 6.5 24t23.5 7z" />
    <glyph glyph-name="Hbar" unicode="&#x126;" horiz-adv-x="698" 
d="M623 608h47q11 0 15.5 -4.5t4.5 -16.5v-29q0 -13 -4 -17.5t-16 -4.5h-47v-502q0 -19 -7.5 -26.5t-26.5 -7.5h-58q-19 0 -26.5 7.5t-7.5 26.5v267h-296v-267q0 -19 -7.5 -26.5t-26.5 -7.5h-57q-19 0 -26.5 7.5t-7.5 26.5v502h-46q-12 0 -16 4.5t-4 17.5v29q0 21 20 21h46
v68q0 19 7.5 26.5t26.5 7.5h57q19 0 26.5 -7.5t7.5 -26.5v-68h296v68q0 19 7.5 26.5t26.5 7.5h58q19 0 26.5 -7.5t7.5 -26.5v-68zM497 536h-296v-118h296v118z" />
    <glyph glyph-name="hbar" unicode="&#x127;" horiz-adv-x="555" 
d="M174 598v-79q26 14 120 14q104 0 156 -51.5t52 -149.5v-301q0 -17 -7 -24t-24 -7h-55q-17 0 -23.5 7t-6.5 24v298q0 98 -109 98q-73 0 -103 -15v-381q0 -17 -6.5 -24t-23.5 -7h-55q-17 0 -24 7t-7 24v567h-33q-12 0 -16 4.5t-4 17.5v25q0 22 20 22h33v42q0 17 7 24t24 7
h55q17 0 23.5 -7t6.5 -24v-42h135q12 0 16 -4.5t4 -17.5v-25q0 -13 -4 -17.5t-16 -4.5h-135z" />
    <glyph glyph-name="Itilde" unicode="&#x128;" horiz-adv-x="264" 
d="M230 895h32q19 0 19 -19q0 -60 -19.5 -85.5t-64.5 -25.5q-35 0 -73 29q-37 28 -56 28q-24 0 -24 -38q0 -19 -18 -19h-33q-19 0 -19 19q0 59 20 85t63 26q39 0 76 -28q38 -29 56 -29q23 0 23 38q0 19 18 19zM69 34v642q0 19 8 26.5t27 7.5h57q19 0 26.5 -7.5t7.5 -26.5
v-642q0 -19 -7.5 -26.5t-26.5 -7.5h-57q-19 0 -27 7.5t-8 26.5z" />
    <glyph glyph-name="itilde" unicode="&#x129;" horiz-adv-x="231" 
d="M192 730h29q16 0 16 -19q0 -61 -17 -86.5t-54 -25.5q-27 0 -55 26t-42 26q-22 0 -22 -32q0 -20 -15 -20h-31q-15 0 -15 20q0 60 17 85.5t53 25.5q27 0 58 -27.5t42 -27.5q21 0 21 36q0 19 15 19zM88 518h55q17 0 23.5 -6.5t6.5 -23.5v-457q0 -17 -6.5 -24t-23.5 -7h-55
q-17 0 -24 7t-7 24v457q0 17 7 23.5t24 6.5z" />
    <glyph glyph-name="Imacron" unicode="&#x12a;" horiz-adv-x="264" 
d="M17 870h231q17 0 23 -6t6 -23v-25q0 -17 -6 -23t-23 -6h-231q-17 0 -23 6t-6 23v25q0 17 6.5 23t22.5 6zM69 34v642q0 19 8 26.5t27 7.5h57q19 0 26.5 -7.5t7.5 -26.5v-642q0 -19 -7.5 -26.5t-26.5 -7.5h-57q-19 0 -27 7.5t-8 26.5z" />
    <glyph glyph-name="imacron" unicode="&#x12b;" horiz-adv-x="231" 
d="M43 689h144q11 0 14.5 -5t3.5 -22v-25q0 -17 -3.5 -22.5t-14.5 -5.5h-144q-11 0 -14.5 6t-3.5 22v25q0 27 18 27zM88 518h55q17 0 23.5 -6.5t6.5 -23.5v-457q0 -17 -6.5 -24t-23.5 -7h-55q-17 0 -24 7t-7 24v457q0 17 7 23.5t24 6.5z" />
    <glyph glyph-name="Ibreve" unicode="&#x12c;" horiz-adv-x="264" 
d="M296 863q-17 -49 -58 -76t-98 -27q-56 0 -96.5 27t-56.5 76q-8 21 13 28l40 15q24 8 31 -10q16 -52 69 -52t71 52q8 19 26 11l45 -16q12 -5 15 -11t-1 -17zM77 34v642q0 19 8 26.5t27 7.5h57q19 0 26.5 -7.5t7.5 -26.5v-642q0 -19 -7.5 -26.5t-26.5 -7.5h-57
q-19 0 -27 7.5t-8 26.5z" />
    <glyph glyph-name="ibreve" unicode="&#x12d;" horiz-adv-x="231" 
d="M205 730l46 -16q11 -5 14 -10.5t-1 -17.5q-33 -102 -142 -102q-108 0 -140 102q-7 20 14 28l39 16q23 8 31 -11q13 -49 56 -49q44 0 57 49q8 19 26 11zM95 518h55q17 0 23.5 -6.5t6.5 -23.5v-457q0 -17 -6.5 -24t-23.5 -7h-55q-17 0 -24 7t-7 24v457q0 17 7 23.5t24 6.5z
" />
    <glyph glyph-name="Iogonek" unicode="&#x12e;" horiz-adv-x="264" 
d="M221 -156l14 -32q6 -14 -1 -21q-37 -36 -95 -36q-79 0 -89 60q-18 84 75 185q-21 0 -29.5 8t-8.5 26v642q0 19 8 26.5t27 7.5h57q19 0 26.5 -7.5t7.5 -26.5v-642q0 -18 -9 -30q-33 -40 -47 -80t-8 -63q6 -21 26 -21q17 0 27 10q14 10 19 -6z" />
    <glyph glyph-name="iogonek" unicode="&#x12f;" horiz-adv-x="231" 
d="M132 582h-7q-34 0 -47.5 13t-13.5 48v9q0 34 13 47t48 13h7q35 0 48 -13t13 -47v-9q0 -35 -13 -48t-48 -13zM205 -156l12 -32q6 -14 -1 -21q-34 -36 -87 -36q-80 0 -89 63q-13 85 59 182q-16 0 -22 7t-6 24v457q0 17 6.5 23.5t23.5 6.5h55q17 0 24 -6.5t7 -23.5v-457
q0 -17 -6 -24q-52 -81 -41 -145q3 -22 25 -22q13 0 21 9q13 7 19 -5z" />
    <glyph glyph-name="Idot" unicode="&#x130;" horiz-adv-x="264" 
d="M130 888h5q31 0 42.5 -11.5t11.5 -42.5v-8q0 -31 -11.5 -42t-42.5 -11h-5q-31 0 -42.5 11t-11.5 42v8q0 31 11.5 42.5t42.5 11.5zM69 34v642q0 19 8 26.5t27 7.5h57q19 0 26.5 -7.5t7.5 -26.5v-642q0 -19 -7.5 -26.5t-26.5 -7.5h-57q-19 0 -27 7.5t-8 26.5z" />
    <glyph glyph-name="dotlessi" unicode="&#x131;" horiz-adv-x="231" 
d="M88 518h55q17 0 24 -6.5t7 -23.5v-457q0 -17 -7 -24t-24 -7h-55q-17 0 -23.5 7t-6.5 24v457q0 17 6.5 23.5t23.5 6.5z" />
    <glyph glyph-name="IJ" unicode="&#x132;" horiz-adv-x="844" 
d="M69 34v642q0 19 8 26.5t27 7.5h57q19 0 26.5 -7.5t7.5 -26.5v-642q0 -19 -7.5 -26.5t-26.5 -7.5h-57q-19 0 -27 7.5t-8 26.5zM687 710h59q19 0 26 -7.5t7 -25.5v-443q0 -118 -66 -183.5t-189 -65.5q-188 0 -242 167q-11 32 21 44l55 19q18 7 27 2.5t17 -23.5
q16 -48 45 -70t77 -22q130 0 130 131v444q0 18 7 25.5t26 7.5z" />
    <glyph glyph-name="ij" unicode="&#x133;" horiz-adv-x="473" 
d="M112 712h7q35 0 48 -13t13 -47v-9q0 -35 -13 -48t-48 -13h-7q-34 0 -47.5 13t-13.5 48v9q0 34 13 47t48 13zM353 712h7q35 0 48 -13t13 -47v-9q0 -35 -13.5 -48t-47.5 -13h-7q-35 0 -48 13t-13 48v9q0 34 13 47t48 13zM88 518h55q17 0 24 -6.5t7 -23.5v-457q0 -17 -7 -24
t-24 -7h-55q-17 0 -23.5 7t-6.5 24v457q0 17 6.5 23.5t23.5 6.5zM330 518h53q18 0 25 -6.5t7 -23.5v-495q0 -223 -229 -223q-18 0 -24.5 7t-6.5 25v44q0 18 6.5 25t24.5 7q59 0 86 29.5t27 88.5v492q0 17 6.5 23.5t24.5 6.5z" />
    <glyph glyph-name="Jcircumflex" unicode="&#x134;" horiz-adv-x="577" 
d="M460 909h12q19 0 28.5 -4.5t26.5 -22.5l102 -98q10 -10 6 -17.5t-21 -7.5h-45q-33 0 -49 18l-58 57l-60 -57q-11 -12 -19 -15t-28 -3h-42q-17 0 -20.5 7.5t6.5 17.5l101 98q19 19 28 23t32 4zM433 710h59q18 0 25.5 -7.5t7.5 -25.5v-443q0 -118 -66 -183.5t-189 -65.5
q-188 0 -242 167q-12 32 21 44l55 19q17 7 26 2.5t17 -23.5q16 -48 44.5 -70t78.5 -22q129 0 129 131v444q0 18 7.5 25.5t26.5 7.5z" />
    <glyph glyph-name="jcircumflex" unicode="&#x135;" horiz-adv-x="233" 
d="M113 728h12q19 0 28 -4.5t26 -21.5l95 -96q22 -24 -15 -24h-43q-22 0 -30.5 2.5t-17.5 13.5l-52 56l-54 -56q-11 -11 -19 -13.5t-27 -2.5h-41q-36 0 -14 24l94 96q18 18 27.5 22t30.5 4zM90 518h53q18 0 24.5 -6.5t6.5 -23.5v-495q0 -223 -228 -223q-18 0 -25 7t-7 25v44
q0 18 7 25t25 7q59 0 85.5 29.5t26.5 88.5v492q0 17 7 23.5t25 6.5z" />
    <glyph glyph-name="Kcommaaccent" unicode="&#x136;" horiz-adv-x="627" 
d="M482 278l127 -244q18 -34 -17 -34h-58q-33 0 -46 5.5t-22 24.5l-101 203q-21 41 -44 56q-25 14 -75 14h-51v-269q0 -19 -7.5 -26.5t-26.5 -7.5h-57q-19 0 -27 7.5t-8 26.5v642q0 19 8 26.5t27 7.5h57q19 0 26.5 -7.5t7.5 -26.5v-259h40h13l201 265q13 18 25.5 23t42.5 5
h64q17 0 21.5 -10t-5.5 -23l-223 -285q64 -28 108 -114zM388 -93l-47 -135q-5 -16 -12.5 -22.5t-22.5 -6.5h-38q-13 0 -17 4.5t-2 17.5l20 142q1 18 9.5 25t27.5 7h52q41 0 30 -32z" />
    <glyph glyph-name="kcommaaccent" unicode="&#x137;" horiz-adv-x="523" 
d="M412 212l87 -175q11 -20 7 -28.5t-26 -8.5h-51q-26 0 -35.5 5t-17.5 23l-62 133q-22 49 -80 49h-60v-178q0 -18 -6.5 -25t-25.5 -7h-51q-19 0 -26 7t-7 25v676q0 18 7 25t26 7h51q19 0 25.5 -7t6.5 -25v-390h45h7l136 177q11 15 21.5 19t38.5 4h49q49 0 20 -36l-151 -187
q42 -21 72 -83zM338 -86l-37 -115q-5 -17 -13 -23t-25 -6h-30q-15 0 -19.5 5t-2.5 19l17 120q2 21 11 28.5t29 7.5h44q40 0 26 -36z" />
    <glyph glyph-name="kgreenlandic" unicode="&#x138;" horiz-adv-x="504" 
d="M303 282l178 -245q28 -37 -19 -37h-51q-28 0 -40.5 5t-23.5 20l-120 168l-53 -62v-99q0 -18 -7 -25t-26 -7h-51q-19 0 -25.5 7t-6.5 25v455q0 18 6.5 24.5t25.5 6.5h51q19 0 26 -6.5t7 -24.5v-194l171 202q12 15 22 19t38 4h49q52 0 20 -36z" />
    <glyph glyph-name="Lacute" unicode="&#x139;" horiz-adv-x="528" 
d="M37 815l147 89q37 21 57 -2l26 -32q21 -24 -5 -34l-174 -73q-29 -11 -38 1l-14 19q-18 22 1 32zM122 710h57q19 0 26.5 -7.5t7.5 -26.5v-559h287q19 0 26.5 -7.5t7.5 -26.5v-49q0 -19 -7.5 -26.5t-26.5 -7.5h-378q-19 0 -27 7.5t-8 26.5v642q0 19 8 26.5t27 7.5z" />
    <glyph glyph-name="lacute" unicode="&#x13a;" horiz-adv-x="238" 
d="M12 829l127 74q31 19 51 -4l29 -37q23 -26 -4 -34l-149 -57q-31 -11 -39 2l-17 23q-18 23 2 33zM176 709v-678q0 -17 -7 -24t-24 -7h-54q-17 0 -24 7t-7 24v678q0 17 7 24t24 7h54q17 0 24 -7t7 -24z" />
    <glyph glyph-name="Lcommaaccent" unicode="&#x13b;" horiz-adv-x="528" 
d="M104 710h57q19 0 26.5 -7.5t7.5 -26.5v-559h287q19 0 26.5 -7.5t7.5 -26.5v-49q0 -19 -7.5 -26.5t-26.5 -7.5h-378q-19 0 -27 7.5t-8 26.5v642q0 19 8 26.5t27 7.5zM349 -93l-47 -135q-8 -29 -35 -29h-37q-13 0 -17.5 5t-2.5 17l20 142q2 19 10 25.5t27 6.5h53
q41 0 29 -32z" />
    <glyph glyph-name="lcommaaccent" unicode="&#x13c;" horiz-adv-x="238" 
d="M178 709v-678q0 -17 -7 -24t-24 -7h-54q-18 0 -24.5 7t-6.5 24v678q0 17 6.5 24t24.5 7h54q17 0 24 -7t7 -24zM171 -75l-38 -117q-5 -17 -12.5 -22.5t-25.5 -5.5h-30q-15 0 -19 4.5t-3 18.5l17 122q3 21 11.5 28.5t29.5 7.5h43q39 0 27 -36z" />
    <glyph glyph-name="Lcaron" unicode="&#x13d;" horiz-adv-x="529" 
d="M104 710h57q19 0 26.5 -7.5t7.5 -26.5v-559h287q19 0 26.5 -7.5t7.5 -26.5v-49q0 -19 -7.5 -26.5t-26.5 -7.5h-378q-19 0 -27 7.5t-8 26.5v642q0 19 8 26.5t27 7.5zM449 678l-54 -169q-9 -28 -34 -28h-28q-13 0 -16.5 4t-2.5 17l24 176q1 18 9 25t27 7h48q39 0 27 -32z
" />
    <glyph glyph-name="lcaron" unicode="&#x13e;" horiz-adv-x="245" 
d="M177 709v-678q0 -17 -7 -24t-24 -7h-54q-18 0 -24.5 7t-6.5 24v678q0 17 6.5 24t24.5 7h54q17 0 24 -7t7 -24zM369 708l-51 -145q-5 -16 -12 -21.5t-22 -5.5h-27q-13 0 -17 4t-3 17l20 151q3 19 10 25.5t26 6.5h48q40 0 28 -32z" />
    <glyph glyph-name="Ldot" unicode="&#x13f;" horiz-adv-x="529" 
d="M104 710h57q19 0 26.5 -7.5t7.5 -26.5v-559h287q19 0 26.5 -7.5t7.5 -26.5v-49q0 -19 -7.5 -26.5t-26.5 -7.5h-378q-19 0 -27 7.5t-8 26.5v642q0 19 8 26.5t27 7.5zM365 451h7q37 0 50.5 -14t13.5 -50v-9q0 -37 -13.5 -50.5t-50.5 -13.5h-7q-36 0 -50 13.5t-14 50.5v9
q0 36 14 50t50 14z" />
    <glyph glyph-name="ldot" unicode="&#x140;" horiz-adv-x="385" 
d="M177 709v-678q0 -17 -7 -24t-24 -7h-54q-18 0 -24.5 7t-6.5 24v678q0 17 6.5 24t24.5 7h54q17 0 24 -7t7 -24zM310 445h7q37 0 50.5 -14t13.5 -50v-9q0 -37 -13.5 -50.5t-50.5 -13.5h-7q-37 0 -50.5 13.5t-13.5 50.5v9q0 36 13.5 50t50.5 14z" />
    <glyph glyph-name="Lslash" unicode="&#x141;" horiz-adv-x="562" 
d="M238 117h287q19 0 26.5 -7.5t7.5 -26.5v-49q0 -19 -7.5 -26.5t-26.5 -7.5h-378q-19 0 -26.5 7.5t-7.5 26.5v225l-55 -25q-23 -11 -33 11l-18 36q-11 20 10 29l96 44v322q0 19 7.5 26.5t26.5 7.5h57q19 0 26.5 -7.5t7.5 -26.5v-265l153 71q23 11 34 -11l18 -37
q10 -21 -11 -29l-194 -89v-199z" />
    <glyph glyph-name="lslash" unicode="&#x142;" horiz-adv-x="333" 
d="M315 472l19 -34q11 -20 -8 -30l-93 -51v-326q0 -17 -7 -24t-24 -7h-54q-17 0 -24 7t-7 24v263l-43 -24q-24 -11 -34 8l-20 34q-10 20 9 30l88 49v318q0 17 7 24t24 7h54q17 0 24 -7t7 -24v-256l48 27q21 11 34 -8z" />
    <glyph glyph-name="Nacute" unicode="&#x143;" horiz-adv-x="696" 
d="M236 815l147 89q37 19 56 -2l26 -32q21 -24 -4 -34l-174 -73q-29 -11 -39 1l-14 19q-17 22 2 32zM539 710h53q19 0 26.5 -7.5t7.5 -26.5v-642q0 -19 -7.5 -26.5t-26.5 -7.5h-57q-22 0 -33 17l-245 362q-12 17 -25 41t-23 45.5t-18 40.5l-12.5 30.5t-3.5 10.5h-6
q0 1 2.5 -11.5t5.5 -33.5t6 -46.5t5.5 -54.5t2.5 -53v-314q0 -19 -7.5 -26.5t-26.5 -7.5h-53q-19 0 -27 7.5t-8 26.5v642q0 19 8 26.5t27 7.5h57q23 0 33 -16l243 -360q20 -30 41 -72.5t32.5 -70.5t10.5 -27h6l-1 6l-3 17.5l-4.5 27t-5 34t-4.5 37.5t-3 40.5t-1 39.5v310
q0 19 7.5 26.5t26.5 7.5z" />
    <glyph glyph-name="nacute" unicode="&#x144;" 
d="M165 640l147 89q38 20 57 -2l25 -32q21 -24 -4 -34l-174 -73q-29 -11 -39 2l-14 18q-17 22 2 32zM95 499q84 34 197 34q104 0 156 -51.5t52 -149.5v-301q0 -17 -7 -24t-24 -7h-55q-17 0 -23.5 7t-6.5 24v298q0 98 -109 98q-50 0 -96 -13q-7 -3 -7 -10v-373
q0 -17 -6.5 -24t-23.5 -7h-55q-17 0 -24 7t-7 24v411q0 24 7.5 35.5t31.5 21.5z" />
    <glyph glyph-name="Ncommaaccent" unicode="&#x145;" horiz-adv-x="696" 
d="M539 710h53q19 0 26.5 -7.5t7.5 -26.5v-642q0 -19 -7.5 -26.5t-26.5 -7.5h-57q-22 0 -33 17l-245 362q-12 17 -25 41t-23 45.5t-18 40.5l-12.5 30.5t-3.5 10.5h-6q0 1 2.5 -11.5t5.5 -33.5t6 -46.5t5.5 -54.5t2.5 -53v-314q0 -19 -7.5 -26.5t-26.5 -7.5h-53
q-19 0 -27 7.5t-8 26.5v642q0 19 8 26.5t27 7.5h57q23 0 33 -16l243 -360q20 -30 41 -72.5t32.5 -70.5t10.5 -27h6l-1 6l-3 17.5l-4.5 27t-5 34t-4.5 37.5t-3 40.5t-1 39.5v310q0 19 7.5 26.5t26.5 7.5zM417 -93l-46 -135q-10 -29 -36 -29h-37q-13 0 -17.5 5t-2.5 17l20 142
q2 19 10 25.5t27 6.5h53q41 0 29 -32z" />
    <glyph glyph-name="ncommaaccent" unicode="&#x146;" 
d="M95 499q84 34 197 34q104 0 156 -51.5t52 -149.5v-301q0 -17 -7 -24t-24 -7h-55q-17 0 -23.5 7t-6.5 24v298q0 98 -109 98q-50 0 -96 -13q-7 -3 -7 -10v-373q0 -17 -6.5 -24t-23.5 -7h-55q-17 0 -24 7t-7 24v411q0 24 7.5 35.5t31.5 21.5zM338 -75l-37 -116
q-6 -17 -14 -22.5t-25 -5.5h-30q-15 0 -19 4.5t-2 18.5l16 121q3 21 11.5 28.5t29.5 7.5h43q39 0 27 -36z" />
    <glyph glyph-name="Ncaron" unicode="&#x147;" horiz-adv-x="696" 
d="M452 907h45q17 0 21 -7.5t-6 -17.5l-102 -97q-17 -18 -26.5 -22.5t-28.5 -4.5h-12q-23 0 -32.5 4t-27.5 23l-101 97q-10 10 -6.5 17.5t20.5 7.5h42q21 0 28.5 -2.5t18.5 -14.5l61 -57l57 57q9 11 18.5 14t30.5 3zM539 710h53q19 0 26.5 -7.5t7.5 -26.5v-642
q0 -19 -7.5 -26.5t-26.5 -7.5h-57q-22 0 -33 17l-245 362q-12 17 -25 41t-23 45.5t-18 40.5l-12.5 30.5t-3.5 10.5h-6q0 1 2.5 -11.5t5.5 -33.5t6 -46.5t5.5 -54.5t2.5 -53v-314q0 -19 -7.5 -26.5t-26.5 -7.5h-53q-19 0 -27 7.5t-8 26.5v642q0 19 8 26.5t27 7.5h57
q23 0 33 -16l243 -360q20 -30 41 -72.5t32.5 -70.5t10.5 -27h6l-1 6l-3 17.5l-4.5 27t-5 34t-4.5 37.5t-3 40.5t-1 39.5v310q0 19 7.5 26.5t26.5 7.5z" />
    <glyph glyph-name="ncaron" unicode="&#x148;" 
d="M373 715h41q34 0 13 -23l-93 -91q-15 -17 -23.5 -20.5t-26.5 -3.5h-11q-21 0 -29.5 3.5t-25.5 20.5l-93 91q-9 9 -5.5 16t18.5 7h39q19 0 26.5 -2.5t16.5 -13.5l55 -53l53 53q15 16 45 16zM95 499q84 34 197 34q104 0 156 -51.5t52 -149.5v-301q0 -17 -7 -24t-24 -7h-55
q-17 0 -23.5 7t-6.5 24v298q0 98 -109 98q-50 0 -96 -13q-7 -3 -7 -10v-373q0 -17 -6.5 -24t-23.5 -7h-55q-17 0 -24 7t-7 24v411q0 24 7.5 35.5t31.5 21.5z" />
    <glyph glyph-name="napostrophe" unicode="&#x149;" 
d="M206 708l-88 -148q-9 -13 -15.5 -17t-20.5 -4h-28q-13 0 -16 4.5t1 16.5l55 153q6 16 12.5 21.5t23.5 5.5h56q40 0 20 -32zM98 499q84 34 197 34q104 0 156 -51.5t52 -149.5v-301q0 -17 -7 -24t-24 -7h-55q-17 0 -23.5 7t-6.5 24v298q0 98 -109 98q-50 0 -96 -13
q-7 -3 -7 -10v-373q0 -17 -6.5 -24t-23.5 -7h-55q-17 0 -24 7t-7 24v411q0 24 7.5 35.5t31.5 21.5z" />
    <glyph glyph-name="Eng" unicode="&#x14a;" horiz-adv-x="696" 
d="M539 710h53q19 0 26.5 -7.5t7.5 -26.5v-684q0 -107 -59 -164.5t-174 -57.5q-18 0 -25 7t-7 25v44q0 18 7 25t25 7q112 0 112 117v16l-248 368q-12 17 -25 41t-23 45.5t-18 40.5l-12.5 30.5t-3.5 10.5h-6q0 1 2.5 -11t5.5 -32.5t6 -45.5t5.5 -53.5t2.5 -52.5v-318
q0 -19 -7.5 -26.5t-26.5 -7.5h-53q-19 0 -27 7.5t-8 26.5v642q0 19 8 26.5t27 7.5h57q23 0 33 -16l243 -360q20 -30 41 -72.5t32.5 -70.5t10.5 -27h6l-1 6l-3 17.5l-4.5 27t-5 34t-4.5 37.5t-3 40.5t-1 39.5v310q0 19 7.5 26.5t26.5 7.5z" />
    <glyph glyph-name="eng" unicode="&#x14b;" 
d="M95 499q84 34 197 34q104 0 156 -51.5t52 -149.5v-349q0 -103 -57 -158t-168 -55q-17 0 -23.5 6.5t-6.5 23.5v43q0 17 6.5 23.5t23.5 6.5q109 0 109 114v342q0 98 -109 98q-50 0 -96 -13q-7 -3 -7 -10v-373q0 -17 -6.5 -24t-23.5 -7h-55q-17 0 -24 7t-7 24v411
q0 24 7.5 35.5t31.5 21.5z" />
    <glyph glyph-name="Omacron" unicode="&#x14c;" horiz-adv-x="669" 
d="M219 880h232q17 0 23 -6t6 -23v-25q0 -17 -6 -23t-23 -6h-232q-17 0 -23 6t-6 23v25q0 17 6.5 23t22.5 6zM49 246v218q0 123 75 192t211 69q135 0 210 -69t75 -192v-218q0 -123 -75 -192t-210 -69q-136 0 -211 69t-75 192zM495 245v220q0 69 -41.5 106t-118.5 37
t-118.5 -36.5t-41.5 -106.5v-220q0 -70 41.5 -106.5t118.5 -36.5t118.5 37t41.5 106z" />
    <glyph glyph-name="omacron" unicode="&#x14d;" horiz-adv-x="543" 
d="M165 688h213q16 0 21 -5.5t5 -22.5v-24q0 -17 -5 -22.5t-21 -5.5h-213q-16 0 -21.5 6t-5.5 22v24q0 16 6 22t21 6zM41 185v148q0 94 60 147t170 53t170.5 -53t60.5 -147v-148q0 -94 -60.5 -147t-170.5 -53t-170 53t-60 147zM386 185v148q0 46 -30 70.5t-85 24.5
t-84.5 -24.5t-29.5 -70.5v-148q0 -45 29.5 -70t84.5 -25t85 25t30 70z" />
    <glyph glyph-name="Obreve" unicode="&#x14e;" horiz-adv-x="669" 
d="M490 873q-17 -49 -57.5 -76t-97.5 -27q-56 0 -97 27t-57 76q-8 20 14 28l39 15q24 8 31 -10q16 -52 70 -52t70 52q8 19 26 11l46 -16q12 -5 14.5 -11t-1.5 -17zM49 246v218q0 123 75 192t211 69q135 0 210 -69t75 -192v-218q0 -123 -75 -192t-210 -69q-136 0 -211 69
t-75 192zM495 245v220q0 69 -41.5 106t-118.5 37t-118.5 -36.5t-41.5 -106.5v-220q0 -70 41.5 -106.5t118.5 -36.5t118.5 37t41.5 106z" />
    <glyph glyph-name="obreve" unicode="&#x14f;" horiz-adv-x="543" 
d="M427 686q-17 -49 -58 -75.5t-98 -26.5t-97.5 27t-56.5 75q-6 21 14 29l40 15q23 8 31 -10q17 -53 69 -53q51 0 71 53q7 16 26 11l45 -16q20 -9 14 -29zM41 185v148q0 94 60 147t170 53t170.5 -53t60.5 -147v-148q0 -94 -60.5 -147t-170.5 -53t-170 53t-60 147zM386 185
v148q0 46 -30 70.5t-85 24.5t-84.5 -24.5t-29.5 -70.5v-148q0 -45 29.5 -70t84.5 -25t85 25t30 70z" />
    <glyph glyph-name="Ohungarumlaut" unicode="&#x150;" horiz-adv-x="669" 
d="M188 808l69 95q21 29 52 20l35 -12q33 -10 9 -34l-102 -92q-21 -18 -36 -13l-17 6q-25 7 -10 30zM351 804l75 99q23 29 53 20l37 -12q36 -12 9 -34l-111 -96q-21 -18 -36 -13l-17 5q-27 8 -10 31zM49 246v218q0 123 75 192t211 69q135 0 210 -69t75 -192v-218
q0 -123 -75 -192t-210 -69q-136 0 -211 69t-75 192zM495 245v220q0 69 -41.5 106t-118.5 37t-118.5 -36.5t-41.5 -106.5v-220q0 -70 41.5 -106.5t118.5 -36.5t118.5 37t41.5 106z" />
    <glyph glyph-name="ohungarumlaut" unicode="&#x151;" horiz-adv-x="543" 
d="M136 608l63 87q19 27 49 18l32 -11q28 -10 8 -31l-94 -84q-20 -17 -33 -12l-16 5q-24 7 -9 28zM286 605l70 89q19 27 48 19l34 -11q33 -12 9 -31l-103 -88q-20 -17 -33 -12l-16 5q-26 8 -9 29zM41 185v148q0 94 60 147t170 53t170.5 -53t60.5 -147v-148q0 -94 -60.5 -147
t-170.5 -53t-170 53t-60 147zM386 185v148q0 46 -30 70.5t-85 24.5t-84.5 -24.5t-29.5 -70.5v-148q0 -45 29.5 -70t84.5 -25t85 25t30 70z" />
    <glyph glyph-name="OE" unicode="&#x152;" horiz-adv-x="859" 
d="M538 117h254q19 0 26.5 -7.5t7.5 -26.5v-49q0 -19 -7.5 -26.5t-26.5 -7.5h-345q-50 -15 -112 -15q-136 0 -211 69t-75 192v218q0 123 75 192t211 69q64 0 112 -15h334q19 0 26.5 -7.5t7.5 -26.5v-49q0 -19 -7.5 -26.5t-26.5 -7.5h-243v-175h195q19 0 26.5 -7.5t7.5 -26.5
v-49q0 -19 -7.5 -26.5t-26.5 -7.5h-195v-184zM175 465v-220q0 -70 41.5 -106.5t118.5 -36.5q45 0 78 12v482q-35 12 -78 12q-77 0 -118.5 -36.5t-41.5 -106.5z" />
    <glyph glyph-name="oe" unicode="&#x153;" horiz-adv-x="829" 
d="M419 475q52 58 158 58t162 -55.5t56 -150.5v-62q0 -43 -45 -43h-275v-37q0 -100 102 -100q68 0 103 53q12 16 22 18.5t28 -6.5l36 -19q34 -18 11 -50q-57 -96 -201 -96q-106 0 -158 58q-52 -58 -160 -58q-103 0 -159.5 52.5t-56.5 146.5v149q0 94 56 147t160 53
q109 0 161 -58zM679 311v22q0 102 -102 102t-102 -102v-22h204zM359 185v148q0 95 -101 95q-49 0 -74.5 -24.5t-25.5 -70.5v-148q0 -45 26 -70t74 -25q101 0 101 95z" />
    <glyph glyph-name="Racute" unicode="&#x154;" horiz-adv-x="651" 
d="M211 815l147 89q37 21 57 -2l26 -32q21 -24 -5 -34l-174 -73q-29 -11 -38 1l-15 19q-17 22 2 32zM104 710h276q105 0 165 -58.5t60 -161.5q0 -77 -34.5 -129t-97.5 -73q19 -16 32 -43l110 -211q18 -34 -17 -34h-58q-33 0 -46 5.5t-22 24.5l-84 170q-20 42 -44 56t-75 14
h-74v-236q0 -19 -7.5 -26.5t-26.5 -7.5h-57q-19 0 -27 7.5t-8 26.5v642q0 19 8 26.5t27 7.5zM446 414q27 26 27 76t-27 77q-28 26 -78 26h-173v-206h173q50 0 78 27z" />
    <glyph glyph-name="racute" unicode="&#x155;" horiz-adv-x="352" 
d="M95 640l147 88q37 22 57 -1l25 -32q23 -26 -4 -34l-174 -73q-29 -12 -39 1l-14 19q-17 22 2 32zM281 533h32q17 0 24 -6.5t7 -24.5v-44q0 -17 -7 -24t-24 -7h-36q-56 0 -95 -12q-10 -1 -10 -12v-372q0 -17 -6.5 -24t-23.5 -7h-55q-17 0 -24 7t-7 24v415q0 24 7.5 35.5
t31.5 21.5q73 27 186 30z" />
    <glyph glyph-name="Rcommaaccent" unicode="&#x156;" horiz-adv-x="651" 
d="M104 710h276q105 0 165 -58.5t60 -161.5q0 -77 -34.5 -129t-97.5 -73q19 -16 32 -43l110 -211q18 -34 -17 -34h-58q-33 0 -46 5.5t-22 24.5l-84 170q-20 42 -44 56t-75 14h-74v-236q0 -19 -7.5 -26.5t-26.5 -7.5h-57q-19 0 -27 7.5t-8 26.5v642q0 19 8 26.5t27 7.5z
M446 414q27 26 27 76t-27 77q-28 26 -78 26h-173v-206h173q50 0 78 27zM401 -93l-46 -135q-5 -16 -12.5 -22.5t-22.5 -6.5h-38q-13 0 -17 4.5t-3 17.5l21 142q1 18 9.5 25t27.5 7h52q41 0 29 -32z" />
    <glyph glyph-name="rcommaaccent" unicode="&#x157;" horiz-adv-x="352" 
d="M283 533h32q17 0 24 -6.5t7 -24.5v-44q0 -17 -7 -24t-24 -7h-36q-56 0 -95 -12q-10 -1 -10 -12v-372q0 -17 -6.5 -24t-23.5 -7h-55q-17 0 -24 7t-7 24v415q0 24 7.5 35.5t31.5 21.5q73 27 186 30zM169 -76l-37 -121q-5 -17 -13 -22.5t-26 -5.5h-30q-15 0 -19 4.5t-2 18.5
l16 126q2 21 10.5 28.5t29.5 7.5h44q21 0 26.5 -8.5t0.5 -27.5z" />
    <glyph glyph-name="Rcaron" unicode="&#x158;" horiz-adv-x="651" 
d="M428 907h45q17 0 20.5 -7.5t-6.5 -17.5l-101 -97q-17 -18 -26.5 -22.5t-28.5 -4.5h-13q-23 0 -32.5 4t-26.5 23l-101 97q-12 10 -8 17.5t22 7.5h42q21 0 28 -2.5t19 -14.5l60 -57l58 57q9 11 18.5 14t30.5 3zM104 710h276q105 0 165 -58.5t60 -161.5q0 -77 -34.5 -129
t-97.5 -73q19 -16 32 -43l110 -211q18 -34 -17 -34h-58q-33 0 -46 5.5t-22 24.5l-84 170q-20 42 -44 56t-75 14h-74v-236q0 -19 -7.5 -26.5t-26.5 -7.5h-57q-19 0 -27 7.5t-8 26.5v642q0 19 8 26.5t27 7.5zM446 414q27 26 27 76t-27 77q-28 26 -78 26h-173v-206h173
q50 0 78 27z" />
    <glyph glyph-name="rcaron" unicode="&#x159;" horiz-adv-x="352" 
d="M306 715h41q34 0 13 -23l-93 -91q-15 -17 -23.5 -21t-26.5 -4h-12q-21 0 -30 4t-24 21l-93 91q-9 9 -5.5 16t18.5 7h39q19 0 26.5 -2.5t16.5 -13.5l55 -53l53 53q13 16 45 16zM284 533h32q17 0 24 -6.5t7 -24.5v-44q0 -17 -7 -24t-24 -7h-36q-56 0 -95 -12
q-10 -1 -10 -12v-372q0 -17 -6.5 -24t-23.5 -7h-55q-17 0 -24 7t-7 24v415q0 24 7.5 35.5t31.5 21.5q74 27 186 30z" />
    <glyph glyph-name="Sacute" unicode="&#x15a;" horiz-adv-x="633" 
d="M211 825l147 88q36 22 56 -1l26 -32q21 -25 -4 -34l-174 -74q-29 -11 -39 2l-14 19q-17 22 2 32zM48 506q0 100 72.5 159.5t201.5 59.5q103 0 164.5 -36t98.5 -115q15 -31 -19 -46l-55 -24q-17 -7 -25.5 -3.5t-17.5 20.5q-22 43 -56 63.5t-90 20.5q-145 0 -145 -92
q-4 -36 27.5 -57t78.5 -28q15 -3 68 -10t72 -11q82 -16 126 -56q55 -50 55 -142q0 -103 -75.5 -163.5t-209.5 -60.5q-111 0 -176.5 41t-98.5 126q-7 19 -2 28.5t23 15.5l55 20q17 6 26 1.5t17 -22.5q39 -93 156 -93q159 0 159 104q0 31 -22.5 52t-55.5 29q-30 7 -80 12
q-65 7 -107 16q-49 10 -96 41q-65 42 -69 150z" />
    <glyph glyph-name="sacute" unicode="&#x15b;" horiz-adv-x="504" 
d="M151 640l147 89q37 21 57 -2l26 -32q21 -24 -5 -34l-174 -73q-29 -11 -39 2l-14 18q-17 22 2 32zM50 372q0 75 53 118t153 43q161 0 214 -107q16 -30 -16 -45l-45 -18q-17 -7 -24.5 -4.5t-17.5 18.5q-28 52 -108 52q-94 0 -94 -54q0 -32 24.5 -44t92.5 -18
q107 -10 155.5 -45t48.5 -116q0 -77 -56.5 -122t-159.5 -45q-177 0 -223 121q-12 31 20 42l45 14q29 12 41 -19q22 -55 113 -55q106 0 106 59q0 32 -25 44.5t-95 19.5t-113 24q-29 11 -47 27q-42 37 -42 110z" />
    <glyph glyph-name="Scircumflex" unicode="&#x15c;" horiz-adv-x="633" 
d="M321 919h12q19 0 28.5 -4.5t27.5 -22.5l101 -98q10 -10 6 -17.5t-21 -7.5h-44q-33 0 -50 17l-57 58l-60 -58q-12 -12 -19.5 -14.5t-28.5 -2.5h-41q-17 0 -21 7.5t6 17.5l102 98q18 18 27.5 22.5t31.5 4.5zM48 506q0 100 72.5 159.5t201.5 59.5q103 0 164.5 -36t98.5 -115
q15 -31 -19 -46l-55 -24q-17 -7 -25.5 -3.5t-17.5 20.5q-22 43 -56 63.5t-90 20.5q-145 0 -145 -92q-4 -36 27.5 -57t78.5 -28q15 -3 68 -10t72 -11q82 -16 126 -56q55 -50 55 -142q0 -103 -75.5 -163.5t-209.5 -60.5q-111 0 -176.5 41t-98.5 126q-7 19 -2 28.5t23 15.5
l55 20q17 6 26 1.5t17 -22.5q39 -93 156 -93q159 0 159 104q0 31 -22.5 52t-55.5 29q-30 7 -80 12q-65 7 -107 16q-49 10 -96 41q-65 42 -69 150z" />
    <glyph glyph-name="scircumflex" unicode="&#x15d;" horiz-adv-x="504" 
d="M261 728h12q19 0 28.5 -4.5t26.5 -21.5l99 -96q23 -24 -15 -24h-43q-22 0 -30.5 2.5t-17.5 13.5l-57 56l-59 -56q-11 -11 -19 -13.5t-27 -2.5h-41q-36 0 -14 24l99 96q18 18 27.5 22t30.5 4zM50 372q0 75 53 118t153 43q161 0 214 -107q16 -30 -16 -45l-45 -18
q-17 -7 -24.5 -4.5t-17.5 18.5q-28 52 -108 52q-94 0 -94 -54q0 -32 24.5 -44t92.5 -18q107 -10 155.5 -45t48.5 -116q0 -77 -56.5 -122t-159.5 -45q-177 0 -223 121q-12 31 20 42l45 14q29 12 41 -19q22 -55 113 -55q106 0 106 59q0 32 -25 44.5t-95 19.5t-113 24
q-29 11 -47 27q-42 37 -42 110z" />
    <glyph glyph-name="Scedilla" unicode="&#x15e;" horiz-adv-x="632" 
d="M282 428q15 -3 68 -10t72 -11q26 -5 67 -20q109 -43 114 -178q0 -93 -61.5 -151.5t-174.5 -69.5l-17 -46q1 0 6 0.5t7 0.5q39 0 63 -26t20 -65q-5 -50 -41 -74t-93 -24q-44 0 -72 14q-17 8 -17 27l-1 31q0 19 16 12q29 -16 59 -16q49 0 49 36q0 28 -42 28q-20 0 -25 -1
q-25 0 -14 24l33 76q-103 4 -163.5 44.5t-91.5 122.5q-7 19 -2 28.5t23 15.5l55 20q18 6 26.5 1.5t16.5 -22.5q39 -93 156 -93q159 0 159 104q0 31 -22.5 52t-55.5 29q-30 7 -80 12q-63 7 -106 16q-49 10 -96 41q-69 44 -69 150q0 100 72 159.5t201 59.5q103 0 164.5 -36
t98.5 -115q15 -31 -19 -46l-55 -24q-17 -7 -25.5 -3.5t-17.5 20.5q-22 43 -56 63.5t-90 20.5q-145 0 -145 -92q-4 -36 27.5 -57t78.5 -28z" />
    <glyph glyph-name="scedilla" unicode="&#x15f;" horiz-adv-x="504" 
d="M50 372q0 75 53 118t153 43q161 0 214 -107q16 -30 -16 -45l-45 -18q-17 -7 -24.5 -4.5t-17.5 18.5q-28 52 -108 52q-94 0 -94 -54q0 -32 24.5 -44t92.5 -18q107 -10 155.5 -45t48.5 -116q0 -69 -46.5 -112.5t-132.5 -52.5l-20 -51q3 1 12 1q39 0 62.5 -25t19.5 -62
q-10 -94 -130 -94q-46 0 -72 13q-16 7 -16 27l-1 29q0 19 15 11q29 -15 59 -15q48 0 48 35q0 27 -42 27q-20 0 -25 -1q-23 0 -12 24l35 80q-151 10 -193 120q-12 31 20 42l45 14q29 12 41 -19q22 -55 113 -55q106 0 106 59q0 32 -25 44.5t-95 19.5t-113 24q-29 11 -47 27
q-42 37 -42 110z" />
    <glyph glyph-name="Scaron" unicode="&#x160;" horiz-adv-x="633" 
d="M427 917h45q17 0 21 -7.5t-6 -17.5l-102 -98q-18 -18 -27 -22t-28 -4h-12q-23 0 -32.5 4t-27.5 22l-101 98q-10 10 -6.5 17.5t20.5 7.5h42q21 0 28.5 -2.5t18.5 -14.5l61 -57l57 57q17 17 49 17zM48 506q0 100 72.5 159.5t201.5 59.5q103 0 164.5 -36t98.5 -115
q15 -31 -19 -46l-55 -24q-17 -7 -25.5 -3.5t-17.5 20.5q-22 43 -56 63.5t-90 20.5q-145 0 -145 -92q-4 -36 27.5 -57t78.5 -28q15 -3 68 -10t72 -11q82 -16 126 -56q55 -50 55 -142q0 -103 -75.5 -163.5t-209.5 -60.5q-111 0 -176.5 41t-98.5 126q-7 19 -2 28.5t23 15.5
l55 20q17 6 26 1.5t17 -22.5q39 -93 156 -93q159 0 159 104q0 31 -22.5 52t-55.5 29q-30 7 -80 12q-65 7 -107 16q-49 10 -96 41q-65 42 -69 150z" />
    <glyph glyph-name="scaron" unicode="&#x161;" horiz-adv-x="504" 
d="M358 711h40q17 0 20.5 -7t-6.5 -16l-92 -88q-15 -17 -23.5 -20.5t-26.5 -3.5h-11q-21 0 -30 3.5t-24 20.5l-92 89q-9 8 -5.5 15t18.5 7h38q19 0 26.5 -2.5t16.5 -13.5l55 -51l52 51q13 16 44 16zM50 372q0 75 53 118t153 43q161 0 214 -107q16 -30 -16 -45l-45 -18
q-17 -7 -24.5 -4.5t-17.5 18.5q-28 52 -108 52q-94 0 -94 -54q0 -32 24.5 -44t92.5 -18q107 -10 155.5 -45t48.5 -116q0 -77 -56.5 -122t-159.5 -45q-177 0 -223 121q-12 31 20 42l45 14q29 12 41 -19q22 -55 113 -55q106 0 106 59q0 32 -25 44.5t-95 19.5t-113 24
q-29 11 -47 27q-42 37 -42 110z" />
    <glyph glyph-name="Tcaron" unicode="&#x164;" horiz-adv-x="566" 
d="M387 907h45q17 0 20.5 -7.5t-6.5 -17.5l-101 -97q-17 -18 -27 -22.5t-29 -4.5h-12q-23 0 -32.5 4t-26.5 23l-102 97q-10 10 -6 17.5t21 7.5h42q20 0 27.5 -2.5t19.5 -14.5l60 -57l58 57q9 11 18 14t31 3zM48 710h470q19 0 26.5 -7.5t7.5 -26.5v-49q0 -19 -7.5 -26.5
t-26.5 -7.5h-172v-559q0 -19 -7.5 -26.5t-26.5 -7.5h-58q-19 0 -26.5 7.5t-7.5 26.5v559h-172q-19 0 -26.5 7.5t-7.5 26.5v49q0 19 7.5 26.5t26.5 7.5z" />
    <glyph glyph-name="tcaron" unicode="&#x165;" horiz-adv-x="389" 
d="M404 708l-44 -125q-6 -16 -13 -22t-22 -6h-27q-13 0 -16.5 4t-2.5 17l14 132q1 18 9 25t27 7h47q21 0 27 -7.5t1 -24.5zM139 638h54q17 0 24 -6.5t7 -23.5v-90h114q17 0 24 -6.5t7 -23.5v-46q0 -17 -7 -24t-24 -7h-114v-201q0 -70 24 -93q22 -22 89 -22q18 0 25 -6.5
t7 -24.5v-46q0 -18 -7 -24.5t-25 -7.5q-125 -4 -177 44t-52 176v205h-69q-17 0 -23.5 7t-6.5 24v46q0 17 6.5 23.5t23.5 6.5h69v90q0 17 7 23.5t24 6.5z" />
    <glyph glyph-name="Tbar" unicode="&#x166;" horiz-adv-x="583" 
d="M57 710h470q19 0 26.5 -7.5t7.5 -26.5v-49q0 -19 -7.5 -26.5t-26.5 -7.5h-173v-221h119q12 0 16 -5t4 -17v-46q0 -13 -4 -17.5t-16 -4.5h-119v-248q0 -19 -7.5 -26.5t-26.5 -7.5h-57q-19 0 -26.5 7.5t-7.5 26.5v248h-119q-12 0 -16 4.5t-4 17.5v46q0 22 20 22h119v221
h-172q-19 0 -26.5 7.5t-7.5 26.5v49q0 19 7.5 26.5t26.5 7.5z" />
    <glyph glyph-name="tbar" unicode="&#x167;" horiz-adv-x="392" 
d="M141 639h55q17 0 24 -6.5t7 -24.5v-89h114q17 0 24 -6.5t7 -24.5v-46q0 -17 -7 -23.5t-24 -6.5h-114v-105h89q12 0 16 -4.5t4 -16.5v-38q0 -13 -4 -17t-16 -4h-89v-19q0 -69 24 -90q22 -22 89 -22q18 0 24.5 -7t6.5 -24v-47q0 -17 -6.5 -23.5t-24.5 -7.5q-125 -4 -177 44
t-52 176v20h-62q-12 0 -16 4t-4 17v38q0 21 20 21h62v105h-69q-17 0 -24 6.5t-7 23.5v46q0 18 7 24.5t24 6.5h69v89q0 18 6.5 24.5t23.5 6.5z" />
    <glyph glyph-name="Utilde" unicode="&#x168;" horiz-adv-x="688" 
d="M442 895h32q19 0 19 -19q0 -60 -20 -85.5t-65 -25.5q-34 0 -72 29q-37 28 -57 28q-23 0 -23 -38q0 -19 -19 -19h-32q-19 0 -19 19q0 59 20 85t62 26q39 0 77 -28q38 -29 55 -29q24 0 24 38q0 19 18 19zM190 676v-433q0 -69 39.5 -105t114.5 -36t114.5 36t39.5 105v433
q0 19 7.5 26.5t26.5 7.5h57q19 0 26.5 -7.5t7.5 -26.5v-432q0 -121 -72.5 -190t-206.5 -69t-207 69t-73 190v432q0 19 7.5 26.5t26.5 7.5h58q19 0 26.5 -7.5t7.5 -26.5z" />
    <glyph glyph-name="utilde" unicode="&#x169;" 
d="M373 724h32q19 0 19 -19q0 -60 -19.5 -86t-64.5 -26q-35 0 -73 29q-37 28 -56 28q-24 0 -24 -38q0 -19 -18 -19h-33q-19 0 -19 19q0 59 20 85.5t63 26.5q39 0 76 -28q38 -29 55 -29q24 0 24 38q0 19 18 19zM412 518h54q17 0 24 -6.5t7 -23.5v-412q0 -24 -7.5 -35
t-31.5 -21q-90 -35 -196 -35q-104 0 -156.5 51.5t-52.5 149.5v302q0 17 7 23.5t24 6.5h55q17 0 23.5 -6.5t6.5 -23.5v-298q0 -99 109 -99q52 0 92 12q11 5 11 17v368q0 17 7 23.5t24 6.5z" />
    <glyph glyph-name="Umacron" unicode="&#x16a;" horiz-adv-x="688" 
d="M228 870h232q17 0 23 -6t6 -23v-25q0 -17 -6 -23t-23 -6h-232q-17 0 -23 6t-6 23v25q0 17 6.5 23t22.5 6zM190 676v-433q0 -69 39.5 -105t114.5 -36t114.5 36t39.5 105v433q0 19 7.5 26.5t26.5 7.5h57q19 0 26.5 -7.5t7.5 -26.5v-432q0 -121 -72.5 -190t-206.5 -69
t-207 69t-73 190v432q0 19 7.5 26.5t26.5 7.5h58q19 0 26.5 -7.5t7.5 -26.5z" />
    <glyph glyph-name="umacron" unicode="&#x16b;" 
d="M159 695h232q17 0 23 -6t6 -23v-25q0 -17 -6 -23t-23 -6h-232q-17 0 -23 6t-6 23v25q0 17 6.5 23t22.5 6zM412 518h54q17 0 24 -6.5t7 -23.5v-412q0 -24 -7.5 -35t-31.5 -21q-90 -35 -196 -35q-104 0 -156.5 51.5t-52.5 149.5v302q0 17 7 23.5t24 6.5h55q17 0 23.5 -6.5
t6.5 -23.5v-298q0 -99 109 -99q52 0 92 12q11 5 11 17v368q0 17 7 23.5t24 6.5z" />
    <glyph glyph-name="Ubreve" unicode="&#x16c;" horiz-adv-x="688" 
d="M499 863q-17 -49 -57.5 -76t-97.5 -27q-56 0 -97 27t-57 76q-8 20 14 28l39 15q24 8 31 -10q16 -52 70 -52t70 52q8 19 26 11l46 -16q12 -5 14.5 -11t-1.5 -17zM190 676v-433q0 -69 39.5 -105t114.5 -36t114.5 36t39.5 105v433q0 19 7.5 26.5t26.5 7.5h57q19 0 26.5 -7.5
t7.5 -26.5v-432q0 -121 -72.5 -190t-206.5 -69t-207 69t-73 190v432q0 19 7.5 26.5t26.5 7.5h58q19 0 26.5 -7.5t7.5 -26.5z" />
    <glyph glyph-name="ubreve" unicode="&#x16d;" 
d="M431 686q-17 -49 -58 -75.5t-98 -26.5t-97.5 27t-56.5 75q-6 21 14 29l40 15q23 8 31 -10q17 -53 69 -53q51 0 71 53q7 16 26 11l45 -16q20 -9 14 -29zM412 518h54q17 0 24 -6.5t7 -23.5v-412q0 -24 -7.5 -35t-31.5 -21q-90 -35 -196 -35q-104 0 -156.5 51.5t-52.5 149.5
v302q0 17 7 23.5t24 6.5h55q17 0 23.5 -6.5t6.5 -23.5v-298q0 -99 109 -99q52 0 92 12q11 5 11 17v368q0 17 7 23.5t24 6.5z" />
    <glyph glyph-name="Uring" unicode="&#x16e;" horiz-adv-x="688" 
d="M271 772q-31 28 -31 76q0 47 31 77q30 30 79 30q47 0 77 -30t30 -77q0 -46 -30 -75.5t-77 -29.5q-48 0 -79 29zM386 813q22 20 9.5 54t-45.5 31q-23 0 -37.5 -14t-14.5 -36t14.5 -35.5t37.5 -13.5q22 0 36 14zM190 676v-433q0 -69 39.5 -105t114.5 -36t114.5 36t39.5 105
v433q0 19 7.5 26.5t26.5 7.5h57q19 0 26.5 -7.5t7.5 -26.5v-432q0 -121 -72.5 -190t-206.5 -69t-207 69t-73 190v432q0 19 7.5 26.5t26.5 7.5h58q19 0 26.5 -7.5t7.5 -26.5z" />
    <glyph glyph-name="uring" unicode="&#x16f;" 
d="M167 648q0 47 30.5 77t78.5 30q47 0 77 -30t30 -77q0 -46 -30 -75.5t-77 -29.5q-48 0 -78.5 29.5t-30.5 75.5zM325 648q0 22 -13.5 36t-35.5 14q-23 0 -37 -14t-14 -36q0 -21 14.5 -34.5t36.5 -13.5t35.5 13.5t13.5 34.5zM412 518h54q17 0 24 -6.5t7 -23.5v-412
q0 -24 -7.5 -35t-31.5 -21q-90 -35 -196 -35q-104 0 -156.5 51.5t-52.5 149.5v302q0 17 7 23.5t24 6.5h55q17 0 23.5 -6.5t6.5 -23.5v-298q0 -99 109 -99q52 0 92 12q11 5 11 17v368q0 17 7 23.5t24 6.5z" />
    <glyph glyph-name="Uhungarumlaut" unicode="&#x170;" horiz-adv-x="688" 
d="M197 798l69 95q21 29 52 20l35 -12q33 -10 9 -34l-102 -92q-21 -18 -36 -13l-17 6q-25 7 -10 30zM360 794l75 99q23 29 53 20l37 -12q36 -12 9 -34l-111 -96q-21 -18 -36 -13l-17 5q-29 8 -10 31zM190 676v-433q0 -69 39.5 -105t114.5 -36t114.5 36t39.5 105v433
q0 19 7.5 26.5t26.5 7.5h57q19 0 26.5 -7.5t7.5 -26.5v-432q0 -121 -72.5 -190t-206.5 -69t-207 69t-73 190v432q0 19 7.5 26.5t26.5 7.5h58q19 0 26.5 -7.5t7.5 -26.5z" />
    <glyph glyph-name="uhungarumlaut" unicode="&#x171;" 
d="M128 616l69 94q20 29 52 20l35 -11q31 -10 10 -35l-102 -92q-22 -18 -36 -12l-17 5q-24 7 -11 31zM291 612l76 98q23 29 52 20l38 -12q34 -12 9 -34l-112 -95q-13 -12 -18 -14t-18 1l-17 5q-27 8 -10 31zM412 518h54q17 0 24 -6.5t7 -23.5v-412q0 -24 -7.5 -35t-31.5 -21
q-90 -35 -196 -35q-104 0 -156.5 51.5t-52.5 149.5v302q0 17 7 23.5t24 6.5h55q17 0 23.5 -6.5t6.5 -23.5v-298q0 -99 109 -99q52 0 92 12q11 5 11 17v368q0 17 7 23.5t24 6.5z" />
    <glyph glyph-name="Uogonek" unicode="&#x172;" horiz-adv-x="688" 
d="M532 710h57q19 0 26.5 -7.5t7.5 -26.5v-432q0 -133 -83 -199q-60 -59 -89.5 -110t-23.5 -74q6 -21 26 -21q17 0 27 10q14 10 19 -6l14 -32q6 -14 -1 -21q-37 -36 -95 -36q-79 0 -89 60q-7 37 13.5 84t64.5 92q-27 -6 -62 -6q-134 0 -207 69t-73 190v432q0 19 7.5 26.5
t26.5 7.5h58q19 0 26.5 -7.5t7.5 -26.5v-433q0 -69 39.5 -105t114.5 -36t114.5 36t39.5 105v433q0 19 7.5 26.5t26.5 7.5z" />
    <glyph glyph-name="uogonek" unicode="&#x173;" 
d="M412 518h54q17 0 24 -6.5t7 -23.5v-412q0 -26 -11 -39q-40 -51 -61.5 -102t-15.5 -74q6 -21 27 -21q16 0 26 10q14 10 19 -6l14 -32q6 -14 -1 -21q-38 -36 -95 -36q-79 0 -89 60q-8 37 12.5 87.5t62.5 95.5q-52 -13 -123 -13q-104 0 -156.5 51.5t-52.5 149.5v302
q0 17 7 23.5t24 6.5h55q17 0 23.5 -6.5t6.5 -23.5v-298q0 -99 109 -99q52 0 92 12q11 5 11 17v368q0 17 7 23.5t24 6.5z" />
    <glyph glyph-name="Wcircumflex" unicode="&#x174;" horiz-adv-x="901" 
d="M458 909h12q19 0 28 -4.5t27 -22.5l102 -98q10 -10 6 -17.5t-21 -7.5h-45q-33 0 -49 18l-57 57l-60 -57q-12 -12 -20 -15t-28 -3h-41q-17 0 -21 7.5t6 17.5l102 98q18 18 27.5 22.5t31.5 4.5zM801 710h61q32 0 22 -33l-165 -649q-4 -17 -13 -22.5t-29 -5.5h-55
q-36 0 -42 27l-105 397q-14 56 -16 113h-7q-2 -58 -17 -112l-106 -397q-4 -17 -13 -22.5t-29 -5.5h-54q-37 0 -43 27l-164 650q-6 17 -1 25t23 8h70q22 0 31.5 -6t13.5 -24l82 -373q2 -10 16 -134h6q3 67 20 134l101 370q5 18 14.5 24t30.5 6h54q22 0 31.5 -6t13.5 -24
l99 -370q18 -69 21 -134h6q5 66 18 133l80 374q4 18 13.5 24t31.5 6z" />
    <glyph glyph-name="wcircumflex" unicode="&#x175;" horiz-adv-x="735" 
d="M372 728h12q18 0 27 -4.5t27 -22.5l99 -95q10 -10 6.5 -17.5t-20.5 -7.5h-44q-33 0 -48 17l-56 56l-59 -56q-11 -12 -18.5 -14.5t-28.5 -2.5h-40q-36 0 -15 25l100 95q18 19 27 23t31 4zM659 518h33q22 0 27 -7t-1 -29l-134 -455q-7 -28 -42 -28h-34q-34 0 -43 28
l-73 256q-9 30 -16 87l-2 16h-5l-2 -16q-7 -51 -17 -87l-73 -256q-7 -28 -42 -28h-33q-35 0 -42 28l-133 455q-7 22 -2 29t27 7h39q29 0 40 -6t15 -25l57 -224l17 -122h5q0 4 2.5 23.5t8 49t10.5 50.5l66 219q6 21 15 26.5t36 5.5h23q27 0 36 -5.5t15 -25.5l67 -220
q21 -77 21 -123h6l2 19q2 50 15 104l55 223q4 19 15.5 25t40.5 6z" />
    <glyph glyph-name="Ycircumflex" unicode="&#x176;" horiz-adv-x="643" 
d="M325 909h13q19 0 28.5 -4.5t26.5 -22.5l101 -98q10 -10 6.5 -17.5t-20.5 -7.5h-45q-33 0 -49 18l-58 57l-60 -57q-12 -12 -19.5 -15t-27.5 -3h-42q-17 0 -21 7.5t6 17.5l102 98q18 18 27.5 22.5t31.5 4.5zM550 710h65q18 0 22 -10t-5 -24l-244 -396v-246
q0 -19 -7.5 -26.5t-26.5 -7.5h-57q-19 0 -26.5 7.5t-7.5 26.5v248l-245 394q-9 14 -4.5 24t22.5 10h70q33 0 44 -4.5t22 -25.5l155 -270l156 270q11 20 22.5 25t44.5 5z" />
    <glyph glyph-name="ycircumflex" unicode="&#x177;" horiz-adv-x="555" 
d="M277 728h12q19 0 28 -4.5t26 -22.5l99 -95q10 -10 6.5 -17.5t-20.5 -7.5h-44q-31 0 -48 17l-56 56l-59 -56q-11 -11 -19 -14t-27 -3h-41q-17 0 -20.5 7.5t6.5 17.5l99 95q18 18 27.5 22.5t30.5 4.5zM417 518h54q17 0 24 -6.5t7 -23.5v-505q0 -105 -54.5 -161.5
t-165.5 -56.5q-150 0 -208 96q-21 34 13 50l38 21q18 9 28.5 6.5t21.5 -18.5q31 -51 105 -51q106 0 106 108v47q-64 -14 -119 -14q-104 0 -156.5 51.5t-52.5 149.5v277q0 17 7 23.5t24 6.5h55q17 0 23.5 -6.5t6.5 -23.5v-273q0 -99 109 -99q47 0 103 14v358q0 17 7 23.5
t24 6.5z" />
    <glyph glyph-name="Ydieresis" unicode="&#x178;" horiz-adv-x="643" 
d="M225 888h6q30 0 41.5 -11.5t11.5 -40.5v-10q0 -29 -11.5 -40.5t-41.5 -11.5h-6q-30 0 -41 11.5t-11 40.5v10q0 29 11 40.5t41 11.5zM425 888h7q30 0 41 -11.5t11 -40.5v-10q0 -29 -11 -40.5t-41 -11.5h-7q-30 0 -41.5 11.5t-11.5 40.5v10q0 29 11.5 40.5t41.5 11.5z
M550 710h65q18 0 22 -10t-5 -24l-244 -396v-246q0 -19 -7.5 -26.5t-26.5 -7.5h-57q-19 0 -26.5 7.5t-7.5 26.5v248l-245 394q-9 14 -4.5 24t22.5 10h70q33 0 44 -4.5t22 -25.5l155 -270l156 270q11 20 22.5 25t44.5 5z" />
    <glyph glyph-name="Zacute" unicode="&#x179;" horiz-adv-x="588" 
d="M187 815l147 89q37 19 56 -2l26 -32q21 -24 -4 -34l-174 -73q-29 -11 -39 1l-14 19q-17 22 2 32zM73 710h441q19 0 26.5 -7.5t7.5 -26.5v-48q0 -22 -11 -36l-346 -475h329q20 0 27 -7.5t7 -26.5v-49q0 -19 -7.5 -26.5t-26.5 -7.5h-452q-19 0 -26.5 7.5t-7.5 26.5v49
q0 19 12 35l345 475h-318q-19 0 -26.5 7.5t-7.5 26.5v49q0 19 7.5 26.5t26.5 7.5z" />
    <glyph glyph-name="zacute" unicode="&#x17a;" horiz-adv-x="471" 
d="M122 640l148 88q37 23 56 -1l26 -32q21 -25 -5 -34l-174 -73q-29 -12 -38 1l-14 19q-18 22 1 32zM178 105h233q17 0 23.5 -7t6.5 -24v-43q0 -17 -6.5 -24t-23.5 -7h-350q-17 0 -24 7t-7 24v43q0 18 11 31l245 308h-220q-17 0 -24 7t-7 24v44q0 17 7 23.5t24 6.5h340
q17 0 23.5 -6.5t6.5 -23.5v-44q0 -19 -11 -33z" />
    <glyph glyph-name="Zdotaccent" unicode="&#x17b;" horiz-adv-x="588" 
d="M297 888h6q31 0 42.5 -11.5t11.5 -42.5v-8q0 -31 -11.5 -42t-42.5 -11h-6q-31 0 -42.5 11t-11.5 42v8q0 31 11.5 42.5t42.5 11.5zM73 710h441q19 0 26.5 -7.5t7.5 -26.5v-48q0 -22 -11 -36l-346 -475h329q20 0 27 -7.5t7 -26.5v-49q0 -19 -7.5 -26.5t-26.5 -7.5h-452
q-19 0 -26.5 7.5t-7.5 26.5v49q0 19 12 35l345 475h-318q-19 0 -26.5 7.5t-7.5 26.5v49q0 19 7.5 26.5t26.5 7.5z" />
    <glyph glyph-name="zdotaccent" unicode="&#x17c;" horiz-adv-x="471" 
d="M233 711h6q31 0 42 -11.5t11 -42.5v-7q0 -31 -11 -42.5t-42 -11.5h-6q-31 0 -42.5 11t-11.5 43v7q0 31 11.5 42.5t42.5 11.5zM178 105h233q17 0 23.5 -7t6.5 -24v-43q0 -17 -6.5 -24t-23.5 -7h-350q-17 0 -24 7t-7 24v43q0 18 11 31l245 308h-220q-17 0 -24 7t-7 24v44
q0 17 7 23.5t24 6.5h340q17 0 23.5 -6.5t6.5 -23.5v-44q0 -19 -11 -33z" />
    <glyph glyph-name="Zcaron" unicode="&#x17d;" horiz-adv-x="588" 
d="M403 907h45q17 0 21 -7.5t-6 -17.5l-102 -97q-17 -18 -26.5 -22.5t-28.5 -4.5h-12q-23 0 -32.5 4t-27.5 23l-101 97q-10 10 -6.5 17.5t20.5 7.5h42q21 0 28.5 -2.5t18.5 -14.5l61 -57l57 57q9 11 18.5 14t30.5 3zM73 710h441q19 0 26.5 -7.5t7.5 -26.5v-48q0 -22 -11 -36
l-346 -475h329q20 0 27 -7.5t7 -26.5v-49q0 -19 -7.5 -26.5t-26.5 -7.5h-452q-19 0 -26.5 7.5t-7.5 26.5v49q0 19 12 35l345 475h-318q-19 0 -26.5 7.5t-7.5 26.5v49q0 19 7.5 26.5t26.5 7.5z" />
    <glyph glyph-name="zcaron" unicode="&#x17e;" horiz-adv-x="471" 
d="M329 711h40q15 0 18.5 -7t-5.5 -16l-91 -89q-16 -16 -24.5 -20t-25.5 -4h-11q-21 0 -30 3.5t-24 20.5l-91 89q-9 9 -5.5 16t18.5 7h38q18 0 25.5 -2.5t16.5 -13.5l54 -52l52 52q15 16 45 16zM178 105h233q17 0 23.5 -7t6.5 -24v-43q0 -17 -6.5 -24t-23.5 -7h-350
q-17 0 -24 7t-7 24v43q0 18 11 31l245 308h-220q-17 0 -24 7t-7 24v44q0 17 7 23.5t24 6.5h340q17 0 23.5 -6.5t6.5 -23.5v-44q0 -19 -11 -33z" />
    <glyph glyph-name="longs" unicode="&#x17f;" horiz-adv-x="294" 
d="M100 518v11q0 211 229 211q18 0 24.5 -7t6.5 -25v-44q0 -18 -6.5 -25t-24.5 -7q-60 0 -86.5 -27t-26.5 -86v-488q0 -17 -7 -24t-25 -7h-53q-18 0 -24.5 7t-6.5 24v380h-57q-17 0 -24 7t-7 24v46q0 17 7 23.5t24 6.5h57z" />
    <glyph glyph-name="florin" unicode="&#x192;" horiz-adv-x="461" 
d="M171 411l12 111q12 110 66 164t165 54q18 0 24.5 -7t6.5 -25v-44q0 -18 -6.5 -25t-24.5 -7q-57 0 -83 -27t-32 -86l-11 -108h103q17 0 24 -7t7 -24v-46q0 -17 -7 -24t-24 -7h-115l-31 -305q-12 -110 -67 -164t-164 -54q-18 0 -25 7t-7 25v44q0 18 7 25t25 7q56 0 82 27.5
t32 86.5l32 301h-98q-17 0 -23.5 7t-6.5 24v46q0 17 6.5 24t23.5 7h109z" />
    <glyph glyph-name="Aringacute" unicode="&#x1fa;" horiz-adv-x="657" 
d="M249 902l131 61q34 16 53 -1l24 -25q21 -18 -4 -25l-164 -53q-26 -9 -36 1l-13 14q-16 16 9 28zM228 736q0 48 32 79t82 31q49 0 80.5 -31t31.5 -79q0 -50 -40 -74l245 -629q12 -33 -23 -33h-51q-32 0 -44.5 6t-18.5 24l-47 131h-274l-48 -131q-6 -18 -18 -24t-44 -6h-46
q-35 0 -22 33l246 629q-41 26 -41 74zM391 740q0 22 -13.5 35t-35.5 13q-23 0 -37 -13t-14 -35q0 -20 14.5 -33t36.5 -13t35.5 13t13.5 33zM440 263l-67 191q-4 10 -7 21l-5.5 21l-5 21l-4.5 20.5t-3.5 18.5l-2.5 15.5t-1.5 12t-1.5 8.5v2h-8l-1 -8q-1 -8 -3.5 -23l-5.5 -32
t-8 -38t-11 -38l-69 -192h204z" />
    <glyph glyph-name="aringacute" unicode="&#x1fb;" horiz-adv-x="519" 
d="M152 835l137 65q37 15 53 -1l24 -24q21 -18 -4 -25l-163 -54q-26 -9 -36 1l-13 13q-7 8 -8.5 11.5t0.5 6.5t10 7zM180 595q-31 28 -31 76q0 47 31 77q30 30 79 30q47 0 77 -30t30 -77q0 -46 -30 -75.5t-77 -29.5q-48 0 -79 29zM295 636q22 20 9.5 54t-45.5 31
q-23 0 -37.5 -14t-14.5 -36t14.5 -35.5t37.5 -13.5q22 0 36 14zM49 429q54 104 207 104q214 0 214 -206v-259q0 -26 -7.5 -37t-28.5 -20q-61 -26 -180 -26q-128 0 -175 40q-48 39 -48 122q0 89 52 125t175 36q1 0 96 -5v28q0 50 -23.5 74.5t-76.5 24.5q-74 0 -105 -48
q-11 -16 -18.5 -18.5t-24.5 3.5l-40 17q-33 15 -17 45zM354 103v105q-30 1 -57.5 2.5t-39 2t-12.5 0.5q-53 0 -74.5 -15.5t-21.5 -49.5q0 -35 20.5 -51t73.5 -16q62 0 100 8q11 5 11 14z" />
    <glyph glyph-name="AEacute" unicode="&#x1fc;" horiz-adv-x="858" 
d="M514 815l147 89q38 20 57 -2l25 -32q21 -24 -4 -34l-174 -73q-29 -11 -39 1l-14 19q-17 22 2 32zM553 117h251q19 0 26.5 -7.5t7.5 -26.5v-49q0 -19 -7.5 -26.5t-26.5 -7.5h-338q-19 0 -26.5 7.5t-7.5 26.5v115h-210l-72 -119q-10 -18 -22 -24t-41 -6h-53q-35 0 -23 33
l408 649q12 18 19.5 23t22.5 5h332q19 0 26.5 -7.5t7.5 -26.5v-49q0 -19 -7.5 -26.5t-26.5 -7.5h-240v-175h192q19 0 26.5 -7.5t7.5 -26.5v-49q0 -19 -7.5 -26.5t-26.5 -7.5h-192v-184zM432 252v247l-149 -247h149z" />
    <glyph glyph-name="aeacute" unicode="&#x1fd;" horiz-adv-x="799" 
d="M278 642l147 88q38 21 56 -2l26 -31q21 -25 -4 -35l-174 -73q-31 -11 -39 2l-14 18q-10 13 -10 19.5t12 13.5zM49 429q56 104 195 104q100 0 148 -55q52 55 155 55q107 0 162.5 -55.5t55.5 -150.5v-62q0 -43 -44 -43h-275v-37q0 -100 101 -100q68 0 103 53
q12 16 22.5 18.5t28.5 -6.5l35 -19q33 -17 12 -50q-58 -96 -202 -96q-83 0 -136 38q-68 -38 -168 -38q-120 0 -165 39t-45 122q0 90 48 126t166 36q14 0 47 -2.5t36 -2.5v41q0 43 -20.5 64.5t-67.5 21.5q-61 0 -92 -48q-11 -16 -18 -18.5t-24 4.5l-40 17q-34 13 -18 44z
M649 311v22q0 102 -102 102q-101 0 -101 -102v-22h203zM329 152v56q-4 0 -43 2.5t-53 2.5q-47 0 -65.5 -15.5t-18.5 -50.5t17.5 -50.5t64.5 -15.5q33 0 57.5 5t32.5 9.5t10 7.5q-2 22 -2 49z" />
    <glyph glyph-name="Oslashacute" unicode="&#x1fe;" horiz-adv-x="669" 
d="M230 825l147 89q38 20 57 -2l25 -32q21 -24 -4 -34l-174 -73q-29 -11 -39 1l-14 19q-17 22 2 32zM566 753h67q11 0 6 -11l-68 -105q56 -68 56 -173v-218q0 -121 -74 -190t-211 -71q-96 -1 -164 35l-31 -49q-7 -10 -23 -10h-65q-14 0 -6 11l62 97q-59 68 -59 177v218
q0 123 75 192t211 69q98 0 167 -39l36 57q7 10 21 10zM194 192l249 391q-40 25 -101 25q-77 0 -118.5 -36.5t-41.5 -106.5v-220q0 -31 12 -53zM492 512l-248 -388q37 -22 98 -22q77 0 118.5 37t41.5 106v220q0 26 -10 47z" />
    <glyph glyph-name="oslashacute" unicode="&#x1ff;" horiz-adv-x="543" 
d="M158 640l147 88q37 22 57 -1l25 -32q23 -26 -4 -34l-174 -73q-29 -12 -39 1l-14 19q-17 22 2 32zM435 552h46q11 0 5 -11l-40 -64q56 -51 56 -144v-148q0 -94 -60.5 -147t-170.5 -53q-71 0 -122 24l-21 -34q-7 -10 -22 -10h-45q-13 0 -5 11l42 66q-57 52 -57 143v148
q0 94 60 147t170 53q71 0 123 -23l21 32q7 10 20 10zM168 152l167 264q-27 12 -64 12q-55 0 -84.5 -24.5t-29.5 -70.5v-148q0 -19 11 -33zM376 367l-168 -264q27 -13 63 -13q55 0 85 25t30 70v148q0 20 -10 34z" />
    <glyph glyph-name="Scommaaccent" unicode="&#x218;" horiz-adv-x="633" 
d="M48 506q0 100 72.5 159.5t201.5 59.5q103 0 164.5 -36t98.5 -115q15 -31 -19 -46l-55 -24q-17 -7 -25.5 -3.5t-17.5 20.5q-22 43 -56 63.5t-90 20.5q-145 0 -145 -92q-4 -36 27.5 -57t78.5 -28q15 -3 68 -10t72 -11q82 -16 126 -56q55 -50 55 -142q0 -103 -75.5 -163.5
t-209.5 -60.5q-111 0 -176.5 41t-98.5 126q-7 19 -2 28.5t23 15.5l55 20q17 6 26 1.5t17 -22.5q39 -93 156 -93q159 0 159 104q0 31 -22.5 52t-55.5 29q-30 7 -80 12q-65 7 -107 16q-49 10 -96 41q-65 42 -69 150zM392 -95l-47 -135q-9 -28 -35 -28h-37q-14 0 -18 4.5
t-2 16.5l20 142q2 19 10 26t27 7h53q39 0 29 -33z" />
    <glyph glyph-name="scommaaccent" unicode="&#x219;" horiz-adv-x="504" 
d="M50 372q0 75 53 118t153 43q161 0 214 -107q16 -30 -16 -45l-45 -18q-17 -7 -24.5 -4.5t-17.5 18.5q-28 52 -108 52q-94 0 -94 -54q0 -32 24.5 -44t92.5 -18q107 -10 155.5 -45t48.5 -116q0 -77 -56.5 -122t-159.5 -45q-177 0 -223 121q-12 31 20 42l45 14q29 12 41 -19
q22 -55 113 -55q106 0 106 59q0 32 -25 44.5t-95 19.5t-113 24q-29 11 -47 27q-42 37 -42 110zM328 -80l-37 -114q-6 -17 -14 -23t-25 -6h-30q-15 0 -19 5t-2 19l17 119q2 21 11 28.5t29 7.5h43q41 0 27 -36z" />
    <glyph glyph-name="uni021A" unicode="&#x21a;" horiz-adv-x="566" 
d="M48 710h470q19 0 26.5 -7.5t7.5 -26.5v-49q0 -19 -7.5 -26.5t-26.5 -7.5h-172v-559q0 -19 -7.5 -26.5t-26.5 -7.5h-58q-19 0 -26.5 7.5t-7.5 26.5v559h-172q-19 0 -26.5 7.5t-7.5 26.5v49q0 19 7.5 26.5t26.5 7.5zM344 -93l-46 -135q-10 -29 -36 -29h-37q-13 0 -17.5 5
t-2.5 17l20 142q2 19 10 25.5t27 6.5h53q41 0 29 -32z" />
    <glyph glyph-name="uni021B" unicode="&#x21b;" horiz-adv-x="389" 
d="M139 638h54q17 0 24 -6.5t7 -23.5v-90h114q17 0 24 -6.5t7 -23.5v-46q0 -17 -7 -24t-24 -7h-114v-201q0 -70 24 -93q22 -22 89 -22q18 0 25 -6.5t7 -24.5v-46q0 -18 -7 -24.5t-25 -7.5q-125 -4 -177 44t-52 176v205h-69q-17 0 -23.5 7t-6.5 24v46q0 17 6.5 23.5t23.5 6.5
h69v90q0 17 7 23.5t24 6.5zM290 -93l-47 -135q-8 -29 -35 -29h-37q-14 0 -18 4.5t-2 17.5l20 142q2 19 10 25.5t27 6.5h53q40 0 29 -32z" />
    <glyph glyph-name="dotlessj" unicode="&#x237;" horiz-adv-x="233" 
d="M90 518h53q18 0 24.5 -6.5t6.5 -23.5v-495q0 -223 -228 -223q-18 0 -25 7t-7 25v44q0 18 7 25t25 7q59 0 85.5 29.5t26.5 88.5v492q0 17 7 23.5t25 6.5z" />
    <glyph glyph-name="circumflex" unicode="&#x2c6;" horiz-adv-x="394" 
d="M194 734h12q19 0 28.5 -4.5t26.5 -22.5l102 -98q10 -9 6 -17t-21 -8h-45q-33 0 -49 18l-58 57l-60 -57q-11 -12 -19 -15t-28 -3h-42q-18 0 -22 8t8 17l101 98q19 19 28 23t32 4z" />
    <glyph glyph-name="caron" unicode="&#x2c7;" horiz-adv-x="332" 
d="M273 732h44q17 0 21 -7.5t-6 -17.5l-101 -97q-18 -18 -27.5 -22.5t-28.5 -4.5h-12q-23 0 -32.5 4t-26.5 23l-102 97q-10 10 -6.5 17.5t20.5 7.5h42q21 0 28.5 -2.5t19.5 -14.5l60 -57l57 57q9 11 18.5 14t31.5 3z" />
    <glyph glyph-name="breve" unicode="&#x2d8;" horiz-adv-x="287" 
d="M301 688q-17 -49 -58 -76t-98 -27q-56 0 -97 27t-57 76q-8 20 14 28l39 16q23 8 31 -11q16 -52 70 -52t70 52q7 16 26 12l46 -17q20 -9 14 -28z" />
    <glyph glyph-name="dotaccent" unicode="&#x2d9;" horiz-adv-x="216" 
d="M105 712h6q31 0 42.5 -11t11.5 -42v-8q0 -31 -11.5 -42.5t-42.5 -11.5h-6q-31 0 -42.5 11.5t-11.5 42.5v8q0 31 11.5 42t42.5 11z" />
    <glyph glyph-name="ring" unicode="&#x2da;" horiz-adv-x="240" 
d="M43 586q-31 28 -31 76q0 47 31 77q30 30 79 30q47 0 77 -30t30 -77q0 -46 -30 -75.5t-77 -29.5q-48 0 -79 29zM158 627q22 21 9.5 54.5t-45.5 29.5q-32 3 -45.5 -23t0 -52t45.5 -23q22 0 36 14z" />
    <glyph glyph-name="ogonek" unicode="&#x2db;" horiz-adv-x="252" 
d="M128 0h75q-77 -96 -65 -139q6 -21 27 -21q16 0 26 10q14 10 19 -6l14 -32q7 -13 -1 -21q-37 -36 -95 -36q-77 0 -89 60q-8 39 15 88t74 97z" />
    <glyph glyph-name="tilde" unicode="&#x2dc;" horiz-adv-x="305" 
d="M255 725h32q19 0 19 -19q0 -60 -19.5 -85.5t-64.5 -25.5q-35 0 -73 29q-37 28 -56 28q-24 0 -24 -38q0 -19 -18 -19h-33q-19 0 -19 19q0 59 20 85t63 26q39 0 76 -28q38 -29 55 -29q24 0 24 38q0 19 18 19z" />
    <glyph glyph-name="hungarumlaut" unicode="&#x2dd;" horiz-adv-x="395" 
d="M67 617l69 94q21 30 52 21l35 -12q32 -11 10 -34l-102 -92q-22 -18 -37 -13l-16 5q-25 7 -11 31zM230 614l76 97q22 30 52 21l37 -12q35 -13 10 -34l-112 -96q-21 -18 -36 -13l-17 6q-29 8 -10 31z" />
    <glyph glyph-name="uni0326" unicode="&#x326;" horiz-adv-x="0" 
d="M201 -93l-46 -135q-5 -16 -12.5 -22.5t-22.5 -6.5h-38q-13 0 -17.5 5t-2.5 17l21 142q1 18 9 25t27 7h53q41 0 29 -32z" />
    <glyph glyph-name="pi" unicode="&#x3c0;" horiz-adv-x="643" 
d="M180 518h419q17 0 24 -6.5t7 -23.5v-45q0 -17 -7 -24t-24 -7h-31v-262q0 -48 18 -86q15 -33 -17 -45l-45 -18q-31 -15 -43 16q-29 60 -29 138v257h-194v-381q0 -17 -7 -24t-24 -7h-55q-17 0 -23.5 7t-6.5 24v381q-27 -2 -63 -18q-29 -13 -40 13l-18 44q-13 27 15 40
q58 27 144 27z" />
    <glyph glyph-name="uni0401" unicode="&#x401;" horiz-adv-x="579" 
d="M201 881h7q30 0 41.5 -11.5t11.5 -40.5v-10q0 -29 -11.5 -40.5t-41.5 -11.5h-7q-30 0 -41 11.5t-11 40.5v10q0 29 11 40.5t41 11.5zM402 881h6q30 0 41.5 -11.5t11.5 -40.5v-10q0 -29 -11.5 -40.5t-41.5 -11.5h-6q-30 0 -41.5 11.5t-11.5 40.5v10q0 29 11.5 40.5
t41.5 11.5zM104 710h397q19 0 27 -7.5t8 -26.5v-49q0 -19 -8 -26.5t-27 -7.5h-306v-175h259q19 0 26.5 -7.5t7.5 -26.5v-49q0 -19 -7.5 -26.5t-26.5 -7.5h-259v-184h317q19 0 26.5 -7.5t7.5 -26.5v-49q0 -19 -7.5 -26.5t-26.5 -7.5h-408q-19 0 -27 7.5t-8 26.5v642
q0 19 8 26.5t27 7.5z" />
    <glyph glyph-name="uni0410" unicode="&#x410;" horiz-adv-x="658" 
d="M409 684l250 -651q12 -33 -23 -33h-52q-31 0 -43.5 6t-18.5 24l-46 129h-276l-47 -129q-6 -18 -18.5 -24t-43.5 -6h-46q-35 0 -23 33l250 650q7 17 15.5 22.5t26.5 5.5h53q32 0 42 -27zM441 262l-76 211q-15 46 -23 105l-1 17h-7q0 -58 -22 -121l-77 -212h206z" />
    <glyph glyph-name="uni0411" unicode="&#x411;" horiz-adv-x="634" 
d="M104 710h418q19 0 26.5 -7.5t7.5 -26.5v-49q0 -19 -7.5 -26.5t-26.5 -7.5h-327v-159h190q102 0 161.5 -58t59.5 -159t-59.5 -159t-161.5 -58h-282q-18 0 -26 7t-8 25v644q0 19 8 26.5t27 7.5zM447 144q27 27 27 73t-27 73t-75 27h-177v-200h177q48 0 75 27z" />
    <glyph glyph-name="uni0412" unicode="&#x412;" horiz-adv-x="650" 
d="M104 710h277q97 0 151 -48.5t54 -138.5q0 -106 -76 -151v-4q102 -36 102 -173q0 -91 -61 -143t-164 -52h-283q-19 0 -27 7.5t-8 26.5v642q0 19 8 26.5t27 7.5zM195 417h171q92 0 92 88t-92 88h-171v-176zM479 209q0 94 -95 94h-189v-186h189q95 0 95 92z" />
    <glyph glyph-name="uni0413" unicode="&#x413;" horiz-adv-x="519" 
d="M104 710h367q19 0 26.5 -7.5t7.5 -26.5v-49q0 -19 -7.5 -26.5t-26.5 -7.5h-276v-559q0 -19 -7.5 -26.5t-26.5 -7.5h-57q-19 0 -27 7.5t-8 26.5v642q0 19 8 26.5t27 7.5z" />
    <glyph glyph-name="uni0414" unicode="&#x414;" horiz-adv-x="739" 
d="M202 710h398q19 0 27 -7.5t8 -26.5v-559h52q19 0 26.5 -7.5t7.5 -26.5v-202q0 -19 -7.5 -26.5t-26.5 -7.5h-55q-19 0 -26.5 7.5t-7.5 26.5v119h-457v-119q0 -19 -7.5 -26.5t-26.5 -7.5h-54q-19 0 -26.5 7.5t-7.5 26.5v202q0 19 7.5 26.5t26.5 7.5h23q37 25 62 89
q30 81 30 263v207q0 19 7.5 26.5t26.5 7.5zM509 593h-220v-123q0 -249 -67 -353h287v476z" />
    <glyph glyph-name="uni0415" unicode="&#x415;" horiz-adv-x="579" 
d="M104 710h397q19 0 27 -7.5t8 -26.5v-49q0 -19 -8 -26.5t-27 -7.5h-306v-175h259q19 0 26.5 -7.5t7.5 -26.5v-49q0 -19 -7.5 -26.5t-26.5 -7.5h-259v-184h317q19 0 26.5 -7.5t7.5 -26.5v-49q0 -19 -7.5 -26.5t-26.5 -7.5h-408q-19 0 -27 7.5t-8 26.5v642q0 19 8 26.5
t27 7.5z" />
    <glyph glyph-name="uni0416" unicode="&#x416;" horiz-adv-x="941" 
d="M835 710h63q18 0 22.5 -10t-5.5 -23l-200 -298q47 -29 85 -101l126 -244q9 -14 5 -24t-22 -10h-58q-32 0 -45.5 6t-22.5 24l-100 203q-21 42 -45 56t-75 14h-26v-269q0 -19 -7.5 -26.5t-26.5 -7.5h-57q-19 0 -26.5 7.5t-7.5 26.5v269h-26q-51 0 -75 -14t-45 -56
l-100 -203q-9 -18 -22.5 -24t-45.5 -6h-58q-18 0 -22 10t5 24l127 244q34 69 84 101l-200 298q-9 13 -4.5 23t21.5 10h64q31 0 43.5 -5t24.5 -23l169 -266q9 1 34 1h26v259q0 19 7.5 26.5t26.5 7.5h57q19 0 26.5 -7.5t7.5 -26.5v-259h26q27 0 34 -1l169 266q12 18 24.5 23
t44.5 5z" />
    <glyph glyph-name="uni0417" unicode="&#x417;" horiz-adv-x="635" 
d="M585 521q0 -107 -80 -151q102 -44 102 -172q0 -103 -66.5 -158t-196.5 -55q-240 0 -298 168q-12 32 21 44l55 19q18 6 27 1.5t16 -22.5q18 -49 59 -71t120 -22q131 0 131 102q0 48 -25 74t-73 26h-140q-19 0 -26.5 7.5t-7.5 26.5v45q0 19 7.5 26.5t26.5 7.5h125
q46 0 70.5 24.5t24.5 69.5q0 97 -121 97q-72 0 -109.5 -21.5t-55.5 -70.5q-7 -18 -16 -22.5t-27 1.5l-55 19q-33 12 -21 44q59 167 292 167q116 0 178.5 -53.5t62.5 -150.5z" />
    <glyph glyph-name="uni0418" unicode="&#x418;" horiz-adv-x="700" 
d="M537 710h59q19 0 26.5 -7.5t7.5 -26.5v-642q0 -19 -7.5 -26.5t-26.5 -7.5h-57q-19 0 -26.5 7.5t-7.5 26.5v293q0 72 5 117t19 112h-4q-35 -88 -100 -190l-229 -349q-11 -17 -34 -17h-58q-19 0 -27 7.5t-8 26.5v642q0 19 8 26.5t27 7.5h57q19 0 26.5 -7.5t7.5 -26.5v-290
q0 -81 -4 -118t-20 -114h4q39 98 104 198l225 342q10 16 33 16z" />
    <glyph glyph-name="uni0419" unicode="&#x419;" horiz-adv-x="700" 
d="M527 866q-20 -51 -65.5 -78.5t-108.5 -27.5q-64 0 -109 28t-63 78q-7 22 15 30l44 16q26 8 35 -11q19 -54 78 -54t78 54q9 17 29 12l51 -17q13 -5 16.5 -11t-0.5 -19zM537 710h59q19 0 26.5 -7.5t7.5 -26.5v-642q0 -19 -7.5 -26.5t-26.5 -7.5h-57q-19 0 -26.5 7.5
t-7.5 26.5v293q0 72 5 117t19 112h-4q-35 -88 -100 -190l-229 -349q-11 -17 -34 -17h-58q-19 0 -27 7.5t-8 26.5v642q0 19 8 26.5t27 7.5h57q19 0 26.5 -7.5t7.5 -26.5v-290q0 -81 -4 -118t-20 -114h4q39 98 104 198l225 342q10 16 33 16z" />
    <glyph glyph-name="uni041A" unicode="&#x41a;" horiz-adv-x="627" 
d="M482 278l127 -244q18 -34 -17 -34h-58q-33 0 -46 5.5t-22 24.5l-101 203q-21 41 -44 56q-25 14 -75 14h-51v-269q0 -19 -7.5 -26.5t-26.5 -7.5h-57q-19 0 -27 7.5t-8 26.5v642q0 19 8 26.5t27 7.5h57q19 0 26.5 -7.5t7.5 -26.5v-259h40h13l201 265q13 18 25.5 23t42.5 5
h64q17 0 21.5 -10t-5.5 -23l-223 -285q64 -28 108 -114z" />
    <glyph glyph-name="uni041B" unicode="&#x41b;" horiz-adv-x="675" 
d="M195 710h392q19 0 26.5 -7.5t7.5 -26.5v-642q0 -19 -7.5 -26.5t-26.5 -7.5h-58q-19 0 -26.5 7.5t-7.5 26.5v559h-212v-130q0 -192 -38 -306q-18 -49 -43 -82q-17 -22 -35 -38t-31.5 -24t-41.5 -22q-33 -16 -45 16l-26 50q-15 31 16 46q23 11 35 20.5t30 33.5q20 25 30 60
q26 87 26 246v213q0 19 8 26.5t27 7.5z" />
    <glyph glyph-name="uni041C" unicode="&#x41c;" horiz-adv-x="811" 
d="M658 710h49q19 0 26.5 -7.5t7.5 -26.5v-642q0 -19 -7.5 -26.5t-26.5 -7.5h-51q-19 0 -26.5 7.5t-7.5 26.5v305q0 89 24 199h-7q-27 -82 -82 -183l-98 -173q-15 -24 -39 -24h-32q-16 0 -23.5 4.5t-15.5 19.5l-100 174q-44 74 -77 182h-7q21 -102 21 -200v-304
q0 -19 -7.5 -26.5t-26.5 -7.5h-48q-19 0 -27 7.5t-8 26.5v642q0 19 8 26.5t27 7.5h44q21 0 30.5 -5t17.5 -21l208 -372l208 371q9 17 17.5 22t28.5 5z" />
    <glyph glyph-name="uni041D" unicode="&#x41d;" horiz-adv-x="686" 
d="M525 710h57q19 0 27 -7.5t8 -26.5v-642q0 -19 -8 -26.5t-27 -7.5h-57q-19 0 -26.5 7.5t-7.5 26.5v267h-296v-267q0 -19 -7.5 -26.5t-26.5 -7.5h-57q-19 0 -27 7.5t-8 26.5v642q0 19 8 26.5t27 7.5h57q19 0 26.5 -7.5t7.5 -26.5v-258h296v258q0 19 7.5 26.5t26.5 7.5z" />
    <glyph glyph-name="uni041E" unicode="&#x41e;" horiz-adv-x="669" 
d="M49 246v218q0 123 75 192t211 69q135 0 210 -69t75 -192v-218q0 -123 -75 -192t-210 -69q-136 0 -211 69t-75 192zM495 245v220q0 69 -41.5 106t-118.5 37t-118.5 -36.5t-41.5 -106.5v-220q0 -70 41.5 -106.5t118.5 -36.5t118.5 37t41.5 106z" />
    <glyph glyph-name="uni041F" unicode="&#x41f;" horiz-adv-x="681" 
d="M104 710h473q19 0 26.5 -7.5t7.5 -26.5v-642q0 -19 -7.5 -26.5t-26.5 -7.5h-57q-19 0 -26.5 7.5t-7.5 26.5v559h-291v-559q0 -19 -7.5 -26.5t-26.5 -7.5h-57q-19 0 -27 7.5t-8 26.5v642q0 19 8 26.5t27 7.5z" />
    <glyph glyph-name="uni0420" unicode="&#x420;" horiz-adv-x="632" 
d="M104 710h265q109 0 172.5 -62t63.5 -170t-63.5 -169.5t-172.5 -61.5h-174v-213q0 -19 -7.5 -26.5t-26.5 -7.5h-57q-19 0 -27 7.5t-8 26.5v642q0 19 8 26.5t27 7.5zM195 364h162q55 0 85.5 30t30.5 84t-30.5 84.5t-85.5 30.5h-162v-229z" />
    <glyph glyph-name="uni0421" unicode="&#x421;" horiz-adv-x="640" 
d="M49 246v219q0 122 75 191t211 69q213 0 272 -167q12 -32 -21 -44l-55 -19q-18 -6 -27 -1.5t-16 22.5q-33 92 -153 92q-77 0 -118.5 -36.5t-41.5 -105.5v-221q0 -69 41.5 -106t118.5 -37q119 0 153 93q8 19 17 23.5t27 -2.5l54 -19q33 -12 22 -44q-58 -168 -273 -168
q-136 0 -211 69t-75 192z" />
    <glyph glyph-name="uni0422" unicode="&#x422;" horiz-adv-x="566" 
d="M48 710h470q19 0 26.5 -7.5t7.5 -26.5v-49q0 -19 -7.5 -26.5t-26.5 -7.5h-172v-559q0 -19 -7.5 -26.5t-26.5 -7.5h-58q-19 0 -26.5 7.5t-7.5 26.5v559h-172q-19 0 -26.5 7.5t-7.5 26.5v49q0 19 7.5 26.5t26.5 7.5z" />
    <glyph glyph-name="uni0423" unicode="&#x423;" horiz-adv-x="613" 
d="M545 710h58q30 0 17 -34l-298 -646q-8 -19 -18.5 -24.5t-37.5 -5.5h-68q-33 0 -17 34l87 174l-242 468q-18 34 17 34h59q35 0 43.5 -3.5t22.5 -26.5l165 -332l151 332q9 21 18.5 25.5t42.5 4.5z" />
    <glyph glyph-name="uni0424" unicode="&#x424;" horiz-adv-x="836" 
d="M389 735h57q19 0 27 -7.5t8 -26.5v-51h52q130 0 200 -66.5t70 -187.5v-77q0 -121 -70 -187.5t-200 -66.5h-52v-51q0 -19 -8 -26.5t-27 -7.5h-57q-19 0 -26.5 7.5t-7.5 26.5v51h-52q-130 0 -200 66.5t-70 187.5v77q0 121 70 187.5t200 66.5h52v51q0 19 7.5 26.5t26.5 7.5z
M355 537h-52q-144 0 -144 -136v-87q0 -136 144 -136h52v359zM677 314v87q0 136 -144 136h-52v-359h52q144 0 144 136z" />
    <glyph glyph-name="uni0425" unicode="&#x425;" horiz-adv-x="638" 
d="M401 363l223 -328q11 -13 6.5 -24t-22.5 -11h-70q-32 0 -43.5 5t-23.5 25l-153 235l-147 -235q-14 -20 -25 -25t-41 -5h-65q-18 0 -22.5 10.5t5.5 24.5l220 327l-212 316q-10 12 -5.5 22t22.5 10h67q29 0 40 -5t26 -23l143 -221l143 221q14 18 25 23t38 5h69
q17 0 21.5 -10t-5.5 -22z" />
    <glyph glyph-name="uni0426" unicode="&#x426;" horiz-adv-x="710" 
d="M607 117h50q19 0 26.5 -7.5t7.5 -26.5v-202q0 -19 -7.5 -26.5t-26.5 -7.5h-53q-19 0 -26.5 7.5t-7.5 26.5v119h-466q-19 0 -27 7.5t-8 26.5v642q0 19 8 26.5t27 7.5h57q19 0 26.5 -7.5t7.5 -26.5v-559h286v559q0 19 7.5 26.5t26.5 7.5h57q19 0 27 -7.5t8 -26.5v-559z" />
    <glyph glyph-name="uni0427" unicode="&#x427;" horiz-adv-x="642" 
d="M481 710h57q19 0 26.5 -7.5t7.5 -26.5v-642q0 -19 -7.5 -26.5t-26.5 -7.5h-57q-19 0 -26.5 7.5t-7.5 26.5v238q-56 -13 -150 -13q-134 0 -197.5 61.5t-63.5 183.5v172q0 19 8 26.5t27 7.5h57q19 0 26.5 -7.5t7.5 -26.5v-172q0 -129 141 -129q79 0 144 16v285
q0 19 7.5 26.5t26.5 7.5z" />
    <glyph glyph-name="uni0428" unicode="&#x428;" horiz-adv-x="927" 
d="M766 710h57q19 0 26.5 -7.5t7.5 -26.5v-642q0 -19 -7.5 -26.5t-26.5 -7.5h-719q-19 0 -27 7.5t-8 26.5v642q0 19 8 26.5t27 7.5h57q19 0 26.5 -7.5t7.5 -26.5v-559h206v559q0 19 7.5 26.5t26.5 7.5h57q19 0 26.5 -7.5t7.5 -26.5v-559h206v559q0 19 7.5 26.5t26.5 7.5z
" />
    <glyph glyph-name="uni0429" unicode="&#x429;" horiz-adv-x="962" 
d="M857 117h51q19 0 26.5 -7.5t7.5 -26.5v-202q0 -19 -7.5 -26.5t-26.5 -7.5h-53q-19 0 -26.5 7.5t-7.5 26.5v119h-717q-19 0 -27 7.5t-8 26.5v642q0 19 8 26.5t27 7.5h57q19 0 26.5 -7.5t7.5 -26.5v-559h206v559q0 19 7.5 26.5t26.5 7.5h57q19 0 26.5 -7.5t7.5 -26.5v-559
h206v559q0 19 7.5 26.5t26.5 7.5h57q19 0 26.5 -7.5t7.5 -26.5v-559z" />
    <glyph glyph-name="uni042A" unicode="&#x42a;" horiz-adv-x="744" 
d="M307 463h174q109 0 172 -61.5t63 -169.5t-63 -170t-172 -62h-266q-19 0 -26.5 7.5t-7.5 26.5v559h-132q-19 0 -26.5 7.5t-7.5 26.5v49q0 19 7.5 26.5t26.5 7.5h224q19 0 26.5 -7.5t7.5 -26.5v-213zM307 117h162q55 0 85.5 30.5t30.5 84.5t-30.5 84t-85.5 30h-162v-229z
" />
    <glyph glyph-name="uni042B" unicode="&#x42b;" horiz-adv-x="905" 
d="M369 0h-265q-19 0 -27 7.5t-8 26.5v642q0 19 8 26.5t27 7.5h57q19 0 26.5 -7.5t7.5 -26.5v-213h174q109 0 172.5 -61.5t63.5 -169.5t-63.5 -170t-172.5 -62zM711 34v642q0 19 7.5 26.5t26.5 7.5h57q19 0 26.5 -7.5t7.5 -26.5v-642q0 -19 -7.5 -26.5t-26.5 -7.5h-57
q-19 0 -26.5 7.5t-7.5 26.5zM357 346h-162v-229h162q55 0 85.5 30.5t30.5 84.5t-30.5 84t-85.5 30z" />
    <glyph glyph-name="uni042C" unicode="&#x42c;" horiz-adv-x="632" 
d="M369 0h-265q-19 0 -27 7.5t-8 26.5v642q0 19 8 26.5t27 7.5h57q19 0 26.5 -7.5t7.5 -26.5v-213h174q109 0 172.5 -61.5t63.5 -169.5t-63.5 -170t-172.5 -62zM357 346h-162v-229h162q55 0 85.5 30.5t30.5 84.5t-30.5 84t-85.5 30z" />
    <glyph glyph-name="uni042D" unicode="&#x42d;" horiz-adv-x="644" 
d="M49 558q59 167 273 167q135 0 210 -69t75 -191v-220q0 -122 -75 -191t-210 -69q-214 0 -273 168q-12 32 21 44l55 19q31 12 43 -21q33 -93 154 -93q77 0 118.5 36.5t41.5 105.5v57h-243q-19 0 -26.5 7.5t-7.5 26.5v49q0 19 7.5 26.5t26.5 7.5h243v48q0 69 -41.5 105.5
t-118.5 36.5q-120 0 -153 -92q-7 -18 -16 -22.5t-28 1.5l-54 19q-33 12 -22 44z" />
    <glyph glyph-name="uni042E" unicode="&#x42e;" horiz-adv-x="939" 
d="M333 418v47q0 123 73 191.5t205 68.5t205.5 -69.5t73.5 -190.5v-220q0 -121 -73.5 -190.5t-205.5 -69.5t-205 68.5t-73 191.5v56h-138v-267q0 -19 -7.5 -26.5t-26.5 -7.5h-57q-19 0 -27 7.5t-8 26.5v642q0 19 8 26.5t27 7.5h57q19 0 26.5 -7.5t7.5 -26.5v-258h138z
M764 245v220q0 70 -39.5 106.5t-113.5 36.5t-113.5 -36.5t-39.5 -106.5v-220q0 -70 39.5 -106.5t113.5 -36.5t113.5 36.5t39.5 106.5z" />
    <glyph glyph-name="uni042F" unicode="&#x42f;" horiz-adv-x="649" 
d="M61 490q0 103 59.5 161.5t164.5 58.5h277q19 0 26.5 -7.5t7.5 -26.5v-642q0 -19 -7.5 -26.5t-26.5 -7.5h-58q-19 0 -26.5 7.5t-7.5 26.5v236h-77q-52 0 -76 -14t-43 -56l-76 -170q-8 -19 -21.5 -24.5t-46.5 -5.5h-58q-33 0 -17 34l102 211q13 28 31 44q-127 45 -127 201z
M470 593h-173q-51 0 -78 -26.5t-27 -76.5t27.5 -76.5t77.5 -26.5h173v206z" />
    <glyph glyph-name="uni0430" unicode="&#x430;" horiz-adv-x="519" 
d="M49 429q54 104 207 104q214 0 214 -206v-259q0 -26 -7.5 -37t-28.5 -20q-61 -26 -180 -26q-128 0 -175 40q-48 39 -48 122q0 89 52 125t175 36q1 0 96 -5v28q0 50 -23.5 74.5t-76.5 24.5q-74 0 -105 -48q-11 -16 -18.5 -18.5t-24.5 3.5l-40 17q-33 15 -17 45zM354 103
v105q-30 1 -57.5 2.5t-39 2t-12.5 0.5q-53 0 -74.5 -15.5t-21.5 -49.5q0 -35 20.5 -51t73.5 -16q62 0 100 8q11 5 11 14z" />
    <glyph glyph-name="uni0431" unicode="&#x431;" horiz-adv-x="555" 
d="M328 730h32q45 0 70 11q31 16 44 -20l14 -39q5 -18 1 -26.5t-20 -17.5q-31 -16 -107 -16h-33q-98 0 -133 -35q-35 -37 -35 -128v-16q41 62 148 62q96 0 151 -54.5t55 -149.5v-113q0 -97 -60 -150t-171 -53t-171 53t-60 150v239q0 158 62 231q61 72 213 72zM398 189v112
q0 99 -114 99q-53 0 -82.5 -24.5t-31.5 -64.5v-122q0 -99 114 -99t114 99z" />
    <glyph glyph-name="uni0432" unicode="&#x432;" horiz-adv-x="535" 
d="M481 375q0 -71 -48 -105q68 -39 68 -123q0 -67 -43 -107t-116 -40h-253q-18 0 -24.5 7t-6.5 24v456q0 18 6.5 24.5t24.5 6.5h239q72 0 112.5 -38.5t40.5 -104.5zM174 312h135q26 0 41 15t15 39q0 25 -15 39.5t-42 14.5h-134v-108zM174 98h145q28 0 44.5 16.5t16.5 44.5
q0 27 -16.5 42.5t-45.5 15.5h-144v-119z" />
    <glyph glyph-name="uni0433" unicode="&#x433;" horiz-adv-x="429" 
d="M88 518h297q17 0 24 -6.5t7 -23.5v-46q0 -17 -7 -24t-24 -7h-211v-380q0 -17 -7 -24t-24 -7h-55q-17 0 -23.5 7t-6.5 24v457q0 17 6.5 23.5t23.5 6.5z" />
    <glyph glyph-name="uni0434" unicode="&#x434;" horiz-adv-x="619" 
d="M526 108h46q17 0 24 -7t7 -25v-184q0 -17 -7 -24t-24 -7h-50q-17 0 -24.5 7t-7.5 24v108h-356v-108q0 -17 -7 -24t-24 -7h-51q-17 0 -23.5 7t-6.5 24v184q0 18 6.5 25t23.5 7h22q62 48 62 234v146q0 17 6.5 23.5t23.5 6.5h329q17 0 24 -6.5t7 -23.5v-380zM248 411v-77
q0 -152 -41 -226h203v303h-162z" />
    <glyph glyph-name="uni0435" unicode="&#x435;" horiz-adv-x="537" 
d="M40 199v118q0 105 59.5 160.5t172.5 55.5q111 0 171 -56.5t60 -150.5v-61q0 -43 -45 -43h-302v-37q0 -49 29.5 -74.5t84.5 -25.5q83 0 118 53q12 17 22.5 19.5t28.5 -7.5l35 -19q34 -16 12 -50q-58 -96 -216 -96q-114 0 -172 56.5t-58 157.5zM387 311v22q0 49 -29 75.5
t-86 26.5q-56 0 -86 -26.5t-30 -75.5v-22h231z" />
    <glyph glyph-name="uni0436" unicode="&#x436;" horiz-adv-x="751" 
d="M359 518h51q19 0 26 -6.5t7 -24.5v-169h30h12l113 177q9 15 20 19t40 4h49q44 0 20 -36l-137 -196q30 -18 59 -74l87 -175q10 -20 5.5 -28.5t-25.5 -8.5h-50q-26 0 -36 5t-18 23l-62 133q-21 49 -79 49h-28v-178q0 -18 -7 -25t-26 -7h-51q-19 0 -25.5 7t-6.5 25v178h-29
q-57 0 -79 -49l-62 -133q-8 -18 -17.5 -23t-35.5 -5h-51q-21 0 -25.5 8.5t5.5 28.5l88 175q24 50 58 74l-137 196q-24 36 20 36h49q29 0 40 -4t20 -19l114 -177h12h30v169q0 18 6.5 24.5t25.5 6.5z" />
    <glyph glyph-name="uni0437" unicode="&#x437;" horiz-adv-x="516" 
d="M50 403q19 55 78.5 92.5t145.5 37.5q208 0 208 -157q0 -82 -59 -106v-5q71 -30 71 -122q0 -158 -217 -158q-90 0 -150 36t-85 96q-14 35 22 45l44 13q19 6 28 2t16 -22q29 -68 126 -68t97 68q0 59 -65 59h-96q-17 0 -24 7t-7 24v33q0 18 7 24.5t24 6.5h88q29 0 46 14.5
t17 40.5q0 67 -91 67q-43 0 -72.5 -18.5t-41.5 -47.5q-7 -18 -16.5 -22.5t-27.5 1.5l-45 14q-33 10 -21 45z" />
    <glyph glyph-name="uni0438" unicode="&#x438;" horiz-adv-x="562" 
d="M88 518h55q17 0 24 -6.5t7 -23.5v-191q0 -71 -21 -146h3q19 47 56 101l177 251q11 15 30 15h55q17 0 23.5 -6.5t6.5 -23.5v-457q0 -17 -6.5 -24t-23.5 -7h-55q-17 0 -24 7t-7 24v188q0 72 22 147h-3q-18 -42 -58 -101l-175 -249q-12 -16 -31 -16h-55q-17 0 -23.5 7
t-6.5 24v457q0 17 6.5 23.5t23.5 6.5z" />
    <glyph glyph-name="uni0439" unicode="&#x439;" horiz-adv-x="562" 
d="M442 688q-17 -49 -57.5 -76t-97.5 -27q-56 0 -97 27t-57 76q-8 20 14 28l39 16q23 8 31 -11q16 -52 70 -52t70 52q7 16 26 12l46 -17q12 -5 14.5 -11t-1.5 -17zM88 518h55q17 0 24 -6.5t7 -23.5v-191q0 -71 -21 -146h3q19 47 56 101l177 251q11 15 30 15h55
q17 0 23.5 -6.5t6.5 -23.5v-457q0 -17 -6.5 -24t-23.5 -7h-55q-17 0 -24 7t-7 24v188q0 72 22 147h-3q-18 -42 -58 -101l-175 -249q-12 -16 -31 -16h-55q-17 0 -23.5 7t-6.5 24v457q0 17 6.5 23.5t23.5 6.5z" />
    <glyph glyph-name="uni043A" unicode="&#x43a;" horiz-adv-x="524" 
d="M415 212l87 -175q10 -20 5.5 -28.5t-25.5 -8.5h-50q-26 0 -35.5 5t-18.5 23l-62 133q-12 27 -30 38t-49 11h-63v-178q0 -18 -7 -25t-26 -7h-51q-19 0 -25.5 7t-6.5 25v455q0 18 6.5 24.5t25.5 6.5h51q19 0 26 -6.5t7 -24.5v-169h46h9l135 177q11 15 21.5 19t38.5 4h49
q49 0 20 -36l-150 -187q40 -19 72 -83z" />
    <glyph glyph-name="uni043B" unicode="&#x43b;" horiz-adv-x="543" 
d="M147 518h319q17 0 24 -6.5t7 -23.5v-457q0 -17 -7 -24t-24 -7h-54q-17 0 -24 7t-7 24v380h-152v-79q0 -182 -48 -254q-23 -36 -45 -54.5t-55 -34.5q-25 -10 -38 16l-26 52q-12 23 12 36q21 11 32 21t25 33q30 48 30 192v149q0 17 7 23.5t24 6.5z" />
    <glyph glyph-name="uni043C" unicode="&#x43c;" horiz-adv-x="642" 
d="M507 518h44q21 0 27.5 -7t6.5 -26v-454q0 -18 -7 -24.5t-24 -6.5h-47q-19 0 -25 6t-6 25v181q0 55 21 148h-4q-23 -63 -51 -111l-70 -122q-9 -14 -16 -18.5t-22 -4.5h-28q-15 0 -22.5 4.5t-15.5 19.5l-70 120q-26 43 -50 113h-4q20 -103 20 -152v-178q0 -18 -6.5 -24.5
t-23.5 -6.5h-45q-19 0 -25 6t-6 25v454q0 19 6.5 26t27.5 7h40q19 0 27.5 -5t16.5 -20l145 -260l143 259q9 16 17 21t26 5z" />
    <glyph glyph-name="uni043D" unicode="&#x43d;" horiz-adv-x="557" 
d="M414 518h55q17 0 23.5 -6.5t6.5 -23.5v-457q0 -17 -6.5 -24t-23.5 -7h-55q-17 0 -24 7t-7 24v179h-209v-179q0 -17 -7 -24t-24 -7h-55q-17 0 -23.5 7t-6.5 24v457q0 17 6.5 23.5t23.5 6.5h55q17 0 24 -6.5t7 -23.5v-170h209v170q0 17 7 23.5t24 6.5z" />
    <glyph glyph-name="uni043E" unicode="&#x43e;" horiz-adv-x="543" 
d="M41 185v148q0 94 60 147t170 53t170.5 -53t60.5 -147v-148q0 -94 -60.5 -147t-170.5 -53t-170 53t-60 147zM386 185v148q0 46 -30 70.5t-85 24.5t-84.5 -24.5t-29.5 -70.5v-148q0 -45 29.5 -70t84.5 -25t85 25t30 70z" />
    <glyph glyph-name="uni043F" unicode="&#x43f;" 
d="M88 518h376q18 0 24.5 -6.5t6.5 -23.5v-457q0 -17 -6.5 -24t-24.5 -7h-54q-17 0 -24 7t-7 24v380h-205v-380q0 -17 -7 -24t-24 -7h-55q-17 0 -23.5 7t-6.5 24v457q0 17 6.5 23.5t23.5 6.5z" />
    <glyph glyph-name="uni0440" unicode="&#x440;" horiz-adv-x="542" 
d="M95 504q81 29 194 29q211 0 211 -202v-137q0 -209 -223 -209q-36 0 -105 18v-192q0 -17 -6.5 -24t-23.5 -7h-55q-17 0 -24 7t-7 24v636q0 24 7.5 35.5t31.5 21.5zM384 198v130q0 99 -112 99q-49 0 -90 -11q-10 -4 -10 -13v-297q59 -15 97 -15q115 0 115 107z" />
    <glyph glyph-name="uni0441" unicode="&#x441;" horiz-adv-x="517" 
d="M41 190v138q0 99 58 152t172 53q83 0 138 -35t76 -96q11 -33 -22 -45l-44 -14q-32 -12 -44 21q-25 67 -109 67q-109 0 -109 -98v-148q0 -47 28 -72.5t81 -25.5q84 0 109 69q7 18 16.5 22t27.5 -2l45 -13q34 -13 21 -45q-52 -133 -223 -133q-110 0 -165.5 53t-55.5 152z
" />
    <glyph glyph-name="uni0442" unicode="&#x442;" horiz-adv-x="465" 
d="M44 518h377q17 0 24 -6.5t7 -23.5v-46q0 -17 -7 -24t-24 -7h-130v-380q0 -17 -7 -24t-24 -7h-54q-17 0 -24 7t-7 24v380h-131q-17 0 -24 7t-7 24v46q0 17 7 23.5t24 6.5z" />
    <glyph glyph-name="uni0443" unicode="&#x443;" horiz-adv-x="555" 
d="M417 518h54q17 0 24 -6.5t7 -23.5v-505q0 -105 -54.5 -161.5t-165.5 -56.5q-150 0 -208 96q-21 34 13 50l38 21q18 9 28.5 6.5t21.5 -18.5q31 -51 105 -51q106 0 106 108v47q-64 -14 -119 -14q-104 0 -156.5 51.5t-52.5 149.5v277q0 17 7 23.5t24 6.5h55q17 0 23.5 -6.5
t6.5 -23.5v-273q0 -99 109 -99q47 0 103 14v358q0 17 7 23.5t24 6.5z" />
    <glyph glyph-name="uni0444" unicode="&#x444;" horiz-adv-x="741" 
d="M429 708v-178q25 3 52 3q220 0 220 -220v-108q0 -220 -220 -220q-32 0 -52 4v-178q0 -17 -7 -24t-24 -7h-55q-17 0 -23.5 7t-6.5 24v178q-20 -4 -53 -4q-220 0 -220 220v107q0 110 56 165.5t164 55.5q28 0 53 -3v178q0 17 6.5 24t23.5 7h55q17 0 24 -7t7 -24zM156 308
v-100q0 -117 112 -117q24 0 48 3v331q-42 2 -48 2q-112 0 -112 -119zM585 208v102q0 117 -112 117q-6 0 -48 -2v-331q24 -3 48 -3q112 0 112 117z" />
    <glyph glyph-name="uni0445" unicode="&#x445;" horiz-adv-x="508" 
d="M416 518h49q45 0 21 -36l-150 -215l160 -231q26 -36 -22 -36h-48q-25 0 -35 4.5t-21 21.5l-108 157l-103 -157q-11 -17 -21 -21.5t-35 -4.5h-47q-52 0 -23 36l160 230l-153 216q-26 36 24 36h45q26 0 36.5 -5t20.5 -21l99 -141l97 141q11 17 20 21.5t34 4.5z" />
    <glyph glyph-name="uni0446" unicode="&#x446;" horiz-adv-x="583" 
d="M491 108h46q17 0 23.5 -7t6.5 -25v-184q0 -17 -6.5 -24t-23.5 -7h-51q-17 0 -24 7t-7 24v108h-367q-17 0 -23.5 7t-6.5 24v457q0 17 6.5 23.5t23.5 6.5h55q17 0 24 -6.5t7 -23.5v-380h201v380q0 17 6.5 23.5t23.5 6.5h55q17 0 24 -6.5t7 -23.5v-380z" />
    <glyph glyph-name="uni0447" unicode="&#x447;" horiz-adv-x="518" 
d="M29 371v117q0 17 7 23.5t24 6.5h54q17 0 24 -6.5t7 -23.5v-114q0 -95 105 -95q64 0 94 14v195q0 17 7 23.5t24 6.5h54q17 0 24 -6.5t7 -23.5v-457q0 -17 -7 -24t-24 -7h-54q-17 0 -24 7t-7 24v153q-24 -11 -110 -11q-205 0 -205 198z" />
    <glyph glyph-name="uni0448" unicode="&#x448;" horiz-adv-x="771" 
d="M628 518h54q17 0 24 -6.5t7 -23.5v-457q0 -17 -7 -24t-24 -7h-594q-17 0 -23.5 7t-6.5 24v457q0 17 6.5 23.5t23.5 6.5h55q17 0 24 -6.5t7 -23.5v-380h153v380q0 17 7 23.5t24 6.5h55q17 0 23.5 -6.5t6.5 -23.5v-380h154v380q0 17 7 23.5t24 6.5z" />
    <glyph glyph-name="uni0449" unicode="&#x449;" horiz-adv-x="806" 
d="M713 108h46q17 0 23.5 -7t6.5 -25v-184q0 -17 -6.5 -24t-23.5 -7h-51q-17 0 -24 7t-7 24v108h-589q-17 0 -23.5 7t-6.5 24v457q0 17 6.5 23.5t23.5 6.5h55q17 0 24 -6.5t7 -23.5v-380h153v380q0 17 7 23.5t24 6.5h55q17 0 23.5 -6.5t6.5 -23.5v-380h154v380q0 17 7 23.5
t24 6.5h54q17 0 24 -6.5t7 -23.5v-380z" />
    <glyph glyph-name="uni044A" unicode="&#x44a;" horiz-adv-x="612" 
d="M266 370h132q88 0 138.5 -49t50.5 -135q0 -87 -50.5 -136.5t-138.5 -49.5h-218q-17 0 -23.5 7t-6.5 24v380h-105q-17 0 -24 7t-7 24v46q0 17 7 23.5t24 6.5h190q17 0 24 -6.5t7 -23.5v-118zM266 104h118q38 0 60 22.5t22 59.5q0 36 -22 57.5t-60 21.5h-118v-161z" />
    <glyph glyph-name="uni044B" unicode="&#x44b;" horiz-adv-x="717" 
d="M174 370h132q88 0 138.5 -49t50.5 -135q0 -87 -50.5 -136.5t-138.5 -49.5h-218q-17 0 -23.5 7t-6.5 24v457q0 17 6.5 23.5t23.5 6.5h55q17 0 24 -6.5t7 -23.5v-118zM574 518h54q17 0 24 -6.5t7 -23.5v-457q0 -17 -7 -24t-24 -7h-54q-17 0 -24 7t-7 24v457q0 17 7 23.5
t24 6.5zM174 104h118q38 0 60 22.5t22 59.5q0 36 -22 57.5t-60 21.5h-118v-161z" />
    <glyph glyph-name="uni044C" unicode="&#x44c;" horiz-adv-x="520" 
d="M174 370h132q88 0 138.5 -49t50.5 -135q0 -87 -50.5 -136.5t-138.5 -49.5h-218q-17 0 -23.5 7t-6.5 24v457q0 17 6.5 23.5t23.5 6.5h55q17 0 24 -6.5t7 -23.5v-118zM174 104h118q38 0 60 22.5t22 59.5q0 36 -22 57.5t-60 21.5h-118v-161z" />
    <glyph glyph-name="uni044D" unicode="&#x44d;" horiz-adv-x="513" 
d="M43 402q21 61 75.5 96t137.5 35q113 0 170.5 -53t57.5 -152v-137q0 -100 -55 -153t-165 -53q-168 0 -221 134q-14 32 21 44l45 14q32 11 44 -20q25 -69 107 -69q107 0 107 98v25l-149 1q-17 0 -24 6.5t-7 23.5v41q0 17 7 23.5t24 6.5h149v20q0 98 -107 98q-82 0 -107 -67
q-12 -33 -44 -21l-44 14q-33 12 -22 45z" />
    <glyph glyph-name="uni044E" unicode="&#x44e;" horiz-adv-x="756" 
d="M265 317v17q0 94 58.5 146.5t165.5 52.5q108 0 166.5 -53t58.5 -147v-149q0 -94 -58.5 -146.5t-166.5 -52.5q-107 0 -165.5 52.5t-58.5 146.5v25h-91v-178q0 -17 -7 -24t-24 -7h-55q-17 0 -23.5 7t-6.5 24v457q0 17 6.5 23.5t23.5 6.5h55q17 0 24 -6.5t7 -23.5v-171h91z
M597 185v149q0 94 -108 94q-52 0 -79.5 -24t-27.5 -70v-149q0 -45 28 -70t79 -25q53 0 80.5 25t27.5 70z" />
    <glyph glyph-name="uni044F" unicode="&#x44f;" horiz-adv-x="530" 
d="M220 518h225q17 0 24 -6.5t7 -24.5v-456q0 -17 -7 -24t-24 -7h-54q-17 0 -24 7t-7 24v136h-102l-84 -140q-10 -18 -19.5 -22.5t-36.5 -4.5h-49q-26 0 -31 9t8 28l95 146q-100 40 -100 160q0 81 48 128t131 47zM360 414h-125q-33 0 -53 -20t-20 -51q0 -32 20 -51.5
t53 -19.5h125v142z" />
    <glyph glyph-name="uni0451" unicode="&#x451;" horiz-adv-x="537" 
d="M168 709h7q30 0 41.5 -11.5t11.5 -40.5v-9q0 -29 -11.5 -40.5t-41.5 -11.5h-7q-30 0 -41 11.5t-11 40.5v9q0 29 11 40.5t41 11.5zM369 709h6q30 0 41 -11.5t11 -40.5v-9q0 -29 -11 -40.5t-41 -11.5h-6q-31 0 -42 11t-11 41v9q0 29 11 40.5t42 11.5zM40 199v118
q0 105 59.5 160.5t172.5 55.5q111 0 171 -56.5t60 -150.5v-61q0 -43 -45 -43h-302v-37q0 -49 29.5 -74.5t84.5 -25.5q83 0 118 53q12 17 22.5 19.5t28.5 -7.5l35 -19q34 -16 12 -50q-58 -96 -216 -96q-114 0 -172 56.5t-58 157.5zM387 311v22q0 49 -29 75.5t-86 26.5
q-56 0 -86 -26.5t-30 -75.5v-22h231z" />
    <glyph glyph-name="Wgrave" unicode="&#x1e80;" horiz-adv-x="901" 
d="M348 869l26 31q20 23 57 2l147 -87q12 -7 12 -13.5t-10 -19.5l-14 -18q-10 -13 -39 -2l-174 72q-27 11 -5 35zM801 710h61q32 0 22 -33l-165 -649q-4 -17 -13 -22.5t-29 -5.5h-55q-36 0 -42 27l-105 397q-14 56 -16 113h-7q-2 -58 -17 -112l-106 -397q-4 -17 -13 -22.5
t-29 -5.5h-54q-37 0 -43 27l-164 650q-6 17 -1 25t23 8h70q22 0 31.5 -6t13.5 -24l82 -373q2 -10 16 -134h6q3 67 20 134l101 370q5 18 14.5 24t30.5 6h54q22 0 31.5 -6t13.5 -24l99 -370q18 -69 21 -134h6q5 66 18 133l80 374q4 18 13.5 24t31.5 6z" />
    <glyph glyph-name="wgrave" unicode="&#x1e81;" horiz-adv-x="735" 
d="M263 695l25 32q20 23 57 1l147 -88q19 -10 2 -32l-14 -19q-10 -13 -39 -1l-174 73q-27 8 -4 34zM659 518h33q22 0 27 -7t-1 -29l-134 -455q-7 -28 -42 -28h-34q-34 0 -43 28l-73 256q-9 30 -16 87l-2 16h-5l-2 -16q-7 -51 -17 -87l-73 -256q-7 -28 -42 -28h-33
q-35 0 -42 28l-133 455q-7 22 -2 29t27 7h39q29 0 40 -6t15 -25l57 -224l17 -122h5q0 4 2.5 23.5t8 49t10.5 50.5l66 219q6 21 15 26.5t36 5.5h23q27 0 36 -5.5t15 -25.5l67 -220q21 -77 21 -123h6l2 19q2 50 15 104l55 223q4 19 15.5 25t40.5 6z" />
    <glyph glyph-name="Wacute" unicode="&#x1e82;" horiz-adv-x="901" 
d="M348 815l147 89q37 20 56 -2l26 -32q12 -13 11 -20.5t-16 -13.5l-173 -73q-32 -11 -39 1l-14 19q-17 22 2 32zM801 710h61q32 0 22 -33l-165 -649q-4 -17 -13 -22.5t-29 -5.5h-55q-36 0 -42 27l-105 397q-14 56 -16 113h-7q-2 -58 -17 -112l-106 -397q-4 -17 -13 -22.5
t-29 -5.5h-54q-37 0 -43 27l-164 650q-6 17 -1 25t23 8h70q22 0 31.5 -6t13.5 -24l82 -373q2 -10 16 -134h6q3 67 20 134l101 370q5 18 14.5 24t30.5 6h54q22 0 31.5 -6t13.5 -24l99 -370q18 -69 21 -134h6q5 66 18 133l80 374q4 18 13.5 24t31.5 6z" />
    <glyph glyph-name="wacute" unicode="&#x1e83;" horiz-adv-x="735" 
d="M262 640l147 88q36 22 56 -1l26 -32q21 -25 -4 -34l-174 -73q-29 -12 -39 1l-14 19q-17 22 2 32zM659 518h33q22 0 27 -7t-1 -29l-134 -455q-7 -28 -42 -28h-34q-34 0 -43 28l-73 256q-9 30 -16 87l-2 16h-5l-2 -16q-7 -51 -17 -87l-73 -256q-7 -28 -42 -28h-33
q-35 0 -42 28l-133 455q-7 22 -2 29t27 7h39q29 0 40 -6t15 -25l57 -224l17 -122h5q0 4 2.5 23.5t8 49t10.5 50.5l66 219q6 21 15 26.5t36 5.5h23q27 0 36 -5.5t15 -25.5l67 -220q21 -77 21 -123h6l2 19q2 50 15 104l55 223q4 19 15.5 25t40.5 6z" />
    <glyph glyph-name="Wdieresis" unicode="&#x1e84;" horiz-adv-x="901" 
d="M357 888h7q30 0 41.5 -11.5t11.5 -40.5v-10q0 -29 -11.5 -40.5t-41.5 -11.5h-7q-30 0 -41 11.5t-11 40.5v10q0 29 11 40.5t41 11.5zM558 888h6q30 0 41 -11.5t11 -40.5v-10q0 -29 -11 -40.5t-41 -11.5h-6q-30 0 -41.5 11.5t-11.5 40.5v10q0 29 11.5 40.5t41.5 11.5z
M801 710h61q32 0 22 -33l-165 -649q-4 -17 -13 -22.5t-29 -5.5h-55q-36 0 -42 27l-105 397q-14 56 -16 113h-7q-2 -58 -17 -112l-106 -397q-4 -17 -13 -22.5t-29 -5.5h-54q-37 0 -43 27l-164 650q-6 17 -1 25t23 8h70q22 0 31.5 -6t13.5 -24l82 -373q2 -10 16 -134h6
q3 67 20 134l101 370q5 18 14.5 24t30.5 6h54q22 0 31.5 -6t13.5 -24l99 -370q18 -69 21 -134h6q5 66 18 133l80 374q4 18 13.5 24t31.5 6z" />
    <glyph glyph-name="wdieresis" unicode="&#x1e85;" horiz-adv-x="735" 
d="M271 709h7q30 0 41.5 -11.5t11.5 -40.5v-9q0 -29 -11.5 -40.5t-41.5 -11.5h-7q-30 0 -41 11.5t-11 40.5v9q0 29 11 40.5t41 11.5zM472 709h6q30 0 41.5 -11.5t11.5 -40.5v-9q0 -29 -11.5 -40.5t-41.5 -11.5h-6q-30 0 -41.5 11.5t-11.5 40.5v9q0 29 11.5 40.5t41.5 11.5z
M659 518h33q22 0 27 -7t-1 -29l-134 -455q-7 -28 -42 -28h-34q-34 0 -43 28l-73 256q-9 30 -16 87l-2 16h-5l-2 -16q-7 -51 -17 -87l-73 -256q-7 -28 -42 -28h-33q-35 0 -42 28l-133 455q-7 22 -2 29t27 7h39q29 0 40 -6t15 -25l57 -224l17 -122h5q0 4 2.5 23.5t8 49
t10.5 50.5l66 219q6 21 15 26.5t36 5.5h23q27 0 36 -5.5t15 -25.5l67 -220q21 -77 21 -123h6l2 19q2 50 15 104l55 223q4 19 15.5 25t40.5 6z" />
    <glyph glyph-name="Ygrave" unicode="&#x1ef2;" horiz-adv-x="643" 
d="M216 869l25 31q20 23 57 2l148 -87q11 -7 11.5 -13.5t-9.5 -19.5l-14 -18q-10 -13 -39 -2l-175 72q-26 10 -4 35zM550 710h65q18 0 22 -10t-5 -24l-244 -396v-246q0 -19 -7.5 -26.5t-26.5 -7.5h-57q-19 0 -26.5 7.5t-7.5 26.5v248l-245 394q-9 14 -4.5 24t22.5 10h70
q33 0 44 -4.5t22 -25.5l155 -270l156 270q11 20 22.5 25t44.5 5z" />
    <glyph glyph-name="ygrave" unicode="&#x1ef3;" horiz-adv-x="555" 
d="M168 695l26 32q20 23 56 1l147 -88q19 -10 2 -32l-14 -19q-9 -13 -39 -1l-174 73q-25 9 -4 34zM417 518h54q17 0 24 -6.5t7 -23.5v-505q0 -105 -54.5 -161.5t-165.5 -56.5q-150 0 -208 96q-21 34 13 50l38 21q18 9 28.5 6.5t21.5 -18.5q31 -51 105 -51q106 0 106 108v47
q-64 -14 -119 -14q-104 0 -156.5 51.5t-52.5 149.5v277q0 17 7 23.5t24 6.5h55q17 0 23.5 -6.5t6.5 -23.5v-273q0 -99 109 -99q47 0 103 14v358q0 17 7 23.5t24 6.5z" />
    <glyph glyph-name="endash" unicode="&#x2013;" horiz-adv-x="567" 
d="M92 323h384q19 0 26.5 -7.5t7.5 -26.5v-44q0 -19 -7.5 -26.5t-26.5 -7.5h-384q-20 0 -27 7.5t-7 26.5v44q0 19 7.5 26.5t26.5 7.5z" />
    <glyph glyph-name="emdash" unicode="&#x2014;" horiz-adv-x="766" 
d="M91 323h584q19 0 26.5 -7.5t7.5 -26.5v-45q0 -19 -7.5 -26.5t-26.5 -7.5h-584q-19 0 -26.5 7.5t-7.5 26.5v45q0 19 7.5 26.5t26.5 7.5z" />
    <glyph glyph-name="quoteleft" unicode="&#x2018;" horiz-adv-x="225" 
d="M54 502l61 177q6 18 14 24.5t25 6.5h21q15 0 19 -4.5t2 -18.5l-25 -185q-3 -22 -11.5 -29.5t-29.5 -7.5h-44q-45 0 -32 37z" />
    <glyph glyph-name="quoteright" unicode="&#x2019;" horiz-adv-x="219" 
d="M192 674l-61 -178q-6 -18 -14 -24.5t-25 -6.5h-21q-15 0 -19 5t-2 19l25 185q3 21 11.5 28.5t29.5 7.5h44q46 0 32 -36z" />
    <glyph glyph-name="quotesinglbase" unicode="&#x201a;" horiz-adv-x="207" 
d="M159 79l-18 -194q-2 -18 -9 -24.5t-24 -6.5h-27q-17 0 -24 7t-7 24v194q0 17 7 24t24 7h47q34 0 31 -31z" />
    <glyph glyph-name="quotedblleft" unicode="&#x201c;" horiz-adv-x="378" 
d="M54 502l61 177q6 18 14 24.5t25 6.5h21q15 0 19 -4.5t2 -18.5l-25 -185q-3 -22 -11.5 -29.5t-29.5 -7.5h-44q-45 0 -32 37zM207 502l61 177q6 18 14 24.5t24 6.5h22q15 0 19 -4.5t2 -18.5l-25 -185q-3 -22 -11.5 -29.5t-29.5 -7.5h-44q-45 0 -32 37z" />
    <glyph glyph-name="quotedblright" unicode="&#x201d;" horiz-adv-x="372" 
d="M192 674l-61 -178q-6 -18 -14 -24.5t-25 -6.5h-21q-15 0 -19 5t-2 19l25 185q3 21 11.5 28.5t29.5 7.5h44q46 0 32 -36zM345 674l-61 -178q-6 -18 -14 -24.5t-25 -6.5h-21q-15 0 -19 5t-2 19l25 185q3 21 11.5 28.5t29.5 7.5h44q45 0 32 -36z" />
    <glyph glyph-name="quotedblbase" unicode="&#x201e;" horiz-adv-x="373" 
d="M173 87l-61 -178q-6 -18 -14 -24.5t-24 -6.5h-22q-15 0 -19 4.5t-2 18.5l25 186q3 21 12 28.5t29 7.5h45q44 0 31 -36zM326 87l-61 -178q-6 -18 -14 -24.5t-24 -6.5h-22q-15 0 -19 4.5t-2 18.5l25 186q3 21 11.5 28.5t29.5 7.5h44q46 0 32 -36z" />
    <glyph glyph-name="dagger" unicode="&#x2020;" horiz-adv-x="524" 
d="M321 503h142q19 0 26.5 -7.5t7.5 -26.5v-49q0 -19 -7.5 -26.5t-26.5 -7.5h-142v-452q0 -19 -7.5 -26.5t-26.5 -7.5h-49q-19 0 -26.5 7.5t-7.5 26.5v452h-142q-19 0 -26.5 7.5t-7.5 26.5v49q0 19 7.5 26.5t26.5 7.5h142v173q0 19 7.5 26.5t26.5 7.5h49q19 0 26.5 -7.5
t7.5 -26.5v-173z" />
    <glyph glyph-name="daggerdbl" unicode="&#x2021;" horiz-adv-x="558" 
d="M254 710h49q19 0 26.5 -7.5t7.5 -26.5v-173h142q19 0 26.5 -7.5t7.5 -26.5v-49q0 -19 -7.5 -26.5t-26.5 -7.5h-142v-162h143q19 0 26.5 -7.5t7.5 -26.5v-49q0 -19 -7.5 -26.5t-26.5 -7.5h-143v-173q0 -19 -7.5 -26.5t-26.5 -7.5h-49q-19 0 -26.5 7.5t-7.5 26.5v173h-141
q-19 0 -26.5 7.5t-7.5 26.5v49q0 19 7.5 26.5t26.5 7.5h141v162h-142q-19 0 -26.5 7.5t-7.5 26.5v49q0 19 7.5 26.5t26.5 7.5h142v173q0 19 7.5 26.5t26.5 7.5z" />
    <glyph glyph-name="bullet" unicode="&#x2022;" horiz-adv-x="366" 
d="M265 182q-33 -33 -82 -33t-81 33q-33 33 -33 82t33 82q32 32 81 32q48 0 82 -32q32 -34 32 -82t-32 -82z" />
    <glyph glyph-name="ellipsis" unicode="&#x2026;" horiz-adv-x="704" 
d="M110 130h7q37 0 50.5 -14t13.5 -50v-9q0 -37 -13.5 -50.5t-50.5 -13.5h-7q-37 0 -50.5 13.5t-13.5 50.5v9q0 36 13.5 50t50.5 14zM348 130h8q36 0 50 -14t14 -50v-9q0 -37 -14 -50.5t-50 -13.5h-8q-36 0 -50 13.5t-14 50.5v9q0 36 14 50t50 14zM587 130h7q37 0 50.5 -14
t13.5 -50v-9q0 -37 -13.5 -50.5t-50.5 -13.5h-7q-37 0 -50.5 13.5t-13.5 50.5v9q0 36 13.5 50t50.5 14z" />
    <glyph glyph-name="perthousand" unicode="&#x2030;" horiz-adv-x="1189" 
d="M32 506v71q0 70 43 109.5t123 39.5t123 -39.5t43 -109.5v-71q0 -70 -43 -108.5t-123 -38.5t-123 38.5t-43 108.5zM650 710h44q17 0 21 -10t-5 -23l-476 -647q-15 -20 -25.5 -25t-41.5 -5h-39q-18 0 -22.5 10t5.5 24l476 648q13 18 24 23t39 5zM267 512v60q0 61 -69 61
t-69 -61v-60q0 -61 69 -61t69 61zM455 131v71q0 70 43 109.5t123 39.5t123 -39.5t43 -109.5v-71q0 -70 -43 -108.5t-123 -38.5t-123 38.5t-43 108.5zM827 131v71q0 70 43 109.5t123 39.5t123 -39.5t43 -109.5v-71q0 -70 -43 -108.5t-123 -38.5t-123 38.5t-43 108.5zM690 138
v59q0 61 -69 61t-69 -61v-59q0 -62 69 -62t69 62zM1062 138v59q0 61 -69 61t-69 -61v-59q0 -62 69 -62t69 62z" />
    <glyph glyph-name="guilsinglleft" unicode="&#x2039;" horiz-adv-x="353" 
d="M166 265l132 -132q20 -19 0 -39l-36 -37q-20 -18 -39 0l-186 186q-11 11 -11 19.5t11 19.5l190 191q19 21 39 0l34 -35q11 -11 11 -19t-11 -19z" />
    <glyph glyph-name="guilsinglright" unicode="&#x203a;" horiz-adv-x="353" 
d="M194 265l-134 135q-11 11 -11 19t11 19l34 35q20 21 39 0l190 -191q17 -20 0 -39l-186 -186q-19 -18 -39 0l-36 37q-20 20 0 39z" />
    <glyph glyph-name="fraction" unicode="&#x2044;" horiz-adv-x="195" 
d="M-197 34l477 648q14 18 24.5 23t37.5 5h44q17 0 21 -10t-5 -23l-476 -647q-14 -20 -25 -25t-41 -5h-40q-18 0 -22.5 10t5.5 24z" />
    <glyph glyph-name="zerosuperior" unicode="&#x2070;" horiz-adv-x="378" 
d="M37 548v130q0 66 40 103.5t112 37.5t112 -37.5t40 -103.5v-130q0 -66 -40 -103t-112 -37t-112 37t-40 103zM243 548v130q0 23 -14.5 35.5t-39.5 12.5q-55 0 -55 -48v-130q0 -48 55 -48q25 0 39.5 12.5t14.5 35.5z" />
    <glyph glyph-name="foursuperior" unicode="&#x2074;" horiz-adv-x="380" 
d="M305 580h19q18 0 23.5 -5t5.5 -22v-28q0 -17 -5.5 -22t-23.5 -5h-19v-54q0 -17 -5.5 -22.5t-22.5 -5.5h-33q-17 0 -22 5.5t-5 22.5v54h-169q-17 0 -23.5 6t-6.5 24v24q0 19 10 32l170 209q14 18 40 18h37q19 0 24.5 -5.5t5.5 -24.5v-201zM217 580v110l-89 -110h89z" />
    <glyph glyph-name="fivesuperior" unicode="&#x2075;" horiz-adv-x="361" 
d="M101 811h204q13 0 18 -5t5 -18v-37q0 -13 -5 -18t-18 -5h-153l-6 -54h53q70 0 107 -34.5t37 -93.5t-39.5 -98.5t-106.5 -39.5q-121 0 -154 98q-12 31 15 41l27 10q19 6 26.5 3t14.5 -18q19 -49 67 -49q27 0 42 13.5t15 38.5q0 50 -54 50h-116q-29 0 -26 28l16 162
q1 16 7.5 21t23.5 5z" />
    <glyph glyph-name="sixsuperior" unicode="&#x2076;" horiz-adv-x="378" 
d="M133 673v-19q46 12 76 12q68 0 102.5 -33t34.5 -95q0 -63 -41 -96.5t-114 -33.5q-76 0 -115.5 37.5t-39.5 108.5v115q0 72 41 111t119 39q50 0 86.5 -20t53.5 -51q10 -19 -14 -32l-38 -19q-22 -10 -35 6q-21 27 -53 27q-33 0 -48 -13.5t-15 -43.5zM133 565v-14
q0 -54 58 -54t58 40t-56 40q-29 0 -60 -12z" />
    <glyph glyph-name="sevensuperior" unicode="&#x2077;" horiz-adv-x="327" 
d="M47 811h238q15 0 20 -5.5t5 -20.5v-24q0 -20 -6 -32l-131 -293q-6 -14 -12 -17t-29 -3h-38q-19 0 -23 7t5 27l122 271h-151q-15 0 -20.5 5.5t-5.5 19.5v39q0 16 5.5 21t20.5 5z" />
    <glyph glyph-name="eightsuperior" unicode="&#x2078;" horiz-adv-x="387" 
d="M43 704q0 54 40 84.5t110 30.5q72 0 111.5 -28t39.5 -77q0 -61 -53 -87q65 -30 65 -96q0 -123 -163 -123q-80 0 -121 28t-41 78q0 64 69 97q-57 31 -57 93zM247 703q0 39 -55 39q-52 0 -52 -39q0 -18 15 -28t52 -19q40 19 40 47zM253 528q0 20 -15 29.5t-55 18.5
q-43 -17 -49 -49q0 -42 61 -42q58 0 58 43z" />
    <glyph glyph-name="ninesuperior" unicode="&#x2079;" horiz-adv-x="378" 
d="M246 553v20q-38 -13 -75 -13q-69 0 -103.5 33t-34.5 95q0 63 41 97t114 34q155 0 155 -147v-115q0 -72 -40.5 -110.5t-118.5 -38.5q-50 0 -87.5 19.5t-53.5 50.5q-11 22 14 32l38 19q19 6 24 4.5t12 -10.5q18 -26 53 -26q62 0 62 56zM246 661v14q0 55 -58 55t-58 -41
q0 -40 56 -40q28 0 60 12z" />
    <glyph glyph-name="zeroinferior" unicode="&#x2080;" horiz-adv-x="378" 
d="M37 14v129q0 66 40 103.5t112 37.5t112 -37.5t40 -103.5v-129q0 -66 -40 -103.5t-112 -37.5t-112 37.5t-40 103.5zM243 14v129q0 23 -14.5 35.5t-39.5 12.5q-55 0 -55 -48v-129q0 -49 55 -49q25 0 39.5 13t14.5 36z" />
    <glyph glyph-name="oneinferior" unicode="&#x2081;" horiz-adv-x="285" 
d="M198 276h18q20 0 27.5 -7.5t7.5 -26.5v-327q0 -19 -8 -26.5t-27 -7.5h-29q-19 0 -26.5 7.5t-7.5 26.5v239l-56 -31q-31 -16 -49 12l-13 23q-17 29 15 47l108 62q16 9 40 9z" />
    <glyph glyph-name="twoinferior" unicode="&#x2082;" horiz-adv-x="364" 
d="M47 187q39 97 149 97q66 0 104 -36t38 -93q0 -55 -24.5 -84.5t-85.5 -48.5l-54 -16q-36 -10 -36 -27v-9h165q29 0 29 -30v-30q0 -29 -29 -29h-228q-17 0 -24 6.5t-7 23.5v30q0 55 18.5 84t65.5 48l55 22q33 12 44 22.5t11 33.5q0 18 -11.5 29.5t-32.5 11.5q-36 0 -54 -38
q-9 -19 -16.5 -23t-27.5 2l-27 10q-34 12 -22 44z" />
    <glyph glyph-name="threeinferior" unicode="&#x2083;" horiz-adv-x="369" 
d="M46 185q34 99 154 99q65 0 101 -30.5t36 -82.5q0 -31 -9.5 -50t-33.5 -33q54 -27 54 -101q0 -55 -37.5 -84.5t-110.5 -29.5q-120 0 -155 96q-12 33 16 43l28 10q17 6 26.5 1.5t16.5 -22.5q16 -41 68 -41t52 38q0 39 -39 39h-38q-19 0 -24.5 5.5t-5.5 24.5v25q0 22 5.5 27
t26.5 5h30q39 0 39 36q0 38 -44 38q-51 0 -66 -40q-8 -22 -18 -26.5t-33 3.5l-19 7q-32 12 -20 43z" />
    <glyph glyph-name="fourinferior" unicode="&#x2084;" horiz-adv-x="383" 
d="M309 45h18q18 0 23.5 -5t5.5 -21v-28q0 -18 -5 -22.5t-24 -4.5h-18v-55q0 -17 -5.5 -22.5t-22.5 -5.5h-37q-17 0 -22 5.5t-5 22.5v55h-169q-17 0 -23.5 6t-6.5 24v24q0 20 10 31l170 210q9 11 16.5 14t23.5 3h42q19 0 24 -5.5t5 -24.5v-201zM217 45v110l-89 -110h89z" />
    <glyph glyph-name="fiveinferior" unicode="&#x2085;" horiz-adv-x="362" 
d="M101 276h204q13 0 18 -5t5 -18v-36q0 -14 -4.5 -18.5t-18.5 -4.5h-153l-6 -54h53q70 0 107 -34.5t37 -93.5q0 -61 -39.5 -100t-106.5 -39q-121 0 -154 98q-12 31 15 42l27 10q19 6 26.5 3t14.5 -19q19 -49 67 -49q27 0 42 14t15 38q0 50 -54 50h-116q-29 0 -26 28l16 162
q1 16 7.5 21t23.5 5z" />
    <glyph glyph-name="sixinferior" unicode="&#x2086;" horiz-adv-x="378" 
d="M133 139v-20q39 13 76 13q68 0 102.5 -33.5t34.5 -94.5q0 -63 -41 -97t-114 -34q-76 0 -115.5 37.5t-39.5 108.5v116q0 72 41 110.5t119 38.5q50 0 87.5 -19.5t52.5 -51.5q12 -20 -14 -31l-38 -19q-18 -6 -23.5 -5t-11.5 11q-20 26 -53 26q-34 0 -48 -13q-15 -14 -15 -43
zM133 31v-14q0 -55 58 -55t58 41q0 40 -56 40q-29 0 -60 -12z" />
    <glyph glyph-name="seveninferior" unicode="&#x2087;" horiz-adv-x="326" 
d="M46 276h238q16 0 21 -5t5 -20v-24q0 -19 -7 -33l-130 -292q-7 -15 -13 -18t-29 -3h-37q-20 0 -24 7.5t6 27.5l121 270h-151q-15 0 -20.5 6t-5.5 20v39q0 15 5.5 20t20.5 5z" />
    <glyph glyph-name="eightinferior" unicode="&#x2088;" horiz-adv-x="387" 
d="M43 170q0 53 40 83.5t110 30.5q72 0 111.5 -27.5t39.5 -76.5q0 -61 -53 -88q65 -30 65 -95q0 -124 -163 -124q-80 0 -121 28.5t-41 78.5q0 64 69 96q-57 34 -57 94zM247 168q0 40 -55 40q-52 0 -52 -39q0 -18 15.5 -28.5t51.5 -18.5q40 18 40 46zM253 -7q0 20 -15 30
t-55 19q-2 -1 -7.5 -4t-8 -4.5t-8 -4.5t-8.5 -5.5t-6.5 -6t-5.5 -7t-3.5 -8.5t-1.5 -10q0 -42 61 -42q58 0 58 43z" />
    <glyph glyph-name="nineinferior" unicode="&#x2089;" horiz-adv-x="378" 
d="M245 19v19q-45 -13 -75 -13q-69 0 -103.5 33.5t-34.5 95.5t41 96t114 34q155 0 155 -146v-115q0 -73 -40.5 -111.5t-118.5 -38.5q-50 0 -87.5 20t-53.5 51q-11 20 14 32l38 19q19 5 23 4t13 -11q18 -26 53 -26q32 0 47 13.5t15 43.5zM245 127v13q0 29 -13.5 42t-44.5 13
q-58 0 -58 -41q0 -39 56 -39q29 0 60 12z" />
    <glyph glyph-name="Euro" unicode="&#x20ac;" horiz-adv-x="735" 
d="M148 470v14q0 111 77 176t208 65q183 0 250 -112q25 -40 -14 -59l-39 -20q-21 -11 -33 -8t-25 22q-15 28 -61 47q-33 13 -78 13q-73 0 -115.5 -32t-42.5 -88v-18h252q18 0 23 -6.5t1 -22.5l-10 -32q-9 -29 -41 -29h-230v-60h213q18 0 23 -6.5t0 -22.5l-10 -32
q-9 -29 -41 -29h-180v-12q4 -57 45 -86.5t113 -29.5q41 0 75.5 12.5t48.5 26.5q12 14 16 23q13 19 25 22t33 -8l39 -20q39 -20 14 -60q-68 -113 -251 -113q-132 0 -205.5 59.5t-78.5 173.5v12h-92q-18 0 -23 6.5t0 23.5l10 32q7 28 40 28h65v60h-49q-18 0 -23 6.5t0 23.5
l10 32q9 28 41 28h20z" />
    <glyph glyph-name="uni20BD" unicode="&#x20bd;" horiz-adv-x="669" 
d="M230 267v-68h298q17 0 23.5 -7t6.5 -24v-28q0 -17 -6.5 -24t-23.5 -7h-298v-75q0 -19 -8 -26.5t-27 -7.5h-57q-19 0 -26.5 7.5t-7.5 26.5v75h-38q-17 0 -24 7t-7 24v28q0 17 7 24t24 7h38v477q0 19 7.5 26.5t26.5 7.5h274q106 0 166.5 -59t60.5 -163t-60.5 -162.5
t-166.5 -58.5h-182zM230 593v-209h170q51 0 79.5 28t28.5 76t-28.5 76.5t-79.5 28.5h-170z" />
    <glyph glyph-name="uni2113" unicode="&#x2113;" horiz-adv-x="433" 
d="M128 293v236q0 109 45 156q44 47 109 47q66 0 101.5 -40t35.5 -112q0 -90 -44 -172t-144 -166v-63q0 -82 66 -82q22 0 47 16q19 12 30 -2l34 -40q15 -19 -2 -33q-50 -44 -116 -44q-77 0 -119 38.5t-42 110.5v20q-16 -9 -23 -16q-22 -16 -37 7l-28 43q-15 24 6 39
q43 28 81 57zM317 583q0 54 -37 54q-49 0 -49 -109v-141q86 92 86 196z" />
    <glyph glyph-name="uni2116" unicode="&#x2116;" horiz-adv-x="1047" 
d="M999 576v-71q0 -70 -43 -108.5t-123 -38.5t-123 38.5t-43 108.5v71q0 70 43 109.5t123 39.5t123 -39.5t43 -109.5zM532 710h53q19 0 26.5 -7.5t7.5 -26.5v-642q0 -19 -7.5 -26.5t-26.5 -7.5h-57q-23 0 -34 17l-245 362q-7 10 -14 22l-13.5 24t-12.5 25l-11.5 25t-10 23.5
l-8 20l-6.5 15.5t-4 10l-1 3h-6q0 1 2.5 -11.5t5.5 -33.5t6 -46.5t5.5 -54.5t2.5 -53v-314q0 -19 -8 -26.5t-27 -7.5h-53q-19 0 -26.5 7.5t-7.5 26.5v642q0 19 7.5 26.5t26.5 7.5h57q21 0 34 -16l243 -360q20 -30 41 -72.5t32.5 -70.5t10.5 -27h6l-1 6l-3 17.5l-4.5 27
t-5 34t-4.5 37.5t-3 40.5t-1 39.5v310q0 19 7.5 26.5t26.5 7.5zM764 571v-59q0 -62 69 -62t69 62v59q0 61 -69 61t-69 -61zM699 320h268q19 0 26.5 -7.5t7.5 -26.5v-36q0 -19 -7.5 -26.5t-26.5 -7.5h-268q-19 0 -26.5 7.5t-7.5 26.5v36q0 19 7.5 26.5t26.5 7.5z" />
    <glyph glyph-name="uni2117" unicode="&#x2117;" horiz-adv-x="800" 
d="M41 351q0 150 105 255q104 104 255 104q150 0 254 -104q104 -106 104 -255q0 -151 -104 -255t-254 -104t-255 105t-105 254zM202 550q-81 -81 -81 -199t81 -199t199 -81q117 0 198 81q80 82 80 199t-80 199q-82 80 -198 80q-119 0 -199 -80zM300 535h129q62 0 98 -35.5
t36 -96.5q0 -60 -36 -95t-98 -35h-77v-87q0 -14 -4.5 -18.5t-18.5 -4.5h-29q-15 0 -19 4.5t-4 18.5v327q0 14 4 18t19 4zM352 345h73q28 0 44.5 16t16.5 42q0 27 -16.5 43.5t-44.5 16.5h-73v-118z" />
    <glyph glyph-name="trademark" unicode="&#x2122;" horiz-adv-x="623" 
d="M59 695h196q14 0 17.5 -4t3.5 -18v-20q0 -14 -3.5 -17.5t-17.5 -3.5h-64v-168q0 -13 -5 -17t-19 -4h-19q-13 0 -18 4.5t-5 16.5v168h-66q-15 0 -17.5 3t-2.5 18v20q0 11 1 14.5t5 5.5t14 2zM522 695h13q15 0 19.5 -4t4.5 -18v-209q0 -13 -3.5 -17t-17.5 -4h-21
q-14 0 -18 4t-4 17v63q0 16 4 52q-11 -19 -14 -23l-26 -39q-12 -16 -26 -16h-10q-13 0 -24 12l-27 38q-4 5 -7.5 10t-4.5 7l-2 3q2 -22 2 -44v-63q0 -13 -3 -17t-17 -4h-21q-14 0 -18 4t-4 17v209q0 14 4.5 18t19.5 4h12q16 0 26 -15l69 -106l69 105q10 16 25 16z" />
    <glyph glyph-name="Omega" unicode="&#x2126;" horiz-adv-x="779" 
d="M53 376q0 154 94 251q95 98 240 98q149 0 245 -97q96 -98 96 -249q0 -165 -119 -257h88q19 0 26.5 -7.5t7.5 -26.5v-54q0 -19 -7.5 -26.5t-26.5 -7.5h-245q-26 0 -26 26v45q0 20 21 29q72 34 116 106q43 70 43 150q0 111 -55 181q-55 69 -164 69q-102 0 -157 -70
q-56 -71 -56 -179q0 -85 41.5 -155t114.5 -103q21 -9 21 -30v-43q0 -26 -26 -26h-244q-19 0 -26.5 7.5t-7.5 26.5v54q0 19 7.5 26.5t26.5 7.5h86q-114 94 -114 254z" />
    <glyph glyph-name="estimated" unicode="&#x212e;" horiz-adv-x="811" 
d="M781 355v-22q0 -23 -24 -23h-527v-179q76 -63 181 -63q72 0 138 35t111 108q7 11 13.5 14t23.5 3h39q13 0 15.5 -4t-2.5 -18q-44 -99 -134 -160q-91 -61 -204 -61q-153 0 -261 109q-109 108 -109 261t109 262q108 108 261 108t262 -108q108 -110 108 -262zM592 392v186
q-80 65 -181 65q-102 0 -181 -65v-186h362z" />
    <glyph glyph-name="uni2153" unicode="&#x2153;" horiz-adv-x="853" 
d="M212 711h19q19 0 26.5 -7.5t7.5 -26.5v-327q0 -19 -7.5 -26.5t-26.5 -7.5h-30q-19 0 -26.5 7.5t-7.5 26.5v239l-56 -31q-30 -16 -48 12l-14 23q-16 28 15 47l108 62q15 9 40 9zM658 710h43q17 0 22 -10t-5 -23l-476 -647q-15 -20 -26 -25t-41 -5h-39q-18 0 -22.5 10
t5.5 24l476 648q14 18 25 23t38 5zM532 304q34 99 154 99q65 0 101 -30.5t36 -82.5q0 -31 -9 -50t-33 -33q54 -27 54 -101q0 -55 -38 -84.5t-111 -29.5q-120 0 -155 96q-10 34 16 43l28 10q17 6 26.5 1.5t17.5 -22.5q14 -41 67 -41t53 38q0 39 -40 39h-38q-19 0 -24.5 5.5
t-5.5 24.5v25q0 22 5.5 27t27.5 5h29q39 0 39 36q0 38 -44 38q-51 0 -66 -40q-8 -22 -18 -26.5t-33 3.5l-18 7q-32 11 -21 43z" />
    <glyph glyph-name="uni2154" unicode="&#x2154;" horiz-adv-x="904" 
d="M51 626q38 98 149 98q66 0 104 -36t38 -93q0 -54 -24.5 -84t-85.5 -50l-55 -16q-35 -11 -35 -27v-9h165q29 0 29 -29v-31q0 -29 -29 -29h-228q-18 0 -25 6.5t-7 23.5v30q0 55 18.5 84.5t66.5 47.5l54 22q33 12 43 21.5t13 35.5q0 18 -12 29t-32 11q-38 0 -54 -37
q-9 -20 -16 -23.5t-28 1.5l-28 10q-33 13 -21 44zM713 710h43q17 0 22 -10t-5 -23l-476 -647q-15 -20 -26 -25t-41 -5h-39q-18 0 -22.5 10t5.5 24l476 648q14 18 25 23t38 5zM578 304q34 99 154 99q65 0 101 -30.5t36 -82.5q0 -32 -9.5 -50.5t-33.5 -32.5q54 -27 54 -101
q0 -55 -37.5 -84.5t-110.5 -29.5q-120 0 -155 96q-12 33 16 43l28 10q17 6 26.5 1.5t16.5 -22.5q16 -41 68 -41t52 38q0 39 -39 39h-38q-19 0 -24.5 5t-5.5 25v25q0 22 5 27t27 5h30q39 0 39 36q0 38 -44 38q-51 0 -66 -40q-8 -22 -18 -26.5t-33 3.5l-19 7q-32 12 -20 43z
" />
    <glyph glyph-name="oneeighth" unicode="&#x215b;" horiz-adv-x="870" 
d="M212 716h19q19 0 26.5 -7.5t7.5 -26.5v-328q0 -19 -7.5 -26.5t-26.5 -7.5h-29q-19 0 -27 7.5t-8 26.5v239l-56 -31q-30 -16 -48 12l-14 23q-16 28 15 47l108 62q16 10 40 10zM664 710h44q17 0 21 -10t-5 -23l-476 -647q-14 -20 -25.5 -25t-41.5 -5h-39q-18 0 -22.5 10
t5.5 24l476 648q14 18 25 23t38 5zM540 289q0 53 40 83.5t110 30.5q72 0 111 -27.5t39 -76.5q0 -60 -52 -88q64 -30 64 -95q0 -124 -162 -124q-80 0 -121 28t-41 79q0 64 68 96q-56 33 -56 94zM743 287q0 40 -54 40q-53 0 -53 -39q0 -18 16 -28t52 -19q39 18 39 46zM750 112
q0 20 -15.5 30t-55.5 19q-2 -1 -7.5 -4t-8 -4.5t-8 -4.5t-8.5 -5.5t-6.5 -6t-5.5 -7t-3.5 -8.5t-1.5 -10q0 -42 61 -42q59 0 59 43z" />
    <glyph glyph-name="threeeighths" unicode="&#x215c;" horiz-adv-x="891" 
d="M45 625q35 99 154 99q65 0 100.5 -30.5t35.5 -82.5q0 -33 -9 -51t-33 -32q54 -27 54 -101q0 -55 -38 -84.5t-110 -29.5q-123 0 -155 96q-7 20 -3.5 29t19.5 14l28 10q17 6 26.5 1.5t16.5 -22.5q9 -22 23.5 -31t44.5 -9q52 0 52 37q0 39 -39 39h-38q-19 0 -24.5 5.5
t-5.5 24.5v25q0 22 5 27t27 5h30q38 0 38 36q0 38 -44 38q-50 0 -65 -40q-8 -22 -18 -26.5t-33 3.5l-19 7q-32 12 -20 43zM691 709h44q17 0 22 -9.5t-5 -22.5l-476 -648q-15 -20 -26 -25t-41 -5h-39q-18 0 -22.5 10.5t5.5 23.5l476 648q13 18 23.5 23t38.5 5zM554 289
q0 53 40 83.5t110 30.5q72 0 111.5 -27.5t39.5 -76.5q0 -60 -52 -88q64 -30 64 -95q0 -124 -163 -124q-80 0 -121 28.5t-41 78.5q0 65 69 96q-57 35 -57 94zM758 287q0 40 -54 40q-53 0 -53 -39q0 -18 15.5 -28.5t51.5 -18.5q40 16 40 46zM764 112q0 20 -15 30t-55 19
q-2 -1 -7.5 -4t-8 -4.5t-8 -4.5t-8.5 -5.5t-6.5 -6t-5.5 -7t-3.5 -8.5t-1.5 -10q0 -42 61 -42q58 0 58 43z" />
    <glyph glyph-name="fiveeighths" unicode="&#x215d;" horiz-adv-x="900" 
d="M103 715h203q14 0 19 -5t5 -18v-37q0 -14 -5 -18.5t-19 -4.5h-152l-6 -54h53q70 0 107 -34.5t37 -93.5q0 -61 -39.5 -100t-106.5 -39q-119 0 -154 99q-12 31 15 41l27 10q19 6 26.5 3t14.5 -18q19 -49 67 -49q27 0 42 13.5t15 38.5q0 50 -54 50h-116q-29 0 -26 28l16 162
q1 16 7.5 21t23.5 5zM691 710h43q17 0 22 -10t-5 -23l-476 -647q-15 -20 -26 -25t-41 -5h-39q-18 0 -22.5 10t5.5 24l476 648q14 18 25 23t38 5zM568 289q0 53 40 83.5t110 30.5q72 0 111 -27.5t39 -76.5q0 -60 -52 -88q65 -30 65 -95q0 -124 -163 -124q-80 0 -121 28.5
t-41 78.5q0 66 69 96q-57 33 -57 94zM772 287q0 40 -55 40q-52 0 -52 -39q0 -18 15.5 -28.5t51.5 -18.5q40 16 40 46zM778 112q0 19 -15.5 29t-54.5 20q-2 -1 -7.5 -4t-8 -4.5t-8 -4.5t-8.5 -5.5t-6.5 -6t-5.5 -7t-3.5 -8.5t-1.5 -10q0 -42 61 -42q58 0 58 43z" />
    <glyph glyph-name="seveneighths" unicode="&#x215e;" horiz-adv-x="853" 
d="M56 716h238q16 0 21 -5.5t5 -20.5v-24q0 -19 -7 -33l-130 -292q-7 -15 -13 -18t-29 -3h-37q-20 0 -24 7.5t6 27.5l121 271h-151q-15 0 -20.5 5.5t-5.5 19.5v39q0 16 5.5 21t20.5 5zM617 710h43q17 0 22 -10t-5 -23l-476 -647q-15 -20 -26 -25t-41 -5h-39q-18 0 -22.5 10
t5.5 24l476 648q14 18 25 23t38 5zM509 289q0 53 40 83.5t110 30.5q72 0 111 -27.5t39 -76.5q0 -61 -52 -88q65 -30 65 -95q0 -124 -163 -124q-80 0 -121 28.5t-41 78.5q0 66 69 96q-57 35 -57 94zM713 287q0 40 -55 40q-52 0 -52 -39q0 -18 15.5 -28.5t51.5 -18.5
q40 16 40 46zM719 112q0 20 -15 30t-55 19q-2 -1 -7.5 -4t-8 -4.5t-8 -4.5t-8.5 -5.5t-6.5 -6t-5.5 -7t-3.5 -8.5t-1.5 -10q0 -42 61 -42q58 0 58 43z" />
    <glyph glyph-name="arrowleft" unicode="&#x2190;" horiz-adv-x="745" 
d="M232 380h471q27 0 27 -27v-39q0 -27 -27 -27h-471l132 -134q10 -11 10 -18t-10 -17l-29 -30q-18 -19 -37 0l-221 221q-27 25 0 51l221 221q19 18 37 0l30 -31q10 -11 10 -17.5t-10 -17.5z" />
    <glyph glyph-name="arrowup" unicode="&#x2191;" horiz-adv-x="745" 
d="M417 652l221 -221q19 -18 0 -37l-30 -29q-11 -10 -18 -10t-17 10l-132 131v-469q0 -15 -6 -21.5t-22 -6.5h-42q-27 0 -27 28v469l-133 -132q-18 -18 -35 0l-31 30q-19 18 0 37l221 221q26 27 51 0z" />
    <glyph glyph-name="arrowright" unicode="&#x2192;" horiz-adv-x="745" 
d="M474 581l221 -221q27 -26 0 -51l-221 -221q-19 -19 -37 0l-29 30q-10 10 -10 17t10 18l132 134h-471q-27 0 -27 27v39q0 27 27 27h471l-133 135q-10 11 -10 17.5t10 17.5l30 31q18 18 37 0z" />
    <glyph glyph-name="arrowdown" unicode="&#x2193;" horiz-adv-x="745" 
d="M371 660h42q16 0 22 -6.5t6 -21.5v-469l132 131q16 16 35 0l30 -29q19 -19 0 -38l-221 -220q-25 -29 -51 0l-221 220q-20 20 0 38l31 29q17 18 35 0l133 -131v469q0 28 27 28z" />
    <glyph glyph-name="uni2196" unicode="&#x2196;" horiz-adv-x="745" 
d="M283 577h312q36 0 36 -36v-313q0 -14 -5.5 -19.5t-20.5 -5.5h-45q-23 0 -23 26v185l-331 -332q-20 -20 -39 0l-30 29q-19 19 0 40l332 331h-187q-14 0 -19.5 6t-5.5 20v43q0 14 6 20t20 6z" />
    <glyph glyph-name="uni2197" unicode="&#x2197;" horiz-adv-x="745" 
d="M170 577h312q14 0 20 -6t6 -20v-43q0 -14 -5.5 -20t-19.5 -6h-187l332 -331q19 -21 0 -40l-30 -29q-20 -20 -39 0l-331 332v-185q0 -26 -23 -26h-45q-15 0 -20.5 5.5t-5.5 19.5v313q0 36 36 36z" />
    <glyph glyph-name="uni2198" unicode="&#x2198;" horiz-adv-x="745" 
d="M135 534l30 29q11 11 19.5 11t19.5 -11l332 -332v185q0 14 4.5 20t17.5 6h45q15 0 20.5 -6t5.5 -20v-312q0 -37 -35 -37h-312q-27 0 -27 27v43q0 14 5.5 20t19.5 6h187l-332 331q-19 21 0 40z" />
    <glyph glyph-name="uni2199" unicode="&#x2199;" horiz-adv-x="745" 
d="M228 231l332 332q11 11 19.5 11t19.5 -11l30 -29q19 -19 0 -40l-332 -331h187q14 0 19.5 -6t5.5 -20v-43q0 -27 -27 -27h-312q-35 0 -35 37v312q0 14 5.5 20t20.5 6h45q13 0 17.5 -6t4.5 -20v-185z" />
    <glyph glyph-name="partialdiff" unicode="&#x2202;" horiz-adv-x="554" 
d="M117 667l-1 45q0 17 6.5 24t24.5 7q192 0 273 -81t81 -265v-209q0 -97 -59.5 -150t-170.5 -53t-171 53t-60 150v114q0 93 56 148t150 55q108 0 145 -55q-5 96 -62 141.5t-179 45.5q-19 0 -25.5 6.5t-7.5 23.5zM385 188v114q0 98 -114 98t-114 -98v-114q0 -98 114 -98
t114 98z" />
    <glyph glyph-name="increment" unicode="&#x2206;" horiz-adv-x="641" 
d="M291 710h59q19 0 28 -5.5t14 -21.5l205 -545q18 -43 18 -64v-40q0 -19 -8 -26.5t-27 -7.5h-519q-19 0 -26.5 7.5t-7.5 26.5v40q0 18 17 64l205 545q10 27 42 27zM481 103l-117 337q-7 21 -13.5 45t-11 43.5t-7.5 36l-5 27.5l-2 10h-8l-2 -10l-5.5 -27t-8 -37t-10.5 -44
t-13 -44l-117 -337h320z" />
    <glyph glyph-name="product" unicode="&#x220f;" horiz-adv-x="692" 
d="M63 710h566q19 0 26.5 -7.5t7.5 -26.5v-49q0 -19 -7.5 -26.5t-26.5 -7.5h-53v-659q0 -19 -7.5 -26.5t-26.5 -7.5h-58q-19 0 -26.5 7.5t-7.5 26.5v659h-207v-659q0 -19 -8 -26.5t-27 -7.5h-57q-19 0 -26.5 7.5t-7.5 26.5v659h-54q-19 0 -26.5 7.5t-7.5 26.5v49
q0 19 7.5 26.5t26.5 7.5z" />
    <glyph glyph-name="summation" unicode="&#x2211;" horiz-adv-x="594" 
d="M194 593l154 -245q15 -22 15 -37.5t-15 -40.5l-159 -253h331q19 0 26.5 -7.5t7.5 -26.5v-49q0 -19 -7.5 -26.5t-26.5 -7.5h-449q-19 0 -26.5 7.5t-7.5 26.5v49q0 20 11 34l183 291l-179 284q-11 14 -11 35v49q0 19 7.5 26.5t26.5 7.5h440q19 0 26.5 -7.5t7.5 -26.5v-49
q0 -19 -7.5 -26.5t-26.5 -7.5h-321z" />
    <glyph glyph-name="minus" unicode="&#x2212;" horiz-adv-x="588" 
d="M92 382h404q19 0 26.5 -7.5t7.5 -26.5v-44q0 -19 -7.5 -27t-26.5 -8h-404q-19 0 -26.5 7.5t-7.5 27.5v44q0 20 7 27t27 7z" />
    <glyph glyph-name="uni2215" unicode="&#x2215;" horiz-adv-x="614" 
d="M13 34l476 648q13 18 24 23t39 5h43q17 0 22 -10t-5 -23l-476 -647q-15 -20 -26 -25t-41 -5h-39q-18 0 -23 10t6 24z" />
    <glyph glyph-name="uni2219" unicode="&#x2219;" horiz-adv-x="246" 
d="M119 323h8q36 0 50 -14t14 -50v-9q0 -37 -14 -50.5t-50 -13.5h-8q-36 0 -50 13.5t-14 50.5v9q0 36 14 50t50 14z" />
    <glyph glyph-name="radical" unicode="&#x221a;" horiz-adv-x="714" 
d="M638 751h46q33 0 22 -33l-249 -796q-6 -17 -14.5 -22.5t-27.5 -5.5h-50q-32 0 -42 26l-146 407h-123q-19 0 -26.5 7.5t-7.5 26.5v45q0 19 7.5 26.5t26.5 7.5h160q32 0 44.5 -6t18.5 -24l82 -243q4 -13 8 -28.5t7 -30t5.5 -29.5t3.5 -27t2 -22t1 -14l1 -5h8l1 9l3 26.5
t5 36.5t7.5 42t9.5 41l159 555q5 18 16.5 24t41.5 6z" />
    <glyph glyph-name="infinity" unicode="&#x221e;" horiz-adv-x="706" 
d="M355 359q59 93 148 93q71 0 115.5 -46.5t44.5 -119.5q0 -74 -49 -120q-50 -47 -115 -47q-47 0 -85 24t-60 64q-55 -88 -150 -88q-67 0 -114 47t-47 117q0 73 47 122q47 47 119 47q88 0 146 -93zM295 287q-1 1 -15 18.5t-20 22.5q-24 22 -52 22q-41 3 -57.5 -30.5
t0.5 -67.5t56 -31q27 0 52 23q4 4 12 13.5t11 12.5q1 1 7 9zM566 286q0 28 -18 46t-48 18t-52 -22q-12 -12 -24 -28q-2 -2 -3.5 -4t-3 -3.5l-2.5 -2.5t-1 -2l-1 -1q33 -43 50 -54q18 -12 39 -12q27 0 45.5 19t18.5 46z" />
    <glyph glyph-name="integral" unicode="&#x222b;" horiz-adv-x="387" 
d="M135 -11v545q0 107 49 156.5t161 49.5q18 0 24.5 -7t6.5 -25v-44q0 -18 -6.5 -25t-24.5 -7q-55 0 -74.5 -22t-19.5 -79v-545q0 -107 -48.5 -156.5t-160.5 -49.5q-18 0 -25 7t-7 25v44q0 18 7 25t25 7q55 0 74 22t19 79z" />
    <glyph glyph-name="approxequal" unicode="&#x2248;" horiz-adv-x="562" 
d="M94 447q50 47 120 48q34 1 91 -17q55 -19 79 -18q30 3 56 24q15 12 23 11.5t22 -13.5l35 -33q26 -25 0 -48q-53 -45 -115 -48q-43 -2 -94 16q-54 18 -78 18q-36 -2 -60 -23q-14 -12 -22.5 -11.5t-21.5 13.5l-35 33q-27 25 0 48zM96 263q51 47 118 48q35 1 92 -16
q53 -18 77 -18q34 0 60 23q14 12 22.5 11.5t21.5 -13.5l35 -33q27 -25 0 -48q-48 -45 -114 -48q-40 -2 -93 16q-54 18 -79 18q-34 0 -60 -23q-15 -12 -23.5 -11.5t-21.5 13.5l-35 33q-26 25 0 48z" />
    <glyph glyph-name="notequal" unicode="&#x2260;" horiz-adv-x="585" 
d="M346 369l-44 -85h192q19 0 26.5 -7.5t7.5 -26.5v-44q0 -19 -7.5 -26.5t-26.5 -7.5h-249l-48 -93q-4 -10 -22 -10h-41q-10 0 -5 11l47 92h-86q-20 0 -27 7t-7 27v44q0 20 7 27t27 7h144l43 85h-187q-20 0 -27 7.5t-7 26.5v44q0 20 7.5 27.5t26.5 7.5h245l47 91q4 10 20 10
h42q11 0 5 -11l-46 -90h91q19 0 26.5 -8t7.5 -27v-44q0 -19 -7.5 -26.5t-26.5 -7.5h-148z" />
    <glyph glyph-name="lessequal" unicode="&#x2264;" horiz-adv-x="530" 
d="M464 611v-42q0 -27 -6 -37.5t-25 -17.5l-227 -89v-6l226 -88q20 -7 26 -17.5t6 -37.5v-46q0 -23 -8 -29t-28 3l-344 158q-16 8 -21.5 16.5t-5.5 25.5v32q0 18 5.5 27t21.5 16l344 157q20 9 28 3t8 -28zM91 164h338q20 0 27.5 -7.5t7.5 -26.5v-41q0 -19 -8 -26.5t-27 -7.5
h-338q-19 0 -26.5 7.5t-7.5 27.5v40q0 19 7.5 26.5t26.5 7.5z" />
    <glyph glyph-name="greaterequal" unicode="&#x2265;" horiz-adv-x="529" 
d="M66 569v42q0 22 8 28t28 -3l344 -157q16 -7 21.5 -16t5.5 -27v-32q0 -17 -5.5 -25.5t-21.5 -16.5l-344 -158q-20 -9 -28 -3t-8 29v46q0 27 6 37.5t26 17.5l226 88v6l-227 89q-19 7 -25 17.5t-6 37.5zM101 164h338q19 0 26.5 -7.5t7.5 -26.5v-40q0 -20 -7.5 -27.5
t-26.5 -7.5h-338q-19 0 -27 7.5t-8 26.5v41q0 19 7.5 26.5t27.5 7.5z" />
    <glyph glyph-name="lozenge" unicode="&#x25ca;" horiz-adv-x="552" 
d="M274 710h32q15 0 24 -6t19 -21l182 -304q13 -25 0 -48l-182 -304q-10 -15 -19 -21t-24 -6h-32q-15 0 -23.5 5.5t-18.5 21.5l-183 304q-13 23 0 48l183 304q10 17 17.5 22t24.5 5zM294 569h-5l-119 -214l119 -214h5l120 214z" />
    <glyph glyph-name="NULL" horiz-adv-x="502" 
 />
    <glyph glyph-name="zero.denom" horiz-adv-x="378" 
d="M37 133v129q0 66 40 103.5t112 37.5t112 -37.5t40 -103.5v-129q0 -66 -40 -103.5t-112 -37.5t-112 37.5t-40 103.5zM243 133v129q0 23 -14.5 35.5t-39.5 12.5q-55 0 -55 -48v-129q0 -49 55 -49q25 0 39.5 13t14.5 36z" />
    <glyph glyph-name="one.denom" horiz-adv-x="285" 
d="M198 395h18q20 0 27.5 -7.5t7.5 -26.5v-327q0 -19 -8 -26.5t-27 -7.5h-29q-19 0 -26.5 7.5t-7.5 26.5v239l-56 -31q-31 -16 -49 12l-13 23q-17 29 15 47l108 62q16 9 40 9z" />
    <glyph glyph-name="two.denom" horiz-adv-x="364" 
d="M47 306q39 97 149 97q66 0 104.5 -36t38.5 -93q0 -55 -24.5 -84.5t-85.5 -48.5l-55 -16q-36 -11 -36 -27v-9h165q17 0 23 -7t6 -23v-30q0 -16 -6 -22.5t-23 -6.5h-228q-31 0 -31 30v30q0 55 18.5 84t65.5 48l55 22q33 12 44 22.5t11 33.5q0 18 -11.5 29.5t-31.5 11.5
q-37 0 -55 -38q-9 -19 -16.5 -23t-26.5 2l-28 10q-34 12 -22 44z" />
    <glyph glyph-name="three.denom" horiz-adv-x="369" 
d="M46 304q34 99 154 99q65 0 101 -30.5t36 -82.5q0 -32 -9.5 -50.5t-33.5 -32.5q54 -27 54 -101q0 -55 -37.5 -84.5t-110.5 -29.5q-120 0 -155 96q-12 33 16 43l28 10q17 6 26.5 1.5t16.5 -22.5q16 -41 68 -41t52 38q0 39 -39 39h-38q-19 0 -24.5 5t-5.5 25v25q0 22 5.5 27
t26.5 5h30q39 0 39 36q0 38 -44 38q-51 0 -66 -40q-8 -22 -18 -26.5t-33 3.5l-19 7q-32 12 -20 43z" />
    <glyph glyph-name="four.denom" horiz-adv-x="384" 
d="M309 164h19q18 0 23.5 -5t5.5 -21v-28q0 -17 -5 -22t-24 -5h-19v-55q0 -17 -5.5 -22.5t-22.5 -5.5h-37q-17 0 -22 5.5t-5 22.5v55h-169q-17 0 -23.5 6t-6.5 24v24q0 20 10 31l170 210q9 11 16.5 14t23.5 3h42q19 0 24 -5.5t5 -24.5v-201zM217 164v110l-89 -110h89z" />
    <glyph glyph-name="five.denom" horiz-adv-x="362" 
d="M101 395h204q13 0 18 -5t5 -18v-36q0 -14 -4.5 -18.5t-18.5 -4.5h-153l-6 -54h53q70 0 107 -34.5t37 -93.5q0 -61 -39.5 -100t-106.5 -39q-121 0 -154 98q-12 32 15 42l27 10q19 6 26.5 3t14.5 -19q19 -49 67 -49q27 0 42 14t15 38q0 50 -54 50h-116q-29 0 -26 28l16 162
q1 16 7.5 21t23.5 5z" />
    <glyph glyph-name="six.denom" horiz-adv-x="378" 
d="M133 258v-20q39 13 76 13q68 0 102.5 -33.5t34.5 -94.5q0 -63 -41 -97t-114 -34q-76 0 -115.5 37.5t-39.5 108.5v116q0 72 41 110.5t119 38.5q50 0 87.5 -19.5t52.5 -51.5q12 -20 -14 -31l-38 -19q-18 -6 -23.5 -5t-11.5 11q-20 26 -53 26q-34 0 -48 -13q-15 -13 -15 -43
zM133 150v-14q0 -55 58 -55t58 41q0 40 -56 40q-29 0 -60 -12z" />
    <glyph glyph-name="seven.denom" horiz-adv-x="327" 
d="M47 395h237q16 0 21 -5t5 -20v-24q0 -19 -7 -33l-130 -292q-7 -15 -13 -18t-29 -3h-37q-19 0 -23 7.5t5 27.5l122 270h-151q-15 0 -20.5 5.5t-5.5 20.5v39q0 15 5.5 20t20.5 5z" />
    <glyph glyph-name="eight.denom" horiz-adv-x="387" 
d="M43 289q0 53 40 83.5t110 30.5q72 0 111.5 -27.5t39.5 -76.5q0 -61 -53 -88q65 -30 65 -95q0 -124 -163 -124q-80 0 -121 28.5t-41 78.5q0 65 69 96q-57 35 -57 94zM247 287q0 40 -55 40q-52 0 -52 -39q0 -18 15.5 -28.5t51.5 -18.5q40 16 40 46zM253 112q0 20 -15 30
t-55 19q-2 -1 -7.5 -4t-8 -4.5t-8 -4.5t-8.5 -5.5t-6.5 -6t-5.5 -7t-3.5 -8.5t-1.5 -10q0 -42 61 -42q58 0 58 43z" />
    <glyph glyph-name="nine.denom" horiz-adv-x="378" 
d="M245 138v19q-45 -13 -75 -13q-69 0 -103.5 33.5t-34.5 95.5t41 96t114 34q155 0 155 -146v-115q0 -73 -40.5 -111.5t-118.5 -38.5q-50 0 -87.5 20t-53.5 51q-11 20 14 32l38 19q19 5 23 4t13 -11q18 -26 53 -26q32 0 47 13.5t15 43.5zM245 246v13q0 29 -13.5 42t-44.5 13
q-58 0 -58 -41q0 -39 56 -39q29 0 60 12z" />
    <glyph glyph-name="zero.num" horiz-adv-x="378" 
d="M37 453v130q0 66 40 103.5t112 37.5t112 -37.5t40 -103.5v-130q0 -66 -40 -103.5t-112 -37.5t-112 37.5t-40 103.5zM243 453v130q0 47 -54 47q-55 0 -55 -47v-130q0 -48 55 -48q25 0 39.5 12.5t14.5 35.5z" />
    <glyph glyph-name="one.num" horiz-adv-x="285" 
d="M198 716h18q19 0 27 -7.5t8 -26.5v-328q0 -19 -8 -26.5t-27 -7.5h-29q-19 0 -26.5 7.5t-7.5 26.5v239l-56 -31q-31 -16 -49 12l-13 23q-17 29 15 47l108 62q16 10 40 10z" />
    <glyph glyph-name="two.num" horiz-adv-x="364" 
d="M47 626q39 98 149 98q66 0 104 -36t38 -93q0 -54 -24.5 -84t-85.5 -50l-54 -16q-36 -11 -36 -27v-9h165q29 0 29 -29v-31q0 -29 -29 -29h-228q-17 0 -24 6.5t-7 23.5v30q0 55 18.5 84.5t65.5 47.5l55 22q32 12 42 21.5t13 35.5q0 18 -11.5 29t-32.5 11q-35 0 -54 -37
q-9 -20 -16 -23.5t-28 1.5l-27 10q-34 13 -22 44z" />
    </font>
</defs>
</svg>
