<?xml version="1.0" encoding="utf-8"?>
<!-- Generator: Adobe Illustrator 24.2.1, SVG Export Plug-In . SVG Version: 6.00 Build 0)  -->
<svg version="1.1" id="Layer_1" xmlns="http://www.w3.org/2000/svg" xmlns:xlink="http://www.w3.org/1999/xlink" x="0px" y="0px"
	 viewBox="0 0 100 100" style="enable-background:new 0 0 100 100;" xml:space="preserve">
<g>
	<g>
		<g>
			<g>
				<path d="M77.3,77.5H22.7c-3.9,0-7-3.1-7-7V35.8c0-3.9,3.1-7,7-7h54.7c3.9,0,7,3.1,7,7v34.7C84.3,74.4,81.2,77.5,77.3,77.5z
					 M22.7,30.8c-2.8,0-5,2.2-5,5v34.7c0,2.8,2.2,5,5,5h54.7c2.8,0,5-2.2,5-5V35.8c0-2.8-2.2-5-5-5L22.7,30.8z"/>
			</g>
		</g>
	</g>
	<g>
		<g>
			<g>
				<path d="M61.3,29.5c-0.6,0-1-0.4-1-1V26c0-0.8-0.9-1.5-2-1.5h-17c-1.1,0-2,0.7-2,1.5v2.5c0,0.6-0.4,1-1,1s-1-0.4-1-1V26
					c0-1.9,1.8-3.5,4-3.5h17c2.2,0,4,1.6,4,3.5v2.5C62.3,29.1,61.9,29.5,61.3,29.5z"/>
			</g>
		</g>
	</g>
	<g>
		<g>
			<g>
				<path d="M77.3,62.2H22.7c-3.9,0-7-3.1-7-7V44.5c0-0.6,0.4-1,1-1s1,0.4,1,1v10.7c0,2.8,2.2,5,5,5h54.7c2.8,0,5-2.2,5-5V44.5
					c0-0.6,0.4-1,1-1s1,0.4,1,1v10.7C84.3,59,81.2,62.2,77.3,62.2z"/>
			</g>
		</g>
	</g>
	<g>
		<g>
			<g>
				<g>
					<path d="M67.6,65.3c-0.6,0-1-0.4-1-1v-5.1c0-0.6,0.4-1,1-1s1,0.4,1,1v5.1C68.6,64.8,68.1,65.3,67.6,65.3z"/>
				</g>
			</g>
		</g>
		<g>
			<g>
				<g>
					<path d="M32.4,65.3c-0.6,0-1-0.4-1-1v-5.1c0-0.6,0.4-1,1-1c0.6,0,1,0.4,1,1v5.1C33.4,64.8,33,65.3,32.4,65.3z"/>
				</g>
			</g>
		</g>
	</g>
</g>
</svg>
