<?xml version="1.0" encoding="utf-8"?>
<!-- Generator: Adobe Illustrator 24.2.1, SVG Export Plug-In . SVG Version: 6.00 Build 0)  -->
<svg version="1.1" id="Layer_1" xmlns:sketch="http://www.bohemiancoding.com/sketch/ns"
	 xmlns="http://www.w3.org/2000/svg" xmlns:xlink="http://www.w3.org/1999/xlink" x="0px" y="0px" viewBox="0 0 100 100"
	 style="enable-background:new 0 0 100 100;" xml:space="preserve">
<style type="text/css">
	.st0{fill-rule:evenodd;clip-rule:evenodd;}
</style>
<desc>Created with Sketch.</desc>
<g sketch:type="MSPage">
	<g sketch:type="MSArtboardGroup">
		<path sketch:type="MSShapeGroup" class="st0" d="M41.4,5H4C1.8,5,0,6.8,0,9v82c0,2.2,1.8,4,4,4h60c2.2,0,4-1.8,4-4V31.6V31
			c0-1.1-0.6-2.6-1.4-3.4L45.4,6.4C44.6,5.6,43.1,5,42,5H41.4L41.4,5L41.4,5z M46.2,29C45,29,44,28,44,26.8V8.9
			c0-0.5,0.3-0.7,0.7-0.3l19.7,19.7c0.4,0.4,0.3,0.7-0.3,0.7H46.2L46.2,29z M4.2,7C3,7,2,8,2,9.2v81.6C2,92,3,93,4.2,93h59.6
			c1.2,0,2.2-1,2.2-2.2V32c0-0.6-0.5-1-1-1H46c-2.2,0-4-1.8-4-4V8c0-0.5-0.5-1-1-1H4.2L4.2,7z M34,70.3l-7.3,4.4
			c-2.1,1.3-3.4,0.4-2.8-2.1l1.9-8.2l-6.4-5.5c-1.9-1.6-1.4-3.1,1.1-3.3l8.5-0.7l3.3-7.7c1-2.3,2.6-2.3,3.5,0l3.3,7.7l8.5,0.7
			c2.5,0.2,3,1.7,1.1,3.3l-6.4,5.5l1.9,8.2c0.6,2.4-0.7,3.3-2.8,2.1L34,70.3z M42.1,72.8L40,63.7l7.2-6.1l-9.4-0.8L34,48.1l-3.7,8.7
			l-9.4,0.8l7.1,6.1l-2.1,9.2L34,68L42.1,72.8z"/>
	</g>
</g>
</svg>
