<?xml version="1.0" encoding="utf-8"?>
<!-- Generator: Adobe Illustrator 24.2.1, SVG Export Plug-In . SVG Version: 6.00 Build 0)  -->
<svg version="1.1" id="Layer_1" xmlns:sketch="http://www.bohemiancoding.com/sketch/ns"
	 xmlns="http://www.w3.org/2000/svg" xmlns:xlink="http://www.w3.org/1999/xlink" x="0px" y="0px" viewBox="0 0 100 100"
	 style="enable-background:new 0 0 100 100;" xml:space="preserve">
<style type="text/css">
	.st0{fill-rule:evenodd;clip-rule:evenodd;}
</style>
<desc>Created with Sketch.</desc>
<g>
	<g sketch:type="MSPage">
		<g sketch:type="MSArtboardGroup">
			<g>
				<path sketch:type="MSShapeGroup" class="st0" d="M66.6,27.6L45.4,6.4C44.6,5.6,43.1,5,42,5H4C1.8,5,0,6.8,0,9v82
					c0,2.2,1.8,4,4,4h60c2.2,0,4-1.8,4-4V31C68,29.9,67.4,28.4,66.6,27.6z M44,8.9c0-0.5,0.3-0.7,0.7-0.3l19.7,19.7
					c0.4,0.4,0.3,0.7-0.3,0.7H46.2C45,29,44,28,44,26.8V8.9z M66,90.8c0,1.2-1,2.2-2.2,2.2H4.2C3,93,2,92,2,90.8V9.2C2,8,3,7,4.2,7
					H41c0.5,0,1,0.4,1,1v19c0,2.2,1.8,4,4,4h19c0.5,0,1,0.5,1,1V90.8z"/>
			</g>
		</g>
	</g>
	<g>
		<path d="M34,49c-8.5,0-15.4,6.9-15.4,15.4c0,8.5,6.9,15.4,15.4,15.4s15.4-6.9,15.4-15.4C49.4,55.9,42.5,49,34,49z M34,77.8
			c-7.4,0-13.4-6-13.4-13.4C20.6,57,26.6,51,34,51s13.4,6,13.4,13.4C47.4,71.8,41.4,77.8,34,77.8z"/>
	</g>
	<g>
		<path d="M40.8,69.8c0.4,0.4,0.4,1,0,1.4c-0.2,0.2-0.5,0.3-0.7,0.3c-0.3,0-0.5-0.1-0.7-0.3L34,65.8l-5.4,5.4
			c-0.2,0.2-0.5,0.3-0.7,0.3c-0.2,0-0.5-0.1-0.7-0.3c-0.4-0.4-0.4-1,0-1.4l5.4-5.4L27.2,59c-0.4-0.4-0.4-1,0-1.4
			c0.4-0.4,1-0.4,1.4,0L34,63l5.4-5.4c0.4-0.4,1-0.4,1.4,0c0.4,0.4,0.4,1,0,1.4l-5.4,5.4L40.8,69.8z"/>
	</g>
</g>
</svg>
