<?xml version="1.0" encoding="utf-8"?>
<!-- Generator: Adobe Illustrator 24.2.1, SVG Export Plug-In . SVG Version: 6.00 Build 0)  -->
<svg version="1.1" id="Layer_1" xmlns="http://www.w3.org/2000/svg" xmlns:xlink="http://www.w3.org/1999/xlink" x="0px" y="0px"
	 viewBox="0 0 100 100" style="enable-background:new 0 0 100 100;" xml:space="preserve">
<g>
	<path d="M77.5,10.1h-55c-3,0-5.5,2.5-5.5,5.5v68.8c0,3,2.5,5.5,5.5,5.5s5.5-2.5,5.5-5.5c0-2,1.6-3.7,3.7-3.7s3.7,1.6,3.7,3.7
		c0,3,2.5,5.5,5.5,5.5s5.5-2.5,5.5-5.5c0-2,1.6-3.7,3.7-3.7s3.7,1.6,3.7,3.7c0,3,2.5,5.5,5.5,5.5s5.5-2.5,5.5-5.5
		c0-2,1.6-3.7,3.7-3.7c2,0,3.7,1.6,3.7,3.7c0,3,2.5,5.5,5.5,5.5s5.5-2.5,5.5-5.5V15.6C83,12.6,80.5,10.1,77.5,10.1z M81.2,84.4
		c0,2-1.6,3.7-3.7,3.7s-3.7-1.6-3.7-3.7c0-3-2.5-5.5-5.5-5.5c-3,0-5.5,2.5-5.5,5.5c0,2-1.6,3.7-3.7,3.7c-2,0-3.7-1.6-3.7-3.7
		c0-3-2.5-5.5-5.5-5.5s-5.5,2.5-5.5,5.5c0,2-1.6,3.7-3.7,3.7c-2,0-3.7-1.6-3.7-3.7c0-3-2.5-5.5-5.5-5.5c-3,0-5.5,2.5-5.5,5.5
		c0,2-1.6,3.7-3.7,3.7s-3.7-1.6-3.7-3.7V15.6c0-2,1.6-3.7,3.7-3.7h55c2,0,3.7,1.6,3.7,3.7V84.4z"/>
	<path d="M50.5,28.5H31.7c-0.5,0-0.9,0.4-0.9,0.9s0.4,0.9,0.9,0.9h18.8c0.5,0,0.9-0.4,0.9-0.9S51,28.5,50.5,28.5z"/>
	<path d="M68.3,28.5h-7.8c-0.5,0-0.9,0.4-0.9,0.9s0.4,0.9,0.9,0.9h7.8c0.5,0,0.9-0.4,0.9-0.9S68.8,28.5,68.3,28.5z"/>
	<path d="M50.5,42.2H31.7c-0.5,0-0.9,0.4-0.9,0.9s0.4,0.9,0.9,0.9h18.8c0.5,0,0.9-0.4,0.9-0.9S51,42.2,50.5,42.2z"/>
	<path d="M68.3,42.2h-7.8c-0.5,0-0.9,0.4-0.9,0.9S60,44,60.5,44h7.8c0.5,0,0.9-0.4,0.9-0.9S68.8,42.2,68.3,42.2z"/>
	<path d="M50.5,56H31.7c-0.5,0-0.9,0.4-0.9,0.9s0.4,0.9,0.9,0.9h18.8c0.5,0,0.9-0.4,0.9-0.9S51,56,50.5,56z"/>
	<path d="M68.3,56h-7.8c-0.5,0-0.9,0.4-0.9,0.9s0.4,0.9,0.9,0.9h7.8c0.5,0,0.9-0.4,0.9-0.9S68.8,56,68.3,56z"/>
</g>
</svg>
