<?xml version="1.0" encoding="utf-8"?>
<!-- Generator: Adobe Illustrator 24.2.0, SVG Export Plug-In . SVG Version: 6.00 Build 0)  -->
<svg version="1.1" id="mobile-pay" xmlns="http://www.w3.org/2000/svg" xmlns:xlink="http://www.w3.org/1999/xlink" x="0px" y="0px"
	 viewBox="0 0 100 100" style="enable-background:new 0 0 100 100;" xml:space="preserve">
<style type="text/css">
	.st0{stroke:#000000;stroke-width:0.3;stroke-miterlimit:10;}
</style>
<g>
	<path class="st0" d="M58,61.3c-0.3,0-0.5,0.2-0.5,0.5l0,0v14.7H18.9V20h38.6v5.7c0,0.3,0.2,0.5,0.5,0.5s0.5-0.2,0.5-0.5V12.6
		c0-1.4-1.2-2.6-2.6-2.6H20.6c-1.4,0-2.6,1.2-2.6,2.6v74.9c0,1.4,1.2,2.6,2.6,2.6H56c1.4,0,2.6-1.2,2.6-2.6V61.8
		C58.5,61.5,58.3,61.3,58,61.3L58,61.3z M20.6,10.9H56c0.9,0,1.6,0.7,1.6,1.6l0,0V19H18.9v-6.4C18.9,11.7,19.7,10.9,20.6,10.9z
		 M55.9,89.1H20.6c-0.9,0-1.6-0.7-1.6-1.6v-10h38.6v10C57.6,88.3,56.8,89.1,55.9,89.1z"/>
	<path class="st0" d="M78.9,28H37.2c-1.7,0-3.1,1.4-3.1,3.1v24.7c0,1.7,1.4,3.2,3.1,3.2l0,0h41.6c1.7,0,3.1-1.4,3.1-3.1l0,0V31.1
		C82,29.4,80.6,28,78.9,28z M34.9,31.1c0-1.3,1-2.3,2.3-2.3l0,0h41.7c1.3,0,2.3,1,2.3,2.3l0,0v3.8H34.9V31.1z M78.9,58.1H37.2
		c-1.3,0-2.3-1-2.3-2.3l0,0V35.7h46.3v20.1C81.2,57.1,80.2,58.1,78.9,58.1L78.9,58.1z"/>
	<path class="st0" d="M65,51H54.7c-0.3,0-0.5,0.2-0.5,0.5s0.2,0.5,0.5,0.5H65c0.3,0,0.5-0.2,0.5-0.5S65.3,51,65,51L65,51z"/>
	<path class="st0" d="M69.2,51h-1.8c-0.3,0-0.5,0.2-0.5,0.5s0.2,0.5,0.5,0.5h1.8c0.3,0,0.5-0.2,0.5-0.5S69.5,51,69.2,51L69.2,51z"/>
	<path class="st0" d="M66.4,48.1H54.7c-0.3,0-0.5,0.2-0.5,0.5s0.2,0.5,0.5,0.5l0,0h11.7c0.3,0,0.5-0.2,0.5-0.5S66.7,48.1,66.4,48.1
		L66.4,48.1z"/>
	<path class="st0" d="M72.4,48.1h-3.8c-0.3,0-0.5,0.2-0.5,0.5s0.2,0.5,0.5,0.5l0,0h3.8c0.3,0,0.5-0.2,0.5-0.5S72.7,48.1,72.4,48.1
		L72.4,48.1z"/>
	<path class="st0" d="M46.3,46.3h-3.6c-1.1,0-1.9,0.9-1.9,1.9v3.5c0,1.1,0.8,1.9,1.9,1.9l0,0h3.5c1.1,0,1.9-0.9,1.9-1.9v-3.6
		C48.2,47.2,47.3,46.3,46.3,46.3z M47.3,51.8c0,0.6-0.4,1-1,1h-3.6c-0.6,0-1-0.4-1-1v-3.5c0-0.6,0.4-1,1-1h3.5c0.6,0,1,0.4,1,1
		L47.3,51.8z"/>
	<path class="st0" d="M40.7,81.3h-5c-1,0-1.7,0.8-1.7,1.7c0,1,0.8,1.7,1.7,1.7l0,0h5c1,0,1.7-0.8,1.7-1.7
		C42.5,82.1,41.7,81.3,40.7,81.3z M40.7,83.8h-5c-0.4,0-0.8-0.4-0.8-0.8s0.3-0.8,0.8-0.8h5c0.4,0,0.8,0.4,0.8,0.8
		C41.5,83.5,41.2,83.8,40.7,83.8z"/>
	<path class="st0" d="M36.7,15.4h6c0.3,0,0.5-0.2,0.5-0.5s-0.2-0.5-0.5-0.5l0,0h-6c-0.3,0-0.5,0.2-0.5,0.5S36.4,15.4,36.7,15.4
		L36.7,15.4z"/>
	<circle class="st0" cx="34.1" cy="14.9" r="0.7"/>
</g>
</svg>
