<?xml version="1.0" encoding="utf-8"?>
<!-- Generator: Adobe Illustrator 24.1.2, SVG Export Plug-In . SVG Version: 6.00 Build 0)  -->
<svg version="1.1" id="Layer_1" xmlns="http://www.w3.org/2000/svg" xmlns:xlink="http://www.w3.org/1999/xlink" x="0px" y="0px"
	 viewBox="0 0 430.4 163.5" style="enable-background:new 0 0 430.4 163.5;" xml:space="preserve">
<style type="text/css">
	.st0{opacity:0.35;fill:#01ABA8;enable-background:new    ;}
	.st1{fill:#01ABA8;}
	.st2{opacity:0.75;fill:#01ABA8;enable-background:new    ;}
</style>
<g>
	<g>
		<path d="M238,54.4c10.7,0,16.1,5.2,16.1,15.5V81c0,10.3-5.3,15.4-15.8,15.4c-4-0.1-7.9-1-11.6-2.6v17.2c0.1,0.7-0.4,1.3-1.1,1.4
			c-0.1,0-0.2,0-0.3,0h-2.5c-0.7,0.1-1.3-0.4-1.4-1.1c0-0.1,0-0.2,0-0.3V60.9c0-2.5,0.6-3.3,3.1-4.3C228.8,55,233.4,54.3,238,54.4z
			 M248.9,70c0-7.2-3.9-10.8-11.5-10.8c-3.2-0.1-6.3,0.4-9.3,1.5c-1.3,0.5-1.5,0.9-1.5,2.1v26.2c3.5,1.7,7.3,2.6,11.2,2.7
			c7.3,0,11.1-3.6,11.1-10.8L248.9,70z"/>
		<path d="M273.8,54.4c11.4,0,15.5,6,15.5,15.3v20.3c0,2.7-0.6,3.5-2.8,4.4c-4.1,1.5-8.5,2.2-12.8,2c-6.4,0-10.7-0.9-13.1-2.9
			c-2.4-1.9-3.6-4.9-3.6-9c0-8.7,4.7-12,17-12c3.4,0.1,6.8,0.3,10.1,0.8v-3.6c0-6.7-2.6-10.6-10.4-10.6c-5.1,0-8.7,1.9-10.8,5.6
			c-0.3,0.7-1.2,1-1.9,0.6c0,0,0,0-0.1,0l-1.9-0.8c-1-0.4-1.2-1-0.8-2C261.2,57.1,266.3,54.4,273.8,54.4z M284.1,77.4
			c-4.6-0.5-8.2-0.7-10.7-0.7c-8.1,0-11.1,2.2-11.1,7.6c0,5.3,2.4,7.7,11,7.7c3.2,0.1,6.3-0.3,9.4-1.2c1.2-0.5,1.5-0.8,1.5-2.2
			L284.1,77.4z"/>
		<path d="M312.1,54.4c10.3,0,15.4,5,15.4,15.1v24.3c0.1,0.7-0.4,1.3-1.1,1.4c-0.1,0-0.2,0-0.3,0h-2.4c-1,0-1.4-0.4-1.4-1.4V69.7
			c0-7-3.6-10.5-10.8-10.5c-3.5,0-7,0.5-10.3,1.7c-0.8,0.3-1.2,1.1-1.2,1.9v31.1c0.1,0.7-0.4,1.3-1.1,1.4c-0.1,0-0.2,0-0.3,0h-2.5
			c-0.7,0.1-1.3-0.4-1.4-1.1c0-0.1,0-0.2,0-0.3V61.3c0-2.4,0.5-3.2,2.9-4.3C302.3,55.2,307.2,54.3,312.1,54.4z"/>
		<path d="M350.7,54.4c10.3,0,15.4,5,15.4,15.1v24.3c0.1,0.7-0.4,1.3-1.1,1.4c-0.1,0-0.2,0-0.3,0h-2.4c-1,0-1.4-0.4-1.4-1.4V69.7
			c0-7-3.6-10.5-10.8-10.5c-3.5,0-7,0.5-10.3,1.7c-0.8,0.3-1.2,1.1-1.2,1.9v31.1c0.1,0.7-0.4,1.3-1.1,1.4c-0.1,0-0.2,0-0.3,0h-2.5
			c-0.7,0.1-1.3-0.4-1.4-1.1c0-0.1,0-0.2,0-0.3V61.3c0-2.4,0.5-3.2,2.9-4.3C340.9,55.2,345.7,54.3,350.7,54.4z"/>
		<path d="M370.8,68.6c0-8.9,6.4-14.2,16.9-14.2c10.6,0,17.1,5.3,17.1,14.2v13.6c0,8.9-6.5,14.1-17.1,14.1
			c-10.5,0-16.9-5.4-16.9-14.1V68.6z M399.6,68.6c0-5.9-4.5-9.5-11.8-9.5c-7.2,0-11.7,3.6-11.7,9.5v13.6c0,5.9,4.6,9.4,11.7,9.4
			c7.3,0,11.8-3.6,11.8-9.4V68.6z"/>
		<path d="M429,54.4c0.7-0.1,1.3,0.4,1.4,1.1c0,0.1,0,0.2,0,0.3v2c0.1,0.7-0.4,1.3-1.1,1.4c-0.1,0-0.2,0-0.3,0h-2.6
			c-3.5-0.1-6.9,0.5-10.2,1.6c-0.8,0.3-1.4,1.1-1.3,2v31.1c0.1,0.7-0.4,1.3-1.1,1.4c-0.1,0-0.2,0-0.3,0h-2.5
			c-0.7,0.1-1.3-0.4-1.4-1.1c0-0.1,0-0.2,0-0.3V61.1c0-2.4,0.7-3.3,2.9-4.3c4.5-1.6,9.2-2.4,14-2.4H429z"/>
	</g>
	<path class="st0" d="M175.7,91.9c-3.1,5.6-7.7,10.3-13.2,13.7c1.3-3.5,2.4-7.2,3.1-10.9c2.3-9.8,2.8-22.7-2.8-37.9
		c-5.3-14.5-17.5-24.5-31.5-30.1c-20.2-8.1-42.2-7.1-63.4-3.7c-3.4,0.6-6.9,1.2-10.4,2C55.6,11.4,67.7,4.2,67.7,4.2
		c15.6-9,40.9-0.8,40.9-0.8c18.9,5.4,38.3,15.8,51.5,30.7C173.5,49.2,186.8,71.9,175.7,91.9z"/>
	<path class="st1" d="M165.5,94.7c-0.7,3.7-1.7,7.4-3.1,10.9c-0.3,0.2-0.6,0.4-0.9,0.6C163.2,102.4,164.6,98.6,165.5,94.7z"/>
	<path class="st0" d="M162.5,105.6c-4.2,10.6-10.4,20.3-18.3,28.5c-5.3,5.7-11.2,10.8-17.7,15.1c-10,6.8-21.3,11.9-33.4,13.7
		c-12,1.7-26.4,0.7-35.5-8.3c-3.9-3.8-6.3-8.9-7-14.3c-0.6-5.6,0.1-11.2,2.1-16.5c0.7-1.9,1.2-3.8,1.6-5.8c3.6,1.1,7.1,2.3,10.6,3.8
		c0,0,30.2,12.5,54.9,11.7c14.3-0.3,27.7-7.1,36.3-18.5c2.1-2.7,3.9-5.7,5.3-8.8l0,0C161.8,105.9,162.2,105.7,162.5,105.6z"/>
	<path class="st1" d="M165.5,94.7c-0.7,3.7-1.7,7.4-3.1,10.9c-0.3,0.2-0.6,0.4-0.9,0.6C163.2,102.4,164.6,98.6,165.5,94.7z"/>
	<path class="st2" d="M165.5,94.7c0.7-3.6,1-7.3,1-11c0,0-0.5-23.2-19.1-34.4C126.1,36.5,99.1,37,76.5,46.2
		c-4.5,1.8-8.8,4.1-12.8,6.9C60.2,38,58,27.9,58,27.9c-0.3-1-0.5-2-0.6-2.9c3.5-0.8,7-1.5,10.4-2c21.1-3.5,43.2-4.4,63.4,3.7
		c14,5.6,26.2,15.6,31.5,30.1C168.3,71.9,167.8,84.9,165.5,94.7z"/>
	<path class="st1" d="M166.5,83.7c0,3.7-0.3,7.4-1,11c-0.9,3.9-2.3,7.8-4,11.5l0,0c-20.8,12-50.3,5.5-50.3,5.5
		c-12.5-1.6-26.1-12.5-26.1-12.5c-8.7-7.8-14.8-18.2-17.5-29.6c-1.4-5.9-2.7-11.4-3.9-16.4c4-2.8,8.3-5.1,12.8-6.9
		c22.6-9.2,49.6-9.7,70.9,3.1C166,60.4,166.5,83.7,166.5,83.7z"/>
	<path class="st2" d="M161.5,106.1c-1.4,3.1-3.2,6.1-5.3,8.8c-8.6,11.4-22,18.2-36.3,18.5C95.2,134.3,65,121.7,65,121.7
		c-3.5-1.4-7-2.7-10.6-3.8c0.5-2.2,0.7-4.4,0.7-6.6c0.1-5.1-2.3-9.2-3.8-14c-1.1-3.5-1.8-7.1-2.3-10.7c-1-9.1,0.7-18.5,6.4-25.8
		c2.4-3,5.1-5.6,8.2-7.7c1.2,5,2.5,10.5,3.9,16.4c2.6,11.4,8.7,21.8,17.5,29.6c0,0,13.6,11,26.1,12.5
		C111.3,111.6,140.8,118.1,161.5,106.1z"/>
	<path class="st0" d="M63.8,53.1c-3.1,2.2-5.9,4.8-8.2,7.7c-5.8,7.3-7.4,16.7-6.4,25.8c0.4,3.6,1.2,7.2,2.3,10.7
		c1.5,4.8,3.9,8.9,3.8,14c0,2.2-0.3,4.4-0.7,6.6c-5.2-1.6-10.4-2.9-15.7-4.3c-8-2.1-16.5-4.7-23.2-9.6c0,0-31.3-20.4-4.7-53.5
		C22.1,36.3,39.8,29,57.4,25c0.1,1,0.3,2,0.6,2.9C58,27.9,60.2,38,63.8,53.1z"/>
</g>
</svg>
