<?xml version="1.0" encoding="utf-8"?>
<!-- Generator: Adobe Illustrator 24.2.0, SVG Export Plug-In . SVG Version: 6.00 Build 0)  -->
<svg version="1.1" id="Layer_1" xmlns="http://www.w3.org/2000/svg" xmlns:xlink="http://www.w3.org/1999/xlink" x="0px" y="0px"
	 viewBox="0 0 100 100" style="enable-background:new 0 0 100 100;" xml:space="preserve">
<g>
	<path d="M85.4,63.5c-2.5-2.5-5.8-3.9-9.4-3.9s-6.9,1.4-9.4,3.9s-3.9,5.8-3.9,9.4c0,3.5,1.4,6.9,3.9,9.4s5.8,3.9,9.4,3.9
		s6.9-1.4,9.4-3.9s3.9-5.8,3.9-9.4C89.3,69.4,87.9,66.1,85.4,63.5z M84.5,81.4c-2.3,2.3-5.3,3.5-8.5,3.5s-6.2-1.2-8.5-3.5
		S64,76.1,64,72.9s1.2-6.2,3.5-8.5c2.3-2.3,5.3-3.5,8.5-3.5s6.2,1.2,8.5,3.5c2.3,2.3,3.5,5.3,3.5,8.5S86.8,79.1,84.5,81.4z"/>
	<path d="M80.8,68.1c-0.3-0.3-0.7-0.3-0.9,0l-4,4L72,68.2c-0.3-0.3-0.7-0.3-0.9,0c-0.3,0.3-0.3,0.7,0,0.9L75,73l-3.9,3.9
		c-0.3,0.3-0.3,0.7,0,0.9c0.1,0.1,0.3,0.2,0.5,0.2s0.3-0.1,0.5-0.2l3.9-3.9l3.9,3.9c0.1,0.1,0.3,0.2,0.5,0.2s0.3-0.1,0.5-0.2
		c0.3-0.3,0.3-0.7,0-0.9l-4-3.9l3.9-3.9C81,68.8,81,68.4,80.8,68.1z"/>
	<path d="M59.2,78.7l-15,7.6V45.4l12.2-6.1v15.4c0,0.2,0.1,0.4,0.3,0.6c0.1,0.1,0.2,0.1,0.3,0.1s0.2,0,0.3-0.1l6.7-3.6
		c0.2-0.1,0.3-0.3,0.3-0.6V35.3l11-5.5v24.9c0,0.4,0.3,0.6,0.6,0.6c0.4,0,0.6-0.3,0.6-0.6V28.8c0-0.1,0-0.1,0-0.2l0,0
		c0,0,0-0.1-0.1-0.1l0,0l-0.1-0.1l0,0l-0.1-0.1l0,0L44,12c-0.2-0.1-0.4-0.1-0.6,0l-18.2,9.1c-0.2,0-0.4,0.1-0.5,0.3L11,28.2l0,0
		c0,0-0.1,0-0.1,0.1l0,0l-0.1,0.1l0,0c0,0,0,0.1-0.1,0.1l0,0c0,0.1,0,0.1,0,0.2V71c0,0.2,0.1,0.5,0.4,0.6L43.4,88l0,0h0.1l0,0h0.1
		h0.1l0,0h0.1l0,0l16-8.1c0.3-0.2,0.4-0.6,0.3-0.9C60,78.7,59.7,78.6,59.2,78.7z M57.4,37.2L26.6,21.8l5-2.5l31,15.5l-5,2.5
		C57.5,37.3,57.5,37.2,57.4,37.2z M63.2,50.7l-5.4,2.9v-15l5.4-2.7V50.7z M43.7,13.3l31,15.5L64,34.1L33,18.6L43.7,13.3z M25.1,22.5
		l31,15.5l-12.6,6.3l-31-15.5L25.1,22.5z M11.8,29.9L43,45.4v40.9L11.8,70.6V29.9z"/>
</g>
</svg>
