<?xml version="1.0" encoding="utf-8"?>
<!-- Generator: Adobe Illustrator 24.2.0, SVG Export Plug-In . SVG Version: 6.00 Build 0)  -->
<svg version="1.1" id="Layer_1" xmlns="http://www.w3.org/2000/svg" xmlns:xlink="http://www.w3.org/1999/xlink" x="0px" y="0px"
	 viewBox="0 0 100 100" style="enable-background:new 0 0 100 100;" xml:space="preserve">
<style type="text/css">
	.st0{fill:#FFFFFF;}
</style>
<g>
	<g>
		<path d="M87.3,59.8C87.3,59.8,87.3,59.8,87.3,59.8c0-2.2-1.3-4-3.2-4.8c-0.6-0.3-1.3-0.4-2-0.4h-3.6v-9.9c0,0,0,0,0,0
			c0-1.9-1-3.6-2.5-4.6c-0.9-0.6-2-1-3.1-1H61.6v-6.8c0-0.4-0.4-0.8-0.8-0.8H13.5c-0.4,0-0.8,0.4-0.8,0.8v38.5v4.2
			c0,0.4,0.4,0.8,0.8,0.8h5.6c0.4,3.1,3,5.5,6.2,5.5c3.2,0,5.8-2.4,6.2-5.5H63c0.4,3.1,3,5.5,6.2,5.5s5.8-2.4,6.2-5.5h11.1
			c0.4,0,0.8-0.4,0.8-0.8v-4.2c0,0,0,0,0,0V59.8z M72.9,70c-1-0.8-2.3-1.2-3.7-1.2c-1.4,0-2.7,0.5-3.7,1.2h-3.9V56.2h15.2V70H72.9z
			 M63,74.3H31.5c-0.1-1-0.5-1.8-1-2.6h30.2h3.2C63.4,72.4,63.1,73.3,63,74.3z M21.6,70h-7.3V33.1H60v6.8c0,0,0,0,0,0c0,0,0,0,0,0
			v15.4c0,0,0,0,0,0s0,0,0,0V70H29c-1-0.8-2.3-1.2-3.7-1.2C23.9,68.8,22.6,69.2,21.6,70z M82,56.2C82,56.2,82,56.2,82,56.2
			c0.5,0,1,0.1,1.4,0.3c1.3,0.6,2.2,1.8,2.2,3.3V70h-7.2V56.2H82z M72.9,40.7C72.9,40.7,72.9,40.7,72.9,40.7c0.8,0,1.6,0.2,2.2,0.7
			c1,0.7,1.7,1.9,1.7,3.3v9.9H61.6V40.7L72.9,40.7L72.9,40.7z M14.3,71.6h5.7c-0.5,0.8-0.8,1.7-1,2.6h-4.8L14.3,71.6L14.3,71.6z
			 M25.3,79.7c-2.6,0-4.6-2.1-4.6-4.6c0-2.6,2.1-4.6,4.6-4.6s4.6,2.1,4.6,4.6C30,77.6,27.9,79.7,25.3,79.7z M69.2,79.7
			c-2.6,0-4.6-2.1-4.6-4.6c0-2.6,2.1-4.6,4.6-4.6c2.6,0,4.6,2.1,4.6,4.6c0,0,0,0,0,0c0,0,0,0,0,0C73.8,77.6,71.8,79.7,69.2,79.7z
			 M75.4,74.3c-0.1-1-0.5-1.8-1-2.6h3.2c0,0,0,0,0,0h8.1v2.6H75.4z"/>
		<path class="st0" d="M69.2,81.5c-3.2,0-5.9-2.3-6.3-5.5H31.6c-0.5,3.1-3.2,5.5-6.3,5.5c-3.2,0-5.9-2.3-6.3-5.5h-5.5
			c-0.5,0-0.9-0.4-0.9-0.9V32.3c0-0.5,0.4-0.9,0.9-0.9h47.3c0.5,0,0.9,0.4,0.9,0.9V39h11.1c1.1,0,2.2,0.3,3.2,1
			c1.6,1.1,2.5,2.8,2.5,4.7l0,9.8H82c0.7,0,1.4,0.1,2.1,0.4c2,0.8,3.3,2.8,3.3,5l0,15.3c0,0.5-0.4,0.9-0.9,0.9h-11
			C75.1,79.1,72.4,81.5,69.2,81.5z M31.4,75.7h31.7l0,0.1c0.4,3.1,3,5.4,6.1,5.4s5.7-2.3,6.1-5.4l0-0.1h11.2c0.4,0,0.7-0.3,0.7-0.7
			l0-15.3c0-2.1-1.2-3.9-3.1-4.7c-0.6-0.3-1.3-0.4-2-0.4h-3.8v-10c0-1.8-0.9-3.5-2.4-4.5c-0.9-0.6-1.9-0.9-3-0.9H61.5v-6.9
			c0-0.4-0.3-0.7-0.7-0.7H13.5c-0.4,0-0.7,0.3-0.7,0.7v42.8c0,0.4,0.3,0.7,0.7,0.7h5.7l0,0.1c0.4,3.1,3,5.4,6.1,5.4
			c3.1,0,5.7-2.3,6.1-5.4L31.4,75.7z M69.2,79.8c-2.6,0-4.8-2.1-4.8-4.8s2.1-4.8,4.8-4.8c2.6,0,4.8,2.1,4.8,4.8
			C74,77.7,71.8,79.8,69.2,79.8z M69.2,70.5c-2.5,0-4.5,2-4.5,4.5s2,4.5,4.5,4.5c2.5,0,4.5-2,4.5-4.5C73.7,72.6,71.7,70.5,69.2,70.5
			z M25.3,79.8c-2.6,0-4.8-2.1-4.8-4.8s2.1-4.8,4.8-4.8c2.6,0,4.8,2.1,4.8,4.8S27.9,79.8,25.3,79.8z M25.3,70.5
			c-2.5,0-4.5,2-4.5,4.5s2,4.5,4.5,4.5c2.5,0,4.5-2,4.5-4.5S27.8,70.5,25.3,70.5z M85.8,74.4H75.3l0-0.1c-0.1-0.9-0.4-1.8-0.9-2.6
			l-0.1-0.2h11.6V74.4z M75.5,74.1h10v-2.4H74.7C75.1,72.5,75.4,73.3,75.5,74.1z M63.1,74.4H31.4l0-0.1c-0.1-0.9-0.4-1.8-0.9-2.6
			l-0.1-0.2h33.8L64,71.7c-0.5,0.8-0.8,1.7-0.9,2.6L63.1,74.4z M31.6,74.1h31.2c0.1-0.8,0.4-1.6,0.8-2.4H30.8
			C31.2,72.5,31.5,73.3,31.6,74.1z M19.2,74.4h-5v-2.9h6.1l-0.1,0.2c-0.5,0.8-0.8,1.6-0.9,2.6L19.2,74.4z M14.5,74.1H19
			c0.1-0.8,0.4-1.6,0.8-2.4h-5.4L14.5,74.1z M60.1,70.1H29l0,0c-1.1-0.8-2.3-1.2-3.6-1.2c0,0,0,0,0,0c-1.3,0-2.6,0.4-3.6,1.2l0,0
			h-7.4V33h45.9V70.1z M29.1,69.9h30.8V33.2H14.5v36.6h7.1c1.1-0.8,2.4-1.2,3.8-1.2c0,0,0,0,0,0C26.7,68.7,28,69.1,29.1,69.9z
			 M85.8,70.1h-7.5V56.1H82c0.5,0,1,0.1,1.5,0.3c1.4,0.6,2.3,1.9,2.3,3.5V70.1z M78.5,69.9h7V59.8c0-1.4-0.8-2.7-2.1-3.2
			c-0.4-0.2-0.9-0.3-1.4-0.3h-3.5V69.9z M76.9,70.1h-4l0,0c-1.1-0.8-2.3-1.2-3.6-1.2s-2.6,0.4-3.6,1.2l0,0h-4V56.1h15.5V70.1z
			 M73,69.9h3.7V56.3h-15v13.6h3.7c1.1-0.8,2.4-1.2,3.8-1.2S71.9,69.1,73,69.9z M76.9,54.7H61.5V40.6l11.5,0c0.8,0,1.5,0.3,2.1,0.7
			c1.1,0.8,1.8,2,1.8,3.4V54.7z M61.7,54.4h15v-9.8c0-1.3-0.6-2.4-1.7-3.2c-0.6-0.4-1.4-0.6-2.1-0.6l-11.1,0V54.4z"/>
	</g>
	<g>
		<path d="M68.1,58.4h-3.7c-0.5,0-0.8,0.4-0.8,0.8c0,0.4,0.4,0.8,0.8,0.8h3.7c0.4,0,0.8-0.4,0.8-0.8C68.9,58.8,68.6,58.4,68.1,58.4z
			"/>
		<path class="st0" d="M68.1,60.2h-3.7c-0.5,0-0.9-0.4-0.9-0.9s0.4-0.9,0.9-0.9h3.7c0.5,0,0.9,0.4,0.9,0.9S68.6,60.2,68.1,60.2z
			 M64.5,58.6c-0.4,0-0.7,0.3-0.7,0.7s0.3,0.7,0.7,0.7h3.7c0.4,0,0.7-0.3,0.7-0.7s-0.3-0.7-0.7-0.7H64.5z"/>
	</g>
	<g>
		<path d="M35.8,67.2h7.3c0,0,0,0,0,0c0,0,0.1,0,0.1,0c0,0,0.1,0,0.1,0c0,0,0,0,0.1,0c0,0,0.1,0,0.1,0c0,0,0,0,0.1,0
			c0,0,0.1-0.1,0.1-0.1l8.7-8.7c0,0,0.1-0.1,0.1-0.1c0,0,0,0,0,0c0,0,0-0.1,0.1-0.1c0,0,0,0,0-0.1c0,0,0-0.1,0-0.1c0,0,0-0.1,0-0.1
			c0,0,0,0,0,0v-21c0,0,0,0,0,0c0,0,0-0.1,0-0.1c0,0,0-0.1,0-0.1c0,0,0,0,0-0.1c0,0,0-0.1-0.1-0.1c0,0,0,0,0,0
			c-0.1-0.1-0.1-0.2-0.2-0.2c0,0,0,0,0,0c0,0-0.1,0-0.1-0.1c0,0,0,0,0,0c0,0-0.1,0-0.1,0c0,0,0,0-0.1,0c0,0-0.1,0-0.1,0h-21
			c0,0-0.1,0-0.1,0c0,0,0,0,0,0c0,0-0.1,0-0.1,0c0,0,0,0,0,0c0,0-0.1,0-0.1,0.1c0,0,0,0,0,0c0,0-0.1,0.1-0.1,0.1l-8.7,8.7
			c0,0,0,0,0,0c0,0-0.1,0.1-0.1,0.1c0,0,0,0,0,0.1c0,0,0,0,0,0.1c0,0,0,0.1,0,0.1c0,0,0,0,0,0.1c0,0.1,0,0.1,0,0.2v21
			c0,0.4,0.4,0.8,0.8,0.8h7.3L35.8,67.2L35.8,67.2z M30.3,65.5v-6.7l1.9,1.3l0,0c0,0,0.1,0,0.1,0.1c0,0,0,0,0,0c0,0,0,0,0.1,0
			c0,0,0,0,0,0c0,0,0,0,0.1,0c0,0,0,0,0,0c0,0,0.1,0,0.1,0c0,0,0,0,0,0l0,0c0,0,0,0,0,0c0,0,0,0,0,0c0,0,0.1,0,0.1,0c0,0,0,0,0,0
			c0,0,0,0,0.1,0c0,0,0,0,0,0c0,0,0,0,0.1,0c0,0,0,0,0,0c0,0,0.1,0,0.1-0.1l0,0l1.9-1.3v6.7H30.3z M33.1,51.5
			C33.1,51.5,33.1,51.5,33.1,51.5C33.1,51.5,33,51.5,33.1,51.5c-0.1-0.1-0.1-0.1-0.2-0.1c0,0-0.1,0-0.1,0c0,0-0.1,0-0.1,0
			c0,0,0,0-0.1,0c0,0-0.1,0-0.1,0c0,0-0.1,0-0.1,0c0,0-0.1,0-0.1,0c0,0,0,0-0.1,0c0,0-0.1,0-0.1,0c0,0,0,0-0.1,0c0,0-0.1,0-0.1,0
			c0,0,0,0,0,0l-1.9,1.3v-6.7H35v6.7L33.1,51.5z M31.2,37.4h5l-7.1,7.1h-5L31.2,37.4z M42.5,37.4l-7.1,7.1h-4l7.1-7.1H42.5z
			 M44.8,37.4h5l-7.1,7.1h-5L44.8,37.4z M51,57.3L44,64.4V45.7l7.1-7.1V57.3z M22.9,46.1h5.7v8.2c0,0,0,0,0,0c0,0.1,0,0.1,0,0.2
			c0,0.1,0.1,0.2,0.1,0.3c0,0,0,0,0,0c0,0,0.1,0.1,0.1,0.1c0,0,0,0,0,0c0,0,0.1,0.1,0.1,0.1c0,0,0,0,0,0c0,0,0.1,0,0.1,0.1
			c0,0,0,0,0,0c0,0,0.1,0,0.1,0c0,0,0,0,0,0c0,0,0.1,0,0.1,0h0l0,0l0,0c0,0,0.1,0,0.1,0c0,0,0,0,0,0c0,0,0.1,0,0.1,0c0,0,0,0,0,0
			c0,0,0.1,0,0.1-0.1c0,0,0,0,0,0c0,0,0,0,0,0l2.7-1.9l2.7,1.9c0,0,0,0,0,0c0,0,0,0,0,0c0,0,0.1,0,0.1,0.1c0,0,0,0,0,0
			c0,0,0.1,0,0.1,0c0,0,0,0,0,0c0,0,0.1,0,0.1,0l0,0l0,0c0,0,0,0,0,0c0,0,0.1,0,0.1,0c0,0,0,0,0,0c0,0,0.1,0,0.1,0c0,0,0,0,0,0
			c0,0,0.1,0,0.1-0.1c0,0,0,0,0,0c0,0,0.1-0.1,0.1-0.1c0,0,0,0,0,0c0,0,0.1-0.1,0.1-0.1c0,0,0,0,0,0c0,0,0.1-0.1,0.1-0.2
			c0-0.1,0.1-0.2,0.1-0.3c0,0,0,0,0,0v-8.2h5.7v19.4h-5.7v-8.2c0,0,0,0,0,0c0-0.1,0-0.2-0.1-0.3c0-0.1,0-0.1-0.1-0.1c0,0,0,0,0,0
			c0,0,0,0,0,0c0,0,0-0.1-0.1-0.1c0,0,0,0-0.1-0.1c0,0,0,0-0.1,0c0,0,0,0-0.1,0c0,0,0,0-0.1,0c0,0-0.1,0-0.1,0c0,0,0,0-0.1,0
			c0,0-0.1,0-0.1,0c0,0,0,0,0,0c0,0,0,0,0,0c-0.1,0-0.2,0-0.3,0.1c-0.1,0-0.1,0-0.1,0.1c0,0,0,0,0,0l-2.7,1.9l-2.7-1.9c0,0,0,0,0,0
			c0,0-0.1-0.1-0.1-0.1c-0.1,0-0.2-0.1-0.3-0.1c0,0,0,0,0,0c0,0,0,0,0,0c0,0-0.1,0-0.1,0c0,0,0,0-0.1,0c0,0-0.1,0-0.1,0
			c0,0,0,0-0.1,0c0,0-0.1,0-0.1,0c0,0,0,0-0.1,0c0,0,0,0-0.1,0.1c0,0,0,0.1-0.1,0.1c0,0,0,0,0,0c0,0,0,0,0,0c0,0-0.1,0.1-0.1,0.1
			c0,0.1-0.1,0.2-0.1,0.3c0,0,0,0,0,0v8.2h-5.7L22.9,46.1L22.9,46.1z"/>
		<path class="st0" d="M43.1,67.3h-21c-0.5,0-0.9-0.4-0.9-0.9v-21c0-0.1,0-0.1,0-0.2c0,0,0,0,0-0.1l0.1,0l-0.1,0c0,0,0,0,0-0.1
			c0,0,0-0.1,0-0.1c0,0,0-0.1,0-0.1c0,0,0.1-0.1,0.1-0.1l8.7-8.7c0,0,0.1-0.1,0.1-0.1c0.1,0,0.1-0.1,0.2-0.1l0,0c0,0,0.1,0,0.1,0
			l0,0c0,0,0.1,0,0.1,0h21c0,0,0.1,0,0.1,0l0,0.1l0-0.1c0,0,0,0,0,0c0,0,0.1,0,0.1,0c0,0,0,0,0,0c0,0,0.1,0,0.1,0.1l0,0
			c0.1,0.1,0.2,0.2,0.3,0.3v0l0,0c0,0,0,0.1,0.1,0.1c0,0,0,0,0,0.1l0,0c0,0,0,0.1,0,0.1c0,0,0,0.1,0,0.1c0,0,0,0,0,0l0,21.1
			c0,0.1,0,0.1,0,0.1c0,0,0,0.1,0,0.1l-0.1,0l0.1,0c0,0,0,0,0,0c0,0,0,0.1-0.1,0.1l0,0.1c0,0.1-0.1,0.1-0.1,0.1L43.8,67
			c0,0-0.1,0.1-0.1,0.1c0,0,0,0-0.1,0c0,0-0.1,0-0.1,0.1c0,0,0,0-0.1,0l-0.1,0c0,0,0,0-0.1,0C43.3,67.3,43.2,67.3,43.1,67.3
			C43.2,67.3,43.2,67.3,43.1,67.3z M30.8,35.9c0,0-0.1,0-0.1,0c-0.1,0-0.1,0-0.1,0c-0.1,0-0.1,0-0.1,0.1c-0.1,0-0.1,0.1-0.1,0.1
			l-8.7,8.7c0,0-0.1,0.1-0.1,0.1l0,0.1c0,0,0,0,0,0.1c0,0,0,0,0,0l0,0.1c0,0,0,0.1,0,0.1v21c0,0.4,0.3,0.7,0.7,0.7h21c0,0,0,0,0,0
			c0,0,0.1,0,0.1,0c0,0,0,0,0,0l0.1,0c0.1,0,0.1,0,0.1,0l0,0c0.1,0,0.1-0.1,0.1-0.1l8.7-8.7c0,0,0.1-0.1,0.1-0.1l0,0
			c0,0,0-0.1,0-0.1l0-0.1c0,0,0-0.1,0-0.1c0,0,0-0.1,0-0.1l0-21.1c0,0,0,0,0,0c0,0,0-0.1,0-0.1c0,0,0,0,0,0l0-0.1c0,0,0-0.1,0-0.1
			c0,0,0,0,0,0c0-0.1-0.1-0.1-0.2-0.2l0,0c0,0-0.1,0-0.1,0c0,0,0,0,0,0c0,0-0.1,0-0.1,0l-0.1,0c0,0,0,0-0.1,0H30.8z M42.5,65.7h-6
			v-8.4c0-0.1,0-0.2-0.1-0.3c0,0,0-0.1-0.1-0.1l0,0c0,0,0,0,0,0c0,0,0,0-0.1-0.1c0,0,0,0,0,0l-0.1-0.1c0,0,0,0,0,0l-0.1,0
			c0,0,0,0,0,0l0,0c0,0,0,0,0,0c0,0-0.1,0-0.1,0l0,0c0,0,0,0,0,0c-0.1,0-0.2,0-0.3,0.1c0,0-0.1,0-0.1,0.1l0,0l-2.7,1.9l-2.8-1.9
			c0,0-0.1,0-0.1-0.1c-0.1,0-0.2-0.1-0.3-0.1c0,0,0,0,0,0c0,0-0.1,0-0.1,0l-0.1,0c0,0-0.1,0-0.1,0c0,0,0,0-0.1,0l0,0c0,0,0,0,0,0
			c0,0,0,0,0,0l0,0c0,0,0,0,0,0c0,0,0,0,0,0.1c0,0,0,0,0,0h0c0,0,0,0,0,0c0,0,0,0.1-0.1,0.1c0,0.1-0.1,0.2-0.1,0.3v8.4h-6V46h6v8.4
			c0,0,0,0.1,0,0.1c0,0.1,0.1,0.2,0.1,0.2l0,0c0,0,0,0.1,0.1,0.1l0,0c0,0,0,0,0.1,0h0l0,0c0,0,0,0,0.1,0c0.1,0,0.1,0,0.1,0
			c0.1,0,0.2,0,0.3,0l0,0c0,0,0.1,0,0.1,0l0,0c0,0,0.1,0,0.1,0l0,0l2.8-1.9l2.8,1.9c0,0,0.1,0,0.1,0l0,0.1l0-0.1c0,0,0.1,0,0.1,0
			l0,0c0.1,0,0.2,0,0.2,0c0.1,0,0.1,0,0.1,0l0,0c0,0,0.1,0,0.1-0.1l0,0c0,0,0.1,0,0.1-0.1l0,0c0,0,0,0,0.1-0.1l0,0
			c0,0,0.1-0.1,0.1-0.1c0-0.1,0-0.2,0-0.3V46h6V65.7z M36.7,65.4h5.5V46.3h-5.5v8.1c0,0.1,0,0.2-0.1,0.3c0,0.1,0,0.1-0.1,0.1v0l0,0
			c0,0-0.1,0.1-0.1,0.1l0,0c0,0-0.1,0.1-0.1,0.1l0,0c0,0-0.1,0-0.1,0.1l0,0c0,0-0.1,0-0.2,0l0,0c-0.1,0-0.2,0-0.3,0c0,0,0,0,0,0
			c0,0-0.1,0-0.1,0c0,0,0,0-0.1,0c0,0-0.1,0-0.1-0.1h0l0,0l-2.6-1.8L30,55.2c-0.1,0-0.1,0.1-0.1,0.1l0,0c0,0-0.1,0-0.1,0
			c0,0,0,0,0,0c-0.1,0-0.2,0-0.3,0l0,0l0,0c-0.1,0-0.1,0-0.2,0c0,0,0,0,0,0c0,0-0.1,0-0.1,0h0l0,0c0,0-0.1-0.1-0.1-0.1l0,0
			c0,0-0.1-0.1-0.1-0.1l0,0c-0.1-0.1-0.1-0.2-0.1-0.3c0-0.1,0-0.1,0-0.2v-8.1h-5.5v19.1h5.5v-8.1c0-0.1,0-0.2,0.1-0.4
			c0,0,0-0.1,0.1-0.1v0l0,0c0,0,0,0,0,0l0,0c0,0,0-0.1,0.1-0.1c0,0,0,0,0.1,0l0.1,0.1l-0.1-0.1c0,0,0,0,0.1,0c0,0,0,0,0.1,0
			c0,0,0.1,0,0.1,0c0,0,0.1,0,0.1,0l0.1,0.1l0-0.1c0,0,0,0,0.1,0c0,0,0.1,0,0.1,0c0,0,0,0,0,0c0.1,0,0.2,0,0.4,0.1
			c0,0,0.1,0,0.1,0.1h0l2.7,1.8l2.7-1.8c0,0,0.1-0.1,0.1-0.1c0.1,0,0.2-0.1,0.4-0.1l0,0c0,0,0.1,0,0.1,0c0,0,0,0,0.1,0v0.1l0-0.1
			c0,0,0.1,0,0.1,0l0.1,0l0,0.1l0.1-0.1c0,0,0,0,0.1,0l0.1,0l0,0.1l0.1-0.1c0,0,0,0,0.1,0c0,0,0,0,0.1,0.1l0,0c0,0,0,0,0,0l0,0
			c0,0,0.1,0.1,0.1,0.1c0,0.1,0.1,0.2,0.1,0.4V65.4z M35.1,65.7h-5v-7.1l2.1,1.4c0,0,0.1,0,0.1,0l0,0.1l0.1-0.1c0,0,0,0,0.1,0l0,0
			c0,0,0,0,0.1,0l0,0c0,0,0.1,0,0.2,0l0,0c0,0,0,0,0.1,0l0.1,0c0.1,0,0.1,0,0.1-0.1l2.1-1.4V65.7z M30.4,65.4h4.5v-6.3l-1.7,1.2
			c0,0-0.1,0-0.1,0.1l0,0l-0.1,0c0,0-0.1,0-0.1,0l0,0c-0.1,0-0.2,0-0.2,0l0,0c0,0-0.1,0-0.1,0l0,0c0,0-0.1,0-0.1,0c0,0,0,0,0,0
			c0,0-0.1,0-0.1-0.1l-1.7-1.2V65.4z M43.8,64.7V45.6l7.3-7.3v19.1l0,0L43.8,64.7z M44.1,45.7v18.4l6.8-6.8V38.9L44.1,45.7z
			 M30.2,53.1V46h5v7.1L33,51.6h0c0,0,0,0-0.1,0c0,0,0,0-0.1,0c0,0,0,0-0.1,0c0,0-0.1,0-0.1,0c0,0,0,0,0,0l0,0c0,0-0.1,0-0.1,0l0,0
			c0,0,0,0-0.1,0l-0.1,0c0,0,0,0-0.1,0l-0.1,0c0,0,0,0-0.1,0L30.2,53.1z M30.4,46.3v6.3l1.7-1.2c0,0,0.1,0,0.1-0.1l0.1,0.1l-0.1-0.1
			c0,0,0,0,0,0c0,0,0.1,0,0.1,0l0.1,0.1l0-0.1c0,0,0,0,0.1,0c0,0,0.1,0,0.1,0c0.1,0,0.1,0,0.2,0l0,0.1l0-0.1c0,0,0,0,0.1,0
			c0,0,0,0,0.1,0c0,0,0.1,0,0.1,0c0,0,0,0,0.1,0c0,0,0.1,0,0.1,0.1l-0.1,0.1l0.1-0.1l1.7,1.2v-6.3H30.4z M42.9,44.6h-5.4l7.3-7.3
			h5.4L42.9,44.6z M38.1,44.4h4.7l6.8-6.8h-4.7L38.1,44.4z M35.5,44.6h-4.4l7.3-7.3h4.4L35.5,44.6z M31.7,44.4h3.7l6.8-6.8h-3.7
			L31.7,44.4z M29.2,44.6h-5.4l7.3-7.3h5.4L29.2,44.6z M24.4,44.4h4.7l6.8-6.8h-4.7L24.4,44.4z"/>
	</g>
	<g>
		<path d="M13.5,28.9h41.4c0.4,0,0.8-0.4,0.8-0.8c0-0.4-0.4-0.8-0.8-0.8H13.5c-0.4,0-0.8,0.4-0.8,0.8C12.7,28.6,13.1,28.9,13.5,28.9
			z"/>
		<path class="st0" d="M54.9,29H13.5c-0.5,0-0.9-0.4-0.9-0.9c0-0.5,0.4-0.9,0.9-0.9h41.4c0.5,0,0.9,0.4,0.9,0.9
			C55.8,28.6,55.4,29,54.9,29z M13.5,27.4c-0.4,0-0.7,0.3-0.7,0.7c0,0.4,0.3,0.7,0.7,0.7h41.4c0.4,0,0.7-0.3,0.7-0.7
			c0-0.4-0.3-0.7-0.7-0.7H13.5z"/>
	</g>
	<g>
		<path d="M13.5,24.6h29.1c0.4,0,0.8-0.4,0.8-0.8c0-0.4-0.4-0.8-0.8-0.8H13.5c-0.4,0-0.8,0.4-0.8,0.8C12.7,24.2,13.1,24.6,13.5,24.6
			z"/>
		<path class="st0" d="M42.6,24.7H13.5c-0.5,0-0.9-0.4-0.9-0.9c0-0.5,0.4-0.9,0.9-0.9h29.1c0.5,0,0.9,0.4,0.9,0.9
			C43.5,24.3,43.1,24.7,42.6,24.7z M13.5,23.1c-0.4,0-0.7,0.3-0.7,0.7c0,0.4,0.3,0.7,0.7,0.7h29.1c0.4,0,0.7-0.3,0.7-0.7
			c0-0.4-0.3-0.7-0.7-0.7H13.5z"/>
	</g>
	<g>
		<path d="M13.5,20.3h15.2c0.4,0,0.8-0.4,0.8-0.8c0-0.4-0.4-0.8-0.8-0.8H13.5c-0.4,0-0.8,0.4-0.8,0.8C12.7,19.9,13.1,20.3,13.5,20.3
			z"/>
		<path class="st0" d="M28.8,20.4H13.5c-0.5,0-0.9-0.4-0.9-0.9s0.4-0.9,0.9-0.9h15.2c0.5,0,0.9,0.4,0.9,0.9S29.3,20.4,28.8,20.4z
			 M13.5,18.8c-0.4,0-0.7,0.3-0.7,0.7c0,0.4,0.3,0.7,0.7,0.7h15.2c0.4,0,0.7-0.3,0.7-0.7c0-0.4-0.3-0.7-0.7-0.7H13.5z"/>
	</g>
</g>
</svg>
