<?xml version="1.0" encoding="utf-8"?>
<!-- Generator: Adobe Illustrator 24.2.0, SVG Export Plug-In . SVG Version: 6.00 Build 0)  -->
<svg version="1.1"
	 id="Layer_1" xmlns:cc="http://creativecommons.org/ns#" xmlns:dc="http://purl.org/dc/elements/1.1/" xmlns:inkscape="http://www.inkscape.org/namespaces/inkscape" xmlns:rdf="http://www.w3.org/1999/02/22-rdf-syntax-ns#" xmlns:sodipodi="http://sodipodi.sourceforge.net/DTD/sodipodi-0.dtd" xmlns:svg="http://www.w3.org/2000/svg"
	 xmlns="http://www.w3.org/2000/svg" xmlns:xlink="http://www.w3.org/1999/xlink" x="0px" y="0px" viewBox="0 0 100 100"
	 style="enable-background:new 0 0 100 100;" xml:space="preserve">
<g transform="translate(0,-952.36218)">
	<path d="M46.8,968.5c-6.2,0-11.8,1.3-16,3.3c-4.1,2.1-6.9,5-6.9,8.5v9.5v28.4c0,3.5,2.8,6.4,6.9,8.5c4.1,2.1,9.8,3.3,16,3.3
		c2.3,0,4.5-0.2,6.6-0.5c1.9,4,6,6.8,10.7,6.8c6.5,0,11.8-5.3,11.8-11.8c0-4.5-2.6-8.5-6.3-10.4v-24.2v-9.5c0-3.5-2.8-6.4-6.9-8.5
		C58.7,969.7,53,968.5,46.8,968.5z M46.8,970.1c6,0,11.4,1.2,15.2,3.2c3.8,1.9,6,4.5,6,7.1c0,2.6-2.2,5.2-6,7.1
		c-3.8,1.9-9.3,3.2-15.2,3.2s-11.4-1.2-15.2-3.2c-3.8-1.9-6-4.5-6-7.1s2.2-5.2,6-7.1C35.5,971.3,40.9,970.1,46.8,970.1z M25.6,984.7
		c1.2,1.6,3.1,3,5.3,4.1c4.1,2.1,9.8,3.3,16,3.3s11.8-1.3,16-3.3c2.3-1.1,4.1-2.5,5.3-4.1v5.1c0,2.6-2.2,5.2-6,7.1
		c-3.8,1.9-9.3,3.2-15.2,3.2s-11.4-1.2-15.2-3.2c-3.8-1.9-6-4.5-6-7.1V984.7z M25.6,994.1c1.2,1.6,3.1,3,5.3,4.1
		c4.1,2.1,9.8,3.3,16,3.3s11.8-1.3,16-3.3c2.3-1.1,4.1-2.5,5.3-4.1v5.1c0,2.6-2.2,5.2-6,7.1s-9.3,3.2-15.2,3.2s-11.4-1.2-15.2-3.2
		s-6-4.5-6-7.1V994.1z M25.6,1003.6c1.2,1.6,3.1,3,5.3,4.1c4.1,2.1,9.8,3.3,16,3.3s11.8-1.3,16-3.3c2.3-1.1,4.1-2.5,5.3-4.1v5.1
		c0,1.4-0.7,2.8-1.9,4.1c-0.7-0.1-1.4-0.2-2.1-0.2c-4.3,0-8,2.3-10.1,5.7c-2.3,0.4-4.7,0.6-7.3,0.6c-6,0-11.4-1.2-15.2-3.2
		c-3.8-1.9-6-4.5-6-7.1V1003.6z M25.6,1013c1.2,1.6,3.1,3,5.3,4.1c4.1,2.1,9.8,3.3,16,3.3c2.2,0,4.4-0.2,6.4-0.5
		c-0.6,1.4-0.9,2.9-0.9,4.4c0,1.2,0.2,2.4,0.5,3.5c-1.9,0.3-3.9,0.4-6.1,0.4c-6,0-11.4-1.2-15.2-3.2c-3.8-1.9-6-4.5-6-7.1V1013z
		 M68.1,1013v0.3c-0.1,0-0.1,0-0.2,0C68,1013.2,68.1,1013.1,68.1,1013L68.1,1013z M64.2,1014.2c5.7,0,10.2,4.6,10.2,10.2
		c0,5.7-4.6,10.2-10.2,10.2s-10.2-4.6-10.2-10.2C53.9,1018.8,58.5,1014.2,64.2,1014.2z M64.2,1018.1c-0.4,0-0.8,0.4-0.8,0.8v4.7
		h-4.7c-0.4,0-0.8,0.4-0.8,0.8c0,0.4,0.4,0.8,0.8,0.8h4.7v4.7c0,0.4,0.4,0.8,0.8,0.8c0.4,0,0.8-0.4,0.8-0.8v-4.7h4.7
		c0.4,0,0.8-0.4,0.8-0.8c0-0.4-0.4-0.8-0.8-0.8H65v-4.7C65,1018.5,64.6,1018.1,64.2,1018.1z"/>
</g>
</svg>
